G04 #@! TF.GenerationSoftware,KiCad,Pcbnew,7.0.7-7.0.7~ubuntu22.04.1*
G04 #@! TF.CreationDate,2023-09-20T09:52:15-03:00*
G04 #@! TF.ProjectId,CTB-02,4354422d-3032-42e6-9b69-6361645f7063,rev?*
G04 #@! TF.SameCoordinates,Original*
G04 #@! TF.FileFunction,Paste,Top*
G04 #@! TF.FilePolarity,Positive*
%FSLAX46Y46*%
G04 Gerber Fmt 4.6, Leading zero omitted, Abs format (unit mm)*
G04 Created by KiCad (PCBNEW 7.0.7-7.0.7~ubuntu22.04.1) date 2023-09-20 09:52:15*
%MOMM*%
%LPD*%
G01*
G04 APERTURE LIST*
G04 Aperture macros list*
%AMRoundRect*
0 Rectangle with rounded corners*
0 $1 Rounding radius*
0 $2 $3 $4 $5 $6 $7 $8 $9 X,Y pos of 4 corners*
0 Add a 4 corners polygon primitive as box body*
4,1,4,$2,$3,$4,$5,$6,$7,$8,$9,$2,$3,0*
0 Add four circle primitives for the rounded corners*
1,1,$1+$1,$2,$3*
1,1,$1+$1,$4,$5*
1,1,$1+$1,$6,$7*
1,1,$1+$1,$8,$9*
0 Add four rect primitives between the rounded corners*
20,1,$1+$1,$2,$3,$4,$5,0*
20,1,$1+$1,$4,$5,$6,$7,0*
20,1,$1+$1,$6,$7,$8,$9,0*
20,1,$1+$1,$8,$9,$2,$3,0*%
G04 Aperture macros list end*
%ADD10R,1.900000X0.400000*%
%ADD11RoundRect,0.150000X0.150000X-0.587500X0.150000X0.587500X-0.150000X0.587500X-0.150000X-0.587500X0*%
%ADD12RoundRect,0.200000X-0.200000X-0.275000X0.200000X-0.275000X0.200000X0.275000X-0.200000X0.275000X0*%
%ADD13RoundRect,0.200000X0.200000X0.275000X-0.200000X0.275000X-0.200000X-0.275000X0.200000X-0.275000X0*%
%ADD14RoundRect,0.200000X0.275000X-0.200000X0.275000X0.200000X-0.275000X0.200000X-0.275000X-0.200000X0*%
%ADD15RoundRect,0.200000X-0.275000X0.200000X-0.275000X-0.200000X0.275000X-0.200000X0.275000X0.200000X0*%
%ADD16R,1.500000X2.000000*%
%ADD17R,3.800000X2.000000*%
%ADD18RoundRect,0.150000X-0.150000X0.587500X-0.150000X-0.587500X0.150000X-0.587500X0.150000X0.587500X0*%
%ADD19RoundRect,0.250000X0.650000X-0.325000X0.650000X0.325000X-0.650000X0.325000X-0.650000X-0.325000X0*%
%ADD20RoundRect,0.225000X0.250000X-0.225000X0.250000X0.225000X-0.250000X0.225000X-0.250000X-0.225000X0*%
%ADD21RoundRect,0.218750X0.256250X-0.218750X0.256250X0.218750X-0.256250X0.218750X-0.256250X-0.218750X0*%
%ADD22RoundRect,0.225000X0.225000X0.250000X-0.225000X0.250000X-0.225000X-0.250000X0.225000X-0.250000X0*%
%ADD23RoundRect,0.150000X-0.512500X-0.150000X0.512500X-0.150000X0.512500X0.150000X-0.512500X0.150000X0*%
%ADD24RoundRect,0.250000X1.100000X-0.325000X1.100000X0.325000X-1.100000X0.325000X-1.100000X-0.325000X0*%
%ADD25RoundRect,0.250000X0.475000X-0.250000X0.475000X0.250000X-0.475000X0.250000X-0.475000X-0.250000X0*%
%ADD26RoundRect,0.150000X-0.587500X-0.150000X0.587500X-0.150000X0.587500X0.150000X-0.587500X0.150000X0*%
%ADD27RoundRect,0.225000X-0.250000X0.225000X-0.250000X-0.225000X0.250000X-0.225000X0.250000X0.225000X0*%
%ADD28RoundRect,0.250000X-0.475000X0.250000X-0.475000X-0.250000X0.475000X-0.250000X0.475000X0.250000X0*%
%ADD29RoundRect,0.150000X-0.825000X-0.150000X0.825000X-0.150000X0.825000X0.150000X-0.825000X0.150000X0*%
%ADD30RoundRect,0.250000X-0.650000X0.325000X-0.650000X-0.325000X0.650000X-0.325000X0.650000X0.325000X0*%
%ADD31RoundRect,0.075000X-0.662500X-0.075000X0.662500X-0.075000X0.662500X0.075000X-0.662500X0.075000X0*%
%ADD32RoundRect,0.075000X-0.075000X-0.662500X0.075000X-0.662500X0.075000X0.662500X-0.075000X0.662500X0*%
%ADD33RoundRect,0.250000X-1.100000X0.325000X-1.100000X-0.325000X1.100000X-0.325000X1.100000X0.325000X0*%
G04 APERTURE END LIST*
D10*
X145300000Y-86900000D03*
X145300000Y-88100000D03*
X145300000Y-89300000D03*
D11*
X129750000Y-106287500D03*
X131650000Y-106287500D03*
X130700000Y-104412500D03*
D12*
X133875000Y-83600000D03*
X135525000Y-83600000D03*
D13*
X170225000Y-97412500D03*
X168575000Y-97412500D03*
D14*
X139650000Y-88775000D03*
X139650000Y-87125000D03*
X164500000Y-99175000D03*
X164500000Y-97525000D03*
X168400000Y-94675000D03*
X168400000Y-93025000D03*
D15*
X135750000Y-73925000D03*
X135750000Y-75575000D03*
D12*
X168300000Y-83250000D03*
X169950000Y-83250000D03*
D14*
X161800000Y-99175000D03*
X161800000Y-97525000D03*
D12*
X137112500Y-93812500D03*
X138762500Y-93812500D03*
X134225000Y-77150000D03*
X135875000Y-77150000D03*
D14*
X134000000Y-80325000D03*
X134000000Y-78675000D03*
X160400000Y-94675000D03*
X160400000Y-93025000D03*
D16*
X161700000Y-73750000D03*
X164000000Y-73750000D03*
X166300000Y-73750000D03*
D17*
X164000000Y-67450000D03*
D14*
X165000000Y-94675000D03*
X165000000Y-93025000D03*
D15*
X146250000Y-78425000D03*
X146250000Y-80075000D03*
D18*
X170250000Y-100975000D03*
X168350000Y-100975000D03*
X169300000Y-102850000D03*
D19*
X163600000Y-79875000D03*
X163600000Y-76925000D03*
D20*
X137950000Y-88725000D03*
X137950000Y-87175000D03*
D21*
X162100000Y-94637500D03*
X162100000Y-93062500D03*
D13*
X152075000Y-81550000D03*
X150425000Y-81550000D03*
D16*
X143000000Y-73750000D03*
X145300000Y-73750000D03*
X147600000Y-73750000D03*
D17*
X145300000Y-67450000D03*
D22*
X139875000Y-76550000D03*
X138325000Y-76550000D03*
D20*
X135800000Y-80275000D03*
X135800000Y-78725000D03*
D14*
X142250000Y-80075000D03*
X142250000Y-78425000D03*
D15*
X140150000Y-83675000D03*
X140150000Y-85325000D03*
D12*
X137112500Y-92162500D03*
X138762500Y-92162500D03*
D14*
X147700000Y-100275000D03*
X147700000Y-98625000D03*
X149400000Y-100275000D03*
X149400000Y-98625000D03*
X151200000Y-100275000D03*
X151200000Y-98625000D03*
D12*
X137137500Y-97250000D03*
X138787500Y-97250000D03*
X168575000Y-99112500D03*
X170225000Y-99112500D03*
D23*
X137862500Y-78550000D03*
X137862500Y-79500000D03*
X137862500Y-80450000D03*
X140137500Y-80450000D03*
X140137500Y-78550000D03*
D24*
X135350000Y-89325000D03*
X135350000Y-86375000D03*
D12*
X137112500Y-95512500D03*
X138762500Y-95512500D03*
D25*
X144250000Y-79950000D03*
X144250000Y-78050000D03*
D26*
X153962500Y-72050000D03*
X153962500Y-73950000D03*
X155837500Y-73000000D03*
D22*
X146025000Y-84350000D03*
X144475000Y-84350000D03*
D15*
X166700000Y-93025000D03*
X166700000Y-94675000D03*
D27*
X170400000Y-86575000D03*
X170400000Y-88125000D03*
D28*
X139750000Y-68550000D03*
X139750000Y-70450000D03*
D29*
X163325000Y-85345000D03*
X163325000Y-86615000D03*
X163325000Y-87885000D03*
X163325000Y-89155000D03*
X168275000Y-89155000D03*
X168275000Y-87885000D03*
X168275000Y-86615000D03*
X168275000Y-85345000D03*
D13*
X169375000Y-104712500D03*
X167725000Y-104712500D03*
D27*
X160600000Y-78425000D03*
X160600000Y-79975000D03*
D30*
X158500000Y-71525000D03*
X158500000Y-74475000D03*
D20*
X165900000Y-78575000D03*
X165900000Y-77025000D03*
D31*
X147967500Y-84850000D03*
X147967500Y-85350000D03*
X147967500Y-85850000D03*
X147967500Y-86350000D03*
X147967500Y-86850000D03*
X147967500Y-87350000D03*
X147967500Y-87850000D03*
X147967500Y-88350000D03*
X147967500Y-88850000D03*
X147967500Y-89350000D03*
X147967500Y-89850000D03*
X147967500Y-90350000D03*
D32*
X149380000Y-91762500D03*
X149880000Y-91762500D03*
X150380000Y-91762500D03*
X150880000Y-91762500D03*
X151380000Y-91762500D03*
X151880000Y-91762500D03*
X152380000Y-91762500D03*
X152880000Y-91762500D03*
X153380000Y-91762500D03*
X153880000Y-91762500D03*
X154380000Y-91762500D03*
X154880000Y-91762500D03*
D31*
X156292500Y-90350000D03*
X156292500Y-89850000D03*
X156292500Y-89350000D03*
X156292500Y-88850000D03*
X156292500Y-88350000D03*
X156292500Y-87850000D03*
X156292500Y-87350000D03*
X156292500Y-86850000D03*
X156292500Y-86350000D03*
X156292500Y-85850000D03*
X156292500Y-85350000D03*
X156292500Y-84850000D03*
D32*
X154880000Y-83437500D03*
X154380000Y-83437500D03*
X153880000Y-83437500D03*
X153380000Y-83437500D03*
X152880000Y-83437500D03*
X152380000Y-83437500D03*
X151880000Y-83437500D03*
X151380000Y-83437500D03*
X150880000Y-83437500D03*
X150380000Y-83437500D03*
X149880000Y-83437500D03*
X149380000Y-83437500D03*
D30*
X151200000Y-71225000D03*
X151200000Y-74175000D03*
D33*
X136750000Y-68525000D03*
X136750000Y-71475000D03*
D14*
X152900000Y-100275000D03*
X152900000Y-98625000D03*
D15*
X146000000Y-98625000D03*
X146000000Y-100275000D03*
M02*
