G04 #@! TF.GenerationSoftware,KiCad,Pcbnew,7.0.7-7.0.7~ubuntu22.04.1*
G04 #@! TF.CreationDate,2023-09-20T09:52:15-03:00*
G04 #@! TF.ProjectId,CTB-02,4354422d-3032-42e6-9b69-6361645f7063,rev?*
G04 #@! TF.SameCoordinates,Original*
G04 #@! TF.FileFunction,Copper,L2,Inr*
G04 #@! TF.FilePolarity,Positive*
%FSLAX46Y46*%
G04 Gerber Fmt 4.6, Leading zero omitted, Abs format (unit mm)*
G04 Created by KiCad (PCBNEW 7.0.7-7.0.7~ubuntu22.04.1) date 2023-09-20 09:52:15*
%MOMM*%
%LPD*%
G01*
G04 APERTURE LIST*
G04 #@! TA.AperFunction,ComponentPad*
%ADD10R,1.508000X1.508000*%
G04 #@! TD*
G04 #@! TA.AperFunction,ComponentPad*
%ADD11C,1.508000*%
G04 #@! TD*
G04 #@! TA.AperFunction,ComponentPad*
%ADD12R,1.700000X1.700000*%
G04 #@! TD*
G04 #@! TA.AperFunction,ComponentPad*
%ADD13O,1.700000X1.700000*%
G04 #@! TD*
G04 #@! TA.AperFunction,ComponentPad*
%ADD14C,4.000000*%
G04 #@! TD*
G04 #@! TA.AperFunction,ComponentPad*
%ADD15R,1.600000X1.600000*%
G04 #@! TD*
G04 #@! TA.AperFunction,ComponentPad*
%ADD16C,1.600000*%
G04 #@! TD*
G04 #@! TA.AperFunction,ViaPad*
%ADD17C,0.600000*%
G04 #@! TD*
G04 #@! TA.AperFunction,ViaPad*
%ADD18C,1.000000*%
G04 #@! TD*
G04 #@! TA.AperFunction,ViaPad*
%ADD19C,0.800000*%
G04 #@! TD*
G04 APERTURE END LIST*
D10*
X129650000Y-83625000D03*
D11*
X129650000Y-86125000D03*
X129650000Y-88625000D03*
X129650000Y-91165000D03*
X129650000Y-93705000D03*
X129650000Y-96245000D03*
D12*
X130300000Y-75950000D03*
X157900000Y-78400000D03*
D13*
X155360000Y-78400000D03*
X152820000Y-78400000D03*
X150280000Y-78400000D03*
D14*
X137490000Y-106089669D03*
X162490000Y-106089669D03*
D15*
X144450000Y-104669669D03*
D16*
X147220000Y-104669669D03*
X149990000Y-104669669D03*
X152760000Y-104669669D03*
X155530000Y-104669669D03*
X145835000Y-107509669D03*
X148605000Y-107509669D03*
X151375000Y-107509669D03*
X154145000Y-107509669D03*
D17*
X163600000Y-76900000D03*
D18*
X169900000Y-82050000D03*
X164000000Y-73800000D03*
D17*
X160600000Y-78450000D03*
D18*
X153300000Y-81550000D03*
D17*
X165900000Y-77000000D03*
D18*
X139650000Y-90000500D03*
D17*
X170400000Y-89150000D03*
D18*
X143000000Y-73800000D03*
D17*
X163600000Y-79850000D03*
X139750000Y-68500000D03*
X149800000Y-86800000D03*
X154500000Y-86700000D03*
D19*
X162100000Y-95650000D03*
D17*
X153000000Y-85500000D03*
D18*
X136800000Y-68550000D03*
X161700000Y-73750000D03*
D17*
X151200000Y-71200000D03*
X147700000Y-101250000D03*
X158500000Y-71500000D03*
X146000000Y-101250000D03*
X160600000Y-80000000D03*
X149400000Y-101200000D03*
X143800000Y-88100000D03*
D19*
X169600000Y-94750000D03*
D18*
X167550000Y-99112500D03*
D17*
X134900000Y-80300000D03*
X165900000Y-78600000D03*
X150000000Y-88550000D03*
X144450000Y-84350000D03*
X136137500Y-93862500D03*
X138325000Y-76550000D03*
X153250000Y-90000000D03*
X144250000Y-80000000D03*
D18*
X147500000Y-71250000D03*
D17*
X153962500Y-73037500D03*
D18*
X145300000Y-73750000D03*
X146000000Y-71250000D03*
X143000000Y-69750000D03*
D17*
X151250000Y-74250000D03*
D18*
X147500000Y-69750000D03*
X146000000Y-69750000D03*
D17*
X153200000Y-73000000D03*
D18*
X144500000Y-71250000D03*
X143000000Y-71250000D03*
X144500000Y-69750000D03*
D17*
X157600000Y-85500000D03*
X154880000Y-82200000D03*
X146749502Y-89498911D03*
X146250000Y-81100000D03*
D18*
X140150000Y-82600000D03*
D17*
X140150000Y-79300000D03*
X151150000Y-101200000D03*
X152900000Y-101250000D03*
X151350000Y-85500000D03*
X151700000Y-88250000D03*
D18*
X149300000Y-81550000D03*
D17*
X150000000Y-90100000D03*
X154800000Y-90000000D03*
X154500000Y-85150000D03*
X149800000Y-85200000D03*
X153350000Y-88250000D03*
G04 #@! TA.AperFunction,Conductor*
G36*
X167642121Y-72520002D02*
G01*
X167688614Y-72573658D01*
X167700000Y-72626000D01*
X167700000Y-75750000D01*
X172673500Y-75750000D01*
X172741621Y-75770002D01*
X172788114Y-75823658D01*
X172799500Y-75876000D01*
X172799500Y-102374000D01*
X172779498Y-102442121D01*
X172725842Y-102488614D01*
X172673500Y-102500000D01*
X133126000Y-102500000D01*
X133057879Y-102479998D01*
X133011386Y-102426342D01*
X133000000Y-102374000D01*
X133000000Y-101250000D01*
X145186384Y-101250000D01*
X145206783Y-101431047D01*
X145206783Y-101431049D01*
X145206784Y-101431050D01*
X145266957Y-101603015D01*
X145266958Y-101603018D01*
X145363887Y-101757279D01*
X145363888Y-101757281D01*
X145492718Y-101886111D01*
X145492720Y-101886112D01*
X145646981Y-101983041D01*
X145646982Y-101983041D01*
X145646985Y-101983043D01*
X145818953Y-102043217D01*
X146000000Y-102063616D01*
X146181047Y-102043217D01*
X146353015Y-101983043D01*
X146507281Y-101886111D01*
X146636111Y-101757281D01*
X146733043Y-101603015D01*
X146733044Y-101603010D01*
X146736111Y-101596644D01*
X146738770Y-101597924D01*
X146772423Y-101550979D01*
X146838416Y-101524799D01*
X146908087Y-101538453D01*
X146959316Y-101587607D01*
X146963523Y-101596820D01*
X146963889Y-101596644D01*
X146966958Y-101603018D01*
X147063887Y-101757279D01*
X147063888Y-101757281D01*
X147192718Y-101886111D01*
X147192720Y-101886112D01*
X147346981Y-101983041D01*
X147346982Y-101983041D01*
X147346985Y-101983043D01*
X147518953Y-102043217D01*
X147700000Y-102063616D01*
X147881047Y-102043217D01*
X148053015Y-101983043D01*
X148207281Y-101886111D01*
X148336111Y-101757281D01*
X148433043Y-101603015D01*
X148441535Y-101578745D01*
X148482912Y-101521054D01*
X148548912Y-101494891D01*
X148618579Y-101508563D01*
X148667151Y-101553324D01*
X148763887Y-101707279D01*
X148763888Y-101707281D01*
X148892718Y-101836111D01*
X148892720Y-101836112D01*
X149046981Y-101933041D01*
X149046982Y-101933041D01*
X149046985Y-101933043D01*
X149218953Y-101993217D01*
X149400000Y-102013616D01*
X149581047Y-101993217D01*
X149753015Y-101933043D01*
X149907281Y-101836111D01*
X150036111Y-101707281D01*
X150133043Y-101553015D01*
X150156071Y-101487203D01*
X150197449Y-101429512D01*
X150263449Y-101403350D01*
X150333117Y-101417022D01*
X150384333Y-101466190D01*
X150393929Y-101487204D01*
X150416957Y-101553015D01*
X150416958Y-101553018D01*
X150513887Y-101707279D01*
X150513888Y-101707281D01*
X150642718Y-101836111D01*
X150642720Y-101836112D01*
X150796981Y-101933041D01*
X150796982Y-101933041D01*
X150796985Y-101933043D01*
X150968953Y-101993217D01*
X151150000Y-102013616D01*
X151331047Y-101993217D01*
X151503015Y-101933043D01*
X151657281Y-101836111D01*
X151786111Y-101707281D01*
X151883043Y-101553015D01*
X151897323Y-101512202D01*
X151938700Y-101454513D01*
X152004700Y-101428350D01*
X152074368Y-101442022D01*
X152125584Y-101491189D01*
X152135181Y-101512204D01*
X152166957Y-101603015D01*
X152166958Y-101603018D01*
X152263887Y-101757279D01*
X152263888Y-101757281D01*
X152392718Y-101886111D01*
X152392720Y-101886112D01*
X152546981Y-101983041D01*
X152546982Y-101983041D01*
X152546985Y-101983043D01*
X152718953Y-102043217D01*
X152900000Y-102063616D01*
X153081047Y-102043217D01*
X153253015Y-101983043D01*
X153407281Y-101886111D01*
X153536111Y-101757281D01*
X153633043Y-101603015D01*
X153693217Y-101431047D01*
X153713616Y-101250000D01*
X153693217Y-101068953D01*
X153633043Y-100896985D01*
X153633041Y-100896982D01*
X153633041Y-100896981D01*
X153536112Y-100742720D01*
X153536111Y-100742718D01*
X153407281Y-100613888D01*
X153407279Y-100613887D01*
X153253018Y-100516958D01*
X153253015Y-100516957D01*
X153081050Y-100456784D01*
X153081049Y-100456783D01*
X153081047Y-100456783D01*
X152900000Y-100436384D01*
X152718953Y-100456783D01*
X152718950Y-100456783D01*
X152718949Y-100456784D01*
X152546984Y-100516957D01*
X152546981Y-100516958D01*
X152392720Y-100613887D01*
X152392718Y-100613888D01*
X152263888Y-100742718D01*
X152263887Y-100742720D01*
X152166958Y-100896981D01*
X152152676Y-100937797D01*
X152111296Y-100995488D01*
X152045295Y-101021650D01*
X151975628Y-101007975D01*
X151924413Y-100958807D01*
X151914822Y-100937806D01*
X151883043Y-100846985D01*
X151817528Y-100742718D01*
X151786112Y-100692720D01*
X151786111Y-100692718D01*
X151657281Y-100563888D01*
X151657279Y-100563887D01*
X151503018Y-100466958D01*
X151503015Y-100466957D01*
X151331050Y-100406784D01*
X151331049Y-100406783D01*
X151331047Y-100406783D01*
X151150000Y-100386384D01*
X150968953Y-100406783D01*
X150968950Y-100406783D01*
X150968949Y-100406784D01*
X150796984Y-100466957D01*
X150796981Y-100466958D01*
X150642720Y-100563887D01*
X150642718Y-100563888D01*
X150513888Y-100692718D01*
X150513887Y-100692720D01*
X150416958Y-100846981D01*
X150416957Y-100846984D01*
X150393929Y-100912795D01*
X150352551Y-100970487D01*
X150286551Y-100996649D01*
X150216883Y-100982976D01*
X150165667Y-100933809D01*
X150156071Y-100912795D01*
X150141536Y-100871257D01*
X150133043Y-100846985D01*
X150133041Y-100846982D01*
X150133041Y-100846981D01*
X150036112Y-100692720D01*
X150036111Y-100692718D01*
X149907281Y-100563888D01*
X149907279Y-100563887D01*
X149753018Y-100466958D01*
X149753015Y-100466957D01*
X149581050Y-100406784D01*
X149581049Y-100406783D01*
X149581047Y-100406783D01*
X149400000Y-100386384D01*
X149218953Y-100406783D01*
X149218950Y-100406783D01*
X149218949Y-100406784D01*
X149046984Y-100466957D01*
X149046981Y-100466958D01*
X148892720Y-100563887D01*
X148892718Y-100563888D01*
X148763888Y-100692718D01*
X148763887Y-100692720D01*
X148666958Y-100846981D01*
X148666956Y-100846985D01*
X148658463Y-100871257D01*
X148617083Y-100928948D01*
X148551083Y-100955109D01*
X148481415Y-100941434D01*
X148432849Y-100896677D01*
X148336111Y-100742719D01*
X148336110Y-100742718D01*
X148336109Y-100742716D01*
X148207281Y-100613888D01*
X148207279Y-100613887D01*
X148053018Y-100516958D01*
X148053015Y-100516957D01*
X147881050Y-100456784D01*
X147881049Y-100456783D01*
X147881047Y-100456783D01*
X147700000Y-100436384D01*
X147518953Y-100456783D01*
X147518950Y-100456783D01*
X147518949Y-100456784D01*
X147346984Y-100516957D01*
X147346981Y-100516958D01*
X147192720Y-100613887D01*
X147192718Y-100613888D01*
X147063888Y-100742718D01*
X147063887Y-100742720D01*
X146966958Y-100896981D01*
X146963889Y-100903356D01*
X146961235Y-100902078D01*
X146927548Y-100949043D01*
X146861546Y-100975204D01*
X146791879Y-100961528D01*
X146740665Y-100912359D01*
X146736473Y-100903181D01*
X146736111Y-100903356D01*
X146733041Y-100896981D01*
X146636112Y-100742720D01*
X146636111Y-100742718D01*
X146507281Y-100613888D01*
X146507279Y-100613887D01*
X146353018Y-100516958D01*
X146353015Y-100516957D01*
X146181050Y-100456784D01*
X146181049Y-100456783D01*
X146181047Y-100456783D01*
X146000000Y-100436384D01*
X145818953Y-100456783D01*
X145818950Y-100456783D01*
X145818949Y-100456784D01*
X145646984Y-100516957D01*
X145646981Y-100516958D01*
X145492720Y-100613887D01*
X145492718Y-100613888D01*
X145363888Y-100742718D01*
X145363887Y-100742720D01*
X145266958Y-100896981D01*
X145266957Y-100896984D01*
X145224279Y-101018953D01*
X145206783Y-101068953D01*
X145186384Y-101250000D01*
X133000000Y-101250000D01*
X133000000Y-99112503D01*
X166536620Y-99112503D01*
X166556090Y-99310194D01*
X166556091Y-99310200D01*
X166556092Y-99310201D01*
X166613759Y-99500304D01*
X166707405Y-99675504D01*
X166833432Y-99829068D01*
X166986996Y-99955095D01*
X167162196Y-100048741D01*
X167352299Y-100106408D01*
X167352303Y-100106408D01*
X167352305Y-100106409D01*
X167549997Y-100125880D01*
X167550000Y-100125880D01*
X167550003Y-100125880D01*
X167747694Y-100106409D01*
X167747695Y-100106408D01*
X167747701Y-100106408D01*
X167937804Y-100048741D01*
X168113004Y-99955095D01*
X168266568Y-99829068D01*
X168392595Y-99675504D01*
X168486241Y-99500304D01*
X168543908Y-99310201D01*
X168563380Y-99112500D01*
X168543908Y-98914799D01*
X168486241Y-98724696D01*
X168392595Y-98549496D01*
X168266568Y-98395932D01*
X168113004Y-98269905D01*
X167937804Y-98176259D01*
X167747701Y-98118592D01*
X167747700Y-98118591D01*
X167747694Y-98118590D01*
X167550003Y-98099120D01*
X167549997Y-98099120D01*
X167352305Y-98118590D01*
X167162195Y-98176259D01*
X166986995Y-98269905D01*
X166833432Y-98395932D01*
X166707405Y-98549495D01*
X166613759Y-98724695D01*
X166556090Y-98914805D01*
X166536620Y-99112496D01*
X166536620Y-99112503D01*
X133000000Y-99112503D01*
X133000000Y-95649999D01*
X161186496Y-95649999D01*
X161206457Y-95839927D01*
X161236526Y-95932470D01*
X161265473Y-96021556D01*
X161265476Y-96021561D01*
X161360958Y-96186941D01*
X161360965Y-96186951D01*
X161488744Y-96328864D01*
X161488747Y-96328866D01*
X161643248Y-96441118D01*
X161817712Y-96518794D01*
X162004513Y-96558500D01*
X162195487Y-96558500D01*
X162382288Y-96518794D01*
X162556752Y-96441118D01*
X162711253Y-96328866D01*
X162839040Y-96186944D01*
X162934527Y-96021556D01*
X162993542Y-95839928D01*
X163013504Y-95650000D01*
X162993542Y-95460072D01*
X162934527Y-95278444D01*
X162839040Y-95113056D01*
X162839038Y-95113054D01*
X162839034Y-95113048D01*
X162711255Y-94971135D01*
X162556752Y-94858882D01*
X162382288Y-94781206D01*
X162235476Y-94750000D01*
X168686496Y-94750000D01*
X168706457Y-94939927D01*
X168736526Y-95032470D01*
X168765473Y-95121556D01*
X168765476Y-95121561D01*
X168860958Y-95286941D01*
X168860965Y-95286951D01*
X168988744Y-95428864D01*
X168988747Y-95428866D01*
X169143248Y-95541118D01*
X169317712Y-95618794D01*
X169504513Y-95658500D01*
X169695487Y-95658500D01*
X169882288Y-95618794D01*
X170056752Y-95541118D01*
X170211253Y-95428866D01*
X170339040Y-95286944D01*
X170434527Y-95121556D01*
X170493542Y-94939928D01*
X170513504Y-94750000D01*
X170493542Y-94560072D01*
X170434527Y-94378444D01*
X170339040Y-94213056D01*
X170339038Y-94213054D01*
X170339034Y-94213048D01*
X170211255Y-94071135D01*
X170056752Y-93958882D01*
X169882288Y-93881206D01*
X169695487Y-93841500D01*
X169504513Y-93841500D01*
X169317711Y-93881206D01*
X169143247Y-93958882D01*
X168988744Y-94071135D01*
X168860965Y-94213048D01*
X168860958Y-94213058D01*
X168765476Y-94378438D01*
X168765473Y-94378445D01*
X168706457Y-94560072D01*
X168686496Y-94750000D01*
X162235476Y-94750000D01*
X162195487Y-94741500D01*
X162004513Y-94741500D01*
X161817711Y-94781206D01*
X161643247Y-94858882D01*
X161488744Y-94971135D01*
X161360965Y-95113048D01*
X161360958Y-95113058D01*
X161265476Y-95278438D01*
X161265473Y-95278445D01*
X161206457Y-95460072D01*
X161186496Y-95649999D01*
X133000000Y-95649999D01*
X133000000Y-93862500D01*
X135323884Y-93862500D01*
X135344283Y-94043547D01*
X135344283Y-94043549D01*
X135344284Y-94043550D01*
X135404457Y-94215515D01*
X135404458Y-94215518D01*
X135501387Y-94369779D01*
X135501388Y-94369781D01*
X135630218Y-94498611D01*
X135630220Y-94498612D01*
X135784481Y-94595541D01*
X135784482Y-94595541D01*
X135784485Y-94595543D01*
X135956453Y-94655717D01*
X136137500Y-94676116D01*
X136318547Y-94655717D01*
X136490515Y-94595543D01*
X136644781Y-94498611D01*
X136773611Y-94369781D01*
X136870543Y-94215515D01*
X136930717Y-94043547D01*
X136951116Y-93862500D01*
X136930717Y-93681453D01*
X136870543Y-93509485D01*
X136870541Y-93509482D01*
X136870541Y-93509481D01*
X136773612Y-93355220D01*
X136773611Y-93355218D01*
X136644781Y-93226388D01*
X136644779Y-93226387D01*
X136490518Y-93129458D01*
X136490515Y-93129457D01*
X136318550Y-93069284D01*
X136318549Y-93069283D01*
X136318547Y-93069283D01*
X136137500Y-93048884D01*
X135956453Y-93069283D01*
X135956450Y-93069283D01*
X135956449Y-93069284D01*
X135784484Y-93129457D01*
X135784481Y-93129458D01*
X135630220Y-93226387D01*
X135630218Y-93226388D01*
X135501388Y-93355218D01*
X135501387Y-93355220D01*
X135404458Y-93509481D01*
X135404457Y-93509484D01*
X135404457Y-93509485D01*
X135344283Y-93681453D01*
X135323884Y-93862500D01*
X133000000Y-93862500D01*
X133000000Y-89498911D01*
X145935886Y-89498911D01*
X145956285Y-89679958D01*
X145956285Y-89679960D01*
X145956286Y-89679961D01*
X146016459Y-89851926D01*
X146016460Y-89851929D01*
X146113389Y-90006190D01*
X146113390Y-90006192D01*
X146242220Y-90135022D01*
X146242222Y-90135023D01*
X146396483Y-90231952D01*
X146396484Y-90231952D01*
X146396487Y-90231954D01*
X146568455Y-90292128D01*
X146749502Y-90312527D01*
X146930549Y-90292128D01*
X147102517Y-90231954D01*
X147193465Y-90174807D01*
X147261784Y-90155502D01*
X147329698Y-90176197D01*
X147375641Y-90230324D01*
X147386500Y-90281495D01*
X147386500Y-91354334D01*
X147387050Y-91371132D01*
X147388679Y-91396001D01*
X147388680Y-91396007D01*
X147390327Y-91412729D01*
X147407993Y-91546914D01*
X147407994Y-91546917D01*
X147414549Y-91579875D01*
X147414551Y-91579883D01*
X147414552Y-91579887D01*
X147431631Y-91643629D01*
X147442438Y-91675467D01*
X147442441Y-91675474D01*
X147492757Y-91796949D01*
X147492761Y-91796957D01*
X147507631Y-91827111D01*
X147507634Y-91827117D01*
X147507635Y-91827118D01*
X147540623Y-91884255D01*
X147540623Y-91884254D01*
X147559305Y-91912214D01*
X147639358Y-92016541D01*
X147661523Y-92041815D01*
X147708184Y-92088476D01*
X147733458Y-92110641D01*
X147733457Y-92110640D01*
X147837785Y-92190694D01*
X147865745Y-92209376D01*
X147865744Y-92209376D01*
X147922881Y-92242364D01*
X147922888Y-92242368D01*
X147950302Y-92255886D01*
X147953050Y-92257242D01*
X147953050Y-92257241D01*
X147953052Y-92257242D01*
X148074525Y-92307558D01*
X148074526Y-92307558D01*
X148074531Y-92307560D01*
X148106367Y-92318367D01*
X148106366Y-92318367D01*
X148129697Y-92324618D01*
X148170108Y-92335447D01*
X148203077Y-92342004D01*
X148203078Y-92342004D01*
X148203082Y-92342005D01*
X148337269Y-92359672D01*
X148353987Y-92361319D01*
X148378856Y-92362950D01*
X148395660Y-92363500D01*
X148395661Y-92363500D01*
X155804342Y-92363500D01*
X155821148Y-92362950D01*
X155846015Y-92361319D01*
X155862732Y-92359672D01*
X155914437Y-92352864D01*
X155996917Y-92342005D01*
X155996920Y-92342004D01*
X155996922Y-92342004D01*
X156029891Y-92335447D01*
X156070301Y-92324618D01*
X156093633Y-92318367D01*
X156093632Y-92318367D01*
X156125468Y-92307560D01*
X156125473Y-92307558D01*
X156125474Y-92307558D01*
X156246947Y-92257242D01*
X156246949Y-92257241D01*
X156246949Y-92257242D01*
X156249696Y-92255886D01*
X156277111Y-92242368D01*
X156277118Y-92242364D01*
X156334255Y-92209376D01*
X156334254Y-92209376D01*
X156362214Y-92190694D01*
X156466542Y-92110640D01*
X156466541Y-92110641D01*
X156491815Y-92088476D01*
X156538476Y-92041815D01*
X156560641Y-92016541D01*
X156640694Y-91912214D01*
X156659376Y-91884254D01*
X156659376Y-91884255D01*
X156692364Y-91827118D01*
X156692364Y-91827117D01*
X156692368Y-91827111D01*
X156707238Y-91796957D01*
X156707237Y-91796957D01*
X156707242Y-91796949D01*
X156707241Y-91796949D01*
X156757558Y-91675474D01*
X156757558Y-91675473D01*
X156757558Y-91675472D01*
X156757560Y-91675468D01*
X156768367Y-91643633D01*
X156785448Y-91579884D01*
X156792005Y-91546917D01*
X156792006Y-91546916D01*
X156809672Y-91412734D01*
X156811320Y-91396008D01*
X156812950Y-91371134D01*
X156813500Y-91354337D01*
X156813500Y-89150000D01*
X169586384Y-89150000D01*
X169606783Y-89331047D01*
X169606783Y-89331049D01*
X169606784Y-89331050D01*
X169666957Y-89503015D01*
X169666958Y-89503018D01*
X169763887Y-89657279D01*
X169763888Y-89657281D01*
X169892718Y-89786111D01*
X169892720Y-89786112D01*
X170046981Y-89883041D01*
X170046982Y-89883041D01*
X170046985Y-89883043D01*
X170218953Y-89943217D01*
X170400000Y-89963616D01*
X170581047Y-89943217D01*
X170753015Y-89883043D01*
X170907281Y-89786111D01*
X171036111Y-89657281D01*
X171133043Y-89503015D01*
X171193217Y-89331047D01*
X171213616Y-89150000D01*
X171193217Y-88968953D01*
X171133043Y-88796985D01*
X171133041Y-88796982D01*
X171133041Y-88796981D01*
X171036112Y-88642720D01*
X171036111Y-88642718D01*
X170907281Y-88513888D01*
X170907279Y-88513887D01*
X170753018Y-88416958D01*
X170753015Y-88416957D01*
X170581050Y-88356784D01*
X170581049Y-88356783D01*
X170581047Y-88356783D01*
X170400000Y-88336384D01*
X170218953Y-88356783D01*
X170218950Y-88356783D01*
X170218949Y-88356784D01*
X170046984Y-88416957D01*
X170046981Y-88416958D01*
X169892720Y-88513887D01*
X169892718Y-88513888D01*
X169763888Y-88642718D01*
X169763887Y-88642720D01*
X169666958Y-88796981D01*
X169666957Y-88796984D01*
X169626147Y-88913615D01*
X169606783Y-88968953D01*
X169586384Y-89150000D01*
X156813500Y-89150000D01*
X156813500Y-86161083D01*
X156833502Y-86092962D01*
X156887158Y-86046469D01*
X156957432Y-86036365D01*
X157022012Y-86065859D01*
X157028595Y-86071988D01*
X157092718Y-86136111D01*
X157092720Y-86136112D01*
X157246981Y-86233041D01*
X157246982Y-86233041D01*
X157246985Y-86233043D01*
X157418953Y-86293217D01*
X157600000Y-86313616D01*
X157781047Y-86293217D01*
X157953015Y-86233043D01*
X158107281Y-86136111D01*
X158236111Y-86007281D01*
X158333043Y-85853015D01*
X158393217Y-85681047D01*
X158413616Y-85500000D01*
X158393217Y-85318953D01*
X158333043Y-85146985D01*
X158333041Y-85146982D01*
X158333041Y-85146981D01*
X158236112Y-84992720D01*
X158236111Y-84992718D01*
X158107281Y-84863888D01*
X158107279Y-84863887D01*
X157953018Y-84766958D01*
X157953015Y-84766957D01*
X157781050Y-84706784D01*
X157781049Y-84706783D01*
X157781047Y-84706783D01*
X157600000Y-84686384D01*
X157418953Y-84706783D01*
X157418950Y-84706783D01*
X157418949Y-84706784D01*
X157246984Y-84766957D01*
X157246981Y-84766958D01*
X157092721Y-84863886D01*
X157028595Y-84928012D01*
X156966282Y-84962037D01*
X156895467Y-84956971D01*
X156838631Y-84914424D01*
X156813821Y-84847904D01*
X156813500Y-84838916D01*
X156813500Y-83945773D01*
X156812950Y-83928978D01*
X156811320Y-83904104D01*
X156809672Y-83887369D01*
X156803793Y-83842719D01*
X156792000Y-83753161D01*
X156785439Y-83720186D01*
X156768356Y-83656437D01*
X156768355Y-83656435D01*
X156757544Y-83624590D01*
X156728210Y-83553782D01*
X156707208Y-83503087D01*
X156692332Y-83472926D01*
X156659327Y-83415772D01*
X156640648Y-83387822D01*
X156560585Y-83283500D01*
X156560583Y-83283497D01*
X156538412Y-83258222D01*
X156491740Y-83211557D01*
X156466453Y-83189386D01*
X156466451Y-83189384D01*
X156420965Y-83154491D01*
X156362104Y-83109337D01*
X156361452Y-83108901D01*
X156334149Y-83090663D01*
X156334147Y-83090662D01*
X156276994Y-83057674D01*
X156276994Y-83057673D01*
X156246832Y-83042804D01*
X156246833Y-83042805D01*
X156246825Y-83042801D01*
X156125303Y-82992487D01*
X156125297Y-82992485D01*
X156125290Y-82992482D01*
X156125291Y-82992483D01*
X156093464Y-82981685D01*
X156029711Y-82964614D01*
X156029713Y-82964615D01*
X155996736Y-82958062D01*
X155862534Y-82940419D01*
X155845819Y-82938776D01*
X155845818Y-82938776D01*
X155820958Y-82937150D01*
X155804145Y-82936602D01*
X155804144Y-82936602D01*
X155804017Y-82936602D01*
X155590962Y-82936646D01*
X155522837Y-82916658D01*
X155476333Y-82863012D01*
X155466215Y-82792740D01*
X155495695Y-82728153D01*
X155501829Y-82721562D01*
X155516111Y-82707281D01*
X155613043Y-82553015D01*
X155673217Y-82381047D01*
X155693616Y-82200000D01*
X155673217Y-82018953D01*
X155613043Y-81846985D01*
X155613041Y-81846982D01*
X155613041Y-81846981D01*
X155516112Y-81692720D01*
X155516111Y-81692718D01*
X155387281Y-81563888D01*
X155387279Y-81563887D01*
X155233018Y-81466958D01*
X155233015Y-81466957D01*
X155061050Y-81406784D01*
X155061049Y-81406783D01*
X155061047Y-81406783D01*
X154880000Y-81386384D01*
X154698953Y-81406783D01*
X154698950Y-81406783D01*
X154698949Y-81406784D01*
X154526984Y-81466957D01*
X154526981Y-81466958D01*
X154372720Y-81563887D01*
X154372718Y-81563888D01*
X154243888Y-81692718D01*
X154243887Y-81692720D01*
X154146958Y-81846981D01*
X154146957Y-81846984D01*
X154130780Y-81893217D01*
X154086783Y-82018953D01*
X154066384Y-82200000D01*
X154086783Y-82381047D01*
X154086783Y-82381049D01*
X154086784Y-82381050D01*
X154146957Y-82553015D01*
X154146958Y-82553018D01*
X154243887Y-82707279D01*
X154243888Y-82707281D01*
X154258455Y-82721848D01*
X154292481Y-82784160D01*
X154287416Y-82854975D01*
X154244869Y-82911811D01*
X154178349Y-82936622D01*
X154169386Y-82936943D01*
X151239526Y-82937555D01*
X151171401Y-82917567D01*
X151124897Y-82863921D01*
X151113500Y-82811555D01*
X151113500Y-81345660D01*
X151112950Y-81328861D01*
X151111320Y-81303988D01*
X151109672Y-81287263D01*
X151092006Y-81153085D01*
X151092006Y-81153084D01*
X151085448Y-81120115D01*
X151068367Y-81056366D01*
X151068367Y-81056367D01*
X151057560Y-81024531D01*
X151007241Y-80903050D01*
X151007242Y-80903050D01*
X151005886Y-80900302D01*
X150992368Y-80872888D01*
X150992364Y-80872881D01*
X150959376Y-80815744D01*
X150959376Y-80815745D01*
X150940694Y-80787785D01*
X150860640Y-80683457D01*
X150860641Y-80683458D01*
X150838477Y-80658185D01*
X150838476Y-80658184D01*
X150791817Y-80611526D01*
X150791816Y-80611525D01*
X150791815Y-80611524D01*
X150766540Y-80589358D01*
X150662216Y-80509306D01*
X150634257Y-80490624D01*
X150634250Y-80490619D01*
X150577105Y-80457628D01*
X150546959Y-80442761D01*
X150425469Y-80392439D01*
X150425471Y-80392439D01*
X150425467Y-80392438D01*
X150393629Y-80381631D01*
X150329887Y-80364552D01*
X150296916Y-80357993D01*
X150162716Y-80340325D01*
X150145965Y-80338676D01*
X150121096Y-80337048D01*
X150104326Y-80336500D01*
X150104324Y-80336500D01*
X149095678Y-80336500D01*
X149095677Y-80336500D01*
X149078910Y-80337048D01*
X149054039Y-80338675D01*
X149037285Y-80340325D01*
X148903084Y-80357993D01*
X148889970Y-80360601D01*
X148870118Y-80364550D01*
X148870116Y-80364551D01*
X148813892Y-80379614D01*
X148806372Y-80381629D01*
X148806373Y-80381628D01*
X148774534Y-80392436D01*
X148774533Y-80392436D01*
X148774528Y-80392439D01*
X148653036Y-80442762D01*
X148622883Y-80457633D01*
X148622882Y-80457633D01*
X148565739Y-80490625D01*
X148565740Y-80490625D01*
X148565737Y-80490627D01*
X148537784Y-80509305D01*
X148433454Y-80589361D01*
X148408179Y-80611528D01*
X148361528Y-80658179D01*
X148356760Y-80663616D01*
X148339355Y-80683461D01*
X148259305Y-80787785D01*
X148259303Y-80787787D01*
X148240621Y-80815747D01*
X148219321Y-80852639D01*
X148207632Y-80872888D01*
X148207627Y-80872896D01*
X148192760Y-80903045D01*
X148192759Y-80903048D01*
X148192759Y-80903046D01*
X148179063Y-80936111D01*
X148142438Y-81024532D01*
X148142437Y-81024535D01*
X148142437Y-81024533D01*
X148139549Y-81033042D01*
X148131631Y-81056370D01*
X148114554Y-81120107D01*
X148114549Y-81120124D01*
X148110573Y-81140113D01*
X148107994Y-81153084D01*
X148107993Y-81153087D01*
X148107993Y-81153088D01*
X148090327Y-81287268D01*
X148088680Y-81303993D01*
X148087050Y-81328865D01*
X148086500Y-81345662D01*
X148086500Y-82858060D01*
X148066498Y-82926181D01*
X148012842Y-82972674D01*
X147999439Y-82977892D01*
X147965672Y-82988865D01*
X147965670Y-82988865D01*
X147891225Y-83019701D01*
X147891223Y-83019702D01*
X147830818Y-83050479D01*
X147828640Y-83051590D01*
X147759936Y-83093693D01*
X147759935Y-83093693D01*
X147728557Y-83116491D01*
X147728558Y-83116491D01*
X147667287Y-83168822D01*
X147667288Y-83168822D01*
X147617632Y-83218478D01*
X147617632Y-83218477D01*
X147587566Y-83253679D01*
X147565304Y-83279744D01*
X147565301Y-83279748D01*
X147565301Y-83279747D01*
X147542503Y-83311125D01*
X147542503Y-83311126D01*
X147500400Y-83379830D01*
X147468510Y-83442417D01*
X147455874Y-83472926D01*
X147437668Y-83516882D01*
X147429865Y-83540900D01*
X147425680Y-83553782D01*
X147425681Y-83553782D01*
X147406878Y-83632109D01*
X147403025Y-83656437D01*
X147392772Y-83721180D01*
X147390402Y-83741200D01*
X147387292Y-83780702D01*
X147386500Y-83800858D01*
X147386500Y-88716326D01*
X147366498Y-88784447D01*
X147312842Y-88830940D01*
X147242568Y-88841044D01*
X147193464Y-88823013D01*
X147102520Y-88765869D01*
X147102517Y-88765868D01*
X146930552Y-88705695D01*
X146930551Y-88705694D01*
X146930549Y-88705694D01*
X146749502Y-88685295D01*
X146749501Y-88685295D01*
X146718685Y-88688767D01*
X146568455Y-88705694D01*
X146568452Y-88705694D01*
X146568451Y-88705695D01*
X146396486Y-88765868D01*
X146396483Y-88765869D01*
X146242222Y-88862798D01*
X146242220Y-88862799D01*
X146113390Y-88991629D01*
X146113389Y-88991631D01*
X146016460Y-89145892D01*
X146016459Y-89145895D01*
X146016459Y-89145896D01*
X145956285Y-89317864D01*
X145935886Y-89498911D01*
X133000000Y-89498911D01*
X133000000Y-88100000D01*
X142986384Y-88100000D01*
X143006783Y-88281047D01*
X143006783Y-88281049D01*
X143006784Y-88281050D01*
X143066957Y-88453015D01*
X143066958Y-88453018D01*
X143163887Y-88607279D01*
X143163888Y-88607281D01*
X143292718Y-88736111D01*
X143292720Y-88736112D01*
X143446981Y-88833041D01*
X143446982Y-88833041D01*
X143446985Y-88833043D01*
X143618953Y-88893217D01*
X143800000Y-88913616D01*
X143981047Y-88893217D01*
X144153015Y-88833043D01*
X144307281Y-88736111D01*
X144436111Y-88607281D01*
X144533043Y-88453015D01*
X144593217Y-88281047D01*
X144613616Y-88100000D01*
X144593217Y-87918953D01*
X144533043Y-87746985D01*
X144533041Y-87746982D01*
X144533041Y-87746981D01*
X144436112Y-87592720D01*
X144436111Y-87592718D01*
X144307281Y-87463888D01*
X144307279Y-87463887D01*
X144153018Y-87366958D01*
X144153015Y-87366957D01*
X143981050Y-87306784D01*
X143981049Y-87306783D01*
X143981047Y-87306783D01*
X143800000Y-87286384D01*
X143618953Y-87306783D01*
X143618950Y-87306783D01*
X143618949Y-87306784D01*
X143446984Y-87366957D01*
X143446981Y-87366958D01*
X143292720Y-87463887D01*
X143292718Y-87463888D01*
X143163888Y-87592718D01*
X143163887Y-87592720D01*
X143066958Y-87746981D01*
X143066957Y-87746984D01*
X143066957Y-87746985D01*
X143006783Y-87918953D01*
X142986384Y-88100000D01*
X133000000Y-88100000D01*
X133000000Y-84350000D01*
X143636384Y-84350000D01*
X143656783Y-84531047D01*
X143656783Y-84531049D01*
X143656784Y-84531050D01*
X143716957Y-84703015D01*
X143716958Y-84703018D01*
X143813887Y-84857279D01*
X143813888Y-84857281D01*
X143942718Y-84986111D01*
X143942720Y-84986112D01*
X144096981Y-85083041D01*
X144096982Y-85083041D01*
X144096985Y-85083043D01*
X144268953Y-85143217D01*
X144450000Y-85163616D01*
X144631047Y-85143217D01*
X144803015Y-85083043D01*
X144957281Y-84986111D01*
X145086111Y-84857281D01*
X145183043Y-84703015D01*
X145243217Y-84531047D01*
X145263616Y-84350000D01*
X145243217Y-84168953D01*
X145183043Y-83996985D01*
X145183041Y-83996982D01*
X145183041Y-83996981D01*
X145086112Y-83842720D01*
X145086111Y-83842718D01*
X144957281Y-83713888D01*
X144957279Y-83713887D01*
X144803018Y-83616958D01*
X144803015Y-83616957D01*
X144631050Y-83556784D01*
X144631049Y-83556783D01*
X144631047Y-83556783D01*
X144450000Y-83536384D01*
X144268953Y-83556783D01*
X144268950Y-83556783D01*
X144268949Y-83556784D01*
X144096984Y-83616957D01*
X144096981Y-83616958D01*
X143942720Y-83713887D01*
X143942718Y-83713888D01*
X143813888Y-83842718D01*
X143813887Y-83842720D01*
X143716958Y-83996981D01*
X143716957Y-83996984D01*
X143716957Y-83996985D01*
X143656783Y-84168953D01*
X143636384Y-84350000D01*
X133000000Y-84350000D01*
X133000000Y-82600003D01*
X139136620Y-82600003D01*
X139156090Y-82797694D01*
X139156091Y-82797700D01*
X139156092Y-82797701D01*
X139213759Y-82987804D01*
X139307405Y-83163004D01*
X139433432Y-83316568D01*
X139586996Y-83442595D01*
X139762196Y-83536241D01*
X139952299Y-83593908D01*
X139952303Y-83593908D01*
X139952305Y-83593909D01*
X140149997Y-83613380D01*
X140150000Y-83613380D01*
X140150003Y-83613380D01*
X140347694Y-83593909D01*
X140347695Y-83593908D01*
X140347701Y-83593908D01*
X140537804Y-83536241D01*
X140713004Y-83442595D01*
X140866568Y-83316568D01*
X140992595Y-83163004D01*
X141086241Y-82987804D01*
X141143908Y-82797701D01*
X141151409Y-82721548D01*
X141163380Y-82600003D01*
X141163380Y-82599996D01*
X141143909Y-82402305D01*
X141143908Y-82402303D01*
X141143908Y-82402299D01*
X141086241Y-82212196D01*
X140992595Y-82036996D01*
X140866568Y-81883432D01*
X140713004Y-81757405D01*
X140537804Y-81663759D01*
X140347701Y-81606092D01*
X140347700Y-81606091D01*
X140347694Y-81606090D01*
X140150003Y-81586620D01*
X140149997Y-81586620D01*
X139952305Y-81606090D01*
X139762195Y-81663759D01*
X139586995Y-81757405D01*
X139433432Y-81883432D01*
X139307405Y-82036995D01*
X139213759Y-82212195D01*
X139156090Y-82402305D01*
X139136620Y-82599996D01*
X139136620Y-82600003D01*
X133000000Y-82600003D01*
X133000000Y-80300000D01*
X134086384Y-80300000D01*
X134106783Y-80481047D01*
X134106783Y-80481049D01*
X134106784Y-80481050D01*
X134166957Y-80653015D01*
X134166958Y-80653018D01*
X134263887Y-80807279D01*
X134263888Y-80807281D01*
X134392718Y-80936111D01*
X134392720Y-80936112D01*
X134546981Y-81033041D01*
X134546982Y-81033041D01*
X134546985Y-81033043D01*
X134718953Y-81093217D01*
X134900000Y-81113616D01*
X135020846Y-81100000D01*
X145436384Y-81100000D01*
X145456783Y-81281047D01*
X145456783Y-81281049D01*
X145456784Y-81281050D01*
X145516957Y-81453015D01*
X145516958Y-81453018D01*
X145613887Y-81607279D01*
X145613888Y-81607281D01*
X145742718Y-81736111D01*
X145742720Y-81736112D01*
X145896981Y-81833041D01*
X145896982Y-81833041D01*
X145896985Y-81833043D01*
X146068953Y-81893217D01*
X146250000Y-81913616D01*
X146431047Y-81893217D01*
X146603015Y-81833043D01*
X146757281Y-81736111D01*
X146886111Y-81607281D01*
X146983043Y-81453015D01*
X147043217Y-81281047D01*
X147063616Y-81100000D01*
X147043217Y-80918953D01*
X146983043Y-80746985D01*
X146983041Y-80746982D01*
X146983041Y-80746981D01*
X146886112Y-80592720D01*
X146886111Y-80592718D01*
X146757281Y-80463888D01*
X146757279Y-80463887D01*
X146603018Y-80366958D01*
X146603015Y-80366957D01*
X146431050Y-80306784D01*
X146431049Y-80306783D01*
X146431047Y-80306783D01*
X146250000Y-80286384D01*
X146068953Y-80306783D01*
X146068950Y-80306783D01*
X146068949Y-80306784D01*
X145896984Y-80366957D01*
X145896981Y-80366958D01*
X145742720Y-80463887D01*
X145742718Y-80463888D01*
X145613888Y-80592718D01*
X145613887Y-80592720D01*
X145516958Y-80746981D01*
X145516957Y-80746984D01*
X145462348Y-80903050D01*
X145456783Y-80918953D01*
X145436384Y-81100000D01*
X135020846Y-81100000D01*
X135081047Y-81093217D01*
X135253015Y-81033043D01*
X135407281Y-80936111D01*
X135536111Y-80807281D01*
X135633043Y-80653015D01*
X135693217Y-80481047D01*
X135713616Y-80300000D01*
X135693217Y-80118953D01*
X135633043Y-79946985D01*
X135633041Y-79946982D01*
X135633041Y-79946981D01*
X135536112Y-79792720D01*
X135536111Y-79792718D01*
X135407281Y-79663888D01*
X135407279Y-79663887D01*
X135253018Y-79566958D01*
X135253015Y-79566957D01*
X135081050Y-79506784D01*
X135081049Y-79506783D01*
X135081047Y-79506783D01*
X134900000Y-79486384D01*
X134718953Y-79506783D01*
X134718950Y-79506783D01*
X134718949Y-79506784D01*
X134546984Y-79566957D01*
X134546981Y-79566958D01*
X134392720Y-79663887D01*
X134392718Y-79663888D01*
X134263888Y-79792718D01*
X134263887Y-79792720D01*
X134166958Y-79946981D01*
X134166957Y-79946984D01*
X134108651Y-80113615D01*
X134106783Y-80118953D01*
X134086384Y-80300000D01*
X133000000Y-80300000D01*
X133000000Y-79300000D01*
X139336384Y-79300000D01*
X139356783Y-79481047D01*
X139356783Y-79481049D01*
X139356784Y-79481050D01*
X139416957Y-79653015D01*
X139416958Y-79653018D01*
X139513887Y-79807279D01*
X139513888Y-79807281D01*
X139642718Y-79936111D01*
X139642720Y-79936112D01*
X139796981Y-80033041D01*
X139796982Y-80033041D01*
X139796985Y-80033043D01*
X139968953Y-80093217D01*
X140150000Y-80113616D01*
X140331047Y-80093217D01*
X140503015Y-80033043D01*
X140555602Y-80000000D01*
X143436384Y-80000000D01*
X143456783Y-80181047D01*
X143456783Y-80181049D01*
X143456784Y-80181050D01*
X143516957Y-80353015D01*
X143516958Y-80353018D01*
X143613887Y-80507279D01*
X143613888Y-80507281D01*
X143742718Y-80636111D01*
X143742720Y-80636112D01*
X143896981Y-80733041D01*
X143896982Y-80733041D01*
X143896985Y-80733043D01*
X144068953Y-80793217D01*
X144250000Y-80813616D01*
X144431047Y-80793217D01*
X144603015Y-80733043D01*
X144757281Y-80636111D01*
X144886111Y-80507281D01*
X144983043Y-80353015D01*
X145043217Y-80181047D01*
X145063616Y-80000000D01*
X159786384Y-80000000D01*
X159806783Y-80181047D01*
X159806783Y-80181049D01*
X159806784Y-80181050D01*
X159866957Y-80353015D01*
X159866958Y-80353018D01*
X159963887Y-80507279D01*
X159963888Y-80507281D01*
X160092718Y-80636111D01*
X160092720Y-80636112D01*
X160246981Y-80733041D01*
X160246982Y-80733041D01*
X160246985Y-80733043D01*
X160418953Y-80793217D01*
X160600000Y-80813616D01*
X160781047Y-80793217D01*
X160953015Y-80733043D01*
X161107281Y-80636111D01*
X161236111Y-80507281D01*
X161333043Y-80353015D01*
X161393217Y-80181047D01*
X161413616Y-80000000D01*
X161396715Y-79850000D01*
X162786384Y-79850000D01*
X162806783Y-80031047D01*
X162806783Y-80031049D01*
X162806784Y-80031050D01*
X162866957Y-80203015D01*
X162866958Y-80203018D01*
X162963887Y-80357279D01*
X162963888Y-80357281D01*
X163092718Y-80486111D01*
X163092720Y-80486112D01*
X163246981Y-80583041D01*
X163246982Y-80583041D01*
X163246985Y-80583043D01*
X163418953Y-80643217D01*
X163600000Y-80663616D01*
X163781047Y-80643217D01*
X163953015Y-80583043D01*
X164107281Y-80486111D01*
X164236111Y-80357281D01*
X164333043Y-80203015D01*
X164393217Y-80031047D01*
X164413616Y-79850000D01*
X164393217Y-79668953D01*
X164333043Y-79496985D01*
X164333041Y-79496982D01*
X164333041Y-79496981D01*
X164236112Y-79342720D01*
X164236111Y-79342718D01*
X164107281Y-79213888D01*
X164107279Y-79213887D01*
X163953018Y-79116958D01*
X163953015Y-79116957D01*
X163781050Y-79056784D01*
X163781049Y-79056783D01*
X163781047Y-79056783D01*
X163600000Y-79036384D01*
X163418953Y-79056783D01*
X163418950Y-79056783D01*
X163418949Y-79056784D01*
X163246984Y-79116957D01*
X163246981Y-79116958D01*
X163092720Y-79213887D01*
X163092718Y-79213888D01*
X162963888Y-79342718D01*
X162963887Y-79342720D01*
X162866958Y-79496981D01*
X162866957Y-79496984D01*
X162808556Y-79663887D01*
X162806783Y-79668953D01*
X162786384Y-79850000D01*
X161396715Y-79850000D01*
X161393217Y-79818953D01*
X161333043Y-79646985D01*
X161333041Y-79646982D01*
X161333041Y-79646981D01*
X161236112Y-79492720D01*
X161236111Y-79492718D01*
X161107281Y-79363888D01*
X161107279Y-79363887D01*
X160953018Y-79266958D01*
X160953015Y-79266957D01*
X160781050Y-79206784D01*
X160781049Y-79206783D01*
X160781047Y-79206783D01*
X160600000Y-79186384D01*
X160418953Y-79206783D01*
X160418950Y-79206783D01*
X160418949Y-79206784D01*
X160246984Y-79266957D01*
X160246981Y-79266958D01*
X160092720Y-79363887D01*
X160092718Y-79363888D01*
X159963888Y-79492718D01*
X159963887Y-79492720D01*
X159866958Y-79646981D01*
X159866957Y-79646984D01*
X159810868Y-79807279D01*
X159806783Y-79818953D01*
X159786384Y-80000000D01*
X145063616Y-80000000D01*
X145043217Y-79818953D01*
X144983043Y-79646985D01*
X144983041Y-79646982D01*
X144983041Y-79646981D01*
X144886112Y-79492720D01*
X144886111Y-79492718D01*
X144757281Y-79363888D01*
X144757279Y-79363887D01*
X144603018Y-79266958D01*
X144603015Y-79266957D01*
X144431050Y-79206784D01*
X144431049Y-79206783D01*
X144431047Y-79206783D01*
X144250000Y-79186384D01*
X144068953Y-79206783D01*
X144068950Y-79206783D01*
X144068949Y-79206784D01*
X143896984Y-79266957D01*
X143896981Y-79266958D01*
X143742720Y-79363887D01*
X143742718Y-79363888D01*
X143613888Y-79492718D01*
X143613887Y-79492720D01*
X143516958Y-79646981D01*
X143516957Y-79646984D01*
X143460868Y-79807279D01*
X143456783Y-79818953D01*
X143436384Y-80000000D01*
X140555602Y-80000000D01*
X140657281Y-79936111D01*
X140786111Y-79807281D01*
X140883043Y-79653015D01*
X140943217Y-79481047D01*
X140963616Y-79300000D01*
X140943217Y-79118953D01*
X140883043Y-78946985D01*
X140883041Y-78946982D01*
X140883041Y-78946981D01*
X140786112Y-78792720D01*
X140786111Y-78792718D01*
X140657281Y-78663888D01*
X140657279Y-78663887D01*
X140503018Y-78566958D01*
X140503015Y-78566957D01*
X140331050Y-78506784D01*
X140331049Y-78506783D01*
X140331047Y-78506783D01*
X140150000Y-78486384D01*
X139968953Y-78506783D01*
X139968950Y-78506783D01*
X139968949Y-78506784D01*
X139796984Y-78566957D01*
X139796981Y-78566958D01*
X139642720Y-78663887D01*
X139642718Y-78663888D01*
X139513888Y-78792718D01*
X139513887Y-78792720D01*
X139416958Y-78946981D01*
X139416957Y-78946984D01*
X139360868Y-79107279D01*
X139356783Y-79118953D01*
X139336384Y-79300000D01*
X133000000Y-79300000D01*
X133000000Y-78400000D01*
X148916844Y-78400000D01*
X148934232Y-78609844D01*
X148935437Y-78624375D01*
X148990702Y-78842612D01*
X148990703Y-78842613D01*
X148990704Y-78842616D01*
X149065893Y-79014031D01*
X149081141Y-79048793D01*
X149204275Y-79237265D01*
X149204279Y-79237270D01*
X149356762Y-79402908D01*
X149370520Y-79413616D01*
X149534424Y-79541189D01*
X149732426Y-79648342D01*
X149732427Y-79648342D01*
X149732428Y-79648343D01*
X149844227Y-79686723D01*
X149945365Y-79721444D01*
X150167431Y-79758500D01*
X150167435Y-79758500D01*
X150392565Y-79758500D01*
X150392569Y-79758500D01*
X150614635Y-79721444D01*
X150827574Y-79648342D01*
X151025576Y-79541189D01*
X151203240Y-79402906D01*
X151355722Y-79237268D01*
X151444518Y-79101354D01*
X151498520Y-79055268D01*
X151568868Y-79045692D01*
X151633225Y-79075669D01*
X151655480Y-79101353D01*
X151666979Y-79118953D01*
X151744275Y-79237265D01*
X151744279Y-79237270D01*
X151896762Y-79402908D01*
X151910520Y-79413616D01*
X152074424Y-79541189D01*
X152272426Y-79648342D01*
X152272427Y-79648342D01*
X152272428Y-79648343D01*
X152384227Y-79686723D01*
X152485365Y-79721444D01*
X152707431Y-79758500D01*
X152707435Y-79758500D01*
X152932565Y-79758500D01*
X152932569Y-79758500D01*
X153154635Y-79721444D01*
X153367574Y-79648342D01*
X153565576Y-79541189D01*
X153743240Y-79402906D01*
X153895722Y-79237268D01*
X153984518Y-79101354D01*
X154038520Y-79055268D01*
X154108868Y-79045692D01*
X154173225Y-79075669D01*
X154195480Y-79101353D01*
X154206979Y-79118953D01*
X154284275Y-79237265D01*
X154284279Y-79237270D01*
X154436762Y-79402908D01*
X154450520Y-79413616D01*
X154614424Y-79541189D01*
X154812426Y-79648342D01*
X154812427Y-79648342D01*
X154812428Y-79648343D01*
X154924227Y-79686723D01*
X155025365Y-79721444D01*
X155247431Y-79758500D01*
X155247435Y-79758500D01*
X155472565Y-79758500D01*
X155472569Y-79758500D01*
X155694635Y-79721444D01*
X155907574Y-79648342D01*
X156105576Y-79541189D01*
X156283240Y-79402906D01*
X156344626Y-79336222D01*
X156405476Y-79299654D01*
X156476441Y-79301787D01*
X156534986Y-79341949D01*
X156555380Y-79377529D01*
X156599553Y-79495961D01*
X156599555Y-79495965D01*
X156687095Y-79612904D01*
X156804034Y-79700444D01*
X156940906Y-79751494D01*
X157001402Y-79757999D01*
X157001415Y-79758000D01*
X157646000Y-79758000D01*
X157646000Y-79014033D01*
X157666002Y-78945912D01*
X157719658Y-78899419D01*
X157789926Y-78889315D01*
X157864237Y-78900000D01*
X157935763Y-78900000D01*
X158010069Y-78889316D01*
X158080341Y-78899419D01*
X158133997Y-78945911D01*
X158154000Y-79014031D01*
X158154000Y-79758000D01*
X158798585Y-79758000D01*
X158798597Y-79757999D01*
X158859093Y-79751494D01*
X158995964Y-79700444D01*
X158995965Y-79700444D01*
X159112904Y-79612904D01*
X159200444Y-79495965D01*
X159200444Y-79495964D01*
X159251494Y-79359093D01*
X159257999Y-79298597D01*
X159258000Y-79298585D01*
X159258000Y-78654000D01*
X158514844Y-78654000D01*
X158446723Y-78633998D01*
X158417264Y-78600000D01*
X165086384Y-78600000D01*
X165106783Y-78781047D01*
X165106783Y-78781049D01*
X165106784Y-78781050D01*
X165166957Y-78953015D01*
X165166958Y-78953018D01*
X165263887Y-79107279D01*
X165263888Y-79107281D01*
X165392718Y-79236111D01*
X165392720Y-79236112D01*
X165546981Y-79333041D01*
X165546982Y-79333041D01*
X165546985Y-79333043D01*
X165718953Y-79393217D01*
X165900000Y-79413616D01*
X166081047Y-79393217D01*
X166253015Y-79333043D01*
X166407281Y-79236111D01*
X166536111Y-79107281D01*
X166633043Y-78953015D01*
X166693217Y-78781047D01*
X166713616Y-78600000D01*
X166693217Y-78418953D01*
X166633043Y-78246985D01*
X166633041Y-78246982D01*
X166633041Y-78246981D01*
X166536112Y-78092720D01*
X166536111Y-78092718D01*
X166407281Y-77963888D01*
X166407279Y-77963887D01*
X166253018Y-77866958D01*
X166253015Y-77866957D01*
X166081050Y-77806784D01*
X166081049Y-77806783D01*
X166081047Y-77806783D01*
X165900000Y-77786384D01*
X165899999Y-77786384D01*
X165869183Y-77789856D01*
X165718953Y-77806783D01*
X165718950Y-77806783D01*
X165718949Y-77806784D01*
X165546984Y-77866957D01*
X165546981Y-77866958D01*
X165392720Y-77963887D01*
X165392718Y-77963888D01*
X165263888Y-78092718D01*
X165263887Y-78092720D01*
X165166958Y-78246981D01*
X165166957Y-78246984D01*
X165166957Y-78246985D01*
X165106783Y-78418953D01*
X165086384Y-78600000D01*
X158417264Y-78600000D01*
X158400230Y-78580342D01*
X158390126Y-78510068D01*
X158393947Y-78492504D01*
X158400000Y-78471888D01*
X158400000Y-78328111D01*
X158393947Y-78307496D01*
X158393948Y-78236500D01*
X158432333Y-78176774D01*
X158496914Y-78147282D01*
X158514844Y-78146000D01*
X159258000Y-78146000D01*
X159258000Y-77501414D01*
X159257999Y-77501402D01*
X159251494Y-77440906D01*
X159200444Y-77304035D01*
X159200444Y-77304034D01*
X159112904Y-77187095D01*
X158995965Y-77099555D01*
X158859093Y-77048505D01*
X158798597Y-77042000D01*
X158154000Y-77042000D01*
X158154000Y-77785966D01*
X158133998Y-77854087D01*
X158080342Y-77900580D01*
X158010069Y-77910683D01*
X158010068Y-77910683D01*
X157935768Y-77900000D01*
X157935763Y-77900000D01*
X157864237Y-77900000D01*
X157864231Y-77900000D01*
X157789932Y-77910683D01*
X157719658Y-77900580D01*
X157666002Y-77854087D01*
X157646000Y-77785966D01*
X157646000Y-77042000D01*
X157001402Y-77042000D01*
X156940906Y-77048505D01*
X156804035Y-77099555D01*
X156804034Y-77099555D01*
X156687095Y-77187095D01*
X156599555Y-77304034D01*
X156599553Y-77304039D01*
X156555380Y-77422470D01*
X156512833Y-77479306D01*
X156446313Y-77504116D01*
X156376939Y-77489024D01*
X156344626Y-77463777D01*
X156283240Y-77397094D01*
X156283239Y-77397093D01*
X156283237Y-77397091D01*
X156163679Y-77304035D01*
X156105576Y-77258811D01*
X155907574Y-77151658D01*
X155907572Y-77151657D01*
X155907571Y-77151656D01*
X155694639Y-77078557D01*
X155694630Y-77078555D01*
X155650476Y-77071187D01*
X155472569Y-77041500D01*
X155247431Y-77041500D01*
X155099210Y-77066233D01*
X155025369Y-77078555D01*
X155025360Y-77078557D01*
X154812428Y-77151656D01*
X154812426Y-77151658D01*
X154614426Y-77258810D01*
X154614424Y-77258811D01*
X154436762Y-77397091D01*
X154284279Y-77562729D01*
X154195483Y-77698643D01*
X154141479Y-77744731D01*
X154071131Y-77754306D01*
X154006774Y-77724329D01*
X153984517Y-77698643D01*
X153895720Y-77562729D01*
X153743237Y-77397091D01*
X153623679Y-77304035D01*
X153565576Y-77258811D01*
X153367574Y-77151658D01*
X153367572Y-77151657D01*
X153367571Y-77151656D01*
X153154639Y-77078557D01*
X153154630Y-77078555D01*
X153110476Y-77071187D01*
X152932569Y-77041500D01*
X152707431Y-77041500D01*
X152559210Y-77066233D01*
X152485369Y-77078555D01*
X152485360Y-77078557D01*
X152272428Y-77151656D01*
X152272426Y-77151658D01*
X152074426Y-77258810D01*
X152074424Y-77258811D01*
X151896762Y-77397091D01*
X151744279Y-77562729D01*
X151655483Y-77698643D01*
X151601479Y-77744731D01*
X151531131Y-77754306D01*
X151466774Y-77724329D01*
X151444517Y-77698643D01*
X151355720Y-77562729D01*
X151203237Y-77397091D01*
X151083679Y-77304035D01*
X151025576Y-77258811D01*
X150827574Y-77151658D01*
X150827572Y-77151657D01*
X150827571Y-77151656D01*
X150614639Y-77078557D01*
X150614630Y-77078555D01*
X150570476Y-77071187D01*
X150392569Y-77041500D01*
X150167431Y-77041500D01*
X150019210Y-77066233D01*
X149945369Y-77078555D01*
X149945360Y-77078557D01*
X149732428Y-77151656D01*
X149732426Y-77151658D01*
X149534426Y-77258810D01*
X149534424Y-77258811D01*
X149356762Y-77397091D01*
X149204279Y-77562729D01*
X149204275Y-77562734D01*
X149081141Y-77751206D01*
X148990703Y-77957386D01*
X148990702Y-77957387D01*
X148935437Y-78175624D01*
X148935436Y-78175630D01*
X148935436Y-78175632D01*
X148916844Y-78400000D01*
X133000000Y-78400000D01*
X133000000Y-75876000D01*
X133020002Y-75807879D01*
X133073658Y-75761386D01*
X133126000Y-75750000D01*
X137677417Y-75750000D01*
X137745538Y-75770002D01*
X137792031Y-75823658D01*
X137802135Y-75893932D01*
X137772641Y-75958512D01*
X137766512Y-75965095D01*
X137688888Y-76042718D01*
X137688887Y-76042720D01*
X137591958Y-76196981D01*
X137591957Y-76196984D01*
X137591957Y-76196985D01*
X137531783Y-76368953D01*
X137511384Y-76550000D01*
X137531783Y-76731047D01*
X137531783Y-76731049D01*
X137531784Y-76731050D01*
X137591957Y-76903015D01*
X137591958Y-76903018D01*
X137688887Y-77057279D01*
X137688888Y-77057281D01*
X137817718Y-77186111D01*
X137817720Y-77186112D01*
X137971981Y-77283041D01*
X137971982Y-77283041D01*
X137971985Y-77283043D01*
X138143953Y-77343217D01*
X138325000Y-77363616D01*
X138506047Y-77343217D01*
X138678015Y-77283043D01*
X138832281Y-77186111D01*
X138961111Y-77057281D01*
X139058043Y-76903015D01*
X139118217Y-76731047D01*
X139138616Y-76550000D01*
X139118217Y-76368953D01*
X139058043Y-76196985D01*
X139058041Y-76196982D01*
X139058041Y-76196981D01*
X138961112Y-76042720D01*
X138961111Y-76042718D01*
X138883488Y-75965095D01*
X138849462Y-75902783D01*
X138854527Y-75831968D01*
X138897074Y-75775132D01*
X138963594Y-75750321D01*
X138972583Y-75750000D01*
X163250000Y-75750000D01*
X163250000Y-72626000D01*
X163270002Y-72557879D01*
X163323658Y-72511386D01*
X163376000Y-72500000D01*
X167574000Y-72500000D01*
X167642121Y-72520002D01*
G37*
G04 #@! TD.AperFunction*
G04 #@! TA.AperFunction,Conductor*
G36*
X150104031Y-80850530D02*
G01*
X150195879Y-80862622D01*
X150213223Y-80864906D01*
X150244491Y-80873284D01*
X150334918Y-80910740D01*
X150362952Y-80926925D01*
X150440602Y-80986509D01*
X150463491Y-81009398D01*
X150523074Y-81087048D01*
X150539259Y-81115081D01*
X150576715Y-81205508D01*
X150585093Y-81236775D01*
X150599469Y-81345964D01*
X150600000Y-81354064D01*
X150600000Y-83451190D01*
X151100098Y-83451085D01*
X151100100Y-83451085D01*
X151100104Y-83451086D01*
X151100112Y-83451085D01*
X151100113Y-83451086D01*
X154397871Y-83450396D01*
X155795840Y-83450104D01*
X155803929Y-83450633D01*
X155913137Y-83464990D01*
X155944404Y-83473362D01*
X156034857Y-83510812D01*
X156062893Y-83526994D01*
X156069317Y-83531922D01*
X156140563Y-83586577D01*
X156163457Y-83609467D01*
X156223052Y-83687119D01*
X156239242Y-83715155D01*
X156276709Y-83805595D01*
X156285089Y-83836866D01*
X156299469Y-83946071D01*
X156300000Y-83954174D01*
X156300000Y-91345934D01*
X156299469Y-91354035D01*
X156285093Y-91463224D01*
X156276715Y-91494491D01*
X156239259Y-91584918D01*
X156223074Y-91612951D01*
X156163491Y-91690601D01*
X156140601Y-91713491D01*
X156062951Y-91773074D01*
X156034918Y-91789259D01*
X155944491Y-91826715D01*
X155913224Y-91835093D01*
X155824783Y-91846737D01*
X155804031Y-91849469D01*
X155795934Y-91850000D01*
X148404066Y-91850000D01*
X148395968Y-91849469D01*
X148372457Y-91846374D01*
X148286775Y-91835093D01*
X148255508Y-91826715D01*
X148165081Y-91789259D01*
X148137048Y-91773074D01*
X148059398Y-91713491D01*
X148036508Y-91690601D01*
X147976925Y-91612951D01*
X147960740Y-91584918D01*
X147923284Y-91494491D01*
X147914906Y-91463223D01*
X147900531Y-91354035D01*
X147900000Y-91345933D01*
X147900000Y-90000003D01*
X152436384Y-90000003D01*
X152456781Y-90181041D01*
X152456782Y-90181046D01*
X152474596Y-90231954D01*
X152516957Y-90353015D01*
X152613889Y-90507281D01*
X152742719Y-90636111D01*
X152896985Y-90733043D01*
X153068953Y-90793216D01*
X153068953Y-90793217D01*
X153068958Y-90793218D01*
X153249996Y-90813616D01*
X153250000Y-90813616D01*
X153250004Y-90813616D01*
X153431041Y-90793218D01*
X153431044Y-90793217D01*
X153431047Y-90793217D01*
X153603015Y-90733043D01*
X153757281Y-90636111D01*
X153886111Y-90507281D01*
X153983043Y-90353015D01*
X154043217Y-90181047D01*
X154048403Y-90135022D01*
X154063616Y-90000003D01*
X154063616Y-89999996D01*
X154043218Y-89818958D01*
X154043217Y-89818953D01*
X154043216Y-89818952D01*
X153983043Y-89646985D01*
X153886111Y-89492719D01*
X153757281Y-89363889D01*
X153628616Y-89283043D01*
X153603017Y-89266958D01*
X153603016Y-89266957D01*
X153603015Y-89266957D01*
X153548693Y-89247949D01*
X153431046Y-89206782D01*
X153431041Y-89206781D01*
X153250004Y-89186384D01*
X153249996Y-89186384D01*
X153068958Y-89206781D01*
X153068953Y-89206782D01*
X152896982Y-89266958D01*
X152742718Y-89363889D01*
X152613889Y-89492718D01*
X152516958Y-89646982D01*
X152456782Y-89818953D01*
X152456781Y-89818958D01*
X152436384Y-89999996D01*
X152436384Y-90000003D01*
X147900000Y-90000003D01*
X147900000Y-86800003D01*
X148986384Y-86800003D01*
X149006781Y-86981041D01*
X149006782Y-86981046D01*
X149031966Y-87053017D01*
X149066957Y-87153015D01*
X149163889Y-87307281D01*
X149292719Y-87436111D01*
X149446985Y-87533043D01*
X149618953Y-87593217D01*
X149622631Y-87594504D01*
X149679407Y-87635226D01*
X149705154Y-87700179D01*
X149691698Y-87768741D01*
X149647648Y-87816540D01*
X149492718Y-87913889D01*
X149363889Y-88042718D01*
X149266958Y-88196982D01*
X149206782Y-88368953D01*
X149206781Y-88368958D01*
X149186384Y-88549996D01*
X149186384Y-88550003D01*
X149206781Y-88731041D01*
X149206782Y-88731046D01*
X149218967Y-88765868D01*
X149266957Y-88903015D01*
X149363889Y-89057281D01*
X149492719Y-89186111D01*
X149646985Y-89283043D01*
X149818953Y-89343216D01*
X149818953Y-89343217D01*
X149818958Y-89343218D01*
X149999996Y-89363616D01*
X150000000Y-89363616D01*
X150000004Y-89363616D01*
X150181041Y-89343218D01*
X150181044Y-89343217D01*
X150181047Y-89343217D01*
X150353015Y-89283043D01*
X150507281Y-89186111D01*
X150636111Y-89057281D01*
X150733043Y-88903015D01*
X150793217Y-88731047D01*
X150793217Y-88731045D01*
X150793218Y-88731043D01*
X150794332Y-88726163D01*
X150828439Y-88665183D01*
X150890099Y-88632323D01*
X150959736Y-88638016D01*
X151015241Y-88680453D01*
X151020216Y-88687776D01*
X151063889Y-88757281D01*
X151192719Y-88886111D01*
X151346985Y-88983043D01*
X151518953Y-89043216D01*
X151518953Y-89043217D01*
X151518958Y-89043218D01*
X151699996Y-89063616D01*
X151700000Y-89063616D01*
X151700004Y-89063616D01*
X151881041Y-89043218D01*
X151881044Y-89043217D01*
X151881047Y-89043217D01*
X152053015Y-88983043D01*
X152207281Y-88886111D01*
X152336111Y-88757281D01*
X152433043Y-88603015D01*
X152493217Y-88431047D01*
X152500213Y-88368958D01*
X152513616Y-88250003D01*
X152513616Y-88249996D01*
X152493218Y-88068958D01*
X152493217Y-88068953D01*
X152484037Y-88042718D01*
X152433043Y-87896985D01*
X152336111Y-87742719D01*
X152207281Y-87613889D01*
X152078616Y-87533043D01*
X152053017Y-87516958D01*
X152053016Y-87516957D01*
X152053015Y-87516957D01*
X151985170Y-87493217D01*
X151881046Y-87456782D01*
X151881041Y-87456781D01*
X151700004Y-87436384D01*
X151699996Y-87436384D01*
X151518958Y-87456781D01*
X151518953Y-87456782D01*
X151346982Y-87516958D01*
X151192718Y-87613889D01*
X151063889Y-87742718D01*
X150966958Y-87896982D01*
X150906778Y-88068964D01*
X150905664Y-88073848D01*
X150871552Y-88134825D01*
X150809888Y-88167678D01*
X150740251Y-88161979D01*
X150684750Y-88119536D01*
X150679781Y-88112220D01*
X150655670Y-88073848D01*
X150636111Y-88042719D01*
X150507281Y-87913889D01*
X150480374Y-87896982D01*
X150353015Y-87816956D01*
X150353011Y-87816955D01*
X150177368Y-87755494D01*
X150120592Y-87714772D01*
X150094845Y-87649820D01*
X150108301Y-87581258D01*
X150152351Y-87533459D01*
X150153010Y-87533044D01*
X150153015Y-87533043D01*
X150307281Y-87436111D01*
X150436111Y-87307281D01*
X150533043Y-87153015D01*
X150593217Y-86981047D01*
X150593218Y-86981041D01*
X150613616Y-86800003D01*
X150613616Y-86799996D01*
X150602350Y-86700003D01*
X153686384Y-86700003D01*
X153706781Y-86881041D01*
X153706782Y-86881046D01*
X153766958Y-87053017D01*
X153863888Y-87207281D01*
X153863889Y-87207281D01*
X153992719Y-87336111D01*
X154146985Y-87433043D01*
X154318953Y-87493216D01*
X154318953Y-87493217D01*
X154318958Y-87493218D01*
X154499996Y-87513616D01*
X154500000Y-87513616D01*
X154500004Y-87513616D01*
X154681041Y-87493218D01*
X154681044Y-87493217D01*
X154681047Y-87493217D01*
X154853015Y-87433043D01*
X155007281Y-87336111D01*
X155136111Y-87207281D01*
X155233043Y-87053015D01*
X155293217Y-86881047D01*
X155293218Y-86881041D01*
X155313616Y-86700003D01*
X155313616Y-86699996D01*
X155293218Y-86518958D01*
X155293217Y-86518953D01*
X155268033Y-86446982D01*
X155233043Y-86346985D01*
X155136111Y-86192719D01*
X155007281Y-86063889D01*
X154916396Y-86006782D01*
X154853017Y-85966958D01*
X154853016Y-85966957D01*
X154853015Y-85966957D01*
X154798693Y-85947949D01*
X154681046Y-85906782D01*
X154681041Y-85906781D01*
X154500004Y-85886384D01*
X154499996Y-85886384D01*
X154318958Y-85906781D01*
X154318953Y-85906782D01*
X154146982Y-85966958D01*
X153992718Y-86063889D01*
X153863889Y-86192718D01*
X153766958Y-86346982D01*
X153706782Y-86518953D01*
X153706781Y-86518958D01*
X153686384Y-86699996D01*
X153686384Y-86700003D01*
X150602350Y-86700003D01*
X150593218Y-86618958D01*
X150593217Y-86618953D01*
X150558227Y-86518958D01*
X150533043Y-86446985D01*
X150436111Y-86292719D01*
X150307281Y-86163889D01*
X150153015Y-86066957D01*
X150098693Y-86047949D01*
X149981046Y-86006782D01*
X149981041Y-86006781D01*
X149800004Y-85986384D01*
X149799996Y-85986384D01*
X149618958Y-86006781D01*
X149618953Y-86006782D01*
X149446982Y-86066958D01*
X149292718Y-86163889D01*
X149163889Y-86292718D01*
X149066958Y-86446982D01*
X149006782Y-86618953D01*
X149006781Y-86618958D01*
X148986384Y-86799996D01*
X148986384Y-86800003D01*
X147900000Y-86800003D01*
X147900000Y-85500003D01*
X150536384Y-85500003D01*
X150556781Y-85681041D01*
X150556782Y-85681046D01*
X150616958Y-85853017D01*
X150713575Y-86006781D01*
X150713889Y-86007281D01*
X150842719Y-86136111D01*
X150996985Y-86233043D01*
X151167527Y-86292718D01*
X151168953Y-86293217D01*
X151168958Y-86293218D01*
X151349996Y-86313616D01*
X151350000Y-86313616D01*
X151350004Y-86313616D01*
X151531041Y-86293218D01*
X151531044Y-86293217D01*
X151531047Y-86293217D01*
X151703015Y-86233043D01*
X151857281Y-86136111D01*
X151986111Y-86007281D01*
X152070006Y-85873762D01*
X152122341Y-85827472D01*
X152191394Y-85816824D01*
X152255243Y-85845199D01*
X152279993Y-85873762D01*
X152363889Y-86007281D01*
X152492719Y-86136111D01*
X152646985Y-86233043D01*
X152817527Y-86292718D01*
X152818953Y-86293217D01*
X152818958Y-86293218D01*
X152999996Y-86313616D01*
X153000000Y-86313616D01*
X153000004Y-86313616D01*
X153181041Y-86293218D01*
X153181044Y-86293217D01*
X153181047Y-86293217D01*
X153353015Y-86233043D01*
X153507281Y-86136111D01*
X153636111Y-86007281D01*
X153733043Y-85853015D01*
X153793217Y-85681047D01*
X153813616Y-85500000D01*
X153793217Y-85318953D01*
X153733043Y-85146985D01*
X153636111Y-84992719D01*
X153507281Y-84863889D01*
X153353015Y-84766957D01*
X153298693Y-84747949D01*
X153181046Y-84706782D01*
X153181041Y-84706781D01*
X153000004Y-84686384D01*
X152999996Y-84686384D01*
X152818958Y-84706781D01*
X152818953Y-84706782D01*
X152646982Y-84766958D01*
X152492718Y-84863889D01*
X152363887Y-84992720D01*
X152279993Y-85126237D01*
X152227659Y-85172527D01*
X152158605Y-85183175D01*
X152094757Y-85154800D01*
X152070007Y-85126237D01*
X151986112Y-84992720D01*
X151857281Y-84863889D01*
X151703017Y-84766958D01*
X151703016Y-84766957D01*
X151703015Y-84766957D01*
X151648693Y-84747949D01*
X151531046Y-84706782D01*
X151531041Y-84706781D01*
X151350004Y-84686384D01*
X151349996Y-84686384D01*
X151168958Y-84706781D01*
X151168953Y-84706782D01*
X150996982Y-84766958D01*
X150842718Y-84863889D01*
X150713889Y-84992718D01*
X150616958Y-85146982D01*
X150556782Y-85318953D01*
X150556781Y-85318958D01*
X150536384Y-85499996D01*
X150536384Y-85500003D01*
X147900000Y-85500003D01*
X147900000Y-83810946D01*
X147901527Y-83791549D01*
X147914057Y-83712434D01*
X147926043Y-83675539D01*
X147957930Y-83612958D01*
X147980729Y-83581579D01*
X148030389Y-83531919D01*
X148061768Y-83509120D01*
X148124349Y-83477233D01*
X148161235Y-83465248D01*
X148250000Y-83451190D01*
X148600000Y-83451190D01*
X148600000Y-81354065D01*
X148600531Y-81345964D01*
X148614906Y-81236776D01*
X148623284Y-81205508D01*
X148660740Y-81115081D01*
X148676923Y-81087050D01*
X148736513Y-81009392D01*
X148759392Y-80986513D01*
X148837050Y-80926923D01*
X148865079Y-80910740D01*
X148955509Y-80873283D01*
X148986775Y-80864906D01*
X149095967Y-80850530D01*
X149104067Y-80850000D01*
X150095933Y-80850000D01*
X150104031Y-80850530D01*
G37*
G04 #@! TD.AperFunction*
G04 #@! TA.AperFunction,Conductor*
G36*
X154942121Y-66065502D02*
G01*
X154988614Y-66119158D01*
X155000000Y-66171500D01*
X155000000Y-75110500D01*
X154979998Y-75178621D01*
X154926342Y-75225114D01*
X154874000Y-75236500D01*
X149376000Y-75236500D01*
X149307879Y-75216498D01*
X149261386Y-75162842D01*
X149250000Y-75110500D01*
X149250000Y-74750000D01*
X146000000Y-74750000D01*
X144626000Y-74750000D01*
X144557879Y-74729998D01*
X144511386Y-74676342D01*
X144500000Y-74624000D01*
X144500000Y-72500000D01*
X132376000Y-72500000D01*
X132307879Y-72479998D01*
X132261386Y-72426342D01*
X132250000Y-72374000D01*
X132250000Y-71200000D01*
X150386384Y-71200000D01*
X150406783Y-71381047D01*
X150406783Y-71381049D01*
X150406784Y-71381050D01*
X150466957Y-71553015D01*
X150466958Y-71553018D01*
X150563887Y-71707279D01*
X150563888Y-71707281D01*
X150692718Y-71836111D01*
X150692720Y-71836112D01*
X150846981Y-71933041D01*
X150846982Y-71933041D01*
X150846985Y-71933043D01*
X151018953Y-71993217D01*
X151200000Y-72013616D01*
X151381047Y-71993217D01*
X151553015Y-71933043D01*
X151707281Y-71836111D01*
X151836111Y-71707281D01*
X151933043Y-71553015D01*
X151993217Y-71381047D01*
X152013616Y-71200000D01*
X151993217Y-71018953D01*
X151933043Y-70846985D01*
X151933041Y-70846982D01*
X151933041Y-70846981D01*
X151836112Y-70692720D01*
X151836111Y-70692718D01*
X151707281Y-70563888D01*
X151707279Y-70563887D01*
X151553018Y-70466958D01*
X151553015Y-70466957D01*
X151381050Y-70406784D01*
X151381049Y-70406783D01*
X151381047Y-70406783D01*
X151200000Y-70386384D01*
X151018953Y-70406783D01*
X151018950Y-70406783D01*
X151018949Y-70406784D01*
X150846984Y-70466957D01*
X150846981Y-70466958D01*
X150692720Y-70563887D01*
X150692718Y-70563888D01*
X150563888Y-70692718D01*
X150563887Y-70692720D01*
X150466958Y-70846981D01*
X150466957Y-70846984D01*
X150466957Y-70846985D01*
X150406783Y-71018953D01*
X150386384Y-71200000D01*
X132250000Y-71200000D01*
X132250000Y-68550003D01*
X135786620Y-68550003D01*
X135806090Y-68747694D01*
X135806091Y-68747700D01*
X135806092Y-68747701D01*
X135863759Y-68937804D01*
X135957405Y-69113004D01*
X136083432Y-69266568D01*
X136236996Y-69392595D01*
X136412196Y-69486241D01*
X136602299Y-69543908D01*
X136602303Y-69543908D01*
X136602305Y-69543909D01*
X136799997Y-69563380D01*
X136800000Y-69563380D01*
X136800003Y-69563380D01*
X136997694Y-69543909D01*
X136997695Y-69543908D01*
X136997701Y-69543908D01*
X137187804Y-69486241D01*
X137363004Y-69392595D01*
X137516568Y-69266568D01*
X137642595Y-69113004D01*
X137736241Y-68937804D01*
X137793908Y-68747701D01*
X137813380Y-68550000D01*
X137813380Y-68549996D01*
X137808456Y-68500000D01*
X138936384Y-68500000D01*
X138956783Y-68681047D01*
X138956783Y-68681049D01*
X138956784Y-68681050D01*
X139016957Y-68853015D01*
X139016958Y-68853018D01*
X139113887Y-69007279D01*
X139113888Y-69007281D01*
X139242718Y-69136111D01*
X139242720Y-69136112D01*
X139396981Y-69233041D01*
X139396982Y-69233041D01*
X139396985Y-69233043D01*
X139568953Y-69293217D01*
X139750000Y-69313616D01*
X139931047Y-69293217D01*
X140103015Y-69233043D01*
X140257281Y-69136111D01*
X140386111Y-69007281D01*
X140483043Y-68853015D01*
X140543217Y-68681047D01*
X140563616Y-68500000D01*
X140543217Y-68318953D01*
X140483043Y-68146985D01*
X140483041Y-68146982D01*
X140483041Y-68146981D01*
X140386112Y-67992720D01*
X140386111Y-67992718D01*
X140257281Y-67863888D01*
X140257279Y-67863887D01*
X140103018Y-67766958D01*
X140103015Y-67766957D01*
X139931050Y-67706784D01*
X139931049Y-67706783D01*
X139931047Y-67706783D01*
X139750000Y-67686384D01*
X139568953Y-67706783D01*
X139568950Y-67706783D01*
X139568949Y-67706784D01*
X139396984Y-67766957D01*
X139396981Y-67766958D01*
X139242720Y-67863887D01*
X139242718Y-67863888D01*
X139113888Y-67992718D01*
X139113887Y-67992720D01*
X139016958Y-68146981D01*
X139016957Y-68146984D01*
X139011635Y-68162195D01*
X138956783Y-68318953D01*
X138936384Y-68500000D01*
X137808456Y-68500000D01*
X137793909Y-68352305D01*
X137793908Y-68352303D01*
X137793908Y-68352299D01*
X137736241Y-68162196D01*
X137642595Y-67986996D01*
X137516568Y-67833432D01*
X137363004Y-67707405D01*
X137187804Y-67613759D01*
X136997701Y-67556092D01*
X136997700Y-67556091D01*
X136997694Y-67556090D01*
X136800003Y-67536620D01*
X136799997Y-67536620D01*
X136602305Y-67556090D01*
X136412195Y-67613759D01*
X136236995Y-67707405D01*
X136083432Y-67833432D01*
X135957405Y-67986995D01*
X135863759Y-68162195D01*
X135806090Y-68352305D01*
X135786620Y-68549996D01*
X135786620Y-68550003D01*
X132250000Y-68550003D01*
X132250000Y-66171500D01*
X132270002Y-66103379D01*
X132323658Y-66056886D01*
X132376000Y-66045500D01*
X154874000Y-66045500D01*
X154942121Y-66065502D01*
G37*
G04 #@! TD.AperFunction*
M02*
