G04 #@! TF.GenerationSoftware,KiCad,Pcbnew,7.0.7-7.0.7~ubuntu22.04.1*
G04 #@! TF.CreationDate,2023-09-20T09:52:15-03:00*
G04 #@! TF.ProjectId,CTB-02,4354422d-3032-42e6-9b69-6361645f7063,rev?*
G04 #@! TF.SameCoordinates,Original*
G04 #@! TF.FileFunction,Copper,L4,Bot*
G04 #@! TF.FilePolarity,Positive*
%FSLAX46Y46*%
G04 Gerber Fmt 4.6, Leading zero omitted, Abs format (unit mm)*
G04 Created by KiCad (PCBNEW 7.0.7-7.0.7~ubuntu22.04.1) date 2023-09-20 09:52:15*
%MOMM*%
%LPD*%
G01*
G04 APERTURE LIST*
G04 Aperture macros list*
%AMRoundRect*
0 Rectangle with rounded corners*
0 $1 Rounding radius*
0 $2 $3 $4 $5 $6 $7 $8 $9 X,Y pos of 4 corners*
0 Add a 4 corners polygon primitive as box body*
4,1,4,$2,$3,$4,$5,$6,$7,$8,$9,$2,$3,0*
0 Add four circle primitives for the rounded corners*
1,1,$1+$1,$2,$3*
1,1,$1+$1,$4,$5*
1,1,$1+$1,$6,$7*
1,1,$1+$1,$8,$9*
0 Add four rect primitives between the rounded corners*
20,1,$1+$1,$2,$3,$4,$5,0*
20,1,$1+$1,$4,$5,$6,$7,0*
20,1,$1+$1,$6,$7,$8,$9,0*
20,1,$1+$1,$8,$9,$2,$3,0*%
G04 Aperture macros list end*
G04 #@! TA.AperFunction,ComponentPad*
%ADD10R,1.508000X1.508000*%
G04 #@! TD*
G04 #@! TA.AperFunction,ComponentPad*
%ADD11C,1.508000*%
G04 #@! TD*
G04 #@! TA.AperFunction,ComponentPad*
%ADD12R,1.700000X1.700000*%
G04 #@! TD*
G04 #@! TA.AperFunction,ComponentPad*
%ADD13O,1.700000X1.700000*%
G04 #@! TD*
G04 #@! TA.AperFunction,ComponentPad*
%ADD14C,4.000000*%
G04 #@! TD*
G04 #@! TA.AperFunction,ComponentPad*
%ADD15R,1.600000X1.600000*%
G04 #@! TD*
G04 #@! TA.AperFunction,ComponentPad*
%ADD16C,1.600000*%
G04 #@! TD*
G04 #@! TA.AperFunction,SMDPad,CuDef*
%ADD17RoundRect,0.225000X-0.250000X0.225000X-0.250000X-0.225000X0.250000X-0.225000X0.250000X0.225000X0*%
G04 #@! TD*
G04 #@! TA.AperFunction,SMDPad,CuDef*
%ADD18RoundRect,0.225000X0.225000X0.250000X-0.225000X0.250000X-0.225000X-0.250000X0.225000X-0.250000X0*%
G04 #@! TD*
G04 #@! TA.AperFunction,SMDPad,CuDef*
%ADD19RoundRect,0.200000X-0.200000X-0.275000X0.200000X-0.275000X0.200000X0.275000X-0.200000X0.275000X0*%
G04 #@! TD*
G04 #@! TA.AperFunction,SMDPad,CuDef*
%ADD20RoundRect,0.200000X0.200000X0.275000X-0.200000X0.275000X-0.200000X-0.275000X0.200000X-0.275000X0*%
G04 #@! TD*
G04 #@! TA.AperFunction,SMDPad,CuDef*
%ADD21RoundRect,0.225000X0.250000X-0.225000X0.250000X0.225000X-0.250000X0.225000X-0.250000X-0.225000X0*%
G04 #@! TD*
G04 #@! TA.AperFunction,ViaPad*
%ADD22C,0.600000*%
G04 #@! TD*
G04 #@! TA.AperFunction,ViaPad*
%ADD23C,1.000000*%
G04 #@! TD*
G04 #@! TA.AperFunction,ViaPad*
%ADD24C,0.800000*%
G04 #@! TD*
G04 #@! TA.AperFunction,Conductor*
%ADD25C,0.200000*%
G04 #@! TD*
G04 #@! TA.AperFunction,Conductor*
%ADD26C,0.500000*%
G04 #@! TD*
G04 APERTURE END LIST*
D10*
X129650000Y-83625000D03*
D11*
X129650000Y-86125000D03*
X129650000Y-88625000D03*
X129650000Y-91165000D03*
X129650000Y-93705000D03*
X129650000Y-96245000D03*
D12*
X130300000Y-75950000D03*
X157900000Y-78400000D03*
D13*
X155360000Y-78400000D03*
X152820000Y-78400000D03*
X150280000Y-78400000D03*
D14*
X137490000Y-106089669D03*
X162490000Y-106089669D03*
D15*
X144450000Y-104669669D03*
D16*
X147220000Y-104669669D03*
X149990000Y-104669669D03*
X152760000Y-104669669D03*
X155530000Y-104669669D03*
X145835000Y-107509669D03*
X148605000Y-107509669D03*
X151375000Y-107509669D03*
X154145000Y-107509669D03*
D17*
X154500000Y-85125000D03*
X154500000Y-86675000D03*
D18*
X154775000Y-90000000D03*
X153225000Y-90000000D03*
D19*
X151675000Y-88250000D03*
X153325000Y-88250000D03*
D17*
X149800000Y-85225000D03*
X149800000Y-86775000D03*
D20*
X152975000Y-85500000D03*
X151325000Y-85500000D03*
D21*
X150000000Y-90075000D03*
X150000000Y-88525000D03*
D22*
X163600000Y-76900000D03*
D23*
X169900000Y-82050000D03*
X164000000Y-73800000D03*
D22*
X160600000Y-78450000D03*
D23*
X153300000Y-81550000D03*
D22*
X165900000Y-77000000D03*
D23*
X139650000Y-90000500D03*
D22*
X170400000Y-89150000D03*
D23*
X143000000Y-73800000D03*
D22*
X163600000Y-79850000D03*
X139750000Y-68500000D03*
X149800000Y-86800000D03*
X154500000Y-86700000D03*
D24*
X162100000Y-95650000D03*
D22*
X153000000Y-85500000D03*
D23*
X136800000Y-68550000D03*
X161700000Y-73750000D03*
D22*
X151200000Y-71200000D03*
X147700000Y-101250000D03*
X158500000Y-71500000D03*
X146000000Y-101250000D03*
X160600000Y-80000000D03*
X149400000Y-101200000D03*
X143800000Y-88100000D03*
D24*
X169600000Y-94750000D03*
D23*
X167550000Y-99112500D03*
D22*
X134900000Y-80300000D03*
X165900000Y-78600000D03*
X150000000Y-88550000D03*
X144450000Y-84350000D03*
X136137500Y-93862500D03*
X138325000Y-76550000D03*
X153250000Y-90000000D03*
X144250000Y-80000000D03*
D23*
X147500000Y-71250000D03*
D22*
X153962500Y-73037500D03*
D23*
X145300000Y-73750000D03*
X146000000Y-71250000D03*
X143000000Y-69750000D03*
D22*
X151250000Y-74250000D03*
D23*
X147500000Y-69750000D03*
X146000000Y-69750000D03*
D22*
X153200000Y-73000000D03*
D23*
X144500000Y-71250000D03*
X143000000Y-71250000D03*
X144500000Y-69750000D03*
D22*
X157600000Y-85500000D03*
X154880000Y-82200000D03*
X146749502Y-89498911D03*
X146250000Y-81100000D03*
D23*
X140150000Y-82600000D03*
D22*
X140150000Y-79300000D03*
X151150000Y-101200000D03*
X152900000Y-101250000D03*
X151350000Y-85500000D03*
X151700000Y-88250000D03*
D23*
X149300000Y-81550000D03*
D22*
X150000000Y-90100000D03*
X154800000Y-90000000D03*
X154500000Y-85150000D03*
X149800000Y-85200000D03*
X153350000Y-88250000D03*
D25*
X157600000Y-85500000D02*
X157600000Y-80640000D01*
X157600000Y-80640000D02*
X155360000Y-78400000D01*
X154880000Y-82200000D02*
X154800000Y-82120000D01*
X154800000Y-82120000D02*
X154800000Y-80380000D01*
X154800000Y-80380000D02*
X152820000Y-78400000D01*
X146749502Y-83499502D02*
X146749502Y-89498911D01*
X146250000Y-81100000D02*
X146250000Y-83000000D01*
X146250000Y-83000000D02*
X146749502Y-83499502D01*
D26*
X140150000Y-79350000D02*
X140137500Y-79337500D01*
X140150000Y-82600000D02*
X140150000Y-79350000D01*
D25*
X148605000Y-107509669D02*
X148605000Y-106445000D01*
X150700000Y-106050000D02*
X151400000Y-105350000D01*
X148605000Y-106445000D02*
X149000000Y-106050000D01*
X151150000Y-102400000D02*
X151150000Y-101200000D01*
X149000000Y-106050000D02*
X150700000Y-106050000D01*
X151400000Y-105350000D02*
X151400000Y-102650000D01*
X151400000Y-102650000D02*
X151150000Y-102400000D01*
X151375000Y-106475000D02*
X151750000Y-106100000D01*
X153350000Y-106100000D02*
X154150000Y-105300000D01*
X152900000Y-102150000D02*
X152900000Y-101250000D01*
X154150000Y-105300000D02*
X154150000Y-103400000D01*
X151375000Y-107509669D02*
X151375000Y-106475000D01*
X154150000Y-103400000D02*
X152900000Y-102150000D01*
X151750000Y-106100000D02*
X153350000Y-106100000D01*
G04 #@! TA.AperFunction,Conductor*
G36*
X172741621Y-66065502D02*
G01*
X172788114Y-66119158D01*
X172799500Y-66171500D01*
X172799500Y-113918500D01*
X172779498Y-113986621D01*
X172725842Y-114033114D01*
X172673500Y-114044500D01*
X127126500Y-114044500D01*
X127058379Y-114024498D01*
X127011886Y-113970842D01*
X127000500Y-113918500D01*
X127000500Y-112000000D01*
X127444341Y-112000000D01*
X127464937Y-112235411D01*
X127526096Y-112463661D01*
X127526098Y-112463665D01*
X127625966Y-112677832D01*
X127761498Y-112871392D01*
X127761502Y-112871397D01*
X127761505Y-112871401D01*
X127928599Y-113038495D01*
X127928603Y-113038498D01*
X127928607Y-113038501D01*
X128122167Y-113174033D01*
X128122166Y-113174033D01*
X128198304Y-113209536D01*
X128336337Y-113273903D01*
X128564592Y-113335063D01*
X128741034Y-113350500D01*
X128741035Y-113350500D01*
X128858965Y-113350500D01*
X128858966Y-113350500D01*
X129035408Y-113335063D01*
X129263663Y-113273903D01*
X129477829Y-113174035D01*
X129671401Y-113038495D01*
X129838495Y-112871401D01*
X129974035Y-112677830D01*
X130073903Y-112463663D01*
X130135063Y-112235408D01*
X130155659Y-112000000D01*
X169444341Y-112000000D01*
X169464937Y-112235411D01*
X169526096Y-112463661D01*
X169526098Y-112463665D01*
X169625966Y-112677832D01*
X169761498Y-112871392D01*
X169761502Y-112871397D01*
X169761505Y-112871401D01*
X169928599Y-113038495D01*
X169928603Y-113038498D01*
X169928607Y-113038501D01*
X170122167Y-113174033D01*
X170122166Y-113174033D01*
X170198304Y-113209536D01*
X170336337Y-113273903D01*
X170564592Y-113335063D01*
X170741034Y-113350500D01*
X170741035Y-113350500D01*
X170858965Y-113350500D01*
X170858966Y-113350500D01*
X171035408Y-113335063D01*
X171263663Y-113273903D01*
X171477829Y-113174035D01*
X171671401Y-113038495D01*
X171838495Y-112871401D01*
X171974035Y-112677830D01*
X172073903Y-112463663D01*
X172135063Y-112235408D01*
X172155659Y-112000000D01*
X172135063Y-111764592D01*
X172073903Y-111536337D01*
X171974035Y-111322171D01*
X171974034Y-111322169D01*
X171974033Y-111322167D01*
X171838501Y-111128607D01*
X171838497Y-111128602D01*
X171838495Y-111128599D01*
X171671401Y-110961505D01*
X171671397Y-110961502D01*
X171671392Y-110961498D01*
X171477832Y-110825966D01*
X171477833Y-110825966D01*
X171263665Y-110726098D01*
X171263661Y-110726096D01*
X171035411Y-110664937D01*
X170903076Y-110653359D01*
X170858966Y-110649500D01*
X170741034Y-110649500D01*
X170705745Y-110652587D01*
X170564588Y-110664937D01*
X170336338Y-110726096D01*
X170336334Y-110726098D01*
X170122167Y-110825966D01*
X169928607Y-110961498D01*
X169928596Y-110961507D01*
X169761507Y-111128596D01*
X169761502Y-111128602D01*
X169625965Y-111322169D01*
X169526098Y-111536334D01*
X169526096Y-111536338D01*
X169464937Y-111764588D01*
X169444341Y-112000000D01*
X130155659Y-112000000D01*
X130135063Y-111764592D01*
X130073903Y-111536337D01*
X129974035Y-111322171D01*
X129974034Y-111322169D01*
X129974033Y-111322167D01*
X129838501Y-111128607D01*
X129838497Y-111128602D01*
X129838495Y-111128599D01*
X129671401Y-110961505D01*
X129671397Y-110961502D01*
X129671392Y-110961498D01*
X129477832Y-110825966D01*
X129477833Y-110825966D01*
X129263665Y-110726098D01*
X129263661Y-110726096D01*
X129035411Y-110664937D01*
X128903076Y-110653359D01*
X128858966Y-110649500D01*
X128741034Y-110649500D01*
X128705745Y-110652587D01*
X128564588Y-110664937D01*
X128336338Y-110726096D01*
X128336334Y-110726098D01*
X128122167Y-110825966D01*
X127928607Y-110961498D01*
X127928596Y-110961507D01*
X127761507Y-111128596D01*
X127761502Y-111128602D01*
X127625965Y-111322169D01*
X127526098Y-111536334D01*
X127526096Y-111536338D01*
X127464937Y-111764588D01*
X127444341Y-112000000D01*
X127000500Y-112000000D01*
X127000500Y-106089675D01*
X134976540Y-106089675D01*
X134996357Y-106404676D01*
X134996359Y-106404693D01*
X135055504Y-106714736D01*
X135055507Y-106714749D01*
X135153039Y-107014923D01*
X135153044Y-107014935D01*
X135287438Y-107300538D01*
X135287440Y-107300541D01*
X135287443Y-107300547D01*
X135456562Y-107567037D01*
X135657763Y-107810247D01*
X135657766Y-107810249D01*
X135657767Y-107810251D01*
X135887860Y-108026323D01*
X136143221Y-108211853D01*
X136419821Y-108363916D01*
X136713298Y-108480112D01*
X137019025Y-108558609D01*
X137019033Y-108558610D01*
X137019032Y-108558610D01*
X137183129Y-108579339D01*
X137332179Y-108598169D01*
X137332183Y-108598169D01*
X137647817Y-108598169D01*
X137647821Y-108598169D01*
X137960975Y-108558609D01*
X138266702Y-108480112D01*
X138560179Y-108363916D01*
X138836779Y-108211853D01*
X139092140Y-108026323D01*
X139322233Y-107810251D01*
X139523432Y-107567044D01*
X139523434Y-107567039D01*
X139523437Y-107567037D01*
X139692556Y-107300547D01*
X139692562Y-107300538D01*
X139826956Y-107014935D01*
X139924495Y-106714741D01*
X139983641Y-106404689D01*
X139983642Y-106404676D01*
X140003460Y-106089675D01*
X140003460Y-106089662D01*
X139983642Y-105774661D01*
X139983640Y-105774644D01*
X139980076Y-105755962D01*
X139934743Y-105518318D01*
X143141500Y-105518318D01*
X143148009Y-105578865D01*
X143148011Y-105578873D01*
X143199110Y-105715871D01*
X143199112Y-105715876D01*
X143286738Y-105832930D01*
X143403792Y-105920556D01*
X143403794Y-105920557D01*
X143403796Y-105920558D01*
X143462875Y-105942593D01*
X143540795Y-105971657D01*
X143540803Y-105971659D01*
X143601350Y-105978168D01*
X143601355Y-105978168D01*
X143601362Y-105978169D01*
X143601368Y-105978169D01*
X145298632Y-105978169D01*
X145298638Y-105978169D01*
X145298645Y-105978168D01*
X145298649Y-105978168D01*
X145359196Y-105971659D01*
X145359199Y-105971658D01*
X145359201Y-105971658D01*
X145496204Y-105920558D01*
X145518389Y-105903951D01*
X145613261Y-105832930D01*
X145700887Y-105715876D01*
X145700887Y-105715875D01*
X145700889Y-105715873D01*
X145751989Y-105578870D01*
X145756077Y-105540852D01*
X145758499Y-105518318D01*
X145758500Y-105518301D01*
X145758500Y-105199995D01*
X145778502Y-105131874D01*
X145832158Y-105085381D01*
X145902432Y-105075277D01*
X145967012Y-105104771D01*
X145998695Y-105146746D01*
X146082475Y-105326416D01*
X146174025Y-105457162D01*
X146213802Y-105513969D01*
X146375700Y-105675867D01*
X146563251Y-105807192D01*
X146770757Y-105903953D01*
X146991913Y-105963212D01*
X147220000Y-105983167D01*
X147448087Y-105963212D01*
X147669243Y-105903953D01*
X147876749Y-105807192D01*
X148064300Y-105675867D01*
X148226198Y-105513969D01*
X148357523Y-105326418D01*
X148454284Y-105118912D01*
X148483293Y-105010646D01*
X148520245Y-104950025D01*
X148584105Y-104919004D01*
X148654600Y-104927432D01*
X148709347Y-104972635D01*
X148726707Y-105010648D01*
X148755715Y-105118909D01*
X148755717Y-105118915D01*
X148846115Y-105312775D01*
X148856776Y-105382967D01*
X148827796Y-105447780D01*
X148780140Y-105482433D01*
X148693125Y-105518476D01*
X148693123Y-105518477D01*
X148693122Y-105518478D01*
X148648372Y-105540852D01*
X148629042Y-105567644D01*
X148628476Y-105568081D01*
X148600607Y-105589466D01*
X148600598Y-105589473D01*
X148566012Y-105616013D01*
X148544035Y-105644653D01*
X148538597Y-105650853D01*
X148205852Y-105983598D01*
X148199651Y-105989036D01*
X148171011Y-106011014D01*
X148145460Y-106044311D01*
X148145440Y-106044339D01*
X148073473Y-106138127D01*
X148023470Y-106258851D01*
X148012162Y-106286148D01*
X148010106Y-106293822D01*
X147973153Y-106354444D01*
X147951415Y-106370319D01*
X147948249Y-106372147D01*
X147760708Y-106503464D01*
X147760697Y-106503473D01*
X147598804Y-106665366D01*
X147598799Y-106665372D01*
X147467477Y-106852919D01*
X147370717Y-107060422D01*
X147370715Y-107060428D01*
X147341707Y-107168689D01*
X147304755Y-107229312D01*
X147240894Y-107260333D01*
X147170400Y-107251905D01*
X147115653Y-107206702D01*
X147098293Y-107168689D01*
X147069284Y-107060426D01*
X146972523Y-106852920D01*
X146841198Y-106665369D01*
X146679300Y-106503471D01*
X146491749Y-106372146D01*
X146323782Y-106293822D01*
X146284246Y-106275386D01*
X146284240Y-106275384D01*
X146190771Y-106250339D01*
X146063087Y-106216126D01*
X145835000Y-106196171D01*
X145606913Y-106216126D01*
X145385759Y-106275384D01*
X145385753Y-106275386D01*
X145178250Y-106372146D01*
X144990703Y-106503468D01*
X144990697Y-106503473D01*
X144828804Y-106665366D01*
X144828799Y-106665372D01*
X144697477Y-106852919D01*
X144600717Y-107060422D01*
X144600716Y-107060426D01*
X144541457Y-107281582D01*
X144521502Y-107509669D01*
X144541457Y-107737756D01*
X144600716Y-107958912D01*
X144697477Y-108166418D01*
X144828802Y-108353969D01*
X144990700Y-108515867D01*
X145178251Y-108647192D01*
X145385757Y-108743953D01*
X145606913Y-108803212D01*
X145835000Y-108823167D01*
X146063087Y-108803212D01*
X146284243Y-108743953D01*
X146491749Y-108647192D01*
X146679300Y-108515867D01*
X146841198Y-108353969D01*
X146972523Y-108166418D01*
X147069284Y-107958912D01*
X147098293Y-107850646D01*
X147135245Y-107790025D01*
X147199105Y-107759004D01*
X147269600Y-107767432D01*
X147324347Y-107812635D01*
X147341705Y-107850645D01*
X147370716Y-107958912D01*
X147467477Y-108166418D01*
X147598802Y-108353969D01*
X147760700Y-108515867D01*
X147948251Y-108647192D01*
X148155757Y-108743953D01*
X148376913Y-108803212D01*
X148605000Y-108823167D01*
X148833087Y-108803212D01*
X149054243Y-108743953D01*
X149261749Y-108647192D01*
X149449300Y-108515867D01*
X149611198Y-108353969D01*
X149742523Y-108166418D01*
X149839284Y-107958912D01*
X149868293Y-107850646D01*
X149905245Y-107790025D01*
X149969105Y-107759004D01*
X150039600Y-107767432D01*
X150094347Y-107812635D01*
X150111705Y-107850645D01*
X150140716Y-107958912D01*
X150237477Y-108166418D01*
X150368802Y-108353969D01*
X150530700Y-108515867D01*
X150718251Y-108647192D01*
X150925757Y-108743953D01*
X151146913Y-108803212D01*
X151375000Y-108823167D01*
X151603087Y-108803212D01*
X151824243Y-108743953D01*
X152031749Y-108647192D01*
X152219300Y-108515867D01*
X152381198Y-108353969D01*
X152512523Y-108166418D01*
X152609284Y-107958912D01*
X152638293Y-107850646D01*
X152675245Y-107790025D01*
X152739105Y-107759004D01*
X152809600Y-107767432D01*
X152864347Y-107812635D01*
X152881705Y-107850645D01*
X152910716Y-107958912D01*
X153007477Y-108166418D01*
X153138802Y-108353969D01*
X153300700Y-108515867D01*
X153488251Y-108647192D01*
X153695757Y-108743953D01*
X153916913Y-108803212D01*
X154145000Y-108823167D01*
X154373087Y-108803212D01*
X154594243Y-108743953D01*
X154801749Y-108647192D01*
X154989300Y-108515867D01*
X155151198Y-108353969D01*
X155282523Y-108166418D01*
X155379284Y-107958912D01*
X155438543Y-107737756D01*
X155458498Y-107509669D01*
X155438543Y-107281582D01*
X155379284Y-107060426D01*
X155282523Y-106852920D01*
X155151198Y-106665369D01*
X154989300Y-106503471D01*
X154801749Y-106372146D01*
X154633782Y-106293822D01*
X154594246Y-106275386D01*
X154594240Y-106275384D01*
X154532538Y-106258851D01*
X154373087Y-106216126D01*
X154373083Y-106216125D01*
X154367774Y-106214703D01*
X154368169Y-106213226D01*
X154310922Y-106184836D01*
X154274468Y-106123913D01*
X154275564Y-106089675D01*
X159976540Y-106089675D01*
X159996357Y-106404676D01*
X159996359Y-106404693D01*
X160055504Y-106714736D01*
X160055507Y-106714749D01*
X160153039Y-107014923D01*
X160153044Y-107014935D01*
X160287438Y-107300538D01*
X160287440Y-107300541D01*
X160287443Y-107300547D01*
X160456562Y-107567037D01*
X160657763Y-107810247D01*
X160657766Y-107810249D01*
X160657767Y-107810251D01*
X160887860Y-108026323D01*
X161143221Y-108211853D01*
X161419821Y-108363916D01*
X161713298Y-108480112D01*
X162019025Y-108558609D01*
X162019033Y-108558610D01*
X162019032Y-108558610D01*
X162183129Y-108579339D01*
X162332179Y-108598169D01*
X162332183Y-108598169D01*
X162647817Y-108598169D01*
X162647821Y-108598169D01*
X162960975Y-108558609D01*
X163266702Y-108480112D01*
X163560179Y-108363916D01*
X163836779Y-108211853D01*
X164092140Y-108026323D01*
X164322233Y-107810251D01*
X164523432Y-107567044D01*
X164523434Y-107567039D01*
X164523437Y-107567037D01*
X164692556Y-107300547D01*
X164692562Y-107300538D01*
X164826956Y-107014935D01*
X164924495Y-106714741D01*
X164983641Y-106404689D01*
X164983642Y-106404676D01*
X165003460Y-106089675D01*
X165003460Y-106089662D01*
X164983642Y-105774661D01*
X164983640Y-105774644D01*
X164980076Y-105755962D01*
X164924495Y-105464597D01*
X164866565Y-105286307D01*
X164826960Y-105164414D01*
X164826955Y-105164401D01*
X164805551Y-105118915D01*
X164692562Y-104878800D01*
X164605466Y-104741558D01*
X164523437Y-104612300D01*
X164322236Y-104369090D01*
X164279213Y-104328689D01*
X164092140Y-104153015D01*
X164073321Y-104139342D01*
X163836781Y-103967486D01*
X163790020Y-103941779D01*
X163560179Y-103815422D01*
X163266702Y-103699226D01*
X162960975Y-103620729D01*
X162960970Y-103620728D01*
X162960965Y-103620727D01*
X162960967Y-103620727D01*
X162647835Y-103581170D01*
X162647824Y-103581169D01*
X162647821Y-103581169D01*
X162332179Y-103581169D01*
X162332176Y-103581169D01*
X162332164Y-103581170D01*
X162019033Y-103620727D01*
X161713301Y-103699225D01*
X161419821Y-103815422D01*
X161143218Y-103967486D01*
X160887861Y-104153014D01*
X160887860Y-104153014D01*
X160657763Y-104369090D01*
X160456562Y-104612300D01*
X160287443Y-104878790D01*
X160287436Y-104878804D01*
X160153044Y-105164401D01*
X160153039Y-105164414D01*
X160055507Y-105464588D01*
X160055504Y-105464601D01*
X159996359Y-105774644D01*
X159996357Y-105774661D01*
X159976540Y-106089662D01*
X159976540Y-106089675D01*
X154275564Y-106089675D01*
X154276739Y-106052952D01*
X154307341Y-106003206D01*
X154549160Y-105761387D01*
X154555341Y-105755966D01*
X154583987Y-105733987D01*
X154583993Y-105733978D01*
X154585653Y-105732320D01*
X154587410Y-105731360D01*
X154590540Y-105728959D01*
X154590914Y-105729446D01*
X154647963Y-105698291D01*
X154718779Y-105703351D01*
X154747025Y-105718197D01*
X154873501Y-105806756D01*
X155080926Y-105903480D01*
X155080931Y-105903482D01*
X155301999Y-105962717D01*
X155301995Y-105962717D01*
X155530000Y-105982664D01*
X155758002Y-105962717D01*
X155979068Y-105903482D01*
X155979073Y-105903480D01*
X156186497Y-105806757D01*
X156257888Y-105756768D01*
X156257888Y-105756767D01*
X155787427Y-105286307D01*
X155753402Y-105223994D01*
X155758466Y-105153179D01*
X155797145Y-105101509D01*
X155796289Y-105100522D01*
X155800830Y-105096586D01*
X155801013Y-105096343D01*
X155801510Y-105095997D01*
X155803095Y-105094622D01*
X155803100Y-105094621D01*
X155911761Y-105000467D01*
X155947824Y-104944350D01*
X156001478Y-104897858D01*
X156071752Y-104887753D01*
X156136333Y-104917245D01*
X156142918Y-104923376D01*
X156617098Y-105397557D01*
X156617099Y-105397557D01*
X156667088Y-105326166D01*
X156763811Y-105118742D01*
X156763813Y-105118737D01*
X156823048Y-104897671D01*
X156842995Y-104669669D01*
X156823048Y-104441666D01*
X156763813Y-104220600D01*
X156763811Y-104220595D01*
X156667086Y-104013167D01*
X156617100Y-103941779D01*
X156617098Y-103941779D01*
X156142916Y-104415961D01*
X156080604Y-104449986D01*
X156009788Y-104444921D01*
X155952953Y-104402374D01*
X155947836Y-104395005D01*
X155911761Y-104338871D01*
X155803100Y-104244717D01*
X155803098Y-104244716D01*
X155796289Y-104238816D01*
X155798312Y-104236480D01*
X155761912Y-104194478D01*
X155751802Y-104124205D01*
X155781290Y-104059621D01*
X155787426Y-104053030D01*
X156257888Y-103582568D01*
X156257888Y-103582567D01*
X156186501Y-103532582D01*
X155979073Y-103435857D01*
X155979068Y-103435855D01*
X155758000Y-103376620D01*
X155758004Y-103376620D01*
X155530000Y-103356673D01*
X155301997Y-103376620D01*
X155080931Y-103435855D01*
X155080921Y-103435859D01*
X154942284Y-103500506D01*
X154872093Y-103511167D01*
X154807280Y-103482187D01*
X154768424Y-103422767D01*
X154764113Y-103402757D01*
X154760158Y-103372717D01*
X154758500Y-103360120D01*
X154758500Y-103360115D01*
X154742838Y-103241150D01*
X154682310Y-103095024D01*
X154681664Y-103093307D01*
X154608477Y-102997929D01*
X154583989Y-102966016D01*
X154583987Y-102966013D01*
X154555341Y-102944032D01*
X154549148Y-102938600D01*
X153545405Y-101934856D01*
X153511379Y-101872544D01*
X153508500Y-101845761D01*
X153508500Y-101835993D01*
X153528502Y-101767872D01*
X153535999Y-101757421D01*
X153536104Y-101757287D01*
X153536111Y-101757281D01*
X153633043Y-101603015D01*
X153693217Y-101431047D01*
X153713616Y-101250000D01*
X153693217Y-101068953D01*
X153633043Y-100896985D01*
X153633041Y-100896982D01*
X153633041Y-100896981D01*
X153536112Y-100742720D01*
X153536111Y-100742718D01*
X153407281Y-100613888D01*
X153407279Y-100613887D01*
X153253018Y-100516958D01*
X153253015Y-100516957D01*
X153081050Y-100456784D01*
X153081049Y-100456783D01*
X153081047Y-100456783D01*
X152900000Y-100436384D01*
X152718953Y-100456783D01*
X152718950Y-100456783D01*
X152718949Y-100456784D01*
X152546984Y-100516957D01*
X152546981Y-100516958D01*
X152392720Y-100613887D01*
X152392718Y-100613888D01*
X152263888Y-100742718D01*
X152263887Y-100742720D01*
X152166958Y-100896981D01*
X152152676Y-100937797D01*
X152111296Y-100995488D01*
X152045295Y-101021650D01*
X151975628Y-101007975D01*
X151924413Y-100958807D01*
X151914822Y-100937806D01*
X151883043Y-100846985D01*
X151786112Y-100692720D01*
X151786111Y-100692718D01*
X151657281Y-100563888D01*
X151657279Y-100563887D01*
X151503018Y-100466958D01*
X151503015Y-100466957D01*
X151331050Y-100406784D01*
X151331049Y-100406783D01*
X151331047Y-100406783D01*
X151150000Y-100386384D01*
X150968953Y-100406783D01*
X150968950Y-100406783D01*
X150968949Y-100406784D01*
X150796984Y-100466957D01*
X150796981Y-100466958D01*
X150642720Y-100563887D01*
X150642718Y-100563888D01*
X150513888Y-100692718D01*
X150513887Y-100692720D01*
X150416958Y-100846981D01*
X150416957Y-100846984D01*
X150364994Y-100995488D01*
X150356783Y-101018953D01*
X150336384Y-101200000D01*
X150356783Y-101381047D01*
X150356783Y-101381049D01*
X150356784Y-101381050D01*
X150416957Y-101553015D01*
X150416958Y-101553018D01*
X150513883Y-101707273D01*
X150514001Y-101707421D01*
X150514047Y-101707534D01*
X150517653Y-101713273D01*
X150516648Y-101713904D01*
X150540844Y-101773148D01*
X150541500Y-101785993D01*
X150541500Y-102355988D01*
X150540960Y-102364219D01*
X150536250Y-102399998D01*
X150536250Y-102400001D01*
X150541218Y-102437738D01*
X150541219Y-102437748D01*
X150543737Y-102456876D01*
X150557161Y-102558849D01*
X150618475Y-102706874D01*
X150618477Y-102706877D01*
X150691522Y-102802071D01*
X150691525Y-102802074D01*
X150716014Y-102833988D01*
X150744651Y-102855962D01*
X150750844Y-102861393D01*
X150754595Y-102865144D01*
X150788621Y-102927456D01*
X150791500Y-102954239D01*
X150791500Y-103401863D01*
X150771498Y-103469984D01*
X150717842Y-103516477D01*
X150647568Y-103526581D01*
X150612251Y-103516058D01*
X150439250Y-103435388D01*
X150439246Y-103435386D01*
X150439243Y-103435385D01*
X150439241Y-103435384D01*
X150439240Y-103435384D01*
X150345771Y-103410339D01*
X150218087Y-103376126D01*
X149990000Y-103356171D01*
X149989999Y-103356171D01*
X149761913Y-103376126D01*
X149540759Y-103435384D01*
X149540753Y-103435386D01*
X149333250Y-103532146D01*
X149145703Y-103663468D01*
X149145697Y-103663473D01*
X148983804Y-103825366D01*
X148983799Y-103825372D01*
X148852477Y-104012919D01*
X148755717Y-104220422D01*
X148755715Y-104220428D01*
X148726707Y-104328689D01*
X148689755Y-104389312D01*
X148625894Y-104420333D01*
X148555400Y-104411905D01*
X148500653Y-104366702D01*
X148483293Y-104328689D01*
X148466318Y-104265338D01*
X148454284Y-104220426D01*
X148357523Y-104012920D01*
X148226198Y-103825369D01*
X148064300Y-103663471D01*
X148003255Y-103620727D01*
X147876749Y-103532146D01*
X147669246Y-103435386D01*
X147669240Y-103435384D01*
X147575771Y-103410339D01*
X147448087Y-103376126D01*
X147220000Y-103356171D01*
X146991913Y-103376126D01*
X146770759Y-103435384D01*
X146770753Y-103435386D01*
X146563250Y-103532146D01*
X146375703Y-103663468D01*
X146375697Y-103663473D01*
X146213804Y-103825366D01*
X146213799Y-103825372D01*
X146082477Y-104012919D01*
X145998695Y-104192592D01*
X145951778Y-104245877D01*
X145883501Y-104265338D01*
X145815541Y-104244796D01*
X145769475Y-104190774D01*
X145758500Y-104139342D01*
X145758500Y-103821036D01*
X145758499Y-103821019D01*
X145751990Y-103760472D01*
X145751988Y-103760464D01*
X145715811Y-103663473D01*
X145700889Y-103623465D01*
X145700888Y-103623463D01*
X145700887Y-103623461D01*
X145613261Y-103506407D01*
X145496207Y-103418781D01*
X145496202Y-103418779D01*
X145359204Y-103367680D01*
X145359196Y-103367678D01*
X145298649Y-103361169D01*
X145298638Y-103361169D01*
X143601362Y-103361169D01*
X143601350Y-103361169D01*
X143540803Y-103367678D01*
X143540795Y-103367680D01*
X143403797Y-103418779D01*
X143403792Y-103418781D01*
X143286738Y-103506407D01*
X143199112Y-103623461D01*
X143199110Y-103623466D01*
X143148011Y-103760464D01*
X143148009Y-103760472D01*
X143141500Y-103821019D01*
X143141500Y-105518318D01*
X139934743Y-105518318D01*
X139924495Y-105464597D01*
X139866565Y-105286307D01*
X139826960Y-105164414D01*
X139826955Y-105164401D01*
X139805551Y-105118915D01*
X139692562Y-104878800D01*
X139605466Y-104741558D01*
X139523437Y-104612300D01*
X139322236Y-104369090D01*
X139279213Y-104328689D01*
X139092140Y-104153015D01*
X139073321Y-104139342D01*
X138836781Y-103967486D01*
X138790020Y-103941779D01*
X138560179Y-103815422D01*
X138266702Y-103699226D01*
X137960975Y-103620729D01*
X137960970Y-103620728D01*
X137960965Y-103620727D01*
X137960967Y-103620727D01*
X137647835Y-103581170D01*
X137647824Y-103581169D01*
X137647821Y-103581169D01*
X137332179Y-103581169D01*
X137332176Y-103581169D01*
X137332164Y-103581170D01*
X137019033Y-103620727D01*
X136713301Y-103699225D01*
X136419821Y-103815422D01*
X136143218Y-103967486D01*
X135887861Y-104153014D01*
X135887860Y-104153014D01*
X135657763Y-104369090D01*
X135456562Y-104612300D01*
X135287443Y-104878790D01*
X135287436Y-104878804D01*
X135153044Y-105164401D01*
X135153039Y-105164414D01*
X135055507Y-105464588D01*
X135055504Y-105464601D01*
X134996359Y-105774644D01*
X134996357Y-105774661D01*
X134976540Y-106089662D01*
X134976540Y-106089675D01*
X127000500Y-106089675D01*
X127000500Y-96245000D01*
X128382677Y-96245000D01*
X128401930Y-96465068D01*
X128459106Y-96678450D01*
X128552466Y-96878662D01*
X128679174Y-97059620D01*
X128835380Y-97215826D01*
X129016338Y-97342534D01*
X129216550Y-97435894D01*
X129429932Y-97493070D01*
X129650000Y-97512323D01*
X129870068Y-97493070D01*
X130083450Y-97435894D01*
X130283662Y-97342534D01*
X130464620Y-97215826D01*
X130620826Y-97059620D01*
X130747534Y-96878662D01*
X130840894Y-96678450D01*
X130898070Y-96465068D01*
X130917323Y-96245000D01*
X130898070Y-96024932D01*
X130840894Y-95811550D01*
X130747534Y-95611339D01*
X130747533Y-95611338D01*
X130747532Y-95611335D01*
X130620830Y-95430384D01*
X130620827Y-95430381D01*
X130620820Y-95430374D01*
X130464620Y-95274174D01*
X130464613Y-95274169D01*
X130283660Y-95147464D01*
X130158699Y-95089195D01*
X130105413Y-95042278D01*
X130085952Y-94974001D01*
X130106494Y-94906041D01*
X130158699Y-94860805D01*
X130283660Y-94802535D01*
X130283660Y-94802534D01*
X130283662Y-94802534D01*
X130464620Y-94675826D01*
X130620826Y-94519620D01*
X130747534Y-94338662D01*
X130840894Y-94138450D01*
X130898070Y-93925068D01*
X130917323Y-93705000D01*
X130898070Y-93484932D01*
X130840894Y-93271550D01*
X130747534Y-93071339D01*
X130747533Y-93071338D01*
X130747532Y-93071335D01*
X130620830Y-92890384D01*
X130620827Y-92890381D01*
X130620820Y-92890374D01*
X130464620Y-92734174D01*
X130464613Y-92734169D01*
X130283660Y-92607464D01*
X130158699Y-92549195D01*
X130105413Y-92502278D01*
X130085952Y-92434001D01*
X130106494Y-92366041D01*
X130158699Y-92320805D01*
X130283660Y-92262535D01*
X130283660Y-92262534D01*
X130283662Y-92262534D01*
X130464620Y-92135826D01*
X130620826Y-91979620D01*
X130747534Y-91798662D01*
X130840894Y-91598450D01*
X130898070Y-91385068D01*
X130917323Y-91165000D01*
X130898070Y-90944932D01*
X130840894Y-90731550D01*
X130747534Y-90531339D01*
X130747533Y-90531338D01*
X130747532Y-90531335D01*
X130620830Y-90350384D01*
X130620827Y-90350381D01*
X130562572Y-90292126D01*
X130464620Y-90194174D01*
X130283662Y-90067466D01*
X130283661Y-90067465D01*
X130158106Y-90008918D01*
X130148549Y-90000503D01*
X138636620Y-90000503D01*
X138656090Y-90198194D01*
X138656091Y-90198200D01*
X138656092Y-90198201D01*
X138713759Y-90388304D01*
X138807405Y-90563504D01*
X138933432Y-90717068D01*
X139086996Y-90843095D01*
X139262196Y-90936741D01*
X139452299Y-90994408D01*
X139452303Y-90994408D01*
X139452305Y-90994409D01*
X139649997Y-91013880D01*
X139650000Y-91013880D01*
X139650003Y-91013880D01*
X139847694Y-90994409D01*
X139847695Y-90994408D01*
X139847701Y-90994408D01*
X140037804Y-90936741D01*
X140213004Y-90843095D01*
X140366568Y-90717068D01*
X140492595Y-90563504D01*
X140586241Y-90388304D01*
X140643908Y-90198201D01*
X140644305Y-90194178D01*
X140663380Y-90000503D01*
X140663380Y-90000496D01*
X140643909Y-89802805D01*
X140643908Y-89802803D01*
X140643908Y-89802799D01*
X140586241Y-89612696D01*
X140492595Y-89437496D01*
X140366568Y-89283932D01*
X140213004Y-89157905D01*
X140037804Y-89064259D01*
X139847701Y-89006592D01*
X139847700Y-89006591D01*
X139847694Y-89006590D01*
X139650003Y-88987120D01*
X139649997Y-88987120D01*
X139452305Y-89006590D01*
X139262195Y-89064259D01*
X139086995Y-89157905D01*
X138933432Y-89283932D01*
X138807405Y-89437495D01*
X138713759Y-89612695D01*
X138656090Y-89802805D01*
X138636620Y-90000496D01*
X138636620Y-90000503D01*
X130148549Y-90000503D01*
X130104821Y-89962001D01*
X130085360Y-89893723D01*
X130105902Y-89825763D01*
X130158107Y-89780528D01*
X130283404Y-89722102D01*
X130344860Y-89679070D01*
X129907427Y-89241638D01*
X129873402Y-89179325D01*
X129878466Y-89108510D01*
X129917145Y-89056840D01*
X129916289Y-89055853D01*
X129920830Y-89051917D01*
X129921013Y-89051674D01*
X129921510Y-89051328D01*
X129923095Y-89049953D01*
X129923100Y-89049952D01*
X130031761Y-88955798D01*
X130067824Y-88899681D01*
X130121478Y-88853189D01*
X130191752Y-88843084D01*
X130256333Y-88872576D01*
X130262918Y-88878707D01*
X130704070Y-89319860D01*
X130747101Y-89258406D01*
X130840420Y-89058281D01*
X130840422Y-89058276D01*
X130897574Y-88844979D01*
X130916820Y-88624999D01*
X130897574Y-88405020D01*
X130840422Y-88191723D01*
X130840420Y-88191718D01*
X130747099Y-87991590D01*
X130704069Y-87930139D01*
X130262916Y-88371292D01*
X130200604Y-88405317D01*
X130129788Y-88400252D01*
X130072953Y-88357705D01*
X130067836Y-88350336D01*
X130031761Y-88294202D01*
X129923100Y-88200048D01*
X129923098Y-88200047D01*
X129916289Y-88194147D01*
X129918312Y-88191811D01*
X129881912Y-88149809D01*
X129871802Y-88079536D01*
X129901290Y-88014952D01*
X129907426Y-88008361D01*
X130344860Y-87570928D01*
X130283412Y-87527902D01*
X130200996Y-87489471D01*
X130147711Y-87442554D01*
X130128250Y-87374277D01*
X130148792Y-87306317D01*
X130200997Y-87261081D01*
X130283662Y-87222534D01*
X130464620Y-87095826D01*
X130620826Y-86939620D01*
X130747534Y-86758662D01*
X130840894Y-86558450D01*
X130898070Y-86345068D01*
X130917323Y-86125000D01*
X130898070Y-85904932D01*
X130840894Y-85691550D01*
X130747534Y-85491339D01*
X130747533Y-85491338D01*
X130747532Y-85491335D01*
X130620830Y-85310384D01*
X130620827Y-85310381D01*
X130620820Y-85310374D01*
X130464620Y-85154174D01*
X130454349Y-85146982D01*
X130407926Y-85114476D01*
X130363598Y-85059019D01*
X130356289Y-84988399D01*
X130388320Y-84925039D01*
X130449521Y-84889054D01*
X130466730Y-84885985D01*
X130513196Y-84880990D01*
X130513199Y-84880989D01*
X130513201Y-84880989D01*
X130650204Y-84829889D01*
X130767261Y-84742261D01*
X130854889Y-84625204D01*
X130905989Y-84488201D01*
X130912500Y-84427638D01*
X130912500Y-82822362D01*
X130906502Y-82766567D01*
X130905990Y-82761803D01*
X130905988Y-82761795D01*
X130854889Y-82624797D01*
X130854887Y-82624792D01*
X130836330Y-82600003D01*
X139136620Y-82600003D01*
X139156090Y-82797694D01*
X139156091Y-82797700D01*
X139156092Y-82797701D01*
X139213759Y-82987804D01*
X139307405Y-83163004D01*
X139433432Y-83316568D01*
X139586996Y-83442595D01*
X139762196Y-83536241D01*
X139952299Y-83593908D01*
X139952303Y-83593908D01*
X139952305Y-83593909D01*
X140149997Y-83613380D01*
X140150000Y-83613380D01*
X140150003Y-83613380D01*
X140347694Y-83593909D01*
X140347695Y-83593908D01*
X140347701Y-83593908D01*
X140537804Y-83536241D01*
X140713004Y-83442595D01*
X140866568Y-83316568D01*
X140992595Y-83163004D01*
X141086241Y-82987804D01*
X141143908Y-82797701D01*
X141146975Y-82766568D01*
X141163380Y-82600003D01*
X141163380Y-82599996D01*
X141143909Y-82402305D01*
X141143908Y-82402303D01*
X141143908Y-82402299D01*
X141086241Y-82212196D01*
X140992595Y-82036996D01*
X140992593Y-82036992D01*
X140937101Y-81969375D01*
X140909347Y-81904028D01*
X140908500Y-81889442D01*
X140908500Y-81100000D01*
X145436384Y-81100000D01*
X145456783Y-81281047D01*
X145456783Y-81281049D01*
X145456784Y-81281050D01*
X145516957Y-81453015D01*
X145516958Y-81453017D01*
X145613890Y-81607283D01*
X145614009Y-81607432D01*
X145614055Y-81607546D01*
X145617654Y-81613273D01*
X145616651Y-81613903D01*
X145640845Y-81673161D01*
X145641500Y-81685993D01*
X145641500Y-82955988D01*
X145640960Y-82964219D01*
X145636250Y-82999998D01*
X145636250Y-83000001D01*
X145641218Y-83037738D01*
X145641219Y-83037748D01*
X145641500Y-83039879D01*
X145641500Y-83039885D01*
X145641981Y-83043537D01*
X145646243Y-83075910D01*
X145657161Y-83158849D01*
X145718475Y-83306874D01*
X145718477Y-83306877D01*
X145791522Y-83402071D01*
X145791525Y-83402074D01*
X145816014Y-83433988D01*
X145844651Y-83455962D01*
X145850844Y-83461393D01*
X145983359Y-83593908D01*
X146104097Y-83714646D01*
X146138123Y-83776958D01*
X146141002Y-83803741D01*
X146141002Y-88912917D01*
X146121000Y-88981038D01*
X146113510Y-88991481D01*
X146113385Y-88991636D01*
X146016460Y-89145892D01*
X146016459Y-89145895D01*
X145965350Y-89291959D01*
X145956285Y-89317864D01*
X145935886Y-89498911D01*
X145956285Y-89679958D01*
X145956285Y-89679960D01*
X145956286Y-89679961D01*
X146016459Y-89851926D01*
X146016460Y-89851929D01*
X146113389Y-90006190D01*
X146113390Y-90006192D01*
X146242220Y-90135022D01*
X146242222Y-90135023D01*
X146396483Y-90231952D01*
X146396484Y-90231952D01*
X146396487Y-90231954D01*
X146568455Y-90292128D01*
X146749502Y-90312527D01*
X146930549Y-90292128D01*
X147102517Y-90231954D01*
X147256783Y-90135022D01*
X147385613Y-90006192D01*
X147482545Y-89851926D01*
X147542719Y-89679958D01*
X147563118Y-89498911D01*
X147542719Y-89317864D01*
X147482545Y-89145896D01*
X147482543Y-89145893D01*
X147482543Y-89145892D01*
X147385618Y-88991636D01*
X147385494Y-88991481D01*
X147385445Y-88991361D01*
X147381849Y-88985638D01*
X147382851Y-88985008D01*
X147358657Y-88925752D01*
X147358002Y-88912917D01*
X147358002Y-87029000D01*
X148817000Y-87029000D01*
X148817000Y-87048852D01*
X148827255Y-87149229D01*
X148827257Y-87149241D01*
X148881152Y-87311884D01*
X148971109Y-87457728D01*
X148971114Y-87457734D01*
X149092265Y-87578885D01*
X149092271Y-87578890D01*
X149168306Y-87625789D01*
X149215784Y-87678575D01*
X149227187Y-87748650D01*
X149198894Y-87813766D01*
X149191256Y-87822124D01*
X149171109Y-87842271D01*
X149081152Y-87988115D01*
X149027257Y-88150758D01*
X149027255Y-88150770D01*
X149017000Y-88251147D01*
X149017000Y-88271000D01*
X149746000Y-88271000D01*
X149746000Y-87773000D01*
X149672000Y-87773000D01*
X149603879Y-87752998D01*
X149557386Y-87699342D01*
X149546000Y-87647000D01*
X149546000Y-87029000D01*
X148817000Y-87029000D01*
X147358002Y-87029000D01*
X147358002Y-85498880D01*
X148816499Y-85498880D01*
X148826763Y-85599333D01*
X148826764Y-85599336D01*
X148880698Y-85762101D01*
X148970715Y-85908040D01*
X148973928Y-85911253D01*
X149007956Y-85973561D01*
X149002895Y-86044377D01*
X148973938Y-86089442D01*
X148971112Y-86092267D01*
X148971109Y-86092271D01*
X148881152Y-86238115D01*
X148827257Y-86400758D01*
X148827255Y-86400770D01*
X148817000Y-86501147D01*
X148817000Y-86521000D01*
X149928000Y-86521000D01*
X149996121Y-86541002D01*
X150042614Y-86594658D01*
X150054000Y-86647000D01*
X150054000Y-87527000D01*
X150128000Y-87527000D01*
X150196121Y-87547002D01*
X150242614Y-87600658D01*
X150254000Y-87653000D01*
X150254000Y-88653000D01*
X150233998Y-88721121D01*
X150180342Y-88767614D01*
X150128000Y-88779000D01*
X149017000Y-88779000D01*
X149017000Y-88798852D01*
X149027255Y-88899229D01*
X149027257Y-88899241D01*
X149081152Y-89061884D01*
X149171109Y-89207728D01*
X149171114Y-89207734D01*
X149173932Y-89210552D01*
X149175248Y-89212963D01*
X149175662Y-89213486D01*
X149175572Y-89213556D01*
X149207958Y-89272864D01*
X149202893Y-89343679D01*
X149173932Y-89388742D01*
X149170720Y-89391953D01*
X149170715Y-89391959D01*
X149080698Y-89537899D01*
X149026763Y-89700666D01*
X149016500Y-89801119D01*
X149016500Y-90348880D01*
X149016499Y-90348880D01*
X149026763Y-90449333D01*
X149026764Y-90449336D01*
X149080698Y-90612101D01*
X149145443Y-90717068D01*
X149170715Y-90758040D01*
X149170720Y-90758046D01*
X149291953Y-90879279D01*
X149291959Y-90879284D01*
X149291960Y-90879285D01*
X149437899Y-90969302D01*
X149600664Y-91023236D01*
X149620756Y-91025288D01*
X149701120Y-91033500D01*
X149701128Y-91033500D01*
X150298880Y-91033500D01*
X150371936Y-91026035D01*
X150399336Y-91023236D01*
X150562101Y-90969302D01*
X150708040Y-90879285D01*
X150829285Y-90758040D01*
X150919302Y-90612101D01*
X150973236Y-90449336D01*
X150976035Y-90421936D01*
X150983500Y-90348880D01*
X150983500Y-90254000D01*
X152267000Y-90254000D01*
X152267000Y-90298852D01*
X152277255Y-90399229D01*
X152277257Y-90399241D01*
X152331152Y-90561884D01*
X152421109Y-90707728D01*
X152421114Y-90707734D01*
X152542265Y-90828885D01*
X152542271Y-90828890D01*
X152688115Y-90918847D01*
X152850758Y-90972742D01*
X152850770Y-90972744D01*
X152951147Y-90982999D01*
X152951147Y-90983000D01*
X152971000Y-90983000D01*
X152971000Y-90254000D01*
X152267000Y-90254000D01*
X150983500Y-90254000D01*
X150983500Y-89801119D01*
X150973236Y-89700666D01*
X150973236Y-89700664D01*
X150919302Y-89537899D01*
X150829285Y-89391960D01*
X150826070Y-89388745D01*
X150792043Y-89326438D01*
X150797104Y-89255622D01*
X150826072Y-89210546D01*
X150828890Y-89207727D01*
X150873594Y-89135252D01*
X150926380Y-89087774D01*
X150996455Y-89076371D01*
X151046017Y-89093570D01*
X151182087Y-89175827D01*
X151182091Y-89175828D01*
X151182093Y-89175829D01*
X151197719Y-89180698D01*
X151346351Y-89227013D01*
X151417735Y-89233500D01*
X151932264Y-89233499D01*
X152003649Y-89227013D01*
X152167913Y-89175827D01*
X152240126Y-89132172D01*
X152308768Y-89114048D01*
X152376314Y-89135913D01*
X152421316Y-89190825D01*
X152429487Y-89261350D01*
X152412550Y-89306147D01*
X152331154Y-89438111D01*
X152331153Y-89438114D01*
X152277257Y-89600758D01*
X152277255Y-89600770D01*
X152267000Y-89701147D01*
X152267000Y-89746000D01*
X153353000Y-89746000D01*
X153421121Y-89766002D01*
X153467614Y-89819658D01*
X153479000Y-89872000D01*
X153479000Y-90983000D01*
X153498853Y-90983000D01*
X153498852Y-90982999D01*
X153599229Y-90972744D01*
X153599241Y-90972742D01*
X153761884Y-90918847D01*
X153907727Y-90828890D01*
X153910546Y-90826072D01*
X153912960Y-90824753D01*
X153913486Y-90824338D01*
X153913556Y-90824427D01*
X153972856Y-90792043D01*
X154043672Y-90797104D01*
X154088745Y-90826070D01*
X154091960Y-90829285D01*
X154237899Y-90919302D01*
X154400664Y-90973236D01*
X154420756Y-90975288D01*
X154501120Y-90983500D01*
X154501128Y-90983500D01*
X155048880Y-90983500D01*
X155121936Y-90976035D01*
X155149336Y-90973236D01*
X155312101Y-90919302D01*
X155458040Y-90829285D01*
X155579285Y-90708040D01*
X155669302Y-90562101D01*
X155723236Y-90399336D01*
X155728392Y-90348872D01*
X155733500Y-90298880D01*
X155733500Y-89701119D01*
X155723247Y-89600770D01*
X155723236Y-89600664D01*
X155669302Y-89437899D01*
X155579285Y-89291960D01*
X155579284Y-89291959D01*
X155579279Y-89291953D01*
X155458046Y-89170720D01*
X155458040Y-89170715D01*
X155417796Y-89145892D01*
X155312101Y-89080698D01*
X155149336Y-89026764D01*
X155149333Y-89026763D01*
X155048880Y-89016500D01*
X155048872Y-89016500D01*
X154501128Y-89016500D01*
X154501120Y-89016500D01*
X154400666Y-89026763D01*
X154345495Y-89045044D01*
X154285713Y-89064854D01*
X154214761Y-89067294D01*
X154153751Y-89030985D01*
X154122055Y-88967456D01*
X154129738Y-88896877D01*
X154138255Y-88880064D01*
X154175827Y-88817913D01*
X154227013Y-88653649D01*
X154233500Y-88582265D01*
X154233499Y-87917736D01*
X154227013Y-87846351D01*
X154203495Y-87770881D01*
X154202326Y-87699898D01*
X154234702Y-87644298D01*
X154242102Y-87636899D01*
X154304416Y-87602878D01*
X154331191Y-87600000D01*
X154668809Y-87600000D01*
X154736930Y-87620002D01*
X154753059Y-87633000D01*
X154798853Y-87633000D01*
X154798852Y-87632999D01*
X154899229Y-87622744D01*
X154899241Y-87622742D01*
X154948570Y-87606396D01*
X154988203Y-87600000D01*
X155600000Y-87600000D01*
X155600000Y-84400000D01*
X155339515Y-84400000D01*
X155271394Y-84379998D01*
X155250424Y-84363099D01*
X155208040Y-84320715D01*
X155062101Y-84230698D01*
X154899336Y-84176764D01*
X154899333Y-84176763D01*
X154798880Y-84166500D01*
X154798872Y-84166500D01*
X154201128Y-84166500D01*
X154201120Y-84166500D01*
X154100666Y-84176763D01*
X153937899Y-84230698D01*
X153791959Y-84320715D01*
X153791959Y-84320716D01*
X153749578Y-84363096D01*
X153687270Y-84397120D01*
X153660485Y-84400000D01*
X150800000Y-84400000D01*
X150800000Y-84408483D01*
X150779998Y-84476604D01*
X150726342Y-84523097D01*
X150656068Y-84533201D01*
X150591488Y-84503707D01*
X150584905Y-84497579D01*
X150508041Y-84420716D01*
X150508040Y-84420715D01*
X150414624Y-84363095D01*
X150362101Y-84330698D01*
X150199336Y-84276764D01*
X150199333Y-84276763D01*
X150098880Y-84266500D01*
X150098872Y-84266500D01*
X149501128Y-84266500D01*
X149501120Y-84266500D01*
X149400666Y-84276763D01*
X149237899Y-84330698D01*
X149091959Y-84420715D01*
X149091953Y-84420720D01*
X148970720Y-84541953D01*
X148970715Y-84541959D01*
X148880698Y-84687899D01*
X148826763Y-84850666D01*
X148816500Y-84951119D01*
X148816500Y-85498880D01*
X148816499Y-85498880D01*
X147358002Y-85498880D01*
X147358002Y-83543520D01*
X147358542Y-83535288D01*
X147363253Y-83499502D01*
X147363253Y-83499501D01*
X147350426Y-83402072D01*
X147342340Y-83340652D01*
X147319690Y-83285970D01*
X147281027Y-83192626D01*
X147206403Y-83095375D01*
X147206373Y-83095338D01*
X147191465Y-83075910D01*
X147183489Y-83065515D01*
X147180707Y-83063380D01*
X147154848Y-83043537D01*
X147148655Y-83038106D01*
X146895405Y-82784856D01*
X146861379Y-82722544D01*
X146858500Y-82695761D01*
X146858500Y-81685993D01*
X146878502Y-81617872D01*
X146885999Y-81607421D01*
X146886104Y-81607287D01*
X146886111Y-81607281D01*
X146922101Y-81550003D01*
X148286620Y-81550003D01*
X148306090Y-81747694D01*
X148306091Y-81747700D01*
X148306092Y-81747701D01*
X148363759Y-81937804D01*
X148457405Y-82113004D01*
X148583432Y-82266568D01*
X148736996Y-82392595D01*
X148912196Y-82486241D01*
X149102299Y-82543908D01*
X149102303Y-82543908D01*
X149102305Y-82543909D01*
X149299997Y-82563380D01*
X149300000Y-82563380D01*
X149300003Y-82563380D01*
X149497694Y-82543909D01*
X149497695Y-82543908D01*
X149497701Y-82543908D01*
X149687804Y-82486241D01*
X149863004Y-82392595D01*
X150016568Y-82266568D01*
X150142595Y-82113004D01*
X150236241Y-81937804D01*
X150293908Y-81747701D01*
X150299324Y-81692720D01*
X150313380Y-81550003D01*
X150313380Y-81549996D01*
X150293909Y-81352305D01*
X150293908Y-81352303D01*
X150293908Y-81352299D01*
X150236241Y-81162196D01*
X150142595Y-80986996D01*
X150016568Y-80833432D01*
X149863004Y-80707405D01*
X149687804Y-80613759D01*
X149497701Y-80556092D01*
X149497700Y-80556091D01*
X149497694Y-80556090D01*
X149300003Y-80536620D01*
X149299997Y-80536620D01*
X149102305Y-80556090D01*
X148912195Y-80613759D01*
X148736995Y-80707405D01*
X148583432Y-80833432D01*
X148457405Y-80986995D01*
X148363759Y-81162195D01*
X148306090Y-81352305D01*
X148286620Y-81549996D01*
X148286620Y-81550003D01*
X146922101Y-81550003D01*
X146983043Y-81453015D01*
X147043217Y-81281047D01*
X147063616Y-81100000D01*
X147043217Y-80918953D01*
X146983043Y-80746985D01*
X146983041Y-80746982D01*
X146983041Y-80746981D01*
X146886112Y-80592720D01*
X146886111Y-80592718D01*
X146757281Y-80463888D01*
X146757279Y-80463887D01*
X146603018Y-80366958D01*
X146603015Y-80366957D01*
X146431050Y-80306784D01*
X146431049Y-80306783D01*
X146431047Y-80306783D01*
X146250000Y-80286384D01*
X146068953Y-80306783D01*
X146068950Y-80306783D01*
X146068949Y-80306784D01*
X145896984Y-80366957D01*
X145896981Y-80366958D01*
X145742720Y-80463887D01*
X145742718Y-80463888D01*
X145613888Y-80592718D01*
X145613887Y-80592720D01*
X145516958Y-80746981D01*
X145516957Y-80746984D01*
X145457307Y-80917456D01*
X145456783Y-80918953D01*
X145436384Y-81100000D01*
X140908500Y-81100000D01*
X140908500Y-79601669D01*
X140915571Y-79560054D01*
X140922172Y-79541189D01*
X140943217Y-79481047D01*
X140963616Y-79300000D01*
X140943217Y-79118953D01*
X140883043Y-78946985D01*
X140883041Y-78946982D01*
X140883041Y-78946981D01*
X140786112Y-78792720D01*
X140786111Y-78792718D01*
X140657281Y-78663888D01*
X140657279Y-78663887D01*
X140641544Y-78654000D01*
X148943455Y-78654000D01*
X148991176Y-78842449D01*
X148991179Y-78842456D01*
X149081580Y-79048548D01*
X149204674Y-79236958D01*
X149357097Y-79402534D01*
X149534698Y-79540767D01*
X149534699Y-79540768D01*
X149732628Y-79647882D01*
X149732630Y-79647883D01*
X149945483Y-79720955D01*
X149945492Y-79720957D01*
X150026000Y-79734391D01*
X150026000Y-79014033D01*
X150046002Y-78945912D01*
X150099658Y-78899419D01*
X150169926Y-78889315D01*
X150244237Y-78900000D01*
X150315763Y-78900000D01*
X150390069Y-78889316D01*
X150460341Y-78899419D01*
X150513997Y-78945911D01*
X150534000Y-79014031D01*
X150534000Y-79734390D01*
X150614507Y-79720957D01*
X150614516Y-79720955D01*
X150827369Y-79647883D01*
X150827371Y-79647882D01*
X151025300Y-79540768D01*
X151025301Y-79540767D01*
X151202902Y-79402534D01*
X151355327Y-79236955D01*
X151444217Y-79100899D01*
X151498220Y-79054810D01*
X151568568Y-79045235D01*
X151632925Y-79075212D01*
X151655183Y-79100898D01*
X151744279Y-79237270D01*
X151896762Y-79402908D01*
X151951331Y-79445381D01*
X152074424Y-79541189D01*
X152272426Y-79648342D01*
X152272427Y-79648342D01*
X152272428Y-79648343D01*
X152384227Y-79686723D01*
X152485365Y-79721444D01*
X152707431Y-79758500D01*
X152707435Y-79758500D01*
X152932565Y-79758500D01*
X152932569Y-79758500D01*
X153154635Y-79721444D01*
X153174232Y-79714715D01*
X153245155Y-79711512D01*
X153304240Y-79744789D01*
X154154597Y-80595146D01*
X154188620Y-80657455D01*
X154191500Y-80684238D01*
X154191500Y-80710590D01*
X154171498Y-80778711D01*
X154117842Y-80825204D01*
X154047568Y-80835308D01*
X153985566Y-80807989D01*
X153863004Y-80707405D01*
X153687804Y-80613759D01*
X153626432Y-80595142D01*
X153497701Y-80556092D01*
X153497700Y-80556091D01*
X153497694Y-80556090D01*
X153300003Y-80536620D01*
X153299997Y-80536620D01*
X153102305Y-80556090D01*
X152912195Y-80613759D01*
X152736995Y-80707405D01*
X152583432Y-80833432D01*
X152457405Y-80986995D01*
X152363759Y-81162195D01*
X152306090Y-81352305D01*
X152286620Y-81549996D01*
X152286620Y-81550003D01*
X152306090Y-81747694D01*
X152306091Y-81747700D01*
X152306092Y-81747701D01*
X152363759Y-81937804D01*
X152457405Y-82113004D01*
X152583432Y-82266568D01*
X152736996Y-82392595D01*
X152912196Y-82486241D01*
X153102299Y-82543908D01*
X153102303Y-82543908D01*
X153102305Y-82543909D01*
X153299997Y-82563380D01*
X153300000Y-82563380D01*
X153300003Y-82563380D01*
X153497694Y-82543909D01*
X153497695Y-82543908D01*
X153497701Y-82543908D01*
X153687804Y-82486241D01*
X153863004Y-82392595D01*
X153900665Y-82361686D01*
X153966012Y-82333933D01*
X154035990Y-82345914D01*
X154088382Y-82393827D01*
X154099528Y-82417471D01*
X154146957Y-82553015D01*
X154146958Y-82553018D01*
X154243887Y-82707279D01*
X154243888Y-82707281D01*
X154372718Y-82836111D01*
X154372720Y-82836112D01*
X154526981Y-82933041D01*
X154526982Y-82933041D01*
X154526985Y-82933043D01*
X154698953Y-82993217D01*
X154880000Y-83013616D01*
X155061047Y-82993217D01*
X155233015Y-82933043D01*
X155387281Y-82836111D01*
X155516111Y-82707281D01*
X155613043Y-82553015D01*
X155673217Y-82381047D01*
X155693616Y-82200000D01*
X155673217Y-82018953D01*
X155613043Y-81846985D01*
X155613041Y-81846982D01*
X155613041Y-81846981D01*
X155516112Y-81692720D01*
X155516111Y-81692718D01*
X155445405Y-81622012D01*
X155411379Y-81559700D01*
X155408500Y-81532917D01*
X155408500Y-80424011D01*
X155409040Y-80415779D01*
X155413750Y-80380000D01*
X155413750Y-80379999D01*
X155408500Y-80340121D01*
X155408500Y-80340120D01*
X155408500Y-80340115D01*
X155392838Y-80221150D01*
X155344977Y-80105602D01*
X155331524Y-80073124D01*
X155331519Y-80073117D01*
X155256901Y-79975873D01*
X155256871Y-79975836D01*
X155245643Y-79961203D01*
X155220043Y-79894983D01*
X155234308Y-79825434D01*
X155283909Y-79774639D01*
X155345606Y-79758500D01*
X155472565Y-79758500D01*
X155472569Y-79758500D01*
X155694635Y-79721444D01*
X155714232Y-79714715D01*
X155785155Y-79711512D01*
X155844243Y-79744792D01*
X156954595Y-80855144D01*
X156988621Y-80917456D01*
X156991500Y-80944239D01*
X156991500Y-84914006D01*
X156971498Y-84982127D01*
X156964014Y-84992561D01*
X156963890Y-84992715D01*
X156866958Y-85146982D01*
X156866957Y-85146984D01*
X156809783Y-85310380D01*
X156806783Y-85318953D01*
X156786384Y-85500000D01*
X156806783Y-85681047D01*
X156806783Y-85681049D01*
X156806784Y-85681050D01*
X156866957Y-85853015D01*
X156866958Y-85853018D01*
X156963887Y-86007279D01*
X156963888Y-86007281D01*
X157092718Y-86136111D01*
X157092720Y-86136112D01*
X157246981Y-86233041D01*
X157246982Y-86233041D01*
X157246985Y-86233043D01*
X157418953Y-86293217D01*
X157600000Y-86313616D01*
X157781047Y-86293217D01*
X157953015Y-86233043D01*
X158107281Y-86136111D01*
X158236111Y-86007281D01*
X158333043Y-85853015D01*
X158393217Y-85681047D01*
X158413616Y-85500000D01*
X158393217Y-85318953D01*
X158333043Y-85146985D01*
X158333041Y-85146982D01*
X158333041Y-85146981D01*
X158236116Y-84992725D01*
X158235992Y-84992570D01*
X158235943Y-84992450D01*
X158232347Y-84986727D01*
X158233349Y-84986097D01*
X158209155Y-84926841D01*
X158208500Y-84914006D01*
X158208500Y-82050003D01*
X168886620Y-82050003D01*
X168906090Y-82247694D01*
X168906091Y-82247700D01*
X168906092Y-82247701D01*
X168963759Y-82437804D01*
X169057405Y-82613004D01*
X169183432Y-82766568D01*
X169336996Y-82892595D01*
X169512196Y-82986241D01*
X169702299Y-83043908D01*
X169702303Y-83043908D01*
X169702305Y-83043909D01*
X169899997Y-83063380D01*
X169900000Y-83063380D01*
X169900003Y-83063380D01*
X170097694Y-83043909D01*
X170097695Y-83043908D01*
X170097701Y-83043908D01*
X170287804Y-82986241D01*
X170463004Y-82892595D01*
X170616568Y-82766568D01*
X170742595Y-82613004D01*
X170836241Y-82437804D01*
X170893908Y-82247701D01*
X170913380Y-82050000D01*
X170913380Y-82049996D01*
X170893909Y-81852305D01*
X170893908Y-81852303D01*
X170893908Y-81852299D01*
X170836241Y-81662196D01*
X170742595Y-81486996D01*
X170616568Y-81333432D01*
X170463004Y-81207405D01*
X170287804Y-81113759D01*
X170097701Y-81056092D01*
X170097700Y-81056091D01*
X170097694Y-81056090D01*
X169900003Y-81036620D01*
X169899997Y-81036620D01*
X169702305Y-81056090D01*
X169512195Y-81113759D01*
X169336995Y-81207405D01*
X169183432Y-81333432D01*
X169057405Y-81486995D01*
X168963759Y-81662195D01*
X168906090Y-81852305D01*
X168886620Y-82049996D01*
X168886620Y-82050003D01*
X158208500Y-82050003D01*
X158208500Y-80684010D01*
X158209040Y-80675778D01*
X158211452Y-80657455D01*
X158213750Y-80640000D01*
X158208500Y-80600122D01*
X158208500Y-80600115D01*
X158192838Y-80481150D01*
X158131524Y-80333125D01*
X158095658Y-80286384D01*
X158058477Y-80237928D01*
X158058474Y-80237925D01*
X158033987Y-80206013D01*
X158033986Y-80206012D01*
X158005346Y-80184035D01*
X157999153Y-80178604D01*
X157794144Y-79973594D01*
X157760118Y-79911283D01*
X157765183Y-79840468D01*
X157807730Y-79783632D01*
X157874250Y-79758821D01*
X157883239Y-79758500D01*
X158798632Y-79758500D01*
X158798638Y-79758500D01*
X158798645Y-79758499D01*
X158798649Y-79758499D01*
X158859196Y-79751990D01*
X158859199Y-79751989D01*
X158859201Y-79751989D01*
X158996204Y-79700889D01*
X159066399Y-79648342D01*
X159113261Y-79613261D01*
X159200887Y-79496207D01*
X159200887Y-79496206D01*
X159200889Y-79496204D01*
X159251989Y-79359201D01*
X159258500Y-79298638D01*
X159258500Y-78450000D01*
X159786384Y-78450000D01*
X159806783Y-78631047D01*
X159806783Y-78631049D01*
X159806784Y-78631050D01*
X159866957Y-78803015D01*
X159866958Y-78803018D01*
X159963887Y-78957279D01*
X159963888Y-78957281D01*
X160092718Y-79086111D01*
X160092720Y-79086112D01*
X160246981Y-79183041D01*
X160246982Y-79183041D01*
X160246985Y-79183043D01*
X160418953Y-79243217D01*
X160600000Y-79263616D01*
X160781047Y-79243217D01*
X160953015Y-79183043D01*
X161107281Y-79086111D01*
X161236111Y-78957281D01*
X161333043Y-78803015D01*
X161393217Y-78631047D01*
X161413616Y-78450000D01*
X161393217Y-78268953D01*
X161333043Y-78096985D01*
X161333041Y-78096982D01*
X161333041Y-78096981D01*
X161236112Y-77942720D01*
X161236111Y-77942718D01*
X161107281Y-77813888D01*
X161107279Y-77813887D01*
X160953018Y-77716958D01*
X160953015Y-77716957D01*
X160781050Y-77656784D01*
X160781049Y-77656783D01*
X160781047Y-77656783D01*
X160600000Y-77636384D01*
X160418953Y-77656783D01*
X160418950Y-77656783D01*
X160418949Y-77656784D01*
X160246984Y-77716957D01*
X160246981Y-77716958D01*
X160092720Y-77813887D01*
X160092718Y-77813888D01*
X159963888Y-77942718D01*
X159963887Y-77942720D01*
X159866958Y-78096981D01*
X159866957Y-78096984D01*
X159866957Y-78096985D01*
X159806783Y-78268953D01*
X159786384Y-78450000D01*
X159258500Y-78450000D01*
X159258500Y-77501362D01*
X159258499Y-77501350D01*
X159251990Y-77440803D01*
X159251988Y-77440795D01*
X159202457Y-77308000D01*
X159200889Y-77303796D01*
X159200888Y-77303794D01*
X159200887Y-77303792D01*
X159113261Y-77186738D01*
X158996207Y-77099112D01*
X158996202Y-77099110D01*
X158859204Y-77048011D01*
X158859196Y-77048009D01*
X158798649Y-77041500D01*
X158798638Y-77041500D01*
X157001362Y-77041500D01*
X157001350Y-77041500D01*
X156940803Y-77048009D01*
X156940795Y-77048011D01*
X156803797Y-77099110D01*
X156803792Y-77099112D01*
X156686738Y-77186738D01*
X156599112Y-77303792D01*
X156599111Y-77303795D01*
X156555000Y-77422058D01*
X156512453Y-77478893D01*
X156445932Y-77503703D01*
X156376558Y-77488611D01*
X156344246Y-77463363D01*
X156283240Y-77397094D01*
X156283239Y-77397093D01*
X156283237Y-77397091D01*
X156163372Y-77303796D01*
X156105576Y-77258811D01*
X155907574Y-77151658D01*
X155907572Y-77151657D01*
X155907571Y-77151656D01*
X155694639Y-77078557D01*
X155694630Y-77078555D01*
X155617029Y-77065606D01*
X155472569Y-77041500D01*
X155247431Y-77041500D01*
X155102971Y-77065606D01*
X155025369Y-77078555D01*
X155025360Y-77078557D01*
X154812428Y-77151656D01*
X154812426Y-77151658D01*
X154614426Y-77258810D01*
X154614424Y-77258811D01*
X154436762Y-77397091D01*
X154284279Y-77562729D01*
X154195483Y-77698643D01*
X154141479Y-77744731D01*
X154071131Y-77754306D01*
X154006774Y-77724329D01*
X153984517Y-77698643D01*
X153895720Y-77562729D01*
X153752616Y-77407279D01*
X153743240Y-77397094D01*
X153743239Y-77397093D01*
X153743237Y-77397091D01*
X153623372Y-77303796D01*
X153565576Y-77258811D01*
X153367574Y-77151658D01*
X153367572Y-77151657D01*
X153367571Y-77151656D01*
X153154639Y-77078557D01*
X153154630Y-77078555D01*
X153077029Y-77065606D01*
X152932569Y-77041500D01*
X152707431Y-77041500D01*
X152562971Y-77065606D01*
X152485369Y-77078555D01*
X152485360Y-77078557D01*
X152272428Y-77151656D01*
X152272426Y-77151658D01*
X152074426Y-77258810D01*
X152074424Y-77258811D01*
X151896762Y-77397091D01*
X151744279Y-77562729D01*
X151655183Y-77699101D01*
X151601179Y-77745189D01*
X151530831Y-77754764D01*
X151466474Y-77724786D01*
X151444217Y-77699100D01*
X151355327Y-77563044D01*
X151202902Y-77397465D01*
X151025301Y-77259232D01*
X151025300Y-77259231D01*
X150827371Y-77152117D01*
X150827369Y-77152116D01*
X150614512Y-77079043D01*
X150614501Y-77079040D01*
X150534000Y-77065606D01*
X150534000Y-77785966D01*
X150513998Y-77854087D01*
X150460342Y-77900580D01*
X150390069Y-77910683D01*
X150390068Y-77910683D01*
X150315768Y-77900000D01*
X150315763Y-77900000D01*
X150244237Y-77900000D01*
X150244231Y-77900000D01*
X150169932Y-77910683D01*
X150099658Y-77900580D01*
X150046002Y-77854087D01*
X150026000Y-77785966D01*
X150026000Y-77065607D01*
X150025999Y-77065606D01*
X149945498Y-77079040D01*
X149945487Y-77079043D01*
X149732630Y-77152116D01*
X149732628Y-77152117D01*
X149534699Y-77259231D01*
X149534698Y-77259232D01*
X149357097Y-77397465D01*
X149204674Y-77563041D01*
X149081580Y-77751451D01*
X148991179Y-77957543D01*
X148991176Y-77957550D01*
X148943455Y-78145999D01*
X148943456Y-78146000D01*
X149665156Y-78146000D01*
X149733277Y-78166002D01*
X149779770Y-78219658D01*
X149789874Y-78289932D01*
X149786053Y-78307496D01*
X149780000Y-78328111D01*
X149780000Y-78471888D01*
X149786053Y-78492504D01*
X149786052Y-78563500D01*
X149747667Y-78623226D01*
X149683086Y-78652718D01*
X149665156Y-78654000D01*
X148943455Y-78654000D01*
X140641544Y-78654000D01*
X140503018Y-78566958D01*
X140503015Y-78566957D01*
X140331050Y-78506784D01*
X140331049Y-78506783D01*
X140331047Y-78506783D01*
X140150000Y-78486384D01*
X139968953Y-78506783D01*
X139968950Y-78506783D01*
X139968949Y-78506784D01*
X139796984Y-78566957D01*
X139796981Y-78566958D01*
X139642720Y-78663887D01*
X139642718Y-78663888D01*
X139513888Y-78792718D01*
X139513887Y-78792720D01*
X139416958Y-78946981D01*
X139416957Y-78946984D01*
X139363101Y-79100898D01*
X139356783Y-79118953D01*
X139336384Y-79300000D01*
X139356783Y-79481047D01*
X139377828Y-79541189D01*
X139384429Y-79560054D01*
X139391500Y-79601669D01*
X139391500Y-81889442D01*
X139371498Y-81957563D01*
X139362899Y-81969375D01*
X139307407Y-82036992D01*
X139307406Y-82036992D01*
X139213759Y-82212195D01*
X139156090Y-82402305D01*
X139136620Y-82599996D01*
X139136620Y-82600003D01*
X130836330Y-82600003D01*
X130767261Y-82507738D01*
X130650207Y-82420112D01*
X130650202Y-82420110D01*
X130513204Y-82369011D01*
X130513196Y-82369009D01*
X130452649Y-82362500D01*
X130452638Y-82362500D01*
X128847362Y-82362500D01*
X128847350Y-82362500D01*
X128786803Y-82369009D01*
X128786795Y-82369011D01*
X128649797Y-82420110D01*
X128649792Y-82420112D01*
X128532738Y-82507738D01*
X128445112Y-82624792D01*
X128445110Y-82624797D01*
X128394011Y-82761795D01*
X128394009Y-82761803D01*
X128387500Y-82822350D01*
X128387500Y-84427649D01*
X128394009Y-84488196D01*
X128394011Y-84488204D01*
X128445110Y-84625202D01*
X128445112Y-84625207D01*
X128532738Y-84742261D01*
X128649792Y-84829887D01*
X128649794Y-84829888D01*
X128649796Y-84829889D01*
X128705495Y-84850664D01*
X128786795Y-84880988D01*
X128786803Y-84880990D01*
X128833270Y-84885985D01*
X128898862Y-84913153D01*
X128939354Y-84971470D01*
X128941890Y-85042422D01*
X128905663Y-85103480D01*
X128892074Y-85114476D01*
X128835379Y-85154173D01*
X128679178Y-85310374D01*
X128679169Y-85310384D01*
X128552467Y-85491335D01*
X128464002Y-85681050D01*
X128459106Y-85691550D01*
X128401930Y-85904932D01*
X128382677Y-86125000D01*
X128401930Y-86345068D01*
X128459106Y-86558450D01*
X128552466Y-86758662D01*
X128679174Y-86939620D01*
X128835380Y-87095826D01*
X129016338Y-87222534D01*
X129099003Y-87261081D01*
X129152288Y-87307998D01*
X129171749Y-87376275D01*
X129151207Y-87444235D01*
X129099003Y-87489471D01*
X129016586Y-87527902D01*
X128955139Y-87570927D01*
X128955139Y-87570929D01*
X129392572Y-88008362D01*
X129426598Y-88070674D01*
X129421533Y-88141489D01*
X129382854Y-88193157D01*
X129383711Y-88194147D01*
X129379164Y-88198086D01*
X129378986Y-88198325D01*
X129378498Y-88198663D01*
X129268238Y-88294202D01*
X129232175Y-88350318D01*
X129178519Y-88396811D01*
X129108245Y-88406914D01*
X129043664Y-88377421D01*
X129037082Y-88371292D01*
X128595929Y-87930139D01*
X128595927Y-87930139D01*
X128552902Y-87991586D01*
X128459579Y-88191718D01*
X128459577Y-88191723D01*
X128402425Y-88405020D01*
X128383179Y-88624999D01*
X128402425Y-88844979D01*
X128459577Y-89058276D01*
X128459579Y-89058281D01*
X128552902Y-89258412D01*
X128595928Y-89319860D01*
X129037081Y-88878706D01*
X129099394Y-88844681D01*
X129170209Y-88849745D01*
X129227045Y-88892292D01*
X129232162Y-88899661D01*
X129268239Y-88955798D01*
X129376900Y-89049952D01*
X129376901Y-89049952D01*
X129383711Y-89055853D01*
X129381689Y-89058185D01*
X129418100Y-89100223D01*
X129428190Y-89170499D01*
X129398683Y-89235074D01*
X129392572Y-89241637D01*
X128955138Y-89679071D01*
X128955138Y-89679072D01*
X129016582Y-89722095D01*
X129016587Y-89722098D01*
X129141892Y-89780528D01*
X129195178Y-89827445D01*
X129214639Y-89895722D01*
X129194098Y-89963682D01*
X129141894Y-90008917D01*
X129016339Y-90067465D01*
X129016335Y-90067467D01*
X128835384Y-90194169D01*
X128835374Y-90194178D01*
X128679178Y-90350374D01*
X128679169Y-90350384D01*
X128552467Y-90531335D01*
X128465859Y-90717068D01*
X128459106Y-90731550D01*
X128401930Y-90944932D01*
X128382677Y-91165000D01*
X128401930Y-91385068D01*
X128459106Y-91598450D01*
X128552466Y-91798662D01*
X128679174Y-91979620D01*
X128835380Y-92135826D01*
X129016338Y-92262534D01*
X129132827Y-92316853D01*
X129141301Y-92320805D01*
X129194586Y-92367722D01*
X129214047Y-92435999D01*
X129193505Y-92503959D01*
X129141301Y-92549195D01*
X129016335Y-92607467D01*
X128835384Y-92734169D01*
X128835374Y-92734178D01*
X128679178Y-92890374D01*
X128679169Y-92890384D01*
X128552467Y-93071335D01*
X128459107Y-93271547D01*
X128459106Y-93271550D01*
X128401930Y-93484932D01*
X128382677Y-93705000D01*
X128401930Y-93925068D01*
X128459106Y-94138450D01*
X128552466Y-94338662D01*
X128679174Y-94519620D01*
X128835380Y-94675826D01*
X129016338Y-94802534D01*
X129132827Y-94856853D01*
X129141301Y-94860805D01*
X129194586Y-94907722D01*
X129214047Y-94975999D01*
X129193505Y-95043959D01*
X129141301Y-95089195D01*
X129016335Y-95147467D01*
X128835384Y-95274169D01*
X128835374Y-95274178D01*
X128679178Y-95430374D01*
X128679169Y-95430384D01*
X128552467Y-95611335D01*
X128459107Y-95811547D01*
X128459106Y-95811550D01*
X128401930Y-96024932D01*
X128382677Y-96245000D01*
X127000500Y-96245000D01*
X127000500Y-76848597D01*
X128942000Y-76848597D01*
X128948505Y-76909093D01*
X128999555Y-77045964D01*
X128999555Y-77045965D01*
X129087095Y-77162904D01*
X129204034Y-77250444D01*
X129340906Y-77301494D01*
X129401402Y-77307999D01*
X129401415Y-77308000D01*
X130046000Y-77308000D01*
X130046000Y-76564033D01*
X130066002Y-76495912D01*
X130119658Y-76449419D01*
X130189926Y-76439315D01*
X130264237Y-76450000D01*
X130335763Y-76450000D01*
X130410069Y-76439316D01*
X130480341Y-76449419D01*
X130533997Y-76495911D01*
X130554000Y-76564031D01*
X130554000Y-77308000D01*
X131198585Y-77308000D01*
X131198597Y-77307999D01*
X131259093Y-77301494D01*
X131395964Y-77250444D01*
X131395965Y-77250444D01*
X131512904Y-77162904D01*
X131600444Y-77045965D01*
X131600444Y-77045964D01*
X131651494Y-76909093D01*
X131652472Y-76900000D01*
X162786384Y-76900000D01*
X162806783Y-77081047D01*
X162806783Y-77081049D01*
X162806784Y-77081050D01*
X162866957Y-77253015D01*
X162866958Y-77253018D01*
X162963887Y-77407279D01*
X162963888Y-77407281D01*
X163092718Y-77536111D01*
X163092720Y-77536112D01*
X163246981Y-77633041D01*
X163246982Y-77633041D01*
X163246985Y-77633043D01*
X163418953Y-77693217D01*
X163600000Y-77713616D01*
X163781047Y-77693217D01*
X163953015Y-77633043D01*
X164107281Y-77536111D01*
X164236111Y-77407281D01*
X164333043Y-77253015D01*
X164393217Y-77081047D01*
X164402349Y-77000000D01*
X165086384Y-77000000D01*
X165106783Y-77181047D01*
X165106783Y-77181049D01*
X165106784Y-77181050D01*
X165166957Y-77353015D01*
X165166958Y-77353018D01*
X165263887Y-77507279D01*
X165263888Y-77507281D01*
X165392718Y-77636111D01*
X165392720Y-77636112D01*
X165546981Y-77733041D01*
X165546982Y-77733041D01*
X165546985Y-77733043D01*
X165718953Y-77793217D01*
X165900000Y-77813616D01*
X166081047Y-77793217D01*
X166253015Y-77733043D01*
X166407281Y-77636111D01*
X166536111Y-77507281D01*
X166633043Y-77353015D01*
X166693217Y-77181047D01*
X166713616Y-77000000D01*
X166693217Y-76818953D01*
X166633043Y-76646985D01*
X166633041Y-76646982D01*
X166633041Y-76646981D01*
X166536112Y-76492720D01*
X166536111Y-76492718D01*
X166407281Y-76363888D01*
X166407279Y-76363887D01*
X166253018Y-76266958D01*
X166253015Y-76266957D01*
X166081050Y-76206784D01*
X166081049Y-76206783D01*
X166081047Y-76206783D01*
X165900000Y-76186384D01*
X165899999Y-76186384D01*
X165869183Y-76189856D01*
X165718953Y-76206783D01*
X165718950Y-76206783D01*
X165718949Y-76206784D01*
X165546984Y-76266957D01*
X165546981Y-76266958D01*
X165392720Y-76363887D01*
X165392718Y-76363888D01*
X165263888Y-76492718D01*
X165263887Y-76492720D01*
X165166958Y-76646981D01*
X165166957Y-76646984D01*
X165141776Y-76718949D01*
X165106783Y-76818953D01*
X165086384Y-77000000D01*
X164402349Y-77000000D01*
X164413616Y-76900000D01*
X164393217Y-76718953D01*
X164333043Y-76546985D01*
X164333041Y-76546982D01*
X164333041Y-76546981D01*
X164236112Y-76392720D01*
X164236111Y-76392718D01*
X164107281Y-76263888D01*
X164107279Y-76263887D01*
X163953018Y-76166958D01*
X163953015Y-76166957D01*
X163781050Y-76106784D01*
X163781049Y-76106783D01*
X163781047Y-76106783D01*
X163600000Y-76086384D01*
X163418953Y-76106783D01*
X163418950Y-76106783D01*
X163418949Y-76106784D01*
X163246984Y-76166957D01*
X163246981Y-76166958D01*
X163092720Y-76263887D01*
X163092718Y-76263888D01*
X162963888Y-76392718D01*
X162963887Y-76392720D01*
X162866958Y-76546981D01*
X162866957Y-76546984D01*
X162831966Y-76646985D01*
X162806783Y-76718953D01*
X162786384Y-76900000D01*
X131652472Y-76900000D01*
X131657999Y-76848597D01*
X131658000Y-76848585D01*
X131658000Y-76204000D01*
X130914844Y-76204000D01*
X130846723Y-76183998D01*
X130800230Y-76130342D01*
X130790126Y-76060068D01*
X130793947Y-76042504D01*
X130800000Y-76021888D01*
X130800000Y-75878111D01*
X130793947Y-75857496D01*
X130793948Y-75786500D01*
X130832333Y-75726774D01*
X130896914Y-75697282D01*
X130914844Y-75696000D01*
X131658000Y-75696000D01*
X131658000Y-75051414D01*
X131657999Y-75051402D01*
X131651494Y-74990906D01*
X131600444Y-74854035D01*
X131600444Y-74854034D01*
X131512904Y-74737095D01*
X131395965Y-74649555D01*
X131259093Y-74598505D01*
X131198597Y-74592000D01*
X130554000Y-74592000D01*
X130554000Y-75335966D01*
X130533998Y-75404087D01*
X130480342Y-75450580D01*
X130410069Y-75460683D01*
X130410068Y-75460683D01*
X130335768Y-75450000D01*
X130335763Y-75450000D01*
X130264237Y-75450000D01*
X130264231Y-75450000D01*
X130189932Y-75460683D01*
X130119658Y-75450580D01*
X130066002Y-75404087D01*
X130046000Y-75335966D01*
X130046000Y-74592000D01*
X129401402Y-74592000D01*
X129340906Y-74598505D01*
X129204035Y-74649555D01*
X129204034Y-74649555D01*
X129087095Y-74737095D01*
X128999555Y-74854034D01*
X128999555Y-74854035D01*
X128948505Y-74990906D01*
X128942000Y-75051402D01*
X128942000Y-75696000D01*
X129685156Y-75696000D01*
X129753277Y-75716002D01*
X129799770Y-75769658D01*
X129809874Y-75839932D01*
X129806053Y-75857496D01*
X129800000Y-75878111D01*
X129800000Y-76021888D01*
X129806053Y-76042504D01*
X129806052Y-76113500D01*
X129767667Y-76173226D01*
X129703086Y-76202718D01*
X129685156Y-76204000D01*
X128942000Y-76204000D01*
X128942000Y-76848597D01*
X127000500Y-76848597D01*
X127000500Y-73750003D01*
X144286620Y-73750003D01*
X144306090Y-73947694D01*
X144306091Y-73947700D01*
X144306092Y-73947701D01*
X144363759Y-74137804D01*
X144457405Y-74313004D01*
X144583432Y-74466568D01*
X144736996Y-74592595D01*
X144912196Y-74686241D01*
X145102299Y-74743908D01*
X145102303Y-74743908D01*
X145102305Y-74743909D01*
X145299997Y-74763380D01*
X145300000Y-74763380D01*
X145300003Y-74763380D01*
X145497694Y-74743909D01*
X145497695Y-74743908D01*
X145497701Y-74743908D01*
X145687804Y-74686241D01*
X145863004Y-74592595D01*
X146016568Y-74466568D01*
X146142595Y-74313004D01*
X146176271Y-74250000D01*
X150436384Y-74250000D01*
X150456783Y-74431047D01*
X150456783Y-74431049D01*
X150456784Y-74431050D01*
X150516957Y-74603015D01*
X150516958Y-74603018D01*
X150613887Y-74757279D01*
X150613888Y-74757281D01*
X150742718Y-74886111D01*
X150742720Y-74886112D01*
X150896981Y-74983041D01*
X150896982Y-74983041D01*
X150896985Y-74983043D01*
X151068953Y-75043217D01*
X151250000Y-75063616D01*
X151431047Y-75043217D01*
X151603015Y-74983043D01*
X151757281Y-74886111D01*
X151886111Y-74757281D01*
X151983043Y-74603015D01*
X152043217Y-74431047D01*
X152063616Y-74250000D01*
X152043217Y-74068953D01*
X151983043Y-73896985D01*
X151983041Y-73896982D01*
X151983041Y-73896981D01*
X151886112Y-73742720D01*
X151886111Y-73742718D01*
X151757281Y-73613888D01*
X151757279Y-73613887D01*
X151603018Y-73516958D01*
X151603015Y-73516957D01*
X151431050Y-73456784D01*
X151431049Y-73456783D01*
X151431047Y-73456783D01*
X151250000Y-73436384D01*
X151068953Y-73456783D01*
X151068950Y-73456783D01*
X151068949Y-73456784D01*
X150896984Y-73516957D01*
X150896981Y-73516958D01*
X150742720Y-73613887D01*
X150742718Y-73613888D01*
X150613888Y-73742718D01*
X150613887Y-73742720D01*
X150516958Y-73896981D01*
X150516957Y-73896984D01*
X150481718Y-73997694D01*
X150456783Y-74068953D01*
X150436384Y-74250000D01*
X146176271Y-74250000D01*
X146236241Y-74137804D01*
X146293908Y-73947701D01*
X146298904Y-73896984D01*
X146313380Y-73750003D01*
X146313380Y-73749996D01*
X146293909Y-73552305D01*
X146293908Y-73552303D01*
X146293908Y-73552299D01*
X146236241Y-73362196D01*
X146142595Y-73186996D01*
X146016568Y-73033432D01*
X145975831Y-73000000D01*
X152386384Y-73000000D01*
X152406783Y-73181047D01*
X152406783Y-73181049D01*
X152406784Y-73181050D01*
X152466957Y-73353015D01*
X152466958Y-73353018D01*
X152563887Y-73507279D01*
X152563888Y-73507281D01*
X152692718Y-73636111D01*
X152692720Y-73636112D01*
X152846981Y-73733041D01*
X152846982Y-73733041D01*
X152846985Y-73733043D01*
X153018953Y-73793217D01*
X153200000Y-73813616D01*
X153381047Y-73793217D01*
X153493679Y-73753804D01*
X153564581Y-73750185D01*
X153602329Y-73766046D01*
X153609485Y-73770543D01*
X153781453Y-73830717D01*
X153962500Y-73851116D01*
X154143547Y-73830717D01*
X154231323Y-73800003D01*
X162986620Y-73800003D01*
X163006090Y-73997694D01*
X163006091Y-73997700D01*
X163006092Y-73997701D01*
X163063759Y-74187804D01*
X163157405Y-74363004D01*
X163283432Y-74516568D01*
X163436996Y-74642595D01*
X163612196Y-74736241D01*
X163802299Y-74793908D01*
X163802303Y-74793908D01*
X163802305Y-74793909D01*
X163999997Y-74813380D01*
X164000000Y-74813380D01*
X164000003Y-74813380D01*
X164197694Y-74793909D01*
X164197695Y-74793908D01*
X164197701Y-74793908D01*
X164387804Y-74736241D01*
X164563004Y-74642595D01*
X164716568Y-74516568D01*
X164842595Y-74363004D01*
X164936241Y-74187804D01*
X164993908Y-73997701D01*
X164998834Y-73947694D01*
X165013380Y-73800003D01*
X165013380Y-73799996D01*
X164993909Y-73602305D01*
X164993908Y-73602303D01*
X164993908Y-73602299D01*
X164936241Y-73412196D01*
X164842595Y-73236996D01*
X164716568Y-73083432D01*
X164563004Y-72957405D01*
X164387804Y-72863759D01*
X164197701Y-72806092D01*
X164197700Y-72806091D01*
X164197694Y-72806090D01*
X164000003Y-72786620D01*
X163999997Y-72786620D01*
X163802305Y-72806090D01*
X163612195Y-72863759D01*
X163436995Y-72957405D01*
X163283432Y-73083432D01*
X163157405Y-73236995D01*
X163063759Y-73412195D01*
X163006090Y-73602305D01*
X162986620Y-73799996D01*
X162986620Y-73800003D01*
X154231323Y-73800003D01*
X154315515Y-73770543D01*
X154469781Y-73673611D01*
X154598611Y-73544781D01*
X154695543Y-73390515D01*
X154755717Y-73218547D01*
X154776116Y-73037500D01*
X154755717Y-72856453D01*
X154695543Y-72684485D01*
X154695541Y-72684482D01*
X154695541Y-72684481D01*
X154598612Y-72530220D01*
X154598611Y-72530218D01*
X154469781Y-72401388D01*
X154469779Y-72401387D01*
X154315518Y-72304458D01*
X154315515Y-72304457D01*
X154143550Y-72244284D01*
X154143549Y-72244283D01*
X154143547Y-72244283D01*
X153962500Y-72223884D01*
X153781452Y-72244283D01*
X153668819Y-72283695D01*
X153597915Y-72287313D01*
X153560170Y-72271453D01*
X153553015Y-72266957D01*
X153553014Y-72266956D01*
X153553013Y-72266956D01*
X153381050Y-72206784D01*
X153381049Y-72206783D01*
X153381047Y-72206783D01*
X153200000Y-72186384D01*
X153199999Y-72186384D01*
X153169183Y-72189856D01*
X153018953Y-72206783D01*
X153018950Y-72206783D01*
X153018949Y-72206784D01*
X152846984Y-72266957D01*
X152846981Y-72266958D01*
X152692720Y-72363887D01*
X152692718Y-72363888D01*
X152563888Y-72492718D01*
X152563887Y-72492720D01*
X152466958Y-72646981D01*
X152466957Y-72646984D01*
X152418097Y-72786620D01*
X152406783Y-72818953D01*
X152386384Y-73000000D01*
X145975831Y-73000000D01*
X145863004Y-72907405D01*
X145687804Y-72813759D01*
X145497701Y-72756092D01*
X145497700Y-72756091D01*
X145497694Y-72756090D01*
X145300003Y-72736620D01*
X145299997Y-72736620D01*
X145102305Y-72756090D01*
X144912195Y-72813759D01*
X144736995Y-72907405D01*
X144583432Y-73033432D01*
X144457405Y-73186995D01*
X144363759Y-73362195D01*
X144306090Y-73552305D01*
X144286620Y-73749996D01*
X144286620Y-73750003D01*
X127000500Y-73750003D01*
X127000500Y-71250003D01*
X141986620Y-71250003D01*
X142006090Y-71447694D01*
X142006091Y-71447700D01*
X142006092Y-71447701D01*
X142063759Y-71637804D01*
X142157405Y-71813004D01*
X142283432Y-71966568D01*
X142436996Y-72092595D01*
X142612196Y-72186241D01*
X142802299Y-72243908D01*
X142802303Y-72243908D01*
X142802305Y-72243909D01*
X142999997Y-72263380D01*
X143000000Y-72263380D01*
X143000003Y-72263380D01*
X143197694Y-72243909D01*
X143197695Y-72243908D01*
X143197701Y-72243908D01*
X143387804Y-72186241D01*
X143563004Y-72092595D01*
X143670066Y-72004730D01*
X143735413Y-71976977D01*
X143805392Y-71988959D01*
X143829932Y-72004729D01*
X143936996Y-72092595D01*
X144112196Y-72186241D01*
X144302299Y-72243908D01*
X144302303Y-72243908D01*
X144302305Y-72243909D01*
X144499997Y-72263380D01*
X144500000Y-72263380D01*
X144500003Y-72263380D01*
X144697694Y-72243909D01*
X144697695Y-72243908D01*
X144697701Y-72243908D01*
X144887804Y-72186241D01*
X145063004Y-72092595D01*
X145170066Y-72004730D01*
X145235413Y-71976977D01*
X145305392Y-71988959D01*
X145329932Y-72004729D01*
X145436996Y-72092595D01*
X145612196Y-72186241D01*
X145802299Y-72243908D01*
X145802303Y-72243908D01*
X145802305Y-72243909D01*
X145999997Y-72263380D01*
X146000000Y-72263380D01*
X146000003Y-72263380D01*
X146197694Y-72243909D01*
X146197695Y-72243908D01*
X146197701Y-72243908D01*
X146387804Y-72186241D01*
X146563004Y-72092595D01*
X146670066Y-72004730D01*
X146735413Y-71976977D01*
X146805392Y-71988959D01*
X146829932Y-72004729D01*
X146936996Y-72092595D01*
X147112196Y-72186241D01*
X147302299Y-72243908D01*
X147302303Y-72243908D01*
X147302305Y-72243909D01*
X147499997Y-72263380D01*
X147500000Y-72263380D01*
X147500003Y-72263380D01*
X147697694Y-72243909D01*
X147697695Y-72243908D01*
X147697701Y-72243908D01*
X147887804Y-72186241D01*
X148063004Y-72092595D01*
X148216568Y-71966568D01*
X148342595Y-71813004D01*
X148436241Y-71637804D01*
X148493908Y-71447701D01*
X148513380Y-71250000D01*
X148493908Y-71052299D01*
X148436241Y-70862196D01*
X148342595Y-70686996D01*
X148254730Y-70579933D01*
X148226977Y-70514587D01*
X148238959Y-70444608D01*
X148254731Y-70420066D01*
X148342595Y-70313004D01*
X148436241Y-70137804D01*
X148493908Y-69947701D01*
X148513380Y-69750000D01*
X148493908Y-69552299D01*
X148436241Y-69362196D01*
X148342595Y-69186996D01*
X148216568Y-69033432D01*
X148063004Y-68907405D01*
X147887804Y-68813759D01*
X147697701Y-68756092D01*
X147697700Y-68756091D01*
X147697694Y-68756090D01*
X147500003Y-68736620D01*
X147499997Y-68736620D01*
X147302305Y-68756090D01*
X147112195Y-68813759D01*
X146936995Y-68907405D01*
X146829933Y-68995269D01*
X146764586Y-69023022D01*
X146694608Y-69011040D01*
X146670067Y-68995269D01*
X146563004Y-68907405D01*
X146387804Y-68813759D01*
X146197694Y-68756090D01*
X146000003Y-68736620D01*
X145999997Y-68736620D01*
X145802305Y-68756090D01*
X145612195Y-68813759D01*
X145436995Y-68907405D01*
X145329933Y-68995269D01*
X145264586Y-69023022D01*
X145194608Y-69011040D01*
X145170067Y-68995269D01*
X145063004Y-68907405D01*
X144887804Y-68813759D01*
X144697694Y-68756090D01*
X144500003Y-68736620D01*
X144499997Y-68736620D01*
X144302305Y-68756090D01*
X144112195Y-68813759D01*
X143936995Y-68907405D01*
X143829933Y-68995269D01*
X143764586Y-69023022D01*
X143694608Y-69011040D01*
X143670067Y-68995269D01*
X143563004Y-68907405D01*
X143387804Y-68813759D01*
X143197694Y-68756090D01*
X143000003Y-68736620D01*
X142999997Y-68736620D01*
X142802305Y-68756090D01*
X142612195Y-68813759D01*
X142436995Y-68907405D01*
X142283432Y-69033432D01*
X142157405Y-69186995D01*
X142063759Y-69362195D01*
X142006090Y-69552305D01*
X141986620Y-69749996D01*
X141986620Y-69750003D01*
X142006090Y-69947694D01*
X142063759Y-70137804D01*
X142157405Y-70313004D01*
X142245269Y-70420067D01*
X142273022Y-70485414D01*
X142261040Y-70555392D01*
X142245269Y-70579933D01*
X142157405Y-70686995D01*
X142063759Y-70862195D01*
X142006090Y-71052305D01*
X141986620Y-71249996D01*
X141986620Y-71250003D01*
X127000500Y-71250003D01*
X127000500Y-67999999D01*
X127444341Y-67999999D01*
X127464937Y-68235411D01*
X127526096Y-68463661D01*
X127526098Y-68463665D01*
X127625966Y-68677832D01*
X127761498Y-68871392D01*
X127761502Y-68871397D01*
X127761505Y-68871401D01*
X127928599Y-69038495D01*
X127928603Y-69038498D01*
X127928607Y-69038501D01*
X128122167Y-69174033D01*
X128122166Y-69174033D01*
X128198304Y-69209537D01*
X128336337Y-69273903D01*
X128564592Y-69335063D01*
X128741034Y-69350500D01*
X128741035Y-69350500D01*
X128858965Y-69350500D01*
X128858966Y-69350500D01*
X129035408Y-69335063D01*
X129263663Y-69273903D01*
X129477829Y-69174035D01*
X129671401Y-69038495D01*
X129838495Y-68871401D01*
X129974035Y-68677830D01*
X130073903Y-68463663D01*
X130135063Y-68235408D01*
X130155659Y-68000000D01*
X130155659Y-67999999D01*
X169444341Y-67999999D01*
X169464937Y-68235411D01*
X169526096Y-68463661D01*
X169526098Y-68463665D01*
X169625966Y-68677832D01*
X169761498Y-68871392D01*
X169761502Y-68871397D01*
X169761505Y-68871401D01*
X169928599Y-69038495D01*
X169928603Y-69038498D01*
X169928607Y-69038501D01*
X170122167Y-69174033D01*
X170122166Y-69174033D01*
X170198304Y-69209537D01*
X170336337Y-69273903D01*
X170564592Y-69335063D01*
X170741034Y-69350500D01*
X170741035Y-69350500D01*
X170858965Y-69350500D01*
X170858966Y-69350500D01*
X171035408Y-69335063D01*
X171263663Y-69273903D01*
X171477829Y-69174035D01*
X171671401Y-69038495D01*
X171838495Y-68871401D01*
X171974035Y-68677830D01*
X172073903Y-68463663D01*
X172135063Y-68235408D01*
X172155659Y-68000000D01*
X172135063Y-67764592D01*
X172073903Y-67536337D01*
X171974035Y-67322171D01*
X171974034Y-67322169D01*
X171974033Y-67322167D01*
X171838501Y-67128607D01*
X171838497Y-67128602D01*
X171838495Y-67128599D01*
X171671401Y-66961505D01*
X171671397Y-66961502D01*
X171671392Y-66961498D01*
X171477832Y-66825966D01*
X171477833Y-66825966D01*
X171263665Y-66726098D01*
X171263661Y-66726096D01*
X171035411Y-66664937D01*
X170903076Y-66653359D01*
X170858966Y-66649500D01*
X170741034Y-66649500D01*
X170705745Y-66652587D01*
X170564588Y-66664937D01*
X170336338Y-66726096D01*
X170336334Y-66726098D01*
X170122167Y-66825966D01*
X169928607Y-66961498D01*
X169928596Y-66961507D01*
X169761507Y-67128596D01*
X169761502Y-67128602D01*
X169625965Y-67322169D01*
X169526098Y-67536334D01*
X169526096Y-67536338D01*
X169464937Y-67764588D01*
X169444341Y-67999999D01*
X130155659Y-67999999D01*
X130135063Y-67764592D01*
X130073903Y-67536337D01*
X129974035Y-67322171D01*
X129974034Y-67322169D01*
X129974033Y-67322167D01*
X129838501Y-67128607D01*
X129838497Y-67128602D01*
X129838495Y-67128599D01*
X129671401Y-66961505D01*
X129671397Y-66961502D01*
X129671392Y-66961498D01*
X129477832Y-66825966D01*
X129477833Y-66825966D01*
X129263665Y-66726098D01*
X129263661Y-66726096D01*
X129035411Y-66664937D01*
X128903076Y-66653359D01*
X128858966Y-66649500D01*
X128741034Y-66649500D01*
X128705745Y-66652587D01*
X128564588Y-66664937D01*
X128336338Y-66726096D01*
X128336334Y-66726098D01*
X128122167Y-66825966D01*
X127928607Y-66961498D01*
X127928596Y-66961507D01*
X127761507Y-67128596D01*
X127761502Y-67128602D01*
X127625965Y-67322169D01*
X127526098Y-67536334D01*
X127526096Y-67536338D01*
X127464937Y-67764588D01*
X127444341Y-67999999D01*
X127000500Y-67999999D01*
X127000500Y-66171500D01*
X127020502Y-66103379D01*
X127074158Y-66056886D01*
X127126500Y-66045500D01*
X172673500Y-66045500D01*
X172741621Y-66065502D01*
G37*
G04 #@! TD.AperFunction*
M02*
