G04 #@! TF.GenerationSoftware,KiCad,Pcbnew,7.0.7-7.0.7~ubuntu22.04.1*
G04 #@! TF.CreationDate,2023-09-20T09:52:15-03:00*
G04 #@! TF.ProjectId,CTB-02,4354422d-3032-42e6-9b69-6361645f7063,rev?*
G04 #@! TF.SameCoordinates,Original*
G04 #@! TF.FileFunction,Legend,Bot*
G04 #@! TF.FilePolarity,Positive*
%FSLAX46Y46*%
G04 Gerber Fmt 4.6, Leading zero omitted, Abs format (unit mm)*
G04 Created by KiCad (PCBNEW 7.0.7-7.0.7~ubuntu22.04.1) date 2023-09-20 09:52:15*
%MOMM*%
%LPD*%
G01*
G04 APERTURE LIST*
G04 Aperture macros list*
%AMRoundRect*
0 Rectangle with rounded corners*
0 $1 Rounding radius*
0 $2 $3 $4 $5 $6 $7 $8 $9 X,Y pos of 4 corners*
0 Add a 4 corners polygon primitive as box body*
4,1,4,$2,$3,$4,$5,$6,$7,$8,$9,$2,$3,0*
0 Add four circle primitives for the rounded corners*
1,1,$1+$1,$2,$3*
1,1,$1+$1,$4,$5*
1,1,$1+$1,$6,$7*
1,1,$1+$1,$8,$9*
0 Add four rect primitives between the rounded corners*
20,1,$1+$1,$2,$3,$4,$5,0*
20,1,$1+$1,$4,$5,$6,$7,0*
20,1,$1+$1,$6,$7,$8,$9,0*
20,1,$1+$1,$8,$9,$2,$3,0*%
G04 Aperture macros list end*
%ADD10C,0.150000*%
%ADD11C,0.100000*%
%ADD12C,0.300000*%
%ADD13C,0.120000*%
%ADD14C,0.010000*%
%ADD15RoundRect,0.102000X-0.754000X0.754000X-0.754000X-0.754000X0.754000X-0.754000X0.754000X0.754000X0*%
%ADD16C,1.712000*%
%ADD17C,2.200000*%
%ADD18R,1.700000X1.700000*%
%ADD19O,1.700000X1.700000*%
%ADD20C,4.000000*%
%ADD21R,1.600000X1.600000*%
%ADD22C,1.600000*%
%ADD23RoundRect,0.225000X-0.250000X0.225000X-0.250000X-0.225000X0.250000X-0.225000X0.250000X0.225000X0*%
%ADD24RoundRect,0.225000X0.225000X0.250000X-0.225000X0.250000X-0.225000X-0.250000X0.225000X-0.250000X0*%
%ADD25RoundRect,0.200000X-0.200000X-0.275000X0.200000X-0.275000X0.200000X0.275000X-0.200000X0.275000X0*%
%ADD26RoundRect,0.200000X0.200000X0.275000X-0.200000X0.275000X-0.200000X-0.275000X0.200000X-0.275000X0*%
%ADD27RoundRect,0.225000X0.250000X-0.225000X0.250000X0.225000X-0.250000X0.225000X-0.250000X-0.225000X0*%
G04 APERTURE END LIST*
D10*
X145800000Y-100400000D02*
X143400000Y-100400000D01*
X150000000Y-103400000D02*
X150000000Y-96100000D01*
X147200000Y-99000000D02*
X143400000Y-99000000D01*
X135500000Y-76850000D02*
X148250000Y-76850000D01*
X148250000Y-80750000D01*
X135500000Y-80750000D01*
X135500000Y-76850000D01*
X154200000Y-106200000D02*
X154200000Y-100400000D01*
X150000000Y-96100000D02*
X143400000Y-96100000D01*
X151400000Y-94700000D02*
X143400000Y-94700000D01*
X152800000Y-103400000D02*
X152800000Y-99000000D01*
X148600000Y-97500000D02*
X143400000Y-97500000D01*
X156700000Y-99000000D02*
X152900000Y-99000000D01*
X147200000Y-103400000D02*
X147200000Y-99000000D01*
X151400000Y-106200000D02*
X151400000Y-94700000D01*
X144400000Y-103400000D02*
X144400000Y-101800000D01*
X156600000Y-102000000D02*
X155600000Y-102000000D01*
X155600000Y-103400000D02*
X155600000Y-102000000D01*
X156600000Y-100400000D02*
X154200000Y-100400000D01*
X144400000Y-101800000D02*
X143400000Y-101800000D01*
X145800000Y-106200000D02*
X145800000Y-100400000D01*
X148600000Y-106200000D02*
X148600000Y-97500000D01*
X134888094Y-85281009D02*
X134554761Y-85281009D01*
X134411904Y-85804819D02*
X134888094Y-85804819D01*
X134888094Y-85804819D02*
X134888094Y-84804819D01*
X134888094Y-84804819D02*
X134411904Y-84804819D01*
X133983332Y-85804819D02*
X133983332Y-84804819D01*
X133983332Y-84804819D02*
X133411904Y-85804819D01*
X133411904Y-85804819D02*
X133411904Y-84804819D01*
X159161904Y-101502438D02*
X159257142Y-101454819D01*
X159257142Y-101454819D02*
X159399999Y-101454819D01*
X159399999Y-101454819D02*
X159542856Y-101502438D01*
X159542856Y-101502438D02*
X159638094Y-101597676D01*
X159638094Y-101597676D02*
X159685713Y-101692914D01*
X159685713Y-101692914D02*
X159733332Y-101883390D01*
X159733332Y-101883390D02*
X159733332Y-102026247D01*
X159733332Y-102026247D02*
X159685713Y-102216723D01*
X159685713Y-102216723D02*
X159638094Y-102311961D01*
X159638094Y-102311961D02*
X159542856Y-102407200D01*
X159542856Y-102407200D02*
X159399999Y-102454819D01*
X159399999Y-102454819D02*
X159304761Y-102454819D01*
X159304761Y-102454819D02*
X159161904Y-102407200D01*
X159161904Y-102407200D02*
X159114285Y-102359580D01*
X159114285Y-102359580D02*
X159114285Y-102026247D01*
X159114285Y-102026247D02*
X159304761Y-102026247D01*
X158685713Y-102454819D02*
X158685713Y-101454819D01*
X158685713Y-101454819D02*
X158114285Y-102454819D01*
X158114285Y-102454819D02*
X158114285Y-101454819D01*
X157638094Y-102454819D02*
X157638094Y-101454819D01*
X157638094Y-101454819D02*
X157399999Y-101454819D01*
X157399999Y-101454819D02*
X157257142Y-101502438D01*
X157257142Y-101502438D02*
X157161904Y-101597676D01*
X157161904Y-101597676D02*
X157114285Y-101692914D01*
X157114285Y-101692914D02*
X157066666Y-101883390D01*
X157066666Y-101883390D02*
X157066666Y-102026247D01*
X157066666Y-102026247D02*
X157114285Y-102216723D01*
X157114285Y-102216723D02*
X157161904Y-102311961D01*
X157161904Y-102311961D02*
X157257142Y-102407200D01*
X157257142Y-102407200D02*
X157399999Y-102454819D01*
X157399999Y-102454819D02*
X157638094Y-102454819D01*
X159561903Y-99404819D02*
X159561903Y-98404819D01*
X159561903Y-98404819D02*
X158990475Y-99404819D01*
X158990475Y-99404819D02*
X158990475Y-98404819D01*
X158514284Y-99309580D02*
X158466665Y-99357200D01*
X158466665Y-99357200D02*
X158514284Y-99404819D01*
X158514284Y-99404819D02*
X158561903Y-99357200D01*
X158561903Y-99357200D02*
X158514284Y-99309580D01*
X158514284Y-99309580D02*
X158514284Y-99404819D01*
X157466666Y-99309580D02*
X157514285Y-99357200D01*
X157514285Y-99357200D02*
X157657142Y-99404819D01*
X157657142Y-99404819D02*
X157752380Y-99404819D01*
X157752380Y-99404819D02*
X157895237Y-99357200D01*
X157895237Y-99357200D02*
X157990475Y-99261961D01*
X157990475Y-99261961D02*
X158038094Y-99166723D01*
X158038094Y-99166723D02*
X158085713Y-98976247D01*
X158085713Y-98976247D02*
X158085713Y-98833390D01*
X158085713Y-98833390D02*
X158038094Y-98642914D01*
X158038094Y-98642914D02*
X157990475Y-98547676D01*
X157990475Y-98547676D02*
X157895237Y-98452438D01*
X157895237Y-98452438D02*
X157752380Y-98404819D01*
X157752380Y-98404819D02*
X157657142Y-98404819D01*
X157657142Y-98404819D02*
X157514285Y-98452438D01*
X157514285Y-98452438D02*
X157466666Y-98500057D01*
X157038094Y-99309580D02*
X156990475Y-99357200D01*
X156990475Y-99357200D02*
X157038094Y-99404819D01*
X157038094Y-99404819D02*
X157085713Y-99357200D01*
X157085713Y-99357200D02*
X157038094Y-99309580D01*
X157038094Y-99309580D02*
X157038094Y-99404819D01*
X134928571Y-98457200D02*
X134785714Y-98504819D01*
X134785714Y-98504819D02*
X134547619Y-98504819D01*
X134547619Y-98504819D02*
X134452381Y-98457200D01*
X134452381Y-98457200D02*
X134404762Y-98409580D01*
X134404762Y-98409580D02*
X134357143Y-98314342D01*
X134357143Y-98314342D02*
X134357143Y-98219104D01*
X134357143Y-98219104D02*
X134404762Y-98123866D01*
X134404762Y-98123866D02*
X134452381Y-98076247D01*
X134452381Y-98076247D02*
X134547619Y-98028628D01*
X134547619Y-98028628D02*
X134738095Y-97981009D01*
X134738095Y-97981009D02*
X134833333Y-97933390D01*
X134833333Y-97933390D02*
X134880952Y-97885771D01*
X134880952Y-97885771D02*
X134928571Y-97790533D01*
X134928571Y-97790533D02*
X134928571Y-97695295D01*
X134928571Y-97695295D02*
X134880952Y-97600057D01*
X134880952Y-97600057D02*
X134833333Y-97552438D01*
X134833333Y-97552438D02*
X134738095Y-97504819D01*
X134738095Y-97504819D02*
X134500000Y-97504819D01*
X134500000Y-97504819D02*
X134357143Y-97552438D01*
X134071428Y-97504819D02*
X133500000Y-97504819D01*
X133785714Y-98504819D02*
X133785714Y-97504819D01*
X133214285Y-98219104D02*
X132738095Y-98219104D01*
X133309523Y-98504819D02*
X132976190Y-97504819D01*
X132976190Y-97504819D02*
X132642857Y-98504819D01*
X132452380Y-97504819D02*
X131880952Y-97504819D01*
X132166666Y-98504819D02*
X132166666Y-97504819D01*
X131547618Y-97981009D02*
X131214285Y-97981009D01*
X131071428Y-98504819D02*
X131547618Y-98504819D01*
X131547618Y-98504819D02*
X131547618Y-97504819D01*
X131547618Y-97504819D02*
X131071428Y-97504819D01*
D11*
X152556200Y-76721428D02*
X152527628Y-76635714D01*
X152527628Y-76635714D02*
X152527628Y-76492856D01*
X152527628Y-76492856D02*
X152556200Y-76435714D01*
X152556200Y-76435714D02*
X152584771Y-76407142D01*
X152584771Y-76407142D02*
X152641914Y-76378571D01*
X152641914Y-76378571D02*
X152699057Y-76378571D01*
X152699057Y-76378571D02*
X152756200Y-76407142D01*
X152756200Y-76407142D02*
X152784771Y-76435714D01*
X152784771Y-76435714D02*
X152813342Y-76492856D01*
X152813342Y-76492856D02*
X152841914Y-76607142D01*
X152841914Y-76607142D02*
X152870485Y-76664285D01*
X152870485Y-76664285D02*
X152899057Y-76692856D01*
X152899057Y-76692856D02*
X152956200Y-76721428D01*
X152956200Y-76721428D02*
X153013342Y-76721428D01*
X153013342Y-76721428D02*
X153070485Y-76692856D01*
X153070485Y-76692856D02*
X153099057Y-76664285D01*
X153099057Y-76664285D02*
X153127628Y-76607142D01*
X153127628Y-76607142D02*
X153127628Y-76464285D01*
X153127628Y-76464285D02*
X153099057Y-76378571D01*
X152584771Y-75778570D02*
X152556200Y-75807142D01*
X152556200Y-75807142D02*
X152527628Y-75892856D01*
X152527628Y-75892856D02*
X152527628Y-75949999D01*
X152527628Y-75949999D02*
X152556200Y-76035713D01*
X152556200Y-76035713D02*
X152613342Y-76092856D01*
X152613342Y-76092856D02*
X152670485Y-76121427D01*
X152670485Y-76121427D02*
X152784771Y-76149999D01*
X152784771Y-76149999D02*
X152870485Y-76149999D01*
X152870485Y-76149999D02*
X152984771Y-76121427D01*
X152984771Y-76121427D02*
X153041914Y-76092856D01*
X153041914Y-76092856D02*
X153099057Y-76035713D01*
X153099057Y-76035713D02*
X153127628Y-75949999D01*
X153127628Y-75949999D02*
X153127628Y-75892856D01*
X153127628Y-75892856D02*
X153099057Y-75807142D01*
X153099057Y-75807142D02*
X153070485Y-75778570D01*
X152527628Y-75521427D02*
X153127628Y-75521427D01*
X152527628Y-75178570D02*
X152870485Y-75435713D01*
X153127628Y-75178570D02*
X152784771Y-75521427D01*
D10*
X142319047Y-95104819D02*
X142652380Y-94628628D01*
X142890475Y-95104819D02*
X142890475Y-94104819D01*
X142890475Y-94104819D02*
X142509523Y-94104819D01*
X142509523Y-94104819D02*
X142414285Y-94152438D01*
X142414285Y-94152438D02*
X142366666Y-94200057D01*
X142366666Y-94200057D02*
X142319047Y-94295295D01*
X142319047Y-94295295D02*
X142319047Y-94438152D01*
X142319047Y-94438152D02*
X142366666Y-94533390D01*
X142366666Y-94533390D02*
X142414285Y-94581009D01*
X142414285Y-94581009D02*
X142509523Y-94628628D01*
X142509523Y-94628628D02*
X142890475Y-94628628D01*
X141890475Y-94581009D02*
X141557142Y-94581009D01*
X141414285Y-95104819D02*
X141890475Y-95104819D01*
X141890475Y-95104819D02*
X141890475Y-94104819D01*
X141890475Y-94104819D02*
X141414285Y-94104819D01*
X141033332Y-95057200D02*
X140890475Y-95104819D01*
X140890475Y-95104819D02*
X140652380Y-95104819D01*
X140652380Y-95104819D02*
X140557142Y-95057200D01*
X140557142Y-95057200D02*
X140509523Y-95009580D01*
X140509523Y-95009580D02*
X140461904Y-94914342D01*
X140461904Y-94914342D02*
X140461904Y-94819104D01*
X140461904Y-94819104D02*
X140509523Y-94723866D01*
X140509523Y-94723866D02*
X140557142Y-94676247D01*
X140557142Y-94676247D02*
X140652380Y-94628628D01*
X140652380Y-94628628D02*
X140842856Y-94581009D01*
X140842856Y-94581009D02*
X140938094Y-94533390D01*
X140938094Y-94533390D02*
X140985713Y-94485771D01*
X140985713Y-94485771D02*
X141033332Y-94390533D01*
X141033332Y-94390533D02*
X141033332Y-94295295D01*
X141033332Y-94295295D02*
X140985713Y-94200057D01*
X140985713Y-94200057D02*
X140938094Y-94152438D01*
X140938094Y-94152438D02*
X140842856Y-94104819D01*
X140842856Y-94104819D02*
X140604761Y-94104819D01*
X140604761Y-94104819D02*
X140461904Y-94152438D01*
X134883332Y-87404819D02*
X134549999Y-88404819D01*
X134549999Y-88404819D02*
X134216666Y-87404819D01*
X133311904Y-88309580D02*
X133359523Y-88357200D01*
X133359523Y-88357200D02*
X133502380Y-88404819D01*
X133502380Y-88404819D02*
X133597618Y-88404819D01*
X133597618Y-88404819D02*
X133740475Y-88357200D01*
X133740475Y-88357200D02*
X133835713Y-88261961D01*
X133835713Y-88261961D02*
X133883332Y-88166723D01*
X133883332Y-88166723D02*
X133930951Y-87976247D01*
X133930951Y-87976247D02*
X133930951Y-87833390D01*
X133930951Y-87833390D02*
X133883332Y-87642914D01*
X133883332Y-87642914D02*
X133835713Y-87547676D01*
X133835713Y-87547676D02*
X133740475Y-87452438D01*
X133740475Y-87452438D02*
X133597618Y-87404819D01*
X133597618Y-87404819D02*
X133502380Y-87404819D01*
X133502380Y-87404819D02*
X133359523Y-87452438D01*
X133359523Y-87452438D02*
X133311904Y-87500057D01*
X132311904Y-88309580D02*
X132359523Y-88357200D01*
X132359523Y-88357200D02*
X132502380Y-88404819D01*
X132502380Y-88404819D02*
X132597618Y-88404819D01*
X132597618Y-88404819D02*
X132740475Y-88357200D01*
X132740475Y-88357200D02*
X132835713Y-88261961D01*
X132835713Y-88261961D02*
X132883332Y-88166723D01*
X132883332Y-88166723D02*
X132930951Y-87976247D01*
X132930951Y-87976247D02*
X132930951Y-87833390D01*
X132930951Y-87833390D02*
X132883332Y-87642914D01*
X132883332Y-87642914D02*
X132835713Y-87547676D01*
X132835713Y-87547676D02*
X132740475Y-87452438D01*
X132740475Y-87452438D02*
X132597618Y-87404819D01*
X132597618Y-87404819D02*
X132502380Y-87404819D01*
X132502380Y-87404819D02*
X132359523Y-87452438D01*
X132359523Y-87452438D02*
X132311904Y-87500057D01*
X134316666Y-96004819D02*
X134649999Y-95528628D01*
X134888094Y-96004819D02*
X134888094Y-95004819D01*
X134888094Y-95004819D02*
X134507142Y-95004819D01*
X134507142Y-95004819D02*
X134411904Y-95052438D01*
X134411904Y-95052438D02*
X134364285Y-95100057D01*
X134364285Y-95100057D02*
X134316666Y-95195295D01*
X134316666Y-95195295D02*
X134316666Y-95338152D01*
X134316666Y-95338152D02*
X134364285Y-95433390D01*
X134364285Y-95433390D02*
X134411904Y-95481009D01*
X134411904Y-95481009D02*
X134507142Y-95528628D01*
X134507142Y-95528628D02*
X134888094Y-95528628D01*
X133983332Y-95004819D02*
X133316666Y-96004819D01*
X133316666Y-95004819D02*
X133983332Y-96004819D01*
D11*
X155206200Y-76628571D02*
X155177628Y-76542857D01*
X155177628Y-76542857D02*
X155177628Y-76399999D01*
X155177628Y-76399999D02*
X155206200Y-76342857D01*
X155206200Y-76342857D02*
X155234771Y-76314285D01*
X155234771Y-76314285D02*
X155291914Y-76285714D01*
X155291914Y-76285714D02*
X155349057Y-76285714D01*
X155349057Y-76285714D02*
X155406200Y-76314285D01*
X155406200Y-76314285D02*
X155434771Y-76342857D01*
X155434771Y-76342857D02*
X155463342Y-76399999D01*
X155463342Y-76399999D02*
X155491914Y-76514285D01*
X155491914Y-76514285D02*
X155520485Y-76571428D01*
X155520485Y-76571428D02*
X155549057Y-76599999D01*
X155549057Y-76599999D02*
X155606200Y-76628571D01*
X155606200Y-76628571D02*
X155663342Y-76628571D01*
X155663342Y-76628571D02*
X155720485Y-76599999D01*
X155720485Y-76599999D02*
X155749057Y-76571428D01*
X155749057Y-76571428D02*
X155777628Y-76514285D01*
X155777628Y-76514285D02*
X155777628Y-76371428D01*
X155777628Y-76371428D02*
X155749057Y-76285714D01*
X155177628Y-76028570D02*
X155777628Y-76028570D01*
X155777628Y-75628571D02*
X155777628Y-75514285D01*
X155777628Y-75514285D02*
X155749057Y-75457142D01*
X155749057Y-75457142D02*
X155691914Y-75399999D01*
X155691914Y-75399999D02*
X155577628Y-75371428D01*
X155577628Y-75371428D02*
X155377628Y-75371428D01*
X155377628Y-75371428D02*
X155263342Y-75399999D01*
X155263342Y-75399999D02*
X155206200Y-75457142D01*
X155206200Y-75457142D02*
X155177628Y-75514285D01*
X155177628Y-75514285D02*
X155177628Y-75628571D01*
X155177628Y-75628571D02*
X155206200Y-75685714D01*
X155206200Y-75685714D02*
X155263342Y-75742856D01*
X155263342Y-75742856D02*
X155377628Y-75771428D01*
X155377628Y-75771428D02*
X155577628Y-75771428D01*
X155577628Y-75771428D02*
X155691914Y-75742856D01*
X155691914Y-75742856D02*
X155749057Y-75685714D01*
X155749057Y-75685714D02*
X155777628Y-75628571D01*
D10*
X134911904Y-92404819D02*
X134340476Y-92404819D01*
X134626190Y-93404819D02*
X134626190Y-92404819D01*
X134102380Y-92404819D02*
X133435714Y-93404819D01*
X133435714Y-92404819D02*
X134102380Y-93404819D01*
X142895237Y-101254819D02*
X142561904Y-102254819D01*
X142561904Y-102254819D02*
X142228571Y-101254819D01*
X141895237Y-102254819D02*
X141895237Y-101254819D01*
X141419047Y-102254819D02*
X141419047Y-101254819D01*
X141419047Y-101254819D02*
X140847619Y-102254819D01*
X140847619Y-102254819D02*
X140847619Y-101254819D01*
X142114285Y-97859580D02*
X142161904Y-97907200D01*
X142161904Y-97907200D02*
X142304761Y-97954819D01*
X142304761Y-97954819D02*
X142399999Y-97954819D01*
X142399999Y-97954819D02*
X142542856Y-97907200D01*
X142542856Y-97907200D02*
X142638094Y-97811961D01*
X142638094Y-97811961D02*
X142685713Y-97716723D01*
X142685713Y-97716723D02*
X142733332Y-97526247D01*
X142733332Y-97526247D02*
X142733332Y-97383390D01*
X142733332Y-97383390D02*
X142685713Y-97192914D01*
X142685713Y-97192914D02*
X142638094Y-97097676D01*
X142638094Y-97097676D02*
X142542856Y-97002438D01*
X142542856Y-97002438D02*
X142399999Y-96954819D01*
X142399999Y-96954819D02*
X142304761Y-96954819D01*
X142304761Y-96954819D02*
X142161904Y-97002438D01*
X142161904Y-97002438D02*
X142114285Y-97050057D01*
X141685713Y-97954819D02*
X141685713Y-96954819D01*
X141685713Y-97431009D02*
X141114285Y-97431009D01*
X141114285Y-97954819D02*
X141114285Y-96954819D01*
X140066666Y-97954819D02*
X140399999Y-97478628D01*
X140638094Y-97954819D02*
X140638094Y-96954819D01*
X140638094Y-96954819D02*
X140257142Y-96954819D01*
X140257142Y-96954819D02*
X140161904Y-97002438D01*
X140161904Y-97002438D02*
X140114285Y-97050057D01*
X140114285Y-97050057D02*
X140066666Y-97145295D01*
X140066666Y-97145295D02*
X140066666Y-97288152D01*
X140066666Y-97288152D02*
X140114285Y-97383390D01*
X140114285Y-97383390D02*
X140161904Y-97431009D01*
X140161904Y-97431009D02*
X140257142Y-97478628D01*
X140257142Y-97478628D02*
X140638094Y-97478628D01*
X139114285Y-97002438D02*
X139209523Y-96954819D01*
X139209523Y-96954819D02*
X139352380Y-96954819D01*
X139352380Y-96954819D02*
X139495237Y-97002438D01*
X139495237Y-97002438D02*
X139590475Y-97097676D01*
X139590475Y-97097676D02*
X139638094Y-97192914D01*
X139638094Y-97192914D02*
X139685713Y-97383390D01*
X139685713Y-97383390D02*
X139685713Y-97526247D01*
X139685713Y-97526247D02*
X139638094Y-97716723D01*
X139638094Y-97716723D02*
X139590475Y-97811961D01*
X139590475Y-97811961D02*
X139495237Y-97907200D01*
X139495237Y-97907200D02*
X139352380Y-97954819D01*
X139352380Y-97954819D02*
X139257142Y-97954819D01*
X139257142Y-97954819D02*
X139114285Y-97907200D01*
X139114285Y-97907200D02*
X139066666Y-97859580D01*
X139066666Y-97859580D02*
X139066666Y-97526247D01*
X139066666Y-97526247D02*
X139257142Y-97526247D01*
X138066666Y-97954819D02*
X138399999Y-97478628D01*
X138638094Y-97954819D02*
X138638094Y-96954819D01*
X138638094Y-96954819D02*
X138257142Y-96954819D01*
X138257142Y-96954819D02*
X138161904Y-97002438D01*
X138161904Y-97002438D02*
X138114285Y-97050057D01*
X138114285Y-97050057D02*
X138066666Y-97145295D01*
X138066666Y-97145295D02*
X138066666Y-97288152D01*
X138066666Y-97288152D02*
X138114285Y-97383390D01*
X138114285Y-97383390D02*
X138161904Y-97431009D01*
X138161904Y-97431009D02*
X138257142Y-97478628D01*
X138257142Y-97478628D02*
X138638094Y-97478628D01*
D11*
X158177628Y-76850000D02*
X157577628Y-76650000D01*
X157577628Y-76650000D02*
X158177628Y-76450000D01*
X157634771Y-75907142D02*
X157606200Y-75935714D01*
X157606200Y-75935714D02*
X157577628Y-76021428D01*
X157577628Y-76021428D02*
X157577628Y-76078571D01*
X157577628Y-76078571D02*
X157606200Y-76164285D01*
X157606200Y-76164285D02*
X157663342Y-76221428D01*
X157663342Y-76221428D02*
X157720485Y-76249999D01*
X157720485Y-76249999D02*
X157834771Y-76278571D01*
X157834771Y-76278571D02*
X157920485Y-76278571D01*
X157920485Y-76278571D02*
X158034771Y-76249999D01*
X158034771Y-76249999D02*
X158091914Y-76221428D01*
X158091914Y-76221428D02*
X158149057Y-76164285D01*
X158149057Y-76164285D02*
X158177628Y-76078571D01*
X158177628Y-76078571D02*
X158177628Y-76021428D01*
X158177628Y-76021428D02*
X158149057Y-75935714D01*
X158149057Y-75935714D02*
X158120485Y-75907142D01*
X157634771Y-75307142D02*
X157606200Y-75335714D01*
X157606200Y-75335714D02*
X157577628Y-75421428D01*
X157577628Y-75421428D02*
X157577628Y-75478571D01*
X157577628Y-75478571D02*
X157606200Y-75564285D01*
X157606200Y-75564285D02*
X157663342Y-75621428D01*
X157663342Y-75621428D02*
X157720485Y-75649999D01*
X157720485Y-75649999D02*
X157834771Y-75678571D01*
X157834771Y-75678571D02*
X157920485Y-75678571D01*
X157920485Y-75678571D02*
X158034771Y-75649999D01*
X158034771Y-75649999D02*
X158091914Y-75621428D01*
X158091914Y-75621428D02*
X158149057Y-75564285D01*
X158149057Y-75564285D02*
X158177628Y-75478571D01*
X158177628Y-75478571D02*
X158177628Y-75421428D01*
X158177628Y-75421428D02*
X158149057Y-75335714D01*
X158149057Y-75335714D02*
X158120485Y-75307142D01*
D10*
X134361904Y-90002438D02*
X134457142Y-89954819D01*
X134457142Y-89954819D02*
X134599999Y-89954819D01*
X134599999Y-89954819D02*
X134742856Y-90002438D01*
X134742856Y-90002438D02*
X134838094Y-90097676D01*
X134838094Y-90097676D02*
X134885713Y-90192914D01*
X134885713Y-90192914D02*
X134933332Y-90383390D01*
X134933332Y-90383390D02*
X134933332Y-90526247D01*
X134933332Y-90526247D02*
X134885713Y-90716723D01*
X134885713Y-90716723D02*
X134838094Y-90811961D01*
X134838094Y-90811961D02*
X134742856Y-90907200D01*
X134742856Y-90907200D02*
X134599999Y-90954819D01*
X134599999Y-90954819D02*
X134504761Y-90954819D01*
X134504761Y-90954819D02*
X134361904Y-90907200D01*
X134361904Y-90907200D02*
X134314285Y-90859580D01*
X134314285Y-90859580D02*
X134314285Y-90526247D01*
X134314285Y-90526247D02*
X134504761Y-90526247D01*
X133885713Y-90954819D02*
X133885713Y-89954819D01*
X133885713Y-89954819D02*
X133314285Y-90954819D01*
X133314285Y-90954819D02*
X133314285Y-89954819D01*
X132838094Y-90954819D02*
X132838094Y-89954819D01*
X132838094Y-89954819D02*
X132599999Y-89954819D01*
X132599999Y-89954819D02*
X132457142Y-90002438D01*
X132457142Y-90002438D02*
X132361904Y-90097676D01*
X132361904Y-90097676D02*
X132314285Y-90192914D01*
X132314285Y-90192914D02*
X132266666Y-90383390D01*
X132266666Y-90383390D02*
X132266666Y-90526247D01*
X132266666Y-90526247D02*
X132314285Y-90716723D01*
X132314285Y-90716723D02*
X132361904Y-90811961D01*
X132361904Y-90811961D02*
X132457142Y-90907200D01*
X132457142Y-90907200D02*
X132599999Y-90954819D01*
X132599999Y-90954819D02*
X132838094Y-90954819D01*
X143011903Y-100854819D02*
X143011903Y-99854819D01*
X143011903Y-99854819D02*
X142440475Y-100854819D01*
X142440475Y-100854819D02*
X142440475Y-99854819D01*
X141964284Y-100759580D02*
X141916665Y-100807200D01*
X141916665Y-100807200D02*
X141964284Y-100854819D01*
X141964284Y-100854819D02*
X142011903Y-100807200D01*
X142011903Y-100807200D02*
X141964284Y-100759580D01*
X141964284Y-100759580D02*
X141964284Y-100854819D01*
X140916666Y-100759580D02*
X140964285Y-100807200D01*
X140964285Y-100807200D02*
X141107142Y-100854819D01*
X141107142Y-100854819D02*
X141202380Y-100854819D01*
X141202380Y-100854819D02*
X141345237Y-100807200D01*
X141345237Y-100807200D02*
X141440475Y-100711961D01*
X141440475Y-100711961D02*
X141488094Y-100616723D01*
X141488094Y-100616723D02*
X141535713Y-100426247D01*
X141535713Y-100426247D02*
X141535713Y-100283390D01*
X141535713Y-100283390D02*
X141488094Y-100092914D01*
X141488094Y-100092914D02*
X141440475Y-99997676D01*
X141440475Y-99997676D02*
X141345237Y-99902438D01*
X141345237Y-99902438D02*
X141202380Y-99854819D01*
X141202380Y-99854819D02*
X141107142Y-99854819D01*
X141107142Y-99854819D02*
X140964285Y-99902438D01*
X140964285Y-99902438D02*
X140916666Y-99950057D01*
X140488094Y-100759580D02*
X140440475Y-100807200D01*
X140440475Y-100807200D02*
X140488094Y-100854819D01*
X140488094Y-100854819D02*
X140535713Y-100807200D01*
X140535713Y-100807200D02*
X140488094Y-100759580D01*
X140488094Y-100759580D02*
X140488094Y-100854819D01*
X158842857Y-100954819D02*
X159319047Y-100954819D01*
X159319047Y-100954819D02*
X159319047Y-99954819D01*
X158509523Y-100431009D02*
X158176190Y-100431009D01*
X158033333Y-100954819D02*
X158509523Y-100954819D01*
X158509523Y-100954819D02*
X158509523Y-99954819D01*
X158509523Y-99954819D02*
X158033333Y-99954819D01*
X157604761Y-100954819D02*
X157604761Y-99954819D01*
X157604761Y-99954819D02*
X157366666Y-99954819D01*
X157366666Y-99954819D02*
X157223809Y-100002438D01*
X157223809Y-100002438D02*
X157128571Y-100097676D01*
X157128571Y-100097676D02*
X157080952Y-100192914D01*
X157080952Y-100192914D02*
X157033333Y-100383390D01*
X157033333Y-100383390D02*
X157033333Y-100526247D01*
X157033333Y-100526247D02*
X157080952Y-100716723D01*
X157080952Y-100716723D02*
X157128571Y-100811961D01*
X157128571Y-100811961D02*
X157223809Y-100907200D01*
X157223809Y-100907200D02*
X157366666Y-100954819D01*
X157366666Y-100954819D02*
X157604761Y-100954819D01*
X142938094Y-99169104D02*
X142461904Y-99169104D01*
X143033332Y-99454819D02*
X142699999Y-98454819D01*
X142699999Y-98454819D02*
X142366666Y-99454819D01*
D11*
X150499057Y-76307142D02*
X150527628Y-76364285D01*
X150527628Y-76364285D02*
X150527628Y-76449999D01*
X150527628Y-76449999D02*
X150499057Y-76535713D01*
X150499057Y-76535713D02*
X150441914Y-76592856D01*
X150441914Y-76592856D02*
X150384771Y-76621427D01*
X150384771Y-76621427D02*
X150270485Y-76649999D01*
X150270485Y-76649999D02*
X150184771Y-76649999D01*
X150184771Y-76649999D02*
X150070485Y-76621427D01*
X150070485Y-76621427D02*
X150013342Y-76592856D01*
X150013342Y-76592856D02*
X149956200Y-76535713D01*
X149956200Y-76535713D02*
X149927628Y-76449999D01*
X149927628Y-76449999D02*
X149927628Y-76392856D01*
X149927628Y-76392856D02*
X149956200Y-76307142D01*
X149956200Y-76307142D02*
X149984771Y-76278570D01*
X149984771Y-76278570D02*
X150184771Y-76278570D01*
X150184771Y-76278570D02*
X150184771Y-76392856D01*
X149927628Y-76021427D02*
X150527628Y-76021427D01*
X150527628Y-76021427D02*
X149927628Y-75678570D01*
X149927628Y-75678570D02*
X150527628Y-75678570D01*
X149927628Y-75392856D02*
X150527628Y-75392856D01*
X150527628Y-75392856D02*
X150527628Y-75249999D01*
X150527628Y-75249999D02*
X150499057Y-75164285D01*
X150499057Y-75164285D02*
X150441914Y-75107142D01*
X150441914Y-75107142D02*
X150384771Y-75078571D01*
X150384771Y-75078571D02*
X150270485Y-75049999D01*
X150270485Y-75049999D02*
X150184771Y-75049999D01*
X150184771Y-75049999D02*
X150070485Y-75078571D01*
X150070485Y-75078571D02*
X150013342Y-75107142D01*
X150013342Y-75107142D02*
X149956200Y-75164285D01*
X149956200Y-75164285D02*
X149927628Y-75249999D01*
X149927628Y-75249999D02*
X149927628Y-75392856D01*
D10*
X142628571Y-96031009D02*
X142485714Y-96078628D01*
X142485714Y-96078628D02*
X142438095Y-96126247D01*
X142438095Y-96126247D02*
X142390476Y-96221485D01*
X142390476Y-96221485D02*
X142390476Y-96364342D01*
X142390476Y-96364342D02*
X142438095Y-96459580D01*
X142438095Y-96459580D02*
X142485714Y-96507200D01*
X142485714Y-96507200D02*
X142580952Y-96554819D01*
X142580952Y-96554819D02*
X142961904Y-96554819D01*
X142961904Y-96554819D02*
X142961904Y-95554819D01*
X142961904Y-95554819D02*
X142628571Y-95554819D01*
X142628571Y-95554819D02*
X142533333Y-95602438D01*
X142533333Y-95602438D02*
X142485714Y-95650057D01*
X142485714Y-95650057D02*
X142438095Y-95745295D01*
X142438095Y-95745295D02*
X142438095Y-95840533D01*
X142438095Y-95840533D02*
X142485714Y-95935771D01*
X142485714Y-95935771D02*
X142533333Y-95983390D01*
X142533333Y-95983390D02*
X142628571Y-96031009D01*
X142628571Y-96031009D02*
X142961904Y-96031009D01*
D12*
X146285714Y-79619161D02*
X146380952Y-79714400D01*
X146380952Y-79714400D02*
X146666666Y-79809638D01*
X146666666Y-79809638D02*
X146857142Y-79809638D01*
X146857142Y-79809638D02*
X147142857Y-79714400D01*
X147142857Y-79714400D02*
X147333333Y-79523923D01*
X147333333Y-79523923D02*
X147428571Y-79333447D01*
X147428571Y-79333447D02*
X147523809Y-78952495D01*
X147523809Y-78952495D02*
X147523809Y-78666780D01*
X147523809Y-78666780D02*
X147428571Y-78285828D01*
X147428571Y-78285828D02*
X147333333Y-78095352D01*
X147333333Y-78095352D02*
X147142857Y-77904876D01*
X147142857Y-77904876D02*
X146857142Y-77809638D01*
X146857142Y-77809638D02*
X146666666Y-77809638D01*
X146666666Y-77809638D02*
X146380952Y-77904876D01*
X146380952Y-77904876D02*
X146285714Y-78000114D01*
X145714285Y-77809638D02*
X144571428Y-77809638D01*
X145142857Y-79809638D02*
X145142857Y-77809638D01*
X143238094Y-78762019D02*
X142952380Y-78857257D01*
X142952380Y-78857257D02*
X142857142Y-78952495D01*
X142857142Y-78952495D02*
X142761904Y-79142971D01*
X142761904Y-79142971D02*
X142761904Y-79428685D01*
X142761904Y-79428685D02*
X142857142Y-79619161D01*
X142857142Y-79619161D02*
X142952380Y-79714400D01*
X142952380Y-79714400D02*
X143142856Y-79809638D01*
X143142856Y-79809638D02*
X143904761Y-79809638D01*
X143904761Y-79809638D02*
X143904761Y-77809638D01*
X143904761Y-77809638D02*
X143238094Y-77809638D01*
X143238094Y-77809638D02*
X143047618Y-77904876D01*
X143047618Y-77904876D02*
X142952380Y-78000114D01*
X142952380Y-78000114D02*
X142857142Y-78190590D01*
X142857142Y-78190590D02*
X142857142Y-78381066D01*
X142857142Y-78381066D02*
X142952380Y-78571542D01*
X142952380Y-78571542D02*
X143047618Y-78666780D01*
X143047618Y-78666780D02*
X143238094Y-78762019D01*
X143238094Y-78762019D02*
X143904761Y-78762019D01*
X141904761Y-79047733D02*
X140380952Y-79047733D01*
X139047619Y-77809638D02*
X138857142Y-77809638D01*
X138857142Y-77809638D02*
X138666666Y-77904876D01*
X138666666Y-77904876D02*
X138571428Y-78000114D01*
X138571428Y-78000114D02*
X138476190Y-78190590D01*
X138476190Y-78190590D02*
X138380952Y-78571542D01*
X138380952Y-78571542D02*
X138380952Y-79047733D01*
X138380952Y-79047733D02*
X138476190Y-79428685D01*
X138476190Y-79428685D02*
X138571428Y-79619161D01*
X138571428Y-79619161D02*
X138666666Y-79714400D01*
X138666666Y-79714400D02*
X138857142Y-79809638D01*
X138857142Y-79809638D02*
X139047619Y-79809638D01*
X139047619Y-79809638D02*
X139238095Y-79714400D01*
X139238095Y-79714400D02*
X139333333Y-79619161D01*
X139333333Y-79619161D02*
X139428571Y-79428685D01*
X139428571Y-79428685D02*
X139523809Y-79047733D01*
X139523809Y-79047733D02*
X139523809Y-78571542D01*
X139523809Y-78571542D02*
X139428571Y-78190590D01*
X139428571Y-78190590D02*
X139333333Y-78000114D01*
X139333333Y-78000114D02*
X139238095Y-77904876D01*
X139238095Y-77904876D02*
X139047619Y-77809638D01*
X137619047Y-78000114D02*
X137523809Y-77904876D01*
X137523809Y-77904876D02*
X137333333Y-77809638D01*
X137333333Y-77809638D02*
X136857142Y-77809638D01*
X136857142Y-77809638D02*
X136666666Y-77904876D01*
X136666666Y-77904876D02*
X136571428Y-78000114D01*
X136571428Y-78000114D02*
X136476190Y-78190590D01*
X136476190Y-78190590D02*
X136476190Y-78381066D01*
X136476190Y-78381066D02*
X136571428Y-78666780D01*
X136571428Y-78666780D02*
X137714285Y-79809638D01*
X137714285Y-79809638D02*
X136476190Y-79809638D01*
D11*
X156088704Y-85385714D02*
X156126800Y-85347618D01*
X156126800Y-85347618D02*
X156164895Y-85233333D01*
X156164895Y-85233333D02*
X156164895Y-85157142D01*
X156164895Y-85157142D02*
X156126800Y-85042856D01*
X156126800Y-85042856D02*
X156050609Y-84966666D01*
X156050609Y-84966666D02*
X155974419Y-84928571D01*
X155974419Y-84928571D02*
X155822038Y-84890475D01*
X155822038Y-84890475D02*
X155707752Y-84890475D01*
X155707752Y-84890475D02*
X155555371Y-84928571D01*
X155555371Y-84928571D02*
X155479180Y-84966666D01*
X155479180Y-84966666D02*
X155402990Y-85042856D01*
X155402990Y-85042856D02*
X155364895Y-85157142D01*
X155364895Y-85157142D02*
X155364895Y-85233333D01*
X155364895Y-85233333D02*
X155402990Y-85347618D01*
X155402990Y-85347618D02*
X155441085Y-85385714D01*
X156164895Y-86147618D02*
X156164895Y-85690475D01*
X156164895Y-85919047D02*
X155364895Y-85919047D01*
X155364895Y-85919047D02*
X155479180Y-85842856D01*
X155479180Y-85842856D02*
X155555371Y-85766666D01*
X155555371Y-85766666D02*
X155593466Y-85690475D01*
X155364895Y-86871428D02*
X155364895Y-86490476D01*
X155364895Y-86490476D02*
X155745847Y-86452380D01*
X155745847Y-86452380D02*
X155707752Y-86490476D01*
X155707752Y-86490476D02*
X155669657Y-86566666D01*
X155669657Y-86566666D02*
X155669657Y-86757142D01*
X155669657Y-86757142D02*
X155707752Y-86833333D01*
X155707752Y-86833333D02*
X155745847Y-86871428D01*
X155745847Y-86871428D02*
X155822038Y-86909523D01*
X155822038Y-86909523D02*
X156012514Y-86909523D01*
X156012514Y-86909523D02*
X156088704Y-86871428D01*
X156088704Y-86871428D02*
X156126800Y-86833333D01*
X156126800Y-86833333D02*
X156164895Y-86757142D01*
X156164895Y-86757142D02*
X156164895Y-86566666D01*
X156164895Y-86566666D02*
X156126800Y-86490476D01*
X156126800Y-86490476D02*
X156088704Y-86452380D01*
X154614285Y-91588704D02*
X154652381Y-91626800D01*
X154652381Y-91626800D02*
X154766666Y-91664895D01*
X154766666Y-91664895D02*
X154842857Y-91664895D01*
X154842857Y-91664895D02*
X154957143Y-91626800D01*
X154957143Y-91626800D02*
X155033333Y-91550609D01*
X155033333Y-91550609D02*
X155071428Y-91474419D01*
X155071428Y-91474419D02*
X155109524Y-91322038D01*
X155109524Y-91322038D02*
X155109524Y-91207752D01*
X155109524Y-91207752D02*
X155071428Y-91055371D01*
X155071428Y-91055371D02*
X155033333Y-90979180D01*
X155033333Y-90979180D02*
X154957143Y-90902990D01*
X154957143Y-90902990D02*
X154842857Y-90864895D01*
X154842857Y-90864895D02*
X154766666Y-90864895D01*
X154766666Y-90864895D02*
X154652381Y-90902990D01*
X154652381Y-90902990D02*
X154614285Y-90941085D01*
X153852381Y-91664895D02*
X154309524Y-91664895D01*
X154080952Y-91664895D02*
X154080952Y-90864895D01*
X154080952Y-90864895D02*
X154157143Y-90979180D01*
X154157143Y-90979180D02*
X154233333Y-91055371D01*
X154233333Y-91055371D02*
X154309524Y-91093466D01*
X153166666Y-91131561D02*
X153166666Y-91664895D01*
X153357142Y-90826800D02*
X153547619Y-91398228D01*
X153547619Y-91398228D02*
X153052380Y-91398228D01*
X152914285Y-87464895D02*
X153180952Y-87083942D01*
X153371428Y-87464895D02*
X153371428Y-86664895D01*
X153371428Y-86664895D02*
X153066666Y-86664895D01*
X153066666Y-86664895D02*
X152990476Y-86702990D01*
X152990476Y-86702990D02*
X152952381Y-86741085D01*
X152952381Y-86741085D02*
X152914285Y-86817276D01*
X152914285Y-86817276D02*
X152914285Y-86931561D01*
X152914285Y-86931561D02*
X152952381Y-87007752D01*
X152952381Y-87007752D02*
X152990476Y-87045847D01*
X152990476Y-87045847D02*
X153066666Y-87083942D01*
X153066666Y-87083942D02*
X153371428Y-87083942D01*
X152609524Y-86741085D02*
X152571428Y-86702990D01*
X152571428Y-86702990D02*
X152495238Y-86664895D01*
X152495238Y-86664895D02*
X152304762Y-86664895D01*
X152304762Y-86664895D02*
X152228571Y-86702990D01*
X152228571Y-86702990D02*
X152190476Y-86741085D01*
X152190476Y-86741085D02*
X152152381Y-86817276D01*
X152152381Y-86817276D02*
X152152381Y-86893466D01*
X152152381Y-86893466D02*
X152190476Y-87007752D01*
X152190476Y-87007752D02*
X152647619Y-87464895D01*
X152647619Y-87464895D02*
X152152381Y-87464895D01*
X151466666Y-86664895D02*
X151619047Y-86664895D01*
X151619047Y-86664895D02*
X151695238Y-86702990D01*
X151695238Y-86702990D02*
X151733333Y-86741085D01*
X151733333Y-86741085D02*
X151809523Y-86855371D01*
X151809523Y-86855371D02*
X151847619Y-87007752D01*
X151847619Y-87007752D02*
X151847619Y-87312514D01*
X151847619Y-87312514D02*
X151809523Y-87388704D01*
X151809523Y-87388704D02*
X151771428Y-87426800D01*
X151771428Y-87426800D02*
X151695238Y-87464895D01*
X151695238Y-87464895D02*
X151542857Y-87464895D01*
X151542857Y-87464895D02*
X151466666Y-87426800D01*
X151466666Y-87426800D02*
X151428571Y-87388704D01*
X151428571Y-87388704D02*
X151390476Y-87312514D01*
X151390476Y-87312514D02*
X151390476Y-87122038D01*
X151390476Y-87122038D02*
X151428571Y-87045847D01*
X151428571Y-87045847D02*
X151466666Y-87007752D01*
X151466666Y-87007752D02*
X151542857Y-86969657D01*
X151542857Y-86969657D02*
X151695238Y-86969657D01*
X151695238Y-86969657D02*
X151771428Y-87007752D01*
X151771428Y-87007752D02*
X151809523Y-87045847D01*
X151809523Y-87045847D02*
X151847619Y-87122038D01*
X148888704Y-85485714D02*
X148926800Y-85447618D01*
X148926800Y-85447618D02*
X148964895Y-85333333D01*
X148964895Y-85333333D02*
X148964895Y-85257142D01*
X148964895Y-85257142D02*
X148926800Y-85142856D01*
X148926800Y-85142856D02*
X148850609Y-85066666D01*
X148850609Y-85066666D02*
X148774419Y-85028571D01*
X148774419Y-85028571D02*
X148622038Y-84990475D01*
X148622038Y-84990475D02*
X148507752Y-84990475D01*
X148507752Y-84990475D02*
X148355371Y-85028571D01*
X148355371Y-85028571D02*
X148279180Y-85066666D01*
X148279180Y-85066666D02*
X148202990Y-85142856D01*
X148202990Y-85142856D02*
X148164895Y-85257142D01*
X148164895Y-85257142D02*
X148164895Y-85333333D01*
X148164895Y-85333333D02*
X148202990Y-85447618D01*
X148202990Y-85447618D02*
X148241085Y-85485714D01*
X148964895Y-86247618D02*
X148964895Y-85790475D01*
X148964895Y-86019047D02*
X148164895Y-86019047D01*
X148164895Y-86019047D02*
X148279180Y-85942856D01*
X148279180Y-85942856D02*
X148355371Y-85866666D01*
X148355371Y-85866666D02*
X148393466Y-85790475D01*
X148164895Y-86933333D02*
X148164895Y-86780952D01*
X148164895Y-86780952D02*
X148202990Y-86704761D01*
X148202990Y-86704761D02*
X148241085Y-86666666D01*
X148241085Y-86666666D02*
X148355371Y-86590476D01*
X148355371Y-86590476D02*
X148507752Y-86552380D01*
X148507752Y-86552380D02*
X148812514Y-86552380D01*
X148812514Y-86552380D02*
X148888704Y-86590476D01*
X148888704Y-86590476D02*
X148926800Y-86628571D01*
X148926800Y-86628571D02*
X148964895Y-86704761D01*
X148964895Y-86704761D02*
X148964895Y-86857142D01*
X148964895Y-86857142D02*
X148926800Y-86933333D01*
X148926800Y-86933333D02*
X148888704Y-86971428D01*
X148888704Y-86971428D02*
X148812514Y-87009523D01*
X148812514Y-87009523D02*
X148622038Y-87009523D01*
X148622038Y-87009523D02*
X148545847Y-86971428D01*
X148545847Y-86971428D02*
X148507752Y-86933333D01*
X148507752Y-86933333D02*
X148469657Y-86857142D01*
X148469657Y-86857142D02*
X148469657Y-86704761D01*
X148469657Y-86704761D02*
X148507752Y-86628571D01*
X148507752Y-86628571D02*
X148545847Y-86590476D01*
X148545847Y-86590476D02*
X148622038Y-86552380D01*
X152664285Y-84664895D02*
X152930952Y-84283942D01*
X153121428Y-84664895D02*
X153121428Y-83864895D01*
X153121428Y-83864895D02*
X152816666Y-83864895D01*
X152816666Y-83864895D02*
X152740476Y-83902990D01*
X152740476Y-83902990D02*
X152702381Y-83941085D01*
X152702381Y-83941085D02*
X152664285Y-84017276D01*
X152664285Y-84017276D02*
X152664285Y-84131561D01*
X152664285Y-84131561D02*
X152702381Y-84207752D01*
X152702381Y-84207752D02*
X152740476Y-84245847D01*
X152740476Y-84245847D02*
X152816666Y-84283942D01*
X152816666Y-84283942D02*
X153121428Y-84283942D01*
X152359524Y-83941085D02*
X152321428Y-83902990D01*
X152321428Y-83902990D02*
X152245238Y-83864895D01*
X152245238Y-83864895D02*
X152054762Y-83864895D01*
X152054762Y-83864895D02*
X151978571Y-83902990D01*
X151978571Y-83902990D02*
X151940476Y-83941085D01*
X151940476Y-83941085D02*
X151902381Y-84017276D01*
X151902381Y-84017276D02*
X151902381Y-84093466D01*
X151902381Y-84093466D02*
X151940476Y-84207752D01*
X151940476Y-84207752D02*
X152397619Y-84664895D01*
X152397619Y-84664895D02*
X151902381Y-84664895D01*
X151178571Y-83864895D02*
X151559523Y-83864895D01*
X151559523Y-83864895D02*
X151597619Y-84245847D01*
X151597619Y-84245847D02*
X151559523Y-84207752D01*
X151559523Y-84207752D02*
X151483333Y-84169657D01*
X151483333Y-84169657D02*
X151292857Y-84169657D01*
X151292857Y-84169657D02*
X151216666Y-84207752D01*
X151216666Y-84207752D02*
X151178571Y-84245847D01*
X151178571Y-84245847D02*
X151140476Y-84322038D01*
X151140476Y-84322038D02*
X151140476Y-84512514D01*
X151140476Y-84512514D02*
X151178571Y-84588704D01*
X151178571Y-84588704D02*
X151216666Y-84626800D01*
X151216666Y-84626800D02*
X151292857Y-84664895D01*
X151292857Y-84664895D02*
X151483333Y-84664895D01*
X151483333Y-84664895D02*
X151559523Y-84626800D01*
X151559523Y-84626800D02*
X151597619Y-84588704D01*
X148988704Y-88785714D02*
X149026800Y-88747618D01*
X149026800Y-88747618D02*
X149064895Y-88633333D01*
X149064895Y-88633333D02*
X149064895Y-88557142D01*
X149064895Y-88557142D02*
X149026800Y-88442856D01*
X149026800Y-88442856D02*
X148950609Y-88366666D01*
X148950609Y-88366666D02*
X148874419Y-88328571D01*
X148874419Y-88328571D02*
X148722038Y-88290475D01*
X148722038Y-88290475D02*
X148607752Y-88290475D01*
X148607752Y-88290475D02*
X148455371Y-88328571D01*
X148455371Y-88328571D02*
X148379180Y-88366666D01*
X148379180Y-88366666D02*
X148302990Y-88442856D01*
X148302990Y-88442856D02*
X148264895Y-88557142D01*
X148264895Y-88557142D02*
X148264895Y-88633333D01*
X148264895Y-88633333D02*
X148302990Y-88747618D01*
X148302990Y-88747618D02*
X148341085Y-88785714D01*
X149064895Y-89547618D02*
X149064895Y-89090475D01*
X149064895Y-89319047D02*
X148264895Y-89319047D01*
X148264895Y-89319047D02*
X148379180Y-89242856D01*
X148379180Y-89242856D02*
X148455371Y-89166666D01*
X148455371Y-89166666D02*
X148493466Y-89090475D01*
X148607752Y-90004761D02*
X148569657Y-89928571D01*
X148569657Y-89928571D02*
X148531561Y-89890476D01*
X148531561Y-89890476D02*
X148455371Y-89852380D01*
X148455371Y-89852380D02*
X148417276Y-89852380D01*
X148417276Y-89852380D02*
X148341085Y-89890476D01*
X148341085Y-89890476D02*
X148302990Y-89928571D01*
X148302990Y-89928571D02*
X148264895Y-90004761D01*
X148264895Y-90004761D02*
X148264895Y-90157142D01*
X148264895Y-90157142D02*
X148302990Y-90233333D01*
X148302990Y-90233333D02*
X148341085Y-90271428D01*
X148341085Y-90271428D02*
X148417276Y-90309523D01*
X148417276Y-90309523D02*
X148455371Y-90309523D01*
X148455371Y-90309523D02*
X148531561Y-90271428D01*
X148531561Y-90271428D02*
X148569657Y-90233333D01*
X148569657Y-90233333D02*
X148607752Y-90157142D01*
X148607752Y-90157142D02*
X148607752Y-90004761D01*
X148607752Y-90004761D02*
X148645847Y-89928571D01*
X148645847Y-89928571D02*
X148683942Y-89890476D01*
X148683942Y-89890476D02*
X148760133Y-89852380D01*
X148760133Y-89852380D02*
X148912514Y-89852380D01*
X148912514Y-89852380D02*
X148988704Y-89890476D01*
X148988704Y-89890476D02*
X149026800Y-89928571D01*
X149026800Y-89928571D02*
X149064895Y-90004761D01*
X149064895Y-90004761D02*
X149064895Y-90157142D01*
X149064895Y-90157142D02*
X149026800Y-90233333D01*
X149026800Y-90233333D02*
X148988704Y-90271428D01*
X148988704Y-90271428D02*
X148912514Y-90309523D01*
X148912514Y-90309523D02*
X148760133Y-90309523D01*
X148760133Y-90309523D02*
X148683942Y-90271428D01*
X148683942Y-90271428D02*
X148645847Y-90233333D01*
X148645847Y-90233333D02*
X148607752Y-90157142D01*
D13*
X155010000Y-85759420D02*
X155010000Y-86040580D01*
X153990000Y-85759420D02*
X153990000Y-86040580D01*
X154140580Y-90510000D02*
X153859420Y-90510000D01*
X154140580Y-89490000D02*
X153859420Y-89490000D01*
D14*
X138582836Y-87042363D02*
X138597023Y-87056032D01*
X138638392Y-87097719D01*
X138693107Y-87154472D01*
X138758510Y-87223397D01*
X138831943Y-87301599D01*
X138910746Y-87386182D01*
X138992260Y-87474253D01*
X139073827Y-87562916D01*
X139152788Y-87649276D01*
X139226483Y-87730439D01*
X139292254Y-87803510D01*
X139347441Y-87865594D01*
X139389386Y-87913795D01*
X139415431Y-87945220D01*
X139422915Y-87956974D01*
X139420346Y-87958272D01*
X139395785Y-87971978D01*
X139347204Y-87999613D01*
X139276652Y-88039998D01*
X139186173Y-88091955D01*
X139077815Y-88154305D01*
X138953624Y-88225871D01*
X138815645Y-88305475D01*
X138665926Y-88391938D01*
X138506513Y-88484083D01*
X138339451Y-88580732D01*
X138277008Y-88616867D01*
X138112883Y-88711806D01*
X137957358Y-88801714D01*
X137812454Y-88885424D01*
X137680195Y-88961771D01*
X137562604Y-89029589D01*
X137461702Y-89087711D01*
X137379513Y-89134971D01*
X137318059Y-89170203D01*
X137279364Y-89192242D01*
X137265449Y-89199920D01*
X137266075Y-89195831D01*
X137277493Y-89172330D01*
X137298493Y-89134786D01*
X137311376Y-89112564D01*
X137338772Y-89065173D01*
X137379087Y-88995377D01*
X137431009Y-88905444D01*
X137493231Y-88797642D01*
X137564443Y-88674240D01*
X137643335Y-88537506D01*
X137728598Y-88389709D01*
X137818924Y-88233117D01*
X137913002Y-88070000D01*
X138005121Y-87910323D01*
X138094680Y-87755187D01*
X138178893Y-87609412D01*
X138256497Y-87475183D01*
X138326225Y-87354685D01*
X138386814Y-87250102D01*
X138436998Y-87163619D01*
X138475512Y-87097421D01*
X138501092Y-87053693D01*
X138512472Y-87034619D01*
X138535820Y-86998201D01*
X138582836Y-87042363D01*
G36*
X138582836Y-87042363D02*
G01*
X138597023Y-87056032D01*
X138638392Y-87097719D01*
X138693107Y-87154472D01*
X138758510Y-87223397D01*
X138831943Y-87301599D01*
X138910746Y-87386182D01*
X138992260Y-87474253D01*
X139073827Y-87562916D01*
X139152788Y-87649276D01*
X139226483Y-87730439D01*
X139292254Y-87803510D01*
X139347441Y-87865594D01*
X139389386Y-87913795D01*
X139415431Y-87945220D01*
X139422915Y-87956974D01*
X139420346Y-87958272D01*
X139395785Y-87971978D01*
X139347204Y-87999613D01*
X139276652Y-88039998D01*
X139186173Y-88091955D01*
X139077815Y-88154305D01*
X138953624Y-88225871D01*
X138815645Y-88305475D01*
X138665926Y-88391938D01*
X138506513Y-88484083D01*
X138339451Y-88580732D01*
X138277008Y-88616867D01*
X138112883Y-88711806D01*
X137957358Y-88801714D01*
X137812454Y-88885424D01*
X137680195Y-88961771D01*
X137562604Y-89029589D01*
X137461702Y-89087711D01*
X137379513Y-89134971D01*
X137318059Y-89170203D01*
X137279364Y-89192242D01*
X137265449Y-89199920D01*
X137266075Y-89195831D01*
X137277493Y-89172330D01*
X137298493Y-89134786D01*
X137311376Y-89112564D01*
X137338772Y-89065173D01*
X137379087Y-88995377D01*
X137431009Y-88905444D01*
X137493231Y-88797642D01*
X137564443Y-88674240D01*
X137643335Y-88537506D01*
X137728598Y-88389709D01*
X137818924Y-88233117D01*
X137913002Y-88070000D01*
X138005121Y-87910323D01*
X138094680Y-87755187D01*
X138178893Y-87609412D01*
X138256497Y-87475183D01*
X138326225Y-87354685D01*
X138386814Y-87250102D01*
X138436998Y-87163619D01*
X138475512Y-87097421D01*
X138501092Y-87053693D01*
X138512472Y-87034619D01*
X138535820Y-86998201D01*
X138582836Y-87042363D01*
G37*
X140345560Y-83873175D02*
X140357093Y-83890511D01*
X140382500Y-83932162D01*
X140420507Y-83995911D01*
X140469837Y-84079545D01*
X140529213Y-84180849D01*
X140597359Y-84297609D01*
X140673000Y-84427608D01*
X140754859Y-84568633D01*
X140841660Y-84718468D01*
X140932126Y-84874900D01*
X141024982Y-85035713D01*
X141118951Y-85198693D01*
X141212757Y-85361624D01*
X141305124Y-85522292D01*
X141394776Y-85678482D01*
X141480436Y-85827980D01*
X141560828Y-85968571D01*
X141634677Y-86098040D01*
X141700705Y-86214172D01*
X141757637Y-86314752D01*
X141804197Y-86397567D01*
X141839108Y-86460400D01*
X141861094Y-86501037D01*
X141868879Y-86517264D01*
X141868887Y-86517388D01*
X141856333Y-86534416D01*
X141820258Y-86563279D01*
X141764417Y-86601247D01*
X141692561Y-86645587D01*
X141644373Y-86673952D01*
X141575032Y-86713396D01*
X141526734Y-86738254D01*
X141496242Y-86749924D01*
X141480320Y-86749806D01*
X141475732Y-86739297D01*
X141475382Y-86737583D01*
X141462268Y-86716682D01*
X141434000Y-86681139D01*
X141395786Y-86637583D01*
X141378155Y-86618875D01*
X141323482Y-86568512D01*
X141263022Y-86525465D01*
X141193182Y-86488473D01*
X141110370Y-86456273D01*
X141010992Y-86427602D01*
X140891455Y-86401198D01*
X140748166Y-86375800D01*
X140577531Y-86350145D01*
X140381134Y-86321227D01*
X140191274Y-86290173D01*
X140025260Y-86259044D01*
X139879382Y-86226942D01*
X139749927Y-86192969D01*
X139633183Y-86156226D01*
X139525440Y-86115817D01*
X139422985Y-86070843D01*
X139347688Y-86033754D01*
X139275765Y-85994725D01*
X139218886Y-85959882D01*
X139181499Y-85931965D01*
X139168049Y-85913714D01*
X139168446Y-85912370D01*
X139179280Y-85890862D01*
X139203845Y-85845822D01*
X139240685Y-85779772D01*
X139288347Y-85695233D01*
X139345376Y-85594727D01*
X139410318Y-85480776D01*
X139481719Y-85355901D01*
X139558124Y-85222624D01*
X139638079Y-85083467D01*
X139720130Y-84940951D01*
X139802822Y-84797598D01*
X139884701Y-84655930D01*
X139964313Y-84518468D01*
X140040204Y-84387734D01*
X140110919Y-84266250D01*
X140175004Y-84156538D01*
X140231004Y-84061118D01*
X140277466Y-83982514D01*
X140312935Y-83923245D01*
X140335957Y-83885835D01*
X140345077Y-83872805D01*
X140345560Y-83873175D01*
G36*
X140345560Y-83873175D02*
G01*
X140357093Y-83890511D01*
X140382500Y-83932162D01*
X140420507Y-83995911D01*
X140469837Y-84079545D01*
X140529213Y-84180849D01*
X140597359Y-84297609D01*
X140673000Y-84427608D01*
X140754859Y-84568633D01*
X140841660Y-84718468D01*
X140932126Y-84874900D01*
X141024982Y-85035713D01*
X141118951Y-85198693D01*
X141212757Y-85361624D01*
X141305124Y-85522292D01*
X141394776Y-85678482D01*
X141480436Y-85827980D01*
X141560828Y-85968571D01*
X141634677Y-86098040D01*
X141700705Y-86214172D01*
X141757637Y-86314752D01*
X141804197Y-86397567D01*
X141839108Y-86460400D01*
X141861094Y-86501037D01*
X141868879Y-86517264D01*
X141868887Y-86517388D01*
X141856333Y-86534416D01*
X141820258Y-86563279D01*
X141764417Y-86601247D01*
X141692561Y-86645587D01*
X141644373Y-86673952D01*
X141575032Y-86713396D01*
X141526734Y-86738254D01*
X141496242Y-86749924D01*
X141480320Y-86749806D01*
X141475732Y-86739297D01*
X141475382Y-86737583D01*
X141462268Y-86716682D01*
X141434000Y-86681139D01*
X141395786Y-86637583D01*
X141378155Y-86618875D01*
X141323482Y-86568512D01*
X141263022Y-86525465D01*
X141193182Y-86488473D01*
X141110370Y-86456273D01*
X141010992Y-86427602D01*
X140891455Y-86401198D01*
X140748166Y-86375800D01*
X140577531Y-86350145D01*
X140381134Y-86321227D01*
X140191274Y-86290173D01*
X140025260Y-86259044D01*
X139879382Y-86226942D01*
X139749927Y-86192969D01*
X139633183Y-86156226D01*
X139525440Y-86115817D01*
X139422985Y-86070843D01*
X139347688Y-86033754D01*
X139275765Y-85994725D01*
X139218886Y-85959882D01*
X139181499Y-85931965D01*
X139168049Y-85913714D01*
X139168446Y-85912370D01*
X139179280Y-85890862D01*
X139203845Y-85845822D01*
X139240685Y-85779772D01*
X139288347Y-85695233D01*
X139345376Y-85594727D01*
X139410318Y-85480776D01*
X139481719Y-85355901D01*
X139558124Y-85222624D01*
X139638079Y-85083467D01*
X139720130Y-84940951D01*
X139802822Y-84797598D01*
X139884701Y-84655930D01*
X139964313Y-84518468D01*
X140040204Y-84387734D01*
X140110919Y-84266250D01*
X140175004Y-84156538D01*
X140231004Y-84061118D01*
X140277466Y-83982514D01*
X140312935Y-83923245D01*
X140335957Y-83885835D01*
X140345077Y-83872805D01*
X140345560Y-83873175D01*
G37*
X142210047Y-87096040D02*
X142215802Y-87104625D01*
X142236365Y-87138346D01*
X142270179Y-87195200D01*
X142315950Y-87272968D01*
X142372383Y-87369432D01*
X142438184Y-87482371D01*
X142512058Y-87609568D01*
X142592711Y-87748803D01*
X142678848Y-87897857D01*
X142769175Y-88054512D01*
X142793947Y-88097521D01*
X142891900Y-88267575D01*
X142990509Y-88438754D01*
X143087760Y-88607562D01*
X143181638Y-88770503D01*
X143270131Y-88924082D01*
X143351222Y-89064801D01*
X143422898Y-89189166D01*
X143483144Y-89293680D01*
X143529947Y-89374847D01*
X143751030Y-89758171D01*
X140651076Y-89758171D01*
X140522921Y-89758159D01*
X140217500Y-89758042D01*
X139921432Y-89757802D01*
X139636159Y-89757444D01*
X139363123Y-89756976D01*
X139103765Y-89756403D01*
X138859527Y-89755732D01*
X138631849Y-89754968D01*
X138422174Y-89754119D01*
X138231943Y-89753189D01*
X138062597Y-89752186D01*
X137915578Y-89751115D01*
X137792327Y-89749983D01*
X137694286Y-89748796D01*
X137622896Y-89747559D01*
X137579598Y-89746280D01*
X137565835Y-89744963D01*
X137576054Y-89738304D01*
X137611311Y-89717083D01*
X137669221Y-89682920D01*
X137747430Y-89637171D01*
X137843583Y-89581190D01*
X137955323Y-89516333D01*
X138080296Y-89443954D01*
X138216146Y-89365409D01*
X138360518Y-89282054D01*
X138511056Y-89195243D01*
X138665405Y-89106332D01*
X138821210Y-89016676D01*
X138976116Y-88927629D01*
X139127766Y-88840548D01*
X139273806Y-88756788D01*
X139411881Y-88677703D01*
X139539634Y-88604649D01*
X139654711Y-88538981D01*
X139754756Y-88482054D01*
X139837414Y-88435224D01*
X139900329Y-88399846D01*
X139941147Y-88377274D01*
X139957511Y-88368864D01*
X139968189Y-88370949D01*
X140000358Y-88389908D01*
X140046221Y-88425032D01*
X140100740Y-88472669D01*
X140149845Y-88520356D01*
X140212389Y-88585316D01*
X140282368Y-88661155D01*
X140356196Y-88743698D01*
X140430285Y-88828768D01*
X140501048Y-88912190D01*
X140564898Y-88989789D01*
X140618247Y-89057389D01*
X140657509Y-89110814D01*
X140679095Y-89145889D01*
X140693506Y-89171505D01*
X140732643Y-89224516D01*
X140782958Y-89280912D01*
X140837276Y-89333462D01*
X140888424Y-89374930D01*
X140929227Y-89398086D01*
X140974292Y-89403438D01*
X141034426Y-89388645D01*
X141091579Y-89354726D01*
X141135933Y-89306053D01*
X141143613Y-89293425D01*
X141153392Y-89272743D01*
X141159765Y-89247854D01*
X141163142Y-89213409D01*
X141163931Y-89164062D01*
X141162541Y-89094464D01*
X141159381Y-88999268D01*
X141157116Y-88944202D01*
X141152304Y-88857117D01*
X141146625Y-88780899D01*
X141140608Y-88722249D01*
X141134783Y-88687866D01*
X141120679Y-88648588D01*
X141078866Y-88571240D01*
X141013895Y-88479591D01*
X140924970Y-88372567D01*
X140811300Y-88249090D01*
X140761972Y-88197066D01*
X140704938Y-88135696D01*
X140657864Y-88083665D01*
X140624624Y-88045266D01*
X140609089Y-88024796D01*
X140607492Y-88021546D01*
X140605577Y-88007553D01*
X140615145Y-87992039D01*
X140640115Y-87971659D01*
X140684406Y-87943071D01*
X140751938Y-87902932D01*
X140809347Y-87869422D01*
X140914992Y-87808123D01*
X140998171Y-87760509D01*
X141061678Y-87725033D01*
X141108306Y-87700149D01*
X141140850Y-87684313D01*
X141162104Y-87675977D01*
X141184097Y-87666728D01*
X141196951Y-87654307D01*
X141198154Y-87651378D01*
X141216961Y-87635084D01*
X141251335Y-87614098D01*
X141305719Y-87584810D01*
X141345874Y-87622192D01*
X141360057Y-87637336D01*
X141393055Y-87678493D01*
X141433346Y-87733445D01*
X141475182Y-87794531D01*
X141564336Y-87929489D01*
X141560837Y-88279362D01*
X141557339Y-88629235D01*
X141506393Y-88678733D01*
X141489274Y-88696379D01*
X141434376Y-88775660D01*
X141402330Y-88869935D01*
X141391412Y-88983780D01*
X141394123Y-89044779D01*
X141413261Y-89152378D01*
X141448141Y-89250583D01*
X141495742Y-89329382D01*
X141528795Y-89358114D01*
X141587549Y-89379937D01*
X141654061Y-89382454D01*
X141719816Y-89366828D01*
X141776301Y-89334220D01*
X141815003Y-89285793D01*
X141816270Y-89283168D01*
X141839663Y-89235225D01*
X141864439Y-89185122D01*
X141885472Y-89138087D01*
X141915644Y-89058810D01*
X141948932Y-88961072D01*
X141984179Y-88849228D01*
X142020229Y-88727634D01*
X142055925Y-88600645D01*
X142090110Y-88472616D01*
X142121627Y-88347902D01*
X142149320Y-88230859D01*
X142172032Y-88125843D01*
X142188606Y-88037209D01*
X142197885Y-87969312D01*
X142198714Y-87926507D01*
X142196847Y-87916782D01*
X142178658Y-87867556D01*
X142144907Y-87801699D01*
X142098555Y-87725165D01*
X142080764Y-87697585D01*
X142009282Y-87585122D01*
X141948520Y-87486772D01*
X141899817Y-87404832D01*
X141864514Y-87341605D01*
X141843952Y-87299390D01*
X141839469Y-87280487D01*
X141839988Y-87279820D01*
X141858545Y-87266205D01*
X141898202Y-87241319D01*
X141953526Y-87208476D01*
X142019084Y-87170988D01*
X142024626Y-87167876D01*
X142095807Y-87128712D01*
X142145381Y-87103736D01*
X142177906Y-87091158D01*
X142197942Y-87089189D01*
X142210047Y-87096040D01*
G36*
X142210047Y-87096040D02*
G01*
X142215802Y-87104625D01*
X142236365Y-87138346D01*
X142270179Y-87195200D01*
X142315950Y-87272968D01*
X142372383Y-87369432D01*
X142438184Y-87482371D01*
X142512058Y-87609568D01*
X142592711Y-87748803D01*
X142678848Y-87897857D01*
X142769175Y-88054512D01*
X142793947Y-88097521D01*
X142891900Y-88267575D01*
X142990509Y-88438754D01*
X143087760Y-88607562D01*
X143181638Y-88770503D01*
X143270131Y-88924082D01*
X143351222Y-89064801D01*
X143422898Y-89189166D01*
X143483144Y-89293680D01*
X143529947Y-89374847D01*
X143751030Y-89758171D01*
X140651076Y-89758171D01*
X140522921Y-89758159D01*
X140217500Y-89758042D01*
X139921432Y-89757802D01*
X139636159Y-89757444D01*
X139363123Y-89756976D01*
X139103765Y-89756403D01*
X138859527Y-89755732D01*
X138631849Y-89754968D01*
X138422174Y-89754119D01*
X138231943Y-89753189D01*
X138062597Y-89752186D01*
X137915578Y-89751115D01*
X137792327Y-89749983D01*
X137694286Y-89748796D01*
X137622896Y-89747559D01*
X137579598Y-89746280D01*
X137565835Y-89744963D01*
X137576054Y-89738304D01*
X137611311Y-89717083D01*
X137669221Y-89682920D01*
X137747430Y-89637171D01*
X137843583Y-89581190D01*
X137955323Y-89516333D01*
X138080296Y-89443954D01*
X138216146Y-89365409D01*
X138360518Y-89282054D01*
X138511056Y-89195243D01*
X138665405Y-89106332D01*
X138821210Y-89016676D01*
X138976116Y-88927629D01*
X139127766Y-88840548D01*
X139273806Y-88756788D01*
X139411881Y-88677703D01*
X139539634Y-88604649D01*
X139654711Y-88538981D01*
X139754756Y-88482054D01*
X139837414Y-88435224D01*
X139900329Y-88399846D01*
X139941147Y-88377274D01*
X139957511Y-88368864D01*
X139968189Y-88370949D01*
X140000358Y-88389908D01*
X140046221Y-88425032D01*
X140100740Y-88472669D01*
X140149845Y-88520356D01*
X140212389Y-88585316D01*
X140282368Y-88661155D01*
X140356196Y-88743698D01*
X140430285Y-88828768D01*
X140501048Y-88912190D01*
X140564898Y-88989789D01*
X140618247Y-89057389D01*
X140657509Y-89110814D01*
X140679095Y-89145889D01*
X140693506Y-89171505D01*
X140732643Y-89224516D01*
X140782958Y-89280912D01*
X140837276Y-89333462D01*
X140888424Y-89374930D01*
X140929227Y-89398086D01*
X140974292Y-89403438D01*
X141034426Y-89388645D01*
X141091579Y-89354726D01*
X141135933Y-89306053D01*
X141143613Y-89293425D01*
X141153392Y-89272743D01*
X141159765Y-89247854D01*
X141163142Y-89213409D01*
X141163931Y-89164062D01*
X141162541Y-89094464D01*
X141159381Y-88999268D01*
X141157116Y-88944202D01*
X141152304Y-88857117D01*
X141146625Y-88780899D01*
X141140608Y-88722249D01*
X141134783Y-88687866D01*
X141120679Y-88648588D01*
X141078866Y-88571240D01*
X141013895Y-88479591D01*
X140924970Y-88372567D01*
X140811300Y-88249090D01*
X140761972Y-88197066D01*
X140704938Y-88135696D01*
X140657864Y-88083665D01*
X140624624Y-88045266D01*
X140609089Y-88024796D01*
X140607492Y-88021546D01*
X140605577Y-88007553D01*
X140615145Y-87992039D01*
X140640115Y-87971659D01*
X140684406Y-87943071D01*
X140751938Y-87902932D01*
X140809347Y-87869422D01*
X140914992Y-87808123D01*
X140998171Y-87760509D01*
X141061678Y-87725033D01*
X141108306Y-87700149D01*
X141140850Y-87684313D01*
X141162104Y-87675977D01*
X141184097Y-87666728D01*
X141196951Y-87654307D01*
X141198154Y-87651378D01*
X141216961Y-87635084D01*
X141251335Y-87614098D01*
X141305719Y-87584810D01*
X141345874Y-87622192D01*
X141360057Y-87637336D01*
X141393055Y-87678493D01*
X141433346Y-87733445D01*
X141475182Y-87794531D01*
X141564336Y-87929489D01*
X141560837Y-88279362D01*
X141557339Y-88629235D01*
X141506393Y-88678733D01*
X141489274Y-88696379D01*
X141434376Y-88775660D01*
X141402330Y-88869935D01*
X141391412Y-88983780D01*
X141394123Y-89044779D01*
X141413261Y-89152378D01*
X141448141Y-89250583D01*
X141495742Y-89329382D01*
X141528795Y-89358114D01*
X141587549Y-89379937D01*
X141654061Y-89382454D01*
X141719816Y-89366828D01*
X141776301Y-89334220D01*
X141815003Y-89285793D01*
X141816270Y-89283168D01*
X141839663Y-89235225D01*
X141864439Y-89185122D01*
X141885472Y-89138087D01*
X141915644Y-89058810D01*
X141948932Y-88961072D01*
X141984179Y-88849228D01*
X142020229Y-88727634D01*
X142055925Y-88600645D01*
X142090110Y-88472616D01*
X142121627Y-88347902D01*
X142149320Y-88230859D01*
X142172032Y-88125843D01*
X142188606Y-88037209D01*
X142197885Y-87969312D01*
X142198714Y-87926507D01*
X142196847Y-87916782D01*
X142178658Y-87867556D01*
X142144907Y-87801699D01*
X142098555Y-87725165D01*
X142080764Y-87697585D01*
X142009282Y-87585122D01*
X141948520Y-87486772D01*
X141899817Y-87404832D01*
X141864514Y-87341605D01*
X141843952Y-87299390D01*
X141839469Y-87280487D01*
X141839988Y-87279820D01*
X141858545Y-87266205D01*
X141898202Y-87241319D01*
X141953526Y-87208476D01*
X142019084Y-87170988D01*
X142024626Y-87167876D01*
X142095807Y-87128712D01*
X142145381Y-87103736D01*
X142177906Y-87091158D01*
X142197942Y-87089189D01*
X142210047Y-87096040D01*
G37*
D13*
X152262742Y-87727500D02*
X152737258Y-87727500D01*
X152262742Y-88772500D02*
X152737258Y-88772500D01*
X150310000Y-85859420D02*
X150310000Y-86140580D01*
X149290000Y-85859420D02*
X149290000Y-86140580D01*
X152387258Y-86022500D02*
X151912742Y-86022500D01*
X152387258Y-84977500D02*
X151912742Y-84977500D01*
D14*
X155055406Y-71374949D02*
X155081127Y-71390647D01*
X155107778Y-71412227D01*
X155107778Y-72059684D01*
X155081127Y-72081264D01*
X155049767Y-72098739D01*
X155013966Y-72099575D01*
X154982528Y-72079082D01*
X154978652Y-72074416D01*
X154973186Y-72064949D01*
X154968979Y-72051267D01*
X154965867Y-72030748D01*
X154963687Y-72000768D01*
X154962276Y-71958704D01*
X154961471Y-71901932D01*
X154961107Y-71827830D01*
X154961022Y-71733773D01*
X154961022Y-71412227D01*
X154987673Y-71390647D01*
X155011386Y-71375877D01*
X155034400Y-71369067D01*
X155055406Y-71374949D01*
G36*
X155055406Y-71374949D02*
G01*
X155081127Y-71390647D01*
X155107778Y-71412227D01*
X155107778Y-72059684D01*
X155081127Y-72081264D01*
X155049767Y-72098739D01*
X155013966Y-72099575D01*
X154982528Y-72079082D01*
X154978652Y-72074416D01*
X154973186Y-72064949D01*
X154968979Y-72051267D01*
X154965867Y-72030748D01*
X154963687Y-72000768D01*
X154962276Y-71958704D01*
X154961471Y-71901932D01*
X154961107Y-71827830D01*
X154961022Y-71733773D01*
X154961022Y-71412227D01*
X154987673Y-71390647D01*
X155011386Y-71375877D01*
X155034400Y-71369067D01*
X155055406Y-71374949D01*
G37*
X162186137Y-71373463D02*
X162220291Y-71396776D01*
X162248000Y-71424485D01*
X162248000Y-71737537D01*
X162247959Y-71821567D01*
X162247701Y-71895789D01*
X162247030Y-71952541D01*
X162245752Y-71994512D01*
X162243673Y-72024389D01*
X162240599Y-72044861D01*
X162236334Y-72058614D01*
X162230684Y-72068337D01*
X162223455Y-72076717D01*
X162191991Y-72098181D01*
X162156826Y-72099947D01*
X162123822Y-72080267D01*
X162118516Y-72074398D01*
X162113066Y-72065314D01*
X162108900Y-72051973D01*
X162105846Y-72031757D01*
X162103732Y-72002049D01*
X162102386Y-71960232D01*
X162101638Y-71903689D01*
X162101314Y-71829802D01*
X162101245Y-71735956D01*
X162101284Y-71660294D01*
X162101539Y-71582385D01*
X162102183Y-71522375D01*
X162103387Y-71477648D01*
X162105324Y-71445585D01*
X162108164Y-71423571D01*
X162112079Y-71408987D01*
X162117242Y-71399218D01*
X162123822Y-71391645D01*
X162153006Y-71372623D01*
X162186137Y-71373463D01*
G36*
X162186137Y-71373463D02*
G01*
X162220291Y-71396776D01*
X162248000Y-71424485D01*
X162248000Y-71737537D01*
X162247959Y-71821567D01*
X162247701Y-71895789D01*
X162247030Y-71952541D01*
X162245752Y-71994512D01*
X162243673Y-72024389D01*
X162240599Y-72044861D01*
X162236334Y-72058614D01*
X162230684Y-72068337D01*
X162223455Y-72076717D01*
X162191991Y-72098181D01*
X162156826Y-72099947D01*
X162123822Y-72080267D01*
X162118516Y-72074398D01*
X162113066Y-72065314D01*
X162108900Y-72051973D01*
X162105846Y-72031757D01*
X162103732Y-72002049D01*
X162102386Y-71960232D01*
X162101638Y-71903689D01*
X162101314Y-71829802D01*
X162101245Y-71735956D01*
X162101284Y-71660294D01*
X162101539Y-71582385D01*
X162102183Y-71522375D01*
X162103387Y-71477648D01*
X162105324Y-71445585D01*
X162108164Y-71423571D01*
X162112079Y-71408987D01*
X162117242Y-71399218D01*
X162123822Y-71391645D01*
X162153006Y-71372623D01*
X162186137Y-71373463D01*
G37*
X161654562Y-66132850D02*
X161737313Y-66160053D01*
X161812406Y-66205484D01*
X161884298Y-66271302D01*
X161922846Y-66315567D01*
X161962256Y-66373961D01*
X161987446Y-66434586D01*
X162000861Y-66503865D01*
X162004948Y-66588222D01*
X162004669Y-66634307D01*
X162002460Y-66675450D01*
X161996894Y-66707582D01*
X161986586Y-66738122D01*
X161970148Y-66774489D01*
X161956200Y-66801728D01*
X161897665Y-66887429D01*
X161825619Y-66956617D01*
X161741947Y-67007741D01*
X161648531Y-67039250D01*
X161615434Y-67046225D01*
X161574960Y-67053094D01*
X161541999Y-67054919D01*
X161507698Y-67051947D01*
X161463200Y-67044426D01*
X161411934Y-67032002D01*
X161321434Y-66994112D01*
X161242345Y-66939836D01*
X161176528Y-66871770D01*
X161125840Y-66792511D01*
X161092140Y-66704654D01*
X161077286Y-66610795D01*
X161083136Y-66513530D01*
X161109399Y-66417220D01*
X161154418Y-66328494D01*
X161215373Y-66253419D01*
X161290184Y-66193641D01*
X161376768Y-66150809D01*
X161473043Y-66126571D01*
X161576928Y-66122576D01*
X161654562Y-66132850D01*
G36*
X161654562Y-66132850D02*
G01*
X161737313Y-66160053D01*
X161812406Y-66205484D01*
X161884298Y-66271302D01*
X161922846Y-66315567D01*
X161962256Y-66373961D01*
X161987446Y-66434586D01*
X162000861Y-66503865D01*
X162004948Y-66588222D01*
X162004669Y-66634307D01*
X162002460Y-66675450D01*
X161996894Y-66707582D01*
X161986586Y-66738122D01*
X161970148Y-66774489D01*
X161956200Y-66801728D01*
X161897665Y-66887429D01*
X161825619Y-66956617D01*
X161741947Y-67007741D01*
X161648531Y-67039250D01*
X161615434Y-67046225D01*
X161574960Y-67053094D01*
X161541999Y-67054919D01*
X161507698Y-67051947D01*
X161463200Y-67044426D01*
X161411934Y-67032002D01*
X161321434Y-66994112D01*
X161242345Y-66939836D01*
X161176528Y-66871770D01*
X161125840Y-66792511D01*
X161092140Y-66704654D01*
X161077286Y-66610795D01*
X161083136Y-66513530D01*
X161109399Y-66417220D01*
X161154418Y-66328494D01*
X161215373Y-66253419D01*
X161290184Y-66193641D01*
X161376768Y-66150809D01*
X161473043Y-66126571D01*
X161576928Y-66122576D01*
X161654562Y-66132850D01*
G37*
X154355767Y-71369068D02*
X154449890Y-71369158D01*
X154524405Y-71369498D01*
X154581811Y-71370239D01*
X154624611Y-71371535D01*
X154655304Y-71373537D01*
X154676391Y-71376396D01*
X154690373Y-71380266D01*
X154699750Y-71385298D01*
X154707022Y-71391645D01*
X154725828Y-71424362D01*
X154727275Y-71461939D01*
X154710917Y-71495178D01*
X154709557Y-71496631D01*
X154698354Y-71504992D01*
X154681252Y-71510547D01*
X154654082Y-71513840D01*
X154612678Y-71515418D01*
X154552873Y-71515822D01*
X154413511Y-71515822D01*
X154413511Y-71779589D01*
X154413436Y-71855417D01*
X154413028Y-71922083D01*
X154412046Y-71971867D01*
X154410250Y-72007784D01*
X154407399Y-72032850D01*
X154403253Y-72050081D01*
X154397571Y-72062492D01*
X154390114Y-72073100D01*
X154387824Y-72075906D01*
X154356646Y-72098548D01*
X154322266Y-72100112D01*
X154289334Y-72080267D01*
X154282355Y-72072191D01*
X154276883Y-72061593D01*
X154272863Y-72045749D01*
X154270072Y-72021773D01*
X154268288Y-71986774D01*
X154267289Y-71937864D01*
X154266852Y-71872154D01*
X154266756Y-71786756D01*
X154266756Y-71515822D01*
X154120820Y-71515822D01*
X154109720Y-71515821D01*
X154053202Y-71515596D01*
X154014358Y-71514457D01*
X153988965Y-71511657D01*
X153972804Y-71506450D01*
X153961652Y-71498089D01*
X153951289Y-71485826D01*
X153935441Y-71455138D01*
X153938543Y-71421358D01*
X153964187Y-71388822D01*
X153969129Y-71385105D01*
X153979338Y-71380269D01*
X153994764Y-71376506D01*
X154017886Y-71373683D01*
X154051183Y-71371670D01*
X154097137Y-71370333D01*
X154158228Y-71369542D01*
X154236935Y-71369163D01*
X154335740Y-71369067D01*
X154355767Y-71369068D01*
G36*
X154355767Y-71369068D02*
G01*
X154449890Y-71369158D01*
X154524405Y-71369498D01*
X154581811Y-71370239D01*
X154624611Y-71371535D01*
X154655304Y-71373537D01*
X154676391Y-71376396D01*
X154690373Y-71380266D01*
X154699750Y-71385298D01*
X154707022Y-71391645D01*
X154725828Y-71424362D01*
X154727275Y-71461939D01*
X154710917Y-71495178D01*
X154709557Y-71496631D01*
X154698354Y-71504992D01*
X154681252Y-71510547D01*
X154654082Y-71513840D01*
X154612678Y-71515418D01*
X154552873Y-71515822D01*
X154413511Y-71515822D01*
X154413511Y-71779589D01*
X154413436Y-71855417D01*
X154413028Y-71922083D01*
X154412046Y-71971867D01*
X154410250Y-72007784D01*
X154407399Y-72032850D01*
X154403253Y-72050081D01*
X154397571Y-72062492D01*
X154390114Y-72073100D01*
X154387824Y-72075906D01*
X154356646Y-72098548D01*
X154322266Y-72100112D01*
X154289334Y-72080267D01*
X154282355Y-72072191D01*
X154276883Y-72061593D01*
X154272863Y-72045749D01*
X154270072Y-72021773D01*
X154268288Y-71986774D01*
X154267289Y-71937864D01*
X154266852Y-71872154D01*
X154266756Y-71786756D01*
X154266756Y-71515822D01*
X154120820Y-71515822D01*
X154109720Y-71515821D01*
X154053202Y-71515596D01*
X154014358Y-71514457D01*
X153988965Y-71511657D01*
X153972804Y-71506450D01*
X153961652Y-71498089D01*
X153951289Y-71485826D01*
X153935441Y-71455138D01*
X153938543Y-71421358D01*
X153964187Y-71388822D01*
X153969129Y-71385105D01*
X153979338Y-71380269D01*
X153994764Y-71376506D01*
X154017886Y-71373683D01*
X154051183Y-71371670D01*
X154097137Y-71370333D01*
X154158228Y-71369542D01*
X154236935Y-71369163D01*
X154335740Y-71369067D01*
X154355767Y-71369068D01*
G37*
X153679734Y-71391645D02*
X153685366Y-71397835D01*
X153690456Y-71406041D01*
X153694543Y-71417817D01*
X153697721Y-71435276D01*
X153700087Y-71460530D01*
X153701738Y-71495690D01*
X153702769Y-71542869D01*
X153703277Y-71604177D01*
X153703359Y-71681727D01*
X153703109Y-71777631D01*
X153702625Y-71894000D01*
X153702557Y-71908175D01*
X153701971Y-71969937D01*
X153700648Y-72013620D01*
X153698103Y-72043001D01*
X153693848Y-72061855D01*
X153687396Y-72073959D01*
X153678262Y-72083089D01*
X153644804Y-72100506D01*
X153609856Y-72097604D01*
X153578953Y-72073100D01*
X153569944Y-72059897D01*
X153562492Y-72041361D01*
X153558124Y-72015333D01*
X153556069Y-71976787D01*
X153555556Y-71920700D01*
X153555556Y-71798045D01*
X153058845Y-71798045D01*
X153058845Y-71932871D01*
X153058772Y-71968662D01*
X153058009Y-72014992D01*
X153055833Y-72045526D01*
X153051536Y-72064557D01*
X153044412Y-72076374D01*
X153033755Y-72085271D01*
X153001504Y-72100341D01*
X152966217Y-72097673D01*
X152935486Y-72073100D01*
X152930831Y-72066845D01*
X152924895Y-72056321D01*
X152920364Y-72042391D01*
X152917048Y-72022317D01*
X152914759Y-71993360D01*
X152913308Y-71952780D01*
X152912505Y-71897840D01*
X152912162Y-71825799D01*
X152912089Y-71733920D01*
X152912089Y-71424485D01*
X152939798Y-71396776D01*
X152971177Y-71374533D01*
X153004406Y-71371844D01*
X153036267Y-71391645D01*
X153044553Y-71401415D01*
X153051965Y-71417307D01*
X153056302Y-71441275D01*
X153058338Y-71478148D01*
X153058845Y-71532756D01*
X153058845Y-71651289D01*
X153555556Y-71651289D01*
X153555556Y-71535776D01*
X153555994Y-71484078D01*
X153557958Y-71449554D01*
X153562474Y-71426978D01*
X153570567Y-71411126D01*
X153583265Y-71396776D01*
X153614643Y-71374533D01*
X153647872Y-71371844D01*
X153679734Y-71391645D01*
G36*
X153679734Y-71391645D02*
G01*
X153685366Y-71397835D01*
X153690456Y-71406041D01*
X153694543Y-71417817D01*
X153697721Y-71435276D01*
X153700087Y-71460530D01*
X153701738Y-71495690D01*
X153702769Y-71542869D01*
X153703277Y-71604177D01*
X153703359Y-71681727D01*
X153703109Y-71777631D01*
X153702625Y-71894000D01*
X153702557Y-71908175D01*
X153701971Y-71969937D01*
X153700648Y-72013620D01*
X153698103Y-72043001D01*
X153693848Y-72061855D01*
X153687396Y-72073959D01*
X153678262Y-72083089D01*
X153644804Y-72100506D01*
X153609856Y-72097604D01*
X153578953Y-72073100D01*
X153569944Y-72059897D01*
X153562492Y-72041361D01*
X153558124Y-72015333D01*
X153556069Y-71976787D01*
X153555556Y-71920700D01*
X153555556Y-71798045D01*
X153058845Y-71798045D01*
X153058845Y-71932871D01*
X153058772Y-71968662D01*
X153058009Y-72014992D01*
X153055833Y-72045526D01*
X153051536Y-72064557D01*
X153044412Y-72076374D01*
X153033755Y-72085271D01*
X153001504Y-72100341D01*
X152966217Y-72097673D01*
X152935486Y-72073100D01*
X152930831Y-72066845D01*
X152924895Y-72056321D01*
X152920364Y-72042391D01*
X152917048Y-72022317D01*
X152914759Y-71993360D01*
X152913308Y-71952780D01*
X152912505Y-71897840D01*
X152912162Y-71825799D01*
X152912089Y-71733920D01*
X152912089Y-71424485D01*
X152939798Y-71396776D01*
X152971177Y-71374533D01*
X153004406Y-71371844D01*
X153036267Y-71391645D01*
X153044553Y-71401415D01*
X153051965Y-71417307D01*
X153056302Y-71441275D01*
X153058338Y-71478148D01*
X153058845Y-71532756D01*
X153058845Y-71651289D01*
X153555556Y-71651289D01*
X153555556Y-71535776D01*
X153555994Y-71484078D01*
X153557958Y-71449554D01*
X153562474Y-71426978D01*
X153570567Y-71411126D01*
X153583265Y-71396776D01*
X153614643Y-71374533D01*
X153647872Y-71371844D01*
X153679734Y-71391645D01*
G37*
X158385133Y-71980396D02*
X158383163Y-72013175D01*
X158380235Y-72036095D01*
X158376158Y-72051897D01*
X158370743Y-72063319D01*
X158363803Y-72073100D01*
X158340406Y-72102845D01*
X158174714Y-72102251D01*
X158139918Y-72101953D01*
X158041435Y-72098522D01*
X157960473Y-72090839D01*
X157893379Y-72078282D01*
X157836496Y-72060227D01*
X157786169Y-72036052D01*
X157782810Y-72034135D01*
X157724998Y-71997417D01*
X157682644Y-71960451D01*
X157649828Y-71916966D01*
X157620628Y-71860689D01*
X157616346Y-71851073D01*
X157593769Y-71787887D01*
X157588034Y-71742333D01*
X157737279Y-71742333D01*
X157742892Y-71767061D01*
X157748618Y-71782939D01*
X157781548Y-71842847D01*
X157828886Y-71888600D01*
X157892652Y-71921736D01*
X157974861Y-71943790D01*
X157977655Y-71944292D01*
X158023940Y-71950255D01*
X158080336Y-71954483D01*
X158135274Y-71956089D01*
X158229156Y-71956089D01*
X158229156Y-71515822D01*
X158141667Y-71516270D01*
X158074747Y-71518746D01*
X157982349Y-71529998D01*
X157903034Y-71549537D01*
X157841060Y-71576511D01*
X157810120Y-71597240D01*
X157782000Y-71627006D01*
X157758660Y-71669434D01*
X157751533Y-71685400D01*
X157739709Y-71717902D01*
X157737279Y-71742333D01*
X157588034Y-71742333D01*
X157586797Y-71732509D01*
X157595399Y-71677483D01*
X157619541Y-71615351D01*
X157620337Y-71613658D01*
X157660788Y-71544236D01*
X157711473Y-71487638D01*
X157774198Y-71443070D01*
X157850774Y-71409741D01*
X157943009Y-71386861D01*
X158052712Y-71373636D01*
X158181691Y-71369275D01*
X158185263Y-71369270D01*
X158245283Y-71369410D01*
X158287214Y-71370446D01*
X158315328Y-71373040D01*
X158333897Y-71377853D01*
X158347194Y-71385544D01*
X158359491Y-71396776D01*
X158387200Y-71424485D01*
X158387200Y-71733920D01*
X158387175Y-71795526D01*
X158386950Y-71874311D01*
X158386332Y-71935021D01*
X158385775Y-71956089D01*
X158385133Y-71980396D01*
G36*
X158385133Y-71980396D02*
G01*
X158383163Y-72013175D01*
X158380235Y-72036095D01*
X158376158Y-72051897D01*
X158370743Y-72063319D01*
X158363803Y-72073100D01*
X158340406Y-72102845D01*
X158174714Y-72102251D01*
X158139918Y-72101953D01*
X158041435Y-72098522D01*
X157960473Y-72090839D01*
X157893379Y-72078282D01*
X157836496Y-72060227D01*
X157786169Y-72036052D01*
X157782810Y-72034135D01*
X157724998Y-71997417D01*
X157682644Y-71960451D01*
X157649828Y-71916966D01*
X157620628Y-71860689D01*
X157616346Y-71851073D01*
X157593769Y-71787887D01*
X157588034Y-71742333D01*
X157737279Y-71742333D01*
X157742892Y-71767061D01*
X157748618Y-71782939D01*
X157781548Y-71842847D01*
X157828886Y-71888600D01*
X157892652Y-71921736D01*
X157974861Y-71943790D01*
X157977655Y-71944292D01*
X158023940Y-71950255D01*
X158080336Y-71954483D01*
X158135274Y-71956089D01*
X158229156Y-71956089D01*
X158229156Y-71515822D01*
X158141667Y-71516270D01*
X158074747Y-71518746D01*
X157982349Y-71529998D01*
X157903034Y-71549537D01*
X157841060Y-71576511D01*
X157810120Y-71597240D01*
X157782000Y-71627006D01*
X157758660Y-71669434D01*
X157751533Y-71685400D01*
X157739709Y-71717902D01*
X157737279Y-71742333D01*
X157588034Y-71742333D01*
X157586797Y-71732509D01*
X157595399Y-71677483D01*
X157619541Y-71615351D01*
X157620337Y-71613658D01*
X157660788Y-71544236D01*
X157711473Y-71487638D01*
X157774198Y-71443070D01*
X157850774Y-71409741D01*
X157943009Y-71386861D01*
X158052712Y-71373636D01*
X158181691Y-71369275D01*
X158185263Y-71369270D01*
X158245283Y-71369410D01*
X158287214Y-71370446D01*
X158315328Y-71373040D01*
X158333897Y-71377853D01*
X158347194Y-71385544D01*
X158359491Y-71396776D01*
X158387200Y-71424485D01*
X158387200Y-71733920D01*
X158387175Y-71795526D01*
X158386950Y-71874311D01*
X158386332Y-71935021D01*
X158385775Y-71956089D01*
X158385133Y-71980396D01*
G37*
X165476817Y-71554427D02*
X165476870Y-71635041D01*
X165476622Y-71735956D01*
X165476583Y-71811617D01*
X165476328Y-71889526D01*
X165475684Y-71949536D01*
X165474480Y-71994264D01*
X165472543Y-72026326D01*
X165469703Y-72048340D01*
X165465788Y-72062924D01*
X165460626Y-72072694D01*
X165454045Y-72080267D01*
X165447077Y-72086501D01*
X165434079Y-72093801D01*
X165414931Y-72098554D01*
X165385528Y-72101292D01*
X165341762Y-72102545D01*
X165279528Y-72102845D01*
X165230582Y-72102469D01*
X165123722Y-72098041D01*
X165034494Y-72087953D01*
X164959696Y-72071365D01*
X164896125Y-72047435D01*
X164840579Y-72015321D01*
X164789854Y-71974182D01*
X164783866Y-71968330D01*
X164746999Y-71919821D01*
X164715899Y-71859013D01*
X164694417Y-71794769D01*
X164689136Y-71756026D01*
X164836353Y-71756026D01*
X164854635Y-71806961D01*
X164884305Y-71852878D01*
X164931002Y-71895287D01*
X164992392Y-71925090D01*
X165071538Y-71944226D01*
X165073028Y-71944464D01*
X165121999Y-71950256D01*
X165180693Y-71954396D01*
X165236734Y-71956004D01*
X165329867Y-71956089D01*
X165329867Y-71515822D01*
X165253667Y-71515808D01*
X165250639Y-71515817D01*
X165199519Y-71517782D01*
X165139416Y-71522507D01*
X165082708Y-71529035D01*
X165032750Y-71538331D01*
X164957998Y-71564600D01*
X164900489Y-71603899D01*
X164858988Y-71656933D01*
X164837771Y-71708200D01*
X164836353Y-71756026D01*
X164689136Y-71756026D01*
X164686400Y-71735956D01*
X164687679Y-71714739D01*
X164699991Y-71657323D01*
X164722520Y-71597413D01*
X164751750Y-71543363D01*
X164784167Y-71503532D01*
X164803708Y-71486510D01*
X164858420Y-71447322D01*
X164918723Y-71417193D01*
X164987919Y-71395232D01*
X165069311Y-71380550D01*
X165166200Y-71372259D01*
X165281889Y-71369467D01*
X165321371Y-71369066D01*
X165367082Y-71368653D01*
X165402883Y-71370457D01*
X165429974Y-71376739D01*
X165449556Y-71389759D01*
X165462830Y-71411778D01*
X165470998Y-71445055D01*
X165475260Y-71491851D01*
X165475857Y-71515822D01*
X165476817Y-71554427D01*
G36*
X165476817Y-71554427D02*
G01*
X165476870Y-71635041D01*
X165476622Y-71735956D01*
X165476583Y-71811617D01*
X165476328Y-71889526D01*
X165475684Y-71949536D01*
X165474480Y-71994264D01*
X165472543Y-72026326D01*
X165469703Y-72048340D01*
X165465788Y-72062924D01*
X165460626Y-72072694D01*
X165454045Y-72080267D01*
X165447077Y-72086501D01*
X165434079Y-72093801D01*
X165414931Y-72098554D01*
X165385528Y-72101292D01*
X165341762Y-72102545D01*
X165279528Y-72102845D01*
X165230582Y-72102469D01*
X165123722Y-72098041D01*
X165034494Y-72087953D01*
X164959696Y-72071365D01*
X164896125Y-72047435D01*
X164840579Y-72015321D01*
X164789854Y-71974182D01*
X164783866Y-71968330D01*
X164746999Y-71919821D01*
X164715899Y-71859013D01*
X164694417Y-71794769D01*
X164689136Y-71756026D01*
X164836353Y-71756026D01*
X164854635Y-71806961D01*
X164884305Y-71852878D01*
X164931002Y-71895287D01*
X164992392Y-71925090D01*
X165071538Y-71944226D01*
X165073028Y-71944464D01*
X165121999Y-71950256D01*
X165180693Y-71954396D01*
X165236734Y-71956004D01*
X165329867Y-71956089D01*
X165329867Y-71515822D01*
X165253667Y-71515808D01*
X165250639Y-71515817D01*
X165199519Y-71517782D01*
X165139416Y-71522507D01*
X165082708Y-71529035D01*
X165032750Y-71538331D01*
X164957998Y-71564600D01*
X164900489Y-71603899D01*
X164858988Y-71656933D01*
X164837771Y-71708200D01*
X164836353Y-71756026D01*
X164689136Y-71756026D01*
X164686400Y-71735956D01*
X164687679Y-71714739D01*
X164699991Y-71657323D01*
X164722520Y-71597413D01*
X164751750Y-71543363D01*
X164784167Y-71503532D01*
X164803708Y-71486510D01*
X164858420Y-71447322D01*
X164918723Y-71417193D01*
X164987919Y-71395232D01*
X165069311Y-71380550D01*
X165166200Y-71372259D01*
X165281889Y-71369467D01*
X165321371Y-71369066D01*
X165367082Y-71368653D01*
X165402883Y-71370457D01*
X165429974Y-71376739D01*
X165449556Y-71389759D01*
X165462830Y-71411778D01*
X165470998Y-71445055D01*
X165475260Y-71491851D01*
X165475857Y-71515822D01*
X165476817Y-71554427D01*
G37*
X160531893Y-71367892D02*
X160543301Y-71374029D01*
X160553850Y-71384691D01*
X160565136Y-71398811D01*
X160569589Y-71404772D01*
X160575588Y-71415268D01*
X160580167Y-71429093D01*
X160583519Y-71448998D01*
X160585833Y-71477732D01*
X160587301Y-71518045D01*
X160588113Y-71572687D01*
X160588460Y-71644407D01*
X160588534Y-71735956D01*
X160588511Y-71794486D01*
X160588292Y-71873573D01*
X160587683Y-71934516D01*
X160586492Y-71980062D01*
X160584529Y-72012963D01*
X160581603Y-72035968D01*
X160577523Y-72051826D01*
X160572097Y-72063286D01*
X160565136Y-72073100D01*
X160534708Y-72097493D01*
X160499765Y-72100372D01*
X160462784Y-72081282D01*
X160458600Y-72077807D01*
X160450424Y-72069279D01*
X160444364Y-72057728D01*
X160439981Y-72039896D01*
X160436839Y-72012524D01*
X160434502Y-71972354D01*
X160432531Y-71916128D01*
X160430489Y-71840589D01*
X160424845Y-71621458D01*
X160159556Y-71862099D01*
X160085722Y-71928875D01*
X160020542Y-71986991D01*
X159968348Y-72031949D01*
X159927273Y-72064871D01*
X159895455Y-72086879D01*
X159871026Y-72099094D01*
X159852124Y-72102639D01*
X159836883Y-72098636D01*
X159823439Y-72088207D01*
X159809927Y-72072474D01*
X159803682Y-72063991D01*
X159798050Y-72053413D01*
X159793839Y-72039255D01*
X159790887Y-72018803D01*
X159789032Y-71989342D01*
X159788113Y-71948161D01*
X159787968Y-71892544D01*
X159788435Y-71819779D01*
X159789352Y-71727151D01*
X159792667Y-71412199D01*
X159819318Y-71390633D01*
X159845383Y-71374441D01*
X159878241Y-71371670D01*
X159912772Y-71390623D01*
X159917084Y-71394208D01*
X159925216Y-71402737D01*
X159931245Y-71414329D01*
X159935606Y-71432235D01*
X159938734Y-71459706D01*
X159941063Y-71499994D01*
X159943029Y-71556351D01*
X159945067Y-71632029D01*
X159950711Y-71851878D01*
X160131334Y-71688084D01*
X160218072Y-71609451D01*
X160293843Y-71541058D01*
X160355980Y-71485708D01*
X160406078Y-71442338D01*
X160445735Y-71409881D01*
X160476548Y-71387273D01*
X160500114Y-71373448D01*
X160518030Y-71367343D01*
X160531893Y-71367892D01*
G36*
X160531893Y-71367892D02*
G01*
X160543301Y-71374029D01*
X160553850Y-71384691D01*
X160565136Y-71398811D01*
X160569589Y-71404772D01*
X160575588Y-71415268D01*
X160580167Y-71429093D01*
X160583519Y-71448998D01*
X160585833Y-71477732D01*
X160587301Y-71518045D01*
X160588113Y-71572687D01*
X160588460Y-71644407D01*
X160588534Y-71735956D01*
X160588511Y-71794486D01*
X160588292Y-71873573D01*
X160587683Y-71934516D01*
X160586492Y-71980062D01*
X160584529Y-72012963D01*
X160581603Y-72035968D01*
X160577523Y-72051826D01*
X160572097Y-72063286D01*
X160565136Y-72073100D01*
X160534708Y-72097493D01*
X160499765Y-72100372D01*
X160462784Y-72081282D01*
X160458600Y-72077807D01*
X160450424Y-72069279D01*
X160444364Y-72057728D01*
X160439981Y-72039896D01*
X160436839Y-72012524D01*
X160434502Y-71972354D01*
X160432531Y-71916128D01*
X160430489Y-71840589D01*
X160424845Y-71621458D01*
X160159556Y-71862099D01*
X160085722Y-71928875D01*
X160020542Y-71986991D01*
X159968348Y-72031949D01*
X159927273Y-72064871D01*
X159895455Y-72086879D01*
X159871026Y-72099094D01*
X159852124Y-72102639D01*
X159836883Y-72098636D01*
X159823439Y-72088207D01*
X159809927Y-72072474D01*
X159803682Y-72063991D01*
X159798050Y-72053413D01*
X159793839Y-72039255D01*
X159790887Y-72018803D01*
X159789032Y-71989342D01*
X159788113Y-71948161D01*
X159787968Y-71892544D01*
X159788435Y-71819779D01*
X159789352Y-71727151D01*
X159792667Y-71412199D01*
X159819318Y-71390633D01*
X159845383Y-71374441D01*
X159878241Y-71371670D01*
X159912772Y-71390623D01*
X159917084Y-71394208D01*
X159925216Y-71402737D01*
X159931245Y-71414329D01*
X159935606Y-71432235D01*
X159938734Y-71459706D01*
X159941063Y-71499994D01*
X159943029Y-71556351D01*
X159945067Y-71632029D01*
X159950711Y-71851878D01*
X160131334Y-71688084D01*
X160218072Y-71609451D01*
X160293843Y-71541058D01*
X160355980Y-71485708D01*
X160406078Y-71442338D01*
X160445735Y-71409881D01*
X160476548Y-71387273D01*
X160500114Y-71373448D01*
X160518030Y-71367343D01*
X160531893Y-71367892D01*
G37*
X161329150Y-71374179D02*
X161435157Y-71390494D01*
X161528969Y-71418545D01*
X161607765Y-71457452D01*
X161668719Y-71506334D01*
X161694789Y-71539195D01*
X161724297Y-71588394D01*
X161749568Y-71642252D01*
X161767218Y-71693419D01*
X161773858Y-71734544D01*
X161772298Y-71754259D01*
X161759357Y-71805592D01*
X161736194Y-71862118D01*
X161706302Y-71916035D01*
X161673173Y-71959539D01*
X161662977Y-71969887D01*
X161595892Y-72021662D01*
X161515766Y-72061554D01*
X161429556Y-72085956D01*
X161374592Y-72094068D01*
X161281139Y-72100673D01*
X161191358Y-72098586D01*
X161108869Y-72088340D01*
X161037286Y-72070470D01*
X160980228Y-72045508D01*
X160941311Y-72013988D01*
X160939936Y-72012012D01*
X160932848Y-71986786D01*
X160928609Y-71939535D01*
X160927200Y-71870071D01*
X160928060Y-71807838D01*
X160932780Y-71760456D01*
X160944470Y-71728353D01*
X160966239Y-71708800D01*
X161001198Y-71699070D01*
X161052456Y-71696433D01*
X161123123Y-71698161D01*
X161171743Y-71701173D01*
X161221939Y-71709366D01*
X161254433Y-71723419D01*
X161271892Y-71744654D01*
X161276983Y-71774394D01*
X161276877Y-71778936D01*
X161268175Y-71813730D01*
X161244165Y-71837147D01*
X161202900Y-71850347D01*
X161142431Y-71854489D01*
X161073956Y-71854489D01*
X161073956Y-71892841D01*
X161074006Y-71901976D01*
X161076227Y-71919227D01*
X161085494Y-71929521D01*
X161106875Y-71936459D01*
X161145436Y-71943641D01*
X161150910Y-71944575D01*
X161247860Y-71954478D01*
X161337852Y-71951559D01*
X161418760Y-71936829D01*
X161488459Y-71911299D01*
X161544824Y-71875978D01*
X161585729Y-71831879D01*
X161609051Y-71780012D01*
X161612663Y-71721388D01*
X161607145Y-71692494D01*
X161580461Y-71636604D01*
X161534273Y-71590945D01*
X161469291Y-71556108D01*
X161386229Y-71532690D01*
X161361555Y-71528241D01*
X161272226Y-71517742D01*
X161192419Y-71518971D01*
X161114326Y-71531906D01*
X161079183Y-71538696D01*
X161033745Y-71539713D01*
X161002430Y-71527182D01*
X160982277Y-71500395D01*
X160975893Y-71472148D01*
X160985379Y-71440924D01*
X160994708Y-71427499D01*
X161028943Y-71403967D01*
X161081565Y-71386095D01*
X161150081Y-71374599D01*
X161232000Y-71370192D01*
X161329150Y-71374179D01*
G36*
X161329150Y-71374179D02*
G01*
X161435157Y-71390494D01*
X161528969Y-71418545D01*
X161607765Y-71457452D01*
X161668719Y-71506334D01*
X161694789Y-71539195D01*
X161724297Y-71588394D01*
X161749568Y-71642252D01*
X161767218Y-71693419D01*
X161773858Y-71734544D01*
X161772298Y-71754259D01*
X161759357Y-71805592D01*
X161736194Y-71862118D01*
X161706302Y-71916035D01*
X161673173Y-71959539D01*
X161662977Y-71969887D01*
X161595892Y-72021662D01*
X161515766Y-72061554D01*
X161429556Y-72085956D01*
X161374592Y-72094068D01*
X161281139Y-72100673D01*
X161191358Y-72098586D01*
X161108869Y-72088340D01*
X161037286Y-72070470D01*
X160980228Y-72045508D01*
X160941311Y-72013988D01*
X160939936Y-72012012D01*
X160932848Y-71986786D01*
X160928609Y-71939535D01*
X160927200Y-71870071D01*
X160928060Y-71807838D01*
X160932780Y-71760456D01*
X160944470Y-71728353D01*
X160966239Y-71708800D01*
X161001198Y-71699070D01*
X161052456Y-71696433D01*
X161123123Y-71698161D01*
X161171743Y-71701173D01*
X161221939Y-71709366D01*
X161254433Y-71723419D01*
X161271892Y-71744654D01*
X161276983Y-71774394D01*
X161276877Y-71778936D01*
X161268175Y-71813730D01*
X161244165Y-71837147D01*
X161202900Y-71850347D01*
X161142431Y-71854489D01*
X161073956Y-71854489D01*
X161073956Y-71892841D01*
X161074006Y-71901976D01*
X161076227Y-71919227D01*
X161085494Y-71929521D01*
X161106875Y-71936459D01*
X161145436Y-71943641D01*
X161150910Y-71944575D01*
X161247860Y-71954478D01*
X161337852Y-71951559D01*
X161418760Y-71936829D01*
X161488459Y-71911299D01*
X161544824Y-71875978D01*
X161585729Y-71831879D01*
X161609051Y-71780012D01*
X161612663Y-71721388D01*
X161607145Y-71692494D01*
X161580461Y-71636604D01*
X161534273Y-71590945D01*
X161469291Y-71556108D01*
X161386229Y-71532690D01*
X161361555Y-71528241D01*
X161272226Y-71517742D01*
X161192419Y-71518971D01*
X161114326Y-71531906D01*
X161079183Y-71538696D01*
X161033745Y-71539713D01*
X161002430Y-71527182D01*
X160982277Y-71500395D01*
X160975893Y-71472148D01*
X160985379Y-71440924D01*
X160994708Y-71427499D01*
X161028943Y-71403967D01*
X161081565Y-71386095D01*
X161150081Y-71374599D01*
X161232000Y-71370192D01*
X161329150Y-71374179D01*
G37*
X159379803Y-71398811D02*
X159384752Y-71405495D01*
X159390596Y-71416066D01*
X159395057Y-71430153D01*
X159398321Y-71450478D01*
X159400574Y-71479765D01*
X159402002Y-71520737D01*
X159402792Y-71576117D01*
X159403129Y-71648628D01*
X159403200Y-71740994D01*
X159403171Y-71806911D01*
X159402939Y-71885228D01*
X159402319Y-71945496D01*
X159401126Y-71990393D01*
X159399179Y-72022602D01*
X159396294Y-72044800D01*
X159392288Y-72059669D01*
X159386979Y-72069889D01*
X159380183Y-72078138D01*
X159375668Y-72082795D01*
X159367438Y-72089282D01*
X159356078Y-72094194D01*
X159338810Y-72097749D01*
X159312855Y-72100167D01*
X159275436Y-72101667D01*
X159223773Y-72102467D01*
X159155089Y-72102787D01*
X159066606Y-72102845D01*
X159046931Y-72102838D01*
X158959906Y-72102572D01*
X158892254Y-72101806D01*
X158841299Y-72100392D01*
X158804367Y-72098180D01*
X158778783Y-72095022D01*
X158761871Y-72090769D01*
X158750957Y-72085271D01*
X158740464Y-72075285D01*
X158727203Y-72044168D01*
X158728386Y-72008280D01*
X158744550Y-71976733D01*
X158746739Y-71974457D01*
X158755427Y-71968189D01*
X158768769Y-71963523D01*
X158789752Y-71960227D01*
X158821363Y-71958068D01*
X158866590Y-71956814D01*
X158928420Y-71956231D01*
X159009839Y-71956089D01*
X159256445Y-71956089D01*
X159256445Y-71798045D01*
X159094006Y-71798045D01*
X159058338Y-71797964D01*
X159002568Y-71797167D01*
X158963430Y-71795162D01*
X158936976Y-71791521D01*
X158919259Y-71785812D01*
X158906329Y-71777607D01*
X158902686Y-71774423D01*
X158884278Y-71743448D01*
X158883644Y-71707112D01*
X158901183Y-71673493D01*
X158901245Y-71673424D01*
X158910916Y-71664798D01*
X158924209Y-71658742D01*
X158944917Y-71654811D01*
X158976828Y-71652556D01*
X159023734Y-71651531D01*
X159089424Y-71651289D01*
X159257571Y-71651289D01*
X159254186Y-71586378D01*
X159250800Y-71521467D01*
X159008723Y-71518414D01*
X158983707Y-71518086D01*
X158902087Y-71516606D01*
X158839768Y-71514222D01*
X158794154Y-71510227D01*
X158762652Y-71503913D01*
X158742667Y-71494574D01*
X158731604Y-71481503D01*
X158726869Y-71463992D01*
X158725867Y-71441335D01*
X158725873Y-71438970D01*
X158727027Y-71418939D01*
X158731824Y-71403146D01*
X158742632Y-71391090D01*
X158761817Y-71382267D01*
X158791745Y-71376175D01*
X158834783Y-71372311D01*
X158893299Y-71370174D01*
X158969657Y-71369260D01*
X159066226Y-71369067D01*
X159356406Y-71369067D01*
X159379803Y-71398811D01*
G36*
X159379803Y-71398811D02*
G01*
X159384752Y-71405495D01*
X159390596Y-71416066D01*
X159395057Y-71430153D01*
X159398321Y-71450478D01*
X159400574Y-71479765D01*
X159402002Y-71520737D01*
X159402792Y-71576117D01*
X159403129Y-71648628D01*
X159403200Y-71740994D01*
X159403171Y-71806911D01*
X159402939Y-71885228D01*
X159402319Y-71945496D01*
X159401126Y-71990393D01*
X159399179Y-72022602D01*
X159396294Y-72044800D01*
X159392288Y-72059669D01*
X159386979Y-72069889D01*
X159380183Y-72078138D01*
X159375668Y-72082795D01*
X159367438Y-72089282D01*
X159356078Y-72094194D01*
X159338810Y-72097749D01*
X159312855Y-72100167D01*
X159275436Y-72101667D01*
X159223773Y-72102467D01*
X159155089Y-72102787D01*
X159066606Y-72102845D01*
X159046931Y-72102838D01*
X158959906Y-72102572D01*
X158892254Y-72101806D01*
X158841299Y-72100392D01*
X158804367Y-72098180D01*
X158778783Y-72095022D01*
X158761871Y-72090769D01*
X158750957Y-72085271D01*
X158740464Y-72075285D01*
X158727203Y-72044168D01*
X158728386Y-72008280D01*
X158744550Y-71976733D01*
X158746739Y-71974457D01*
X158755427Y-71968189D01*
X158768769Y-71963523D01*
X158789752Y-71960227D01*
X158821363Y-71958068D01*
X158866590Y-71956814D01*
X158928420Y-71956231D01*
X159009839Y-71956089D01*
X159256445Y-71956089D01*
X159256445Y-71798045D01*
X159094006Y-71798045D01*
X159058338Y-71797964D01*
X159002568Y-71797167D01*
X158963430Y-71795162D01*
X158936976Y-71791521D01*
X158919259Y-71785812D01*
X158906329Y-71777607D01*
X158902686Y-71774423D01*
X158884278Y-71743448D01*
X158883644Y-71707112D01*
X158901183Y-71673493D01*
X158901245Y-71673424D01*
X158910916Y-71664798D01*
X158924209Y-71658742D01*
X158944917Y-71654811D01*
X158976828Y-71652556D01*
X159023734Y-71651531D01*
X159089424Y-71651289D01*
X159257571Y-71651289D01*
X159254186Y-71586378D01*
X159250800Y-71521467D01*
X159008723Y-71518414D01*
X158983707Y-71518086D01*
X158902087Y-71516606D01*
X158839768Y-71514222D01*
X158794154Y-71510227D01*
X158762652Y-71503913D01*
X158742667Y-71494574D01*
X158731604Y-71481503D01*
X158726869Y-71463992D01*
X158725867Y-71441335D01*
X158725873Y-71438970D01*
X158727027Y-71418939D01*
X158731824Y-71403146D01*
X158742632Y-71391090D01*
X158761817Y-71382267D01*
X158791745Y-71376175D01*
X158834783Y-71372311D01*
X158893299Y-71370174D01*
X158969657Y-71369260D01*
X159066226Y-71369067D01*
X159356406Y-71369067D01*
X159379803Y-71398811D01*
G37*
X164056734Y-71369083D02*
X164133831Y-71369275D01*
X164192777Y-71369860D01*
X164236364Y-71371051D01*
X164267383Y-71373064D01*
X164288625Y-71376112D01*
X164302882Y-71380409D01*
X164312945Y-71386172D01*
X164321606Y-71393612D01*
X164323391Y-71395293D01*
X164330635Y-71402832D01*
X164336277Y-71411850D01*
X164340517Y-71424984D01*
X164343556Y-71444872D01*
X164345594Y-71474151D01*
X164346830Y-71515458D01*
X164347465Y-71571431D01*
X164347700Y-71644707D01*
X164347734Y-71737923D01*
X164347697Y-71810713D01*
X164347448Y-71888889D01*
X164346812Y-71949103D01*
X164345615Y-71993982D01*
X164343684Y-72026152D01*
X164340846Y-72048239D01*
X164336927Y-72062870D01*
X164331755Y-72072670D01*
X164325156Y-72080267D01*
X164321822Y-72083444D01*
X164313300Y-72089554D01*
X164301298Y-72094229D01*
X164283087Y-72097659D01*
X164255940Y-72100036D01*
X164217129Y-72101552D01*
X164163924Y-72102398D01*
X164093598Y-72102765D01*
X164003422Y-72102845D01*
X163961314Y-72102833D01*
X163880167Y-72102651D01*
X163817675Y-72102098D01*
X163771109Y-72100982D01*
X163737741Y-72099113D01*
X163714844Y-72096298D01*
X163699688Y-72092346D01*
X163689546Y-72087066D01*
X163681689Y-72080267D01*
X163666963Y-72058667D01*
X163659111Y-72029467D01*
X163664610Y-72005560D01*
X163681689Y-71978667D01*
X163686668Y-71974059D01*
X163696443Y-71967772D01*
X163710559Y-71963146D01*
X163732054Y-71959930D01*
X163763968Y-71957870D01*
X163809342Y-71956712D01*
X163871213Y-71956202D01*
X163952622Y-71956089D01*
X164200978Y-71956089D01*
X164200978Y-71798045D01*
X164039801Y-71798045D01*
X164003983Y-71797899D01*
X163938359Y-71796176D01*
X163891118Y-71791741D01*
X163859383Y-71783637D01*
X163840277Y-71770906D01*
X163830923Y-71752592D01*
X163828445Y-71727738D01*
X163829242Y-71707482D01*
X163834494Y-71685656D01*
X163847288Y-71670304D01*
X163870628Y-71660309D01*
X163907517Y-71654553D01*
X163960959Y-71651919D01*
X164033958Y-71651289D01*
X164202105Y-71651289D01*
X164198719Y-71586378D01*
X164195334Y-71521467D01*
X163947617Y-71518418D01*
X163885026Y-71517539D01*
X163816565Y-71516095D01*
X163765661Y-71514164D01*
X163729408Y-71511514D01*
X163704901Y-71507910D01*
X163689235Y-71503121D01*
X163679506Y-71496913D01*
X163673491Y-71490510D01*
X163660482Y-71458828D01*
X163664043Y-71423142D01*
X163683818Y-71392084D01*
X163687069Y-71389161D01*
X163696049Y-71382810D01*
X163708153Y-71377957D01*
X163726159Y-71374403D01*
X163752847Y-71371946D01*
X163790997Y-71370385D01*
X163843386Y-71369518D01*
X163912794Y-71369146D01*
X164002001Y-71369067D01*
X164056734Y-71369083D01*
G36*
X164056734Y-71369083D02*
G01*
X164133831Y-71369275D01*
X164192777Y-71369860D01*
X164236364Y-71371051D01*
X164267383Y-71373064D01*
X164288625Y-71376112D01*
X164302882Y-71380409D01*
X164312945Y-71386172D01*
X164321606Y-71393612D01*
X164323391Y-71395293D01*
X164330635Y-71402832D01*
X164336277Y-71411850D01*
X164340517Y-71424984D01*
X164343556Y-71444872D01*
X164345594Y-71474151D01*
X164346830Y-71515458D01*
X164347465Y-71571431D01*
X164347700Y-71644707D01*
X164347734Y-71737923D01*
X164347697Y-71810713D01*
X164347448Y-71888889D01*
X164346812Y-71949103D01*
X164345615Y-71993982D01*
X164343684Y-72026152D01*
X164340846Y-72048239D01*
X164336927Y-72062870D01*
X164331755Y-72072670D01*
X164325156Y-72080267D01*
X164321822Y-72083444D01*
X164313300Y-72089554D01*
X164301298Y-72094229D01*
X164283087Y-72097659D01*
X164255940Y-72100036D01*
X164217129Y-72101552D01*
X164163924Y-72102398D01*
X164093598Y-72102765D01*
X164003422Y-72102845D01*
X163961314Y-72102833D01*
X163880167Y-72102651D01*
X163817675Y-72102098D01*
X163771109Y-72100982D01*
X163737741Y-72099113D01*
X163714844Y-72096298D01*
X163699688Y-72092346D01*
X163689546Y-72087066D01*
X163681689Y-72080267D01*
X163666963Y-72058667D01*
X163659111Y-72029467D01*
X163664610Y-72005560D01*
X163681689Y-71978667D01*
X163686668Y-71974059D01*
X163696443Y-71967772D01*
X163710559Y-71963146D01*
X163732054Y-71959930D01*
X163763968Y-71957870D01*
X163809342Y-71956712D01*
X163871213Y-71956202D01*
X163952622Y-71956089D01*
X164200978Y-71956089D01*
X164200978Y-71798045D01*
X164039801Y-71798045D01*
X164003983Y-71797899D01*
X163938359Y-71796176D01*
X163891118Y-71791741D01*
X163859383Y-71783637D01*
X163840277Y-71770906D01*
X163830923Y-71752592D01*
X163828445Y-71727738D01*
X163829242Y-71707482D01*
X163834494Y-71685656D01*
X163847288Y-71670304D01*
X163870628Y-71660309D01*
X163907517Y-71654553D01*
X163960959Y-71651919D01*
X164033958Y-71651289D01*
X164202105Y-71651289D01*
X164198719Y-71586378D01*
X164195334Y-71521467D01*
X163947617Y-71518418D01*
X163885026Y-71517539D01*
X163816565Y-71516095D01*
X163765661Y-71514164D01*
X163729408Y-71511514D01*
X163704901Y-71507910D01*
X163689235Y-71503121D01*
X163679506Y-71496913D01*
X163673491Y-71490510D01*
X163660482Y-71458828D01*
X163664043Y-71423142D01*
X163683818Y-71392084D01*
X163687069Y-71389161D01*
X163696049Y-71382810D01*
X163708153Y-71377957D01*
X163726159Y-71374403D01*
X163752847Y-71371946D01*
X163790997Y-71370385D01*
X163843386Y-71369518D01*
X163912794Y-71369146D01*
X164002001Y-71369067D01*
X164056734Y-71369083D01*
G37*
X155489702Y-71378478D02*
X155507663Y-71396989D01*
X155528263Y-71428071D01*
X155553095Y-71473756D01*
X155583750Y-71536078D01*
X155621820Y-71617071D01*
X155636454Y-71648454D01*
X155666203Y-71711638D01*
X155692297Y-71766244D01*
X155713292Y-71809290D01*
X155727739Y-71837793D01*
X155734191Y-71848770D01*
X155735550Y-71848189D01*
X155745542Y-71834242D01*
X155762833Y-71804704D01*
X155785430Y-71763087D01*
X155811338Y-71712903D01*
X155827311Y-71681414D01*
X155856261Y-71626061D01*
X155878749Y-71587044D01*
X155896965Y-71561566D01*
X155913096Y-71546831D01*
X155929330Y-71540042D01*
X155947857Y-71538400D01*
X155958360Y-71538875D01*
X155974476Y-71543082D01*
X155989790Y-71553946D01*
X156006388Y-71574219D01*
X156026357Y-71606654D01*
X156051783Y-71654004D01*
X156084752Y-71719022D01*
X156094485Y-71738277D01*
X156118943Y-71784946D01*
X156139178Y-71821109D01*
X156153311Y-71843497D01*
X156159460Y-71848845D01*
X156160827Y-71845573D01*
X156170202Y-71824664D01*
X156187062Y-71787725D01*
X156209979Y-71737874D01*
X156237520Y-71678226D01*
X156268255Y-71611898D01*
X156294970Y-71554677D01*
X156324593Y-71492688D01*
X156347664Y-71446949D01*
X156365643Y-71414908D01*
X156379990Y-71394014D01*
X156392166Y-71381718D01*
X156403632Y-71375466D01*
X156413042Y-71372574D01*
X156438147Y-71372425D01*
X156465290Y-71387768D01*
X156466590Y-71388753D01*
X156488674Y-71411388D01*
X156499723Y-71433613D01*
X156499769Y-71434253D01*
X156495228Y-71451915D01*
X156482364Y-71486481D01*
X156462605Y-71534826D01*
X156437381Y-71593825D01*
X156408119Y-71660355D01*
X156376250Y-71731291D01*
X156343201Y-71803507D01*
X156310401Y-71873880D01*
X156279280Y-71939285D01*
X156251265Y-71996597D01*
X156227786Y-72042692D01*
X156210272Y-72074446D01*
X156200151Y-72088733D01*
X156165743Y-72102102D01*
X156124046Y-72095741D01*
X156118681Y-72091044D01*
X156102852Y-72068893D01*
X156080650Y-72032132D01*
X156054233Y-71984415D01*
X156025760Y-71929393D01*
X155945986Y-71770150D01*
X155872799Y-71916742D01*
X155863103Y-71936032D01*
X155836125Y-71988380D01*
X155812096Y-72033170D01*
X155793332Y-72066154D01*
X155782146Y-72083089D01*
X155781000Y-72084332D01*
X155752879Y-72099619D01*
X155717817Y-72101302D01*
X155686776Y-72088733D01*
X155684350Y-72085884D01*
X155672090Y-72065259D01*
X155652352Y-72027708D01*
X155626448Y-71975880D01*
X155595685Y-71912423D01*
X155561375Y-71839985D01*
X155524825Y-71761216D01*
X155504585Y-71717093D01*
X155467812Y-71636365D01*
X155439355Y-71572687D01*
X155418331Y-71523752D01*
X155403854Y-71487257D01*
X155395039Y-71460895D01*
X155391004Y-71442361D01*
X155390862Y-71429352D01*
X155393730Y-71419561D01*
X155408387Y-71398678D01*
X155434990Y-71378377D01*
X155435745Y-71378035D01*
X155455335Y-71371034D01*
X155472790Y-71370504D01*
X155489702Y-71378478D01*
G36*
X155489702Y-71378478D02*
G01*
X155507663Y-71396989D01*
X155528263Y-71428071D01*
X155553095Y-71473756D01*
X155583750Y-71536078D01*
X155621820Y-71617071D01*
X155636454Y-71648454D01*
X155666203Y-71711638D01*
X155692297Y-71766244D01*
X155713292Y-71809290D01*
X155727739Y-71837793D01*
X155734191Y-71848770D01*
X155735550Y-71848189D01*
X155745542Y-71834242D01*
X155762833Y-71804704D01*
X155785430Y-71763087D01*
X155811338Y-71712903D01*
X155827311Y-71681414D01*
X155856261Y-71626061D01*
X155878749Y-71587044D01*
X155896965Y-71561566D01*
X155913096Y-71546831D01*
X155929330Y-71540042D01*
X155947857Y-71538400D01*
X155958360Y-71538875D01*
X155974476Y-71543082D01*
X155989790Y-71553946D01*
X156006388Y-71574219D01*
X156026357Y-71606654D01*
X156051783Y-71654004D01*
X156084752Y-71719022D01*
X156094485Y-71738277D01*
X156118943Y-71784946D01*
X156139178Y-71821109D01*
X156153311Y-71843497D01*
X156159460Y-71848845D01*
X156160827Y-71845573D01*
X156170202Y-71824664D01*
X156187062Y-71787725D01*
X156209979Y-71737874D01*
X156237520Y-71678226D01*
X156268255Y-71611898D01*
X156294970Y-71554677D01*
X156324593Y-71492688D01*
X156347664Y-71446949D01*
X156365643Y-71414908D01*
X156379990Y-71394014D01*
X156392166Y-71381718D01*
X156403632Y-71375466D01*
X156413042Y-71372574D01*
X156438147Y-71372425D01*
X156465290Y-71387768D01*
X156466590Y-71388753D01*
X156488674Y-71411388D01*
X156499723Y-71433613D01*
X156499769Y-71434253D01*
X156495228Y-71451915D01*
X156482364Y-71486481D01*
X156462605Y-71534826D01*
X156437381Y-71593825D01*
X156408119Y-71660355D01*
X156376250Y-71731291D01*
X156343201Y-71803507D01*
X156310401Y-71873880D01*
X156279280Y-71939285D01*
X156251265Y-71996597D01*
X156227786Y-72042692D01*
X156210272Y-72074446D01*
X156200151Y-72088733D01*
X156165743Y-72102102D01*
X156124046Y-72095741D01*
X156118681Y-72091044D01*
X156102852Y-72068893D01*
X156080650Y-72032132D01*
X156054233Y-71984415D01*
X156025760Y-71929393D01*
X155945986Y-71770150D01*
X155872799Y-71916742D01*
X155863103Y-71936032D01*
X155836125Y-71988380D01*
X155812096Y-72033170D01*
X155793332Y-72066154D01*
X155782146Y-72083089D01*
X155781000Y-72084332D01*
X155752879Y-72099619D01*
X155717817Y-72101302D01*
X155686776Y-72088733D01*
X155684350Y-72085884D01*
X155672090Y-72065259D01*
X155652352Y-72027708D01*
X155626448Y-71975880D01*
X155595685Y-71912423D01*
X155561375Y-71839985D01*
X155524825Y-71761216D01*
X155504585Y-71717093D01*
X155467812Y-71636365D01*
X155439355Y-71572687D01*
X155418331Y-71523752D01*
X155403854Y-71487257D01*
X155395039Y-71460895D01*
X155391004Y-71442361D01*
X155390862Y-71429352D01*
X155393730Y-71419561D01*
X155408387Y-71398678D01*
X155434990Y-71378377D01*
X155435745Y-71378035D01*
X155455335Y-71371034D01*
X155472790Y-71370504D01*
X155489702Y-71378478D01*
G37*
X163040853Y-71369936D02*
X163107100Y-71375366D01*
X163162400Y-71384964D01*
X163213283Y-71399825D01*
X163284595Y-71432958D01*
X163335752Y-71475640D01*
X163366575Y-71527705D01*
X163376889Y-71588983D01*
X163375952Y-71620232D01*
X163370160Y-71645029D01*
X163355353Y-71666699D01*
X163327380Y-71694049D01*
X163319402Y-71701378D01*
X163295692Y-71722281D01*
X163273298Y-71739251D01*
X163249265Y-71753205D01*
X163220637Y-71765056D01*
X163184460Y-71775720D01*
X163137780Y-71786111D01*
X163077641Y-71797146D01*
X163001090Y-71809738D01*
X162905171Y-71824804D01*
X162886808Y-71827838D01*
X162824478Y-71841458D01*
X162779260Y-71857192D01*
X162752976Y-71874263D01*
X162747447Y-71891897D01*
X162750068Y-71896168D01*
X162768000Y-71911233D01*
X162796126Y-71927867D01*
X162808926Y-71933857D01*
X162830224Y-71941050D01*
X162856610Y-71945827D01*
X162892454Y-71948646D01*
X162942128Y-71949964D01*
X163010000Y-71950237D01*
X163027785Y-71950164D01*
X163095406Y-71949053D01*
X163160345Y-71946828D01*
X163215970Y-71943762D01*
X163255651Y-71940127D01*
X163291162Y-71936059D01*
X163320415Y-71935276D01*
X163339315Y-71939876D01*
X163354429Y-71950551D01*
X163358085Y-71954144D01*
X163374427Y-71985918D01*
X163373107Y-72021572D01*
X163354150Y-72052190D01*
X163333780Y-72063796D01*
X163297796Y-72076491D01*
X163255372Y-72086541D01*
X163251922Y-72087140D01*
X163209252Y-72092356D01*
X163151866Y-72096730D01*
X163086849Y-72099818D01*
X163021289Y-72101177D01*
X163005057Y-72101218D01*
X162906744Y-72098741D01*
X162826692Y-72090735D01*
X162761513Y-72076203D01*
X162707817Y-72054149D01*
X162662216Y-72023576D01*
X162621323Y-71983486D01*
X162601202Y-71957259D01*
X162589576Y-71927712D01*
X162586667Y-71887995D01*
X162586808Y-71876026D01*
X162590681Y-71843345D01*
X162603065Y-71816819D01*
X162628230Y-71785971D01*
X162649442Y-71763831D01*
X162675838Y-71741285D01*
X162705555Y-71722917D01*
X162741785Y-71707661D01*
X162787717Y-71694449D01*
X162846544Y-71682214D01*
X162921456Y-71669889D01*
X163015645Y-71656406D01*
X163060957Y-71649396D01*
X163128911Y-71634837D01*
X163178047Y-71618337D01*
X163207614Y-71600439D01*
X163216864Y-71581685D01*
X163205048Y-71562615D01*
X163171416Y-71543771D01*
X163168370Y-71542557D01*
X163122011Y-71530479D01*
X163059361Y-71522279D01*
X162985927Y-71518119D01*
X162907217Y-71518161D01*
X162828739Y-71522569D01*
X162756000Y-71531505D01*
X162752073Y-71532154D01*
X162703257Y-71539861D01*
X162671005Y-71543473D01*
X162650008Y-71542876D01*
X162634954Y-71537954D01*
X162620534Y-71528596D01*
X162619364Y-71527725D01*
X162594847Y-71497351D01*
X162590054Y-71461850D01*
X162605860Y-71427269D01*
X162610406Y-71422813D01*
X162640020Y-71407673D01*
X162687002Y-71394550D01*
X162747306Y-71383750D01*
X162816888Y-71375581D01*
X162891703Y-71370351D01*
X162967706Y-71368367D01*
X163040853Y-71369936D01*
G36*
X163040853Y-71369936D02*
G01*
X163107100Y-71375366D01*
X163162400Y-71384964D01*
X163213283Y-71399825D01*
X163284595Y-71432958D01*
X163335752Y-71475640D01*
X163366575Y-71527705D01*
X163376889Y-71588983D01*
X163375952Y-71620232D01*
X163370160Y-71645029D01*
X163355353Y-71666699D01*
X163327380Y-71694049D01*
X163319402Y-71701378D01*
X163295692Y-71722281D01*
X163273298Y-71739251D01*
X163249265Y-71753205D01*
X163220637Y-71765056D01*
X163184460Y-71775720D01*
X163137780Y-71786111D01*
X163077641Y-71797146D01*
X163001090Y-71809738D01*
X162905171Y-71824804D01*
X162886808Y-71827838D01*
X162824478Y-71841458D01*
X162779260Y-71857192D01*
X162752976Y-71874263D01*
X162747447Y-71891897D01*
X162750068Y-71896168D01*
X162768000Y-71911233D01*
X162796126Y-71927867D01*
X162808926Y-71933857D01*
X162830224Y-71941050D01*
X162856610Y-71945827D01*
X162892454Y-71948646D01*
X162942128Y-71949964D01*
X163010000Y-71950237D01*
X163027785Y-71950164D01*
X163095406Y-71949053D01*
X163160345Y-71946828D01*
X163215970Y-71943762D01*
X163255651Y-71940127D01*
X163291162Y-71936059D01*
X163320415Y-71935276D01*
X163339315Y-71939876D01*
X163354429Y-71950551D01*
X163358085Y-71954144D01*
X163374427Y-71985918D01*
X163373107Y-72021572D01*
X163354150Y-72052190D01*
X163333780Y-72063796D01*
X163297796Y-72076491D01*
X163255372Y-72086541D01*
X163251922Y-72087140D01*
X163209252Y-72092356D01*
X163151866Y-72096730D01*
X163086849Y-72099818D01*
X163021289Y-72101177D01*
X163005057Y-72101218D01*
X162906744Y-72098741D01*
X162826692Y-72090735D01*
X162761513Y-72076203D01*
X162707817Y-72054149D01*
X162662216Y-72023576D01*
X162621323Y-71983486D01*
X162601202Y-71957259D01*
X162589576Y-71927712D01*
X162586667Y-71887995D01*
X162586808Y-71876026D01*
X162590681Y-71843345D01*
X162603065Y-71816819D01*
X162628230Y-71785971D01*
X162649442Y-71763831D01*
X162675838Y-71741285D01*
X162705555Y-71722917D01*
X162741785Y-71707661D01*
X162787717Y-71694449D01*
X162846544Y-71682214D01*
X162921456Y-71669889D01*
X163015645Y-71656406D01*
X163060957Y-71649396D01*
X163128911Y-71634837D01*
X163178047Y-71618337D01*
X163207614Y-71600439D01*
X163216864Y-71581685D01*
X163205048Y-71562615D01*
X163171416Y-71543771D01*
X163168370Y-71542557D01*
X163122011Y-71530479D01*
X163059361Y-71522279D01*
X162985927Y-71518119D01*
X162907217Y-71518161D01*
X162828739Y-71522569D01*
X162756000Y-71531505D01*
X162752073Y-71532154D01*
X162703257Y-71539861D01*
X162671005Y-71543473D01*
X162650008Y-71542876D01*
X162634954Y-71537954D01*
X162620534Y-71528596D01*
X162619364Y-71527725D01*
X162594847Y-71497351D01*
X162590054Y-71461850D01*
X162605860Y-71427269D01*
X162610406Y-71422813D01*
X162640020Y-71407673D01*
X162687002Y-71394550D01*
X162747306Y-71383750D01*
X162816888Y-71375581D01*
X162891703Y-71370351D01*
X162967706Y-71368367D01*
X163040853Y-71369936D01*
G37*
X159188711Y-67062033D02*
X159284268Y-67079523D01*
X159448558Y-67124564D01*
X159602589Y-67187656D01*
X159748509Y-67269915D01*
X159888466Y-67372457D01*
X160024608Y-67496399D01*
X160068473Y-67541661D01*
X160180758Y-67673865D01*
X160273972Y-67811832D01*
X160350719Y-67959750D01*
X160413603Y-68121803D01*
X160417420Y-68133391D01*
X160467507Y-68319392D01*
X160500899Y-68515521D01*
X160517584Y-68717568D01*
X160517551Y-68921325D01*
X160500791Y-69122581D01*
X160467292Y-69317128D01*
X160417044Y-69500756D01*
X160373190Y-69618053D01*
X160295348Y-69780951D01*
X160201828Y-69934866D01*
X160094822Y-70076671D01*
X159976519Y-70203239D01*
X159849111Y-70311441D01*
X159771606Y-70364120D01*
X159644725Y-70433750D01*
X159507243Y-70492468D01*
X159365716Y-70537587D01*
X159226702Y-70566422D01*
X159212597Y-70568106D01*
X159169153Y-70571434D01*
X159111723Y-70574275D01*
X159046122Y-70576373D01*
X158978167Y-70577468D01*
X158851378Y-70575140D01*
X158703673Y-70562136D01*
X158565779Y-70537133D01*
X158432014Y-70499318D01*
X158408562Y-70490889D01*
X158360612Y-70471408D01*
X158304140Y-70446473D01*
X158242379Y-70417722D01*
X158178563Y-70386790D01*
X158115926Y-70355315D01*
X158057703Y-70324934D01*
X158007127Y-70297283D01*
X157967433Y-70273999D01*
X157941854Y-70256718D01*
X157933625Y-70247079D01*
X157935076Y-70243984D01*
X157946250Y-70224079D01*
X157967134Y-70188420D01*
X157996265Y-70139459D01*
X158032181Y-70079646D01*
X158073420Y-70011433D01*
X158118517Y-69937271D01*
X158299785Y-69640008D01*
X158346315Y-69684539D01*
X158437723Y-69762865D01*
X158551334Y-69837439D01*
X158669122Y-69891474D01*
X158789559Y-69924290D01*
X158911117Y-69935211D01*
X158952585Y-69933868D01*
X159070080Y-69915612D01*
X159180089Y-69876617D01*
X159281430Y-69817670D01*
X159372921Y-69739557D01*
X159453380Y-69643064D01*
X159521627Y-69528978D01*
X159537908Y-69494724D01*
X159583982Y-69371240D01*
X159619106Y-69232918D01*
X159643197Y-69083561D01*
X159656173Y-68926973D01*
X159657949Y-68766956D01*
X159648443Y-68607314D01*
X159627572Y-68451850D01*
X159595252Y-68304366D01*
X159551399Y-68168667D01*
X159513982Y-68082076D01*
X159449185Y-67968688D01*
X159373772Y-67875070D01*
X159287418Y-67800959D01*
X159189795Y-67746094D01*
X159080577Y-67710212D01*
X158959439Y-67693051D01*
X158890038Y-67691880D01*
X158767168Y-67706141D01*
X158651664Y-67741241D01*
X158544953Y-67796682D01*
X158448464Y-67871964D01*
X158432720Y-67886440D01*
X158402150Y-67912962D01*
X158379809Y-67930138D01*
X158369691Y-67934787D01*
X158367706Y-67932597D01*
X158353241Y-67913721D01*
X158329400Y-67880397D01*
X158298029Y-67835380D01*
X158260974Y-67781425D01*
X158220083Y-67721285D01*
X158177202Y-67657718D01*
X158134178Y-67593476D01*
X158092857Y-67531315D01*
X158055086Y-67473991D01*
X158022712Y-67424257D01*
X157997582Y-67384868D01*
X157981542Y-67358580D01*
X157976439Y-67348147D01*
X157981050Y-67343941D01*
X158000267Y-67338933D01*
X158009838Y-67336386D01*
X158037809Y-67325249D01*
X158079448Y-67306802D01*
X158130995Y-67282725D01*
X158188690Y-67254699D01*
X158199957Y-67249154D01*
X158377687Y-67169889D01*
X158547490Y-67110385D01*
X158711430Y-67070245D01*
X158871571Y-67049071D01*
X159029977Y-67046466D01*
X159188711Y-67062033D01*
G36*
X159188711Y-67062033D02*
G01*
X159284268Y-67079523D01*
X159448558Y-67124564D01*
X159602589Y-67187656D01*
X159748509Y-67269915D01*
X159888466Y-67372457D01*
X160024608Y-67496399D01*
X160068473Y-67541661D01*
X160180758Y-67673865D01*
X160273972Y-67811832D01*
X160350719Y-67959750D01*
X160413603Y-68121803D01*
X160417420Y-68133391D01*
X160467507Y-68319392D01*
X160500899Y-68515521D01*
X160517584Y-68717568D01*
X160517551Y-68921325D01*
X160500791Y-69122581D01*
X160467292Y-69317128D01*
X160417044Y-69500756D01*
X160373190Y-69618053D01*
X160295348Y-69780951D01*
X160201828Y-69934866D01*
X160094822Y-70076671D01*
X159976519Y-70203239D01*
X159849111Y-70311441D01*
X159771606Y-70364120D01*
X159644725Y-70433750D01*
X159507243Y-70492468D01*
X159365716Y-70537587D01*
X159226702Y-70566422D01*
X159212597Y-70568106D01*
X159169153Y-70571434D01*
X159111723Y-70574275D01*
X159046122Y-70576373D01*
X158978167Y-70577468D01*
X158851378Y-70575140D01*
X158703673Y-70562136D01*
X158565779Y-70537133D01*
X158432014Y-70499318D01*
X158408562Y-70490889D01*
X158360612Y-70471408D01*
X158304140Y-70446473D01*
X158242379Y-70417722D01*
X158178563Y-70386790D01*
X158115926Y-70355315D01*
X158057703Y-70324934D01*
X158007127Y-70297283D01*
X157967433Y-70273999D01*
X157941854Y-70256718D01*
X157933625Y-70247079D01*
X157935076Y-70243984D01*
X157946250Y-70224079D01*
X157967134Y-70188420D01*
X157996265Y-70139459D01*
X158032181Y-70079646D01*
X158073420Y-70011433D01*
X158118517Y-69937271D01*
X158299785Y-69640008D01*
X158346315Y-69684539D01*
X158437723Y-69762865D01*
X158551334Y-69837439D01*
X158669122Y-69891474D01*
X158789559Y-69924290D01*
X158911117Y-69935211D01*
X158952585Y-69933868D01*
X159070080Y-69915612D01*
X159180089Y-69876617D01*
X159281430Y-69817670D01*
X159372921Y-69739557D01*
X159453380Y-69643064D01*
X159521627Y-69528978D01*
X159537908Y-69494724D01*
X159583982Y-69371240D01*
X159619106Y-69232918D01*
X159643197Y-69083561D01*
X159656173Y-68926973D01*
X159657949Y-68766956D01*
X159648443Y-68607314D01*
X159627572Y-68451850D01*
X159595252Y-68304366D01*
X159551399Y-68168667D01*
X159513982Y-68082076D01*
X159449185Y-67968688D01*
X159373772Y-67875070D01*
X159287418Y-67800959D01*
X159189795Y-67746094D01*
X159080577Y-67710212D01*
X158959439Y-67693051D01*
X158890038Y-67691880D01*
X158767168Y-67706141D01*
X158651664Y-67741241D01*
X158544953Y-67796682D01*
X158448464Y-67871964D01*
X158432720Y-67886440D01*
X158402150Y-67912962D01*
X158379809Y-67930138D01*
X158369691Y-67934787D01*
X158367706Y-67932597D01*
X158353241Y-67913721D01*
X158329400Y-67880397D01*
X158298029Y-67835380D01*
X158260974Y-67781425D01*
X158220083Y-67721285D01*
X158177202Y-67657718D01*
X158134178Y-67593476D01*
X158092857Y-67531315D01*
X158055086Y-67473991D01*
X158022712Y-67424257D01*
X157997582Y-67384868D01*
X157981542Y-67358580D01*
X157976439Y-67348147D01*
X157981050Y-67343941D01*
X158000267Y-67338933D01*
X158009838Y-67336386D01*
X158037809Y-67325249D01*
X158079448Y-67306802D01*
X158130995Y-67282725D01*
X158188690Y-67254699D01*
X158199957Y-67249154D01*
X158377687Y-67169889D01*
X158547490Y-67110385D01*
X158711430Y-67070245D01*
X158871571Y-67049071D01*
X159029977Y-67046466D01*
X159188711Y-67062033D01*
G37*
X155385994Y-69342711D02*
X155385268Y-69420158D01*
X155376689Y-69571594D01*
X155357833Y-69708283D01*
X155327837Y-69834276D01*
X155285836Y-69953625D01*
X155230969Y-70070381D01*
X155164167Y-70181179D01*
X155073363Y-70294739D01*
X154969708Y-70390211D01*
X154853887Y-70467073D01*
X154726586Y-70524797D01*
X154588489Y-70562858D01*
X154550793Y-70568666D01*
X154471752Y-70574396D01*
X154383629Y-70574583D01*
X154294236Y-70569539D01*
X154211384Y-70559578D01*
X154142887Y-70545012D01*
X154112035Y-70535364D01*
X154034730Y-70505123D01*
X153957679Y-70467617D01*
X153888200Y-70426614D01*
X153833615Y-70385879D01*
X153810916Y-70366505D01*
X153788201Y-70348662D01*
X153776779Y-70341778D01*
X153775537Y-70343424D01*
X153772728Y-70361205D01*
X153770776Y-70394370D01*
X153770045Y-70437733D01*
X153770045Y-70533689D01*
X152911896Y-70533689D01*
X152946161Y-70472974D01*
X152951355Y-70463868D01*
X152959715Y-70449249D01*
X152967288Y-70435173D01*
X152974112Y-70420540D01*
X152980227Y-70404249D01*
X152985673Y-70385198D01*
X152990487Y-70362286D01*
X152994708Y-70334413D01*
X152998377Y-70300478D01*
X153001531Y-70259379D01*
X153004211Y-70210015D01*
X153006454Y-70151286D01*
X153008299Y-70082090D01*
X153009787Y-70001326D01*
X153010955Y-69907894D01*
X153011678Y-69820721D01*
X153815200Y-69820721D01*
X153885756Y-69867089D01*
X153926417Y-69890791D01*
X153980546Y-69916639D01*
X154029689Y-69934829D01*
X154093165Y-69950551D01*
X154189331Y-69961541D01*
X154273900Y-69953365D01*
X154347219Y-69925805D01*
X154409637Y-69878642D01*
X154461502Y-69811658D01*
X154503160Y-69724633D01*
X154534962Y-69617350D01*
X154537545Y-69605009D01*
X154546000Y-69543772D01*
X154551663Y-69466692D01*
X154554576Y-69379002D01*
X154554783Y-69285934D01*
X154552330Y-69192720D01*
X154547261Y-69104594D01*
X154539619Y-69026788D01*
X154529448Y-68964533D01*
X154528167Y-68958666D01*
X154499126Y-68848121D01*
X154464610Y-68757575D01*
X154423456Y-68684953D01*
X154374499Y-68628181D01*
X154316574Y-68585184D01*
X154284620Y-68569615D01*
X154211784Y-68550722D01*
X154130443Y-68547465D01*
X154045319Y-68559389D01*
X153961133Y-68586040D01*
X153882608Y-68626962D01*
X153815200Y-68670530D01*
X153815200Y-69820721D01*
X153011678Y-69820721D01*
X153011844Y-69800692D01*
X153012491Y-69678620D01*
X153012936Y-69540576D01*
X153013218Y-69385459D01*
X153013375Y-69212168D01*
X153013448Y-69019603D01*
X153013474Y-68806662D01*
X153013493Y-68572245D01*
X153013689Y-66887378D01*
X153919017Y-66887378D01*
X153894585Y-66924067D01*
X153888318Y-66933647D01*
X153862208Y-66979981D01*
X153844469Y-67027102D01*
X153832908Y-67082251D01*
X153825331Y-67152667D01*
X153824839Y-67159650D01*
X153823062Y-67197641D01*
X153821444Y-67251576D01*
X153819999Y-67318703D01*
X153818740Y-67396271D01*
X153817680Y-67481528D01*
X153816829Y-67571724D01*
X153816203Y-67664107D01*
X153815812Y-67755925D01*
X153815670Y-67844427D01*
X153815790Y-67926862D01*
X153816183Y-68000479D01*
X153816862Y-68062526D01*
X153817841Y-68110251D01*
X153819132Y-68140904D01*
X153820747Y-68151733D01*
X153828957Y-68147333D01*
X153850647Y-68132362D01*
X153880014Y-68110448D01*
X153928879Y-68076236D01*
X154017125Y-68029714D01*
X154115916Y-67996046D01*
X154228510Y-67974231D01*
X154358164Y-67963265D01*
X154450670Y-67962219D01*
X154572011Y-67972014D01*
X154682099Y-67996174D01*
X154785389Y-68035785D01*
X154886338Y-68091932D01*
X154931503Y-68122883D01*
X155036911Y-68214115D01*
X155128538Y-68323106D01*
X155206332Y-68449726D01*
X155270241Y-68593845D01*
X155320214Y-68755332D01*
X155356198Y-68934059D01*
X155378143Y-69129895D01*
X155383900Y-69285934D01*
X155385994Y-69342711D01*
G36*
X155385994Y-69342711D02*
G01*
X155385268Y-69420158D01*
X155376689Y-69571594D01*
X155357833Y-69708283D01*
X155327837Y-69834276D01*
X155285836Y-69953625D01*
X155230969Y-70070381D01*
X155164167Y-70181179D01*
X155073363Y-70294739D01*
X154969708Y-70390211D01*
X154853887Y-70467073D01*
X154726586Y-70524797D01*
X154588489Y-70562858D01*
X154550793Y-70568666D01*
X154471752Y-70574396D01*
X154383629Y-70574583D01*
X154294236Y-70569539D01*
X154211384Y-70559578D01*
X154142887Y-70545012D01*
X154112035Y-70535364D01*
X154034730Y-70505123D01*
X153957679Y-70467617D01*
X153888200Y-70426614D01*
X153833615Y-70385879D01*
X153810916Y-70366505D01*
X153788201Y-70348662D01*
X153776779Y-70341778D01*
X153775537Y-70343424D01*
X153772728Y-70361205D01*
X153770776Y-70394370D01*
X153770045Y-70437733D01*
X153770045Y-70533689D01*
X152911896Y-70533689D01*
X152946161Y-70472974D01*
X152951355Y-70463868D01*
X152959715Y-70449249D01*
X152967288Y-70435173D01*
X152974112Y-70420540D01*
X152980227Y-70404249D01*
X152985673Y-70385198D01*
X152990487Y-70362286D01*
X152994708Y-70334413D01*
X152998377Y-70300478D01*
X153001531Y-70259379D01*
X153004211Y-70210015D01*
X153006454Y-70151286D01*
X153008299Y-70082090D01*
X153009787Y-70001326D01*
X153010955Y-69907894D01*
X153011678Y-69820721D01*
X153815200Y-69820721D01*
X153885756Y-69867089D01*
X153926417Y-69890791D01*
X153980546Y-69916639D01*
X154029689Y-69934829D01*
X154093165Y-69950551D01*
X154189331Y-69961541D01*
X154273900Y-69953365D01*
X154347219Y-69925805D01*
X154409637Y-69878642D01*
X154461502Y-69811658D01*
X154503160Y-69724633D01*
X154534962Y-69617350D01*
X154537545Y-69605009D01*
X154546000Y-69543772D01*
X154551663Y-69466692D01*
X154554576Y-69379002D01*
X154554783Y-69285934D01*
X154552330Y-69192720D01*
X154547261Y-69104594D01*
X154539619Y-69026788D01*
X154529448Y-68964533D01*
X154528167Y-68958666D01*
X154499126Y-68848121D01*
X154464610Y-68757575D01*
X154423456Y-68684953D01*
X154374499Y-68628181D01*
X154316574Y-68585184D01*
X154284620Y-68569615D01*
X154211784Y-68550722D01*
X154130443Y-68547465D01*
X154045319Y-68559389D01*
X153961133Y-68586040D01*
X153882608Y-68626962D01*
X153815200Y-68670530D01*
X153815200Y-69820721D01*
X153011678Y-69820721D01*
X153011844Y-69800692D01*
X153012491Y-69678620D01*
X153012936Y-69540576D01*
X153013218Y-69385459D01*
X153013375Y-69212168D01*
X153013448Y-69019603D01*
X153013474Y-68806662D01*
X153013493Y-68572245D01*
X153013689Y-66887378D01*
X153919017Y-66887378D01*
X153894585Y-66924067D01*
X153888318Y-66933647D01*
X153862208Y-66979981D01*
X153844469Y-67027102D01*
X153832908Y-67082251D01*
X153825331Y-67152667D01*
X153824839Y-67159650D01*
X153823062Y-67197641D01*
X153821444Y-67251576D01*
X153819999Y-67318703D01*
X153818740Y-67396271D01*
X153817680Y-67481528D01*
X153816829Y-67571724D01*
X153816203Y-67664107D01*
X153815812Y-67755925D01*
X153815670Y-67844427D01*
X153815790Y-67926862D01*
X153816183Y-68000479D01*
X153816862Y-68062526D01*
X153817841Y-68110251D01*
X153819132Y-68140904D01*
X153820747Y-68151733D01*
X153828957Y-68147333D01*
X153850647Y-68132362D01*
X153880014Y-68110448D01*
X153928879Y-68076236D01*
X154017125Y-68029714D01*
X154115916Y-67996046D01*
X154228510Y-67974231D01*
X154358164Y-67963265D01*
X154450670Y-67962219D01*
X154572011Y-67972014D01*
X154682099Y-67996174D01*
X154785389Y-68035785D01*
X154886338Y-68091932D01*
X154931503Y-68122883D01*
X155036911Y-68214115D01*
X155128538Y-68323106D01*
X155206332Y-68449726D01*
X155270241Y-68593845D01*
X155320214Y-68755332D01*
X155356198Y-68934059D01*
X155378143Y-69129895D01*
X155383900Y-69285934D01*
X155385994Y-69342711D01*
G37*
X157927755Y-69743467D02*
X157927261Y-69777363D01*
X157923632Y-69852202D01*
X157916022Y-69914401D01*
X157903688Y-69970984D01*
X157859313Y-70097076D01*
X157796400Y-70211679D01*
X157716238Y-70312568D01*
X157619740Y-70398924D01*
X157507822Y-70469932D01*
X157381397Y-70524776D01*
X157241378Y-70562638D01*
X157205149Y-70568351D01*
X157126155Y-70574313D01*
X157037841Y-70574646D01*
X156948075Y-70569659D01*
X156864722Y-70559666D01*
X156795651Y-70544978D01*
X156709187Y-70514749D01*
X156599286Y-70460057D01*
X156501956Y-70392543D01*
X156439867Y-70341556D01*
X156436605Y-70437622D01*
X156433343Y-70533689D01*
X156010450Y-70533689D01*
X155999543Y-70533686D01*
X155905056Y-70533380D01*
X155818331Y-70532616D01*
X155741837Y-70531451D01*
X155678043Y-70529942D01*
X155629418Y-70528147D01*
X155598433Y-70526121D01*
X155587556Y-70523922D01*
X155587578Y-70523463D01*
X155594614Y-70507910D01*
X155610434Y-70485071D01*
X155614734Y-70479638D01*
X155625777Y-70465606D01*
X155635311Y-70452186D01*
X155643461Y-70437722D01*
X155650352Y-70420556D01*
X155656111Y-70399034D01*
X155660862Y-70371498D01*
X155664731Y-70336292D01*
X155667844Y-70291760D01*
X155670325Y-70236246D01*
X155672300Y-70168093D01*
X155673894Y-70085645D01*
X155675234Y-69987246D01*
X155676444Y-69871239D01*
X155676896Y-69820462D01*
X156479378Y-69820462D01*
X156524048Y-69876973D01*
X156536785Y-69892212D01*
X156583604Y-69934844D01*
X156644255Y-69970672D01*
X156654897Y-69975850D01*
X156693676Y-69992745D01*
X156728692Y-70002909D01*
X156768722Y-70008325D01*
X156822541Y-70010978D01*
X156840648Y-70011383D01*
X156916011Y-70008540D01*
X156976743Y-69996620D01*
X157028452Y-69974037D01*
X157076746Y-69939211D01*
X157081803Y-69934798D01*
X157130272Y-69879160D01*
X157158459Y-69815333D01*
X157167752Y-69740282D01*
X157160520Y-69668693D01*
X157135796Y-69605645D01*
X157091249Y-69547758D01*
X157036319Y-69500808D01*
X156963894Y-69460961D01*
X156877340Y-69433263D01*
X156774670Y-69417096D01*
X156653894Y-69411842D01*
X156645007Y-69411857D01*
X156589660Y-69412655D01*
X156542736Y-69414488D01*
X156508953Y-69417111D01*
X156493028Y-69420274D01*
X156488943Y-69426741D01*
X156484572Y-69448875D01*
X156481604Y-69487988D01*
X156479914Y-69545939D01*
X156479378Y-69624586D01*
X156479378Y-69820462D01*
X155676896Y-69820462D01*
X155677649Y-69735968D01*
X155678975Y-69579778D01*
X155680228Y-69437012D01*
X155681651Y-69291942D01*
X155683176Y-69166027D01*
X155684933Y-69057436D01*
X155687051Y-68964334D01*
X155689660Y-68884891D01*
X155692890Y-68817273D01*
X155696869Y-68759649D01*
X155701728Y-68710185D01*
X155707597Y-68667050D01*
X155714604Y-68628410D01*
X155722880Y-68592434D01*
X155732554Y-68557289D01*
X155743756Y-68521142D01*
X155756616Y-68482161D01*
X155772090Y-68439091D01*
X155814994Y-68346871D01*
X155868735Y-68267099D01*
X155937576Y-68192965D01*
X156015185Y-68129405D01*
X156119761Y-68067725D01*
X156239244Y-68020202D01*
X156374508Y-67986567D01*
X156526426Y-67966552D01*
X156695872Y-67959889D01*
X156753890Y-67960287D01*
X156819398Y-67962335D01*
X156880693Y-67966704D01*
X156942097Y-67974035D01*
X157007932Y-67984969D01*
X157082520Y-68000147D01*
X157170184Y-68020209D01*
X157275245Y-68045797D01*
X157303806Y-68052820D01*
X157379054Y-68070776D01*
X157449388Y-68086820D01*
X157510567Y-68100028D01*
X157558354Y-68109474D01*
X157588511Y-68114231D01*
X157616783Y-68117910D01*
X157643060Y-68123187D01*
X157653059Y-68127942D01*
X157649952Y-68136781D01*
X157639194Y-68164072D01*
X157621864Y-68206906D01*
X157599126Y-68262425D01*
X157572147Y-68327772D01*
X157542090Y-68400089D01*
X157535493Y-68415879D01*
X157496907Y-68506484D01*
X157465768Y-68576217D01*
X157441917Y-68625405D01*
X157425198Y-68654374D01*
X157415454Y-68663452D01*
X157407766Y-68661405D01*
X157381415Y-68651760D01*
X157342982Y-68636190D01*
X157297822Y-68616815D01*
X157203293Y-68578814D01*
X157066480Y-68537780D01*
X156925289Y-68512612D01*
X156887314Y-68508611D01*
X156784059Y-68506447D01*
X156696952Y-68519622D01*
X156625129Y-68548756D01*
X156567731Y-68594466D01*
X156523896Y-68657372D01*
X156492762Y-68738092D01*
X156473470Y-68837245D01*
X156466050Y-68896224D01*
X156627936Y-68889445D01*
X156754495Y-68887813D01*
X156905951Y-68894194D01*
X157054396Y-68908777D01*
X157190578Y-68930882D01*
X157255245Y-68945821D01*
X157387490Y-68988741D01*
X157509762Y-69045340D01*
X157619685Y-69114017D01*
X157714883Y-69193170D01*
X157792980Y-69281196D01*
X157851599Y-69376493D01*
X157875595Y-69428864D01*
X157901232Y-69499590D01*
X157917478Y-69570812D01*
X157925822Y-69649712D01*
X157927690Y-69740282D01*
X157927755Y-69743467D01*
G36*
X157927755Y-69743467D02*
G01*
X157927261Y-69777363D01*
X157923632Y-69852202D01*
X157916022Y-69914401D01*
X157903688Y-69970984D01*
X157859313Y-70097076D01*
X157796400Y-70211679D01*
X157716238Y-70312568D01*
X157619740Y-70398924D01*
X157507822Y-70469932D01*
X157381397Y-70524776D01*
X157241378Y-70562638D01*
X157205149Y-70568351D01*
X157126155Y-70574313D01*
X157037841Y-70574646D01*
X156948075Y-70569659D01*
X156864722Y-70559666D01*
X156795651Y-70544978D01*
X156709187Y-70514749D01*
X156599286Y-70460057D01*
X156501956Y-70392543D01*
X156439867Y-70341556D01*
X156436605Y-70437622D01*
X156433343Y-70533689D01*
X156010450Y-70533689D01*
X155999543Y-70533686D01*
X155905056Y-70533380D01*
X155818331Y-70532616D01*
X155741837Y-70531451D01*
X155678043Y-70529942D01*
X155629418Y-70528147D01*
X155598433Y-70526121D01*
X155587556Y-70523922D01*
X155587578Y-70523463D01*
X155594614Y-70507910D01*
X155610434Y-70485071D01*
X155614734Y-70479638D01*
X155625777Y-70465606D01*
X155635311Y-70452186D01*
X155643461Y-70437722D01*
X155650352Y-70420556D01*
X155656111Y-70399034D01*
X155660862Y-70371498D01*
X155664731Y-70336292D01*
X155667844Y-70291760D01*
X155670325Y-70236246D01*
X155672300Y-70168093D01*
X155673894Y-70085645D01*
X155675234Y-69987246D01*
X155676444Y-69871239D01*
X155676896Y-69820462D01*
X156479378Y-69820462D01*
X156524048Y-69876973D01*
X156536785Y-69892212D01*
X156583604Y-69934844D01*
X156644255Y-69970672D01*
X156654897Y-69975850D01*
X156693676Y-69992745D01*
X156728692Y-70002909D01*
X156768722Y-70008325D01*
X156822541Y-70010978D01*
X156840648Y-70011383D01*
X156916011Y-70008540D01*
X156976743Y-69996620D01*
X157028452Y-69974037D01*
X157076746Y-69939211D01*
X157081803Y-69934798D01*
X157130272Y-69879160D01*
X157158459Y-69815333D01*
X157167752Y-69740282D01*
X157160520Y-69668693D01*
X157135796Y-69605645D01*
X157091249Y-69547758D01*
X157036319Y-69500808D01*
X156963894Y-69460961D01*
X156877340Y-69433263D01*
X156774670Y-69417096D01*
X156653894Y-69411842D01*
X156645007Y-69411857D01*
X156589660Y-69412655D01*
X156542736Y-69414488D01*
X156508953Y-69417111D01*
X156493028Y-69420274D01*
X156488943Y-69426741D01*
X156484572Y-69448875D01*
X156481604Y-69487988D01*
X156479914Y-69545939D01*
X156479378Y-69624586D01*
X156479378Y-69820462D01*
X155676896Y-69820462D01*
X155677649Y-69735968D01*
X155678975Y-69579778D01*
X155680228Y-69437012D01*
X155681651Y-69291942D01*
X155683176Y-69166027D01*
X155684933Y-69057436D01*
X155687051Y-68964334D01*
X155689660Y-68884891D01*
X155692890Y-68817273D01*
X155696869Y-68759649D01*
X155701728Y-68710185D01*
X155707597Y-68667050D01*
X155714604Y-68628410D01*
X155722880Y-68592434D01*
X155732554Y-68557289D01*
X155743756Y-68521142D01*
X155756616Y-68482161D01*
X155772090Y-68439091D01*
X155814994Y-68346871D01*
X155868735Y-68267099D01*
X155937576Y-68192965D01*
X156015185Y-68129405D01*
X156119761Y-68067725D01*
X156239244Y-68020202D01*
X156374508Y-67986567D01*
X156526426Y-67966552D01*
X156695872Y-67959889D01*
X156753890Y-67960287D01*
X156819398Y-67962335D01*
X156880693Y-67966704D01*
X156942097Y-67974035D01*
X157007932Y-67984969D01*
X157082520Y-68000147D01*
X157170184Y-68020209D01*
X157275245Y-68045797D01*
X157303806Y-68052820D01*
X157379054Y-68070776D01*
X157449388Y-68086820D01*
X157510567Y-68100028D01*
X157558354Y-68109474D01*
X157588511Y-68114231D01*
X157616783Y-68117910D01*
X157643060Y-68123187D01*
X157653059Y-68127942D01*
X157649952Y-68136781D01*
X157639194Y-68164072D01*
X157621864Y-68206906D01*
X157599126Y-68262425D01*
X157572147Y-68327772D01*
X157542090Y-68400089D01*
X157535493Y-68415879D01*
X157496907Y-68506484D01*
X157465768Y-68576217D01*
X157441917Y-68625405D01*
X157425198Y-68654374D01*
X157415454Y-68663452D01*
X157407766Y-68661405D01*
X157381415Y-68651760D01*
X157342982Y-68636190D01*
X157297822Y-68616815D01*
X157203293Y-68578814D01*
X157066480Y-68537780D01*
X156925289Y-68512612D01*
X156887314Y-68508611D01*
X156784059Y-68506447D01*
X156696952Y-68519622D01*
X156625129Y-68548756D01*
X156567731Y-68594466D01*
X156523896Y-68657372D01*
X156492762Y-68738092D01*
X156473470Y-68837245D01*
X156466050Y-68896224D01*
X156627936Y-68889445D01*
X156754495Y-68887813D01*
X156905951Y-68894194D01*
X157054396Y-68908777D01*
X157190578Y-68930882D01*
X157255245Y-68945821D01*
X157387490Y-68988741D01*
X157509762Y-69045340D01*
X157619685Y-69114017D01*
X157714883Y-69193170D01*
X157792980Y-69281196D01*
X157851599Y-69376493D01*
X157875595Y-69428864D01*
X157901232Y-69499590D01*
X157917478Y-69570812D01*
X157925822Y-69649712D01*
X157927690Y-69740282D01*
X157927755Y-69743467D01*
G37*
X165475614Y-67211792D02*
X165476059Y-67343011D01*
X165476362Y-67490216D01*
X165476548Y-67654349D01*
X165476642Y-67836352D01*
X165476671Y-68037165D01*
X165476661Y-68257732D01*
X165476636Y-68498992D01*
X165476622Y-68761889D01*
X165476622Y-68804040D01*
X165476646Y-69064668D01*
X165476685Y-69303796D01*
X165476708Y-69522360D01*
X165476687Y-69721295D01*
X165476593Y-69901535D01*
X165476395Y-70064015D01*
X165476063Y-70209670D01*
X165475569Y-70339434D01*
X165474883Y-70454243D01*
X165473976Y-70555030D01*
X165472817Y-70642730D01*
X165471378Y-70718279D01*
X165469629Y-70782611D01*
X165467540Y-70836661D01*
X165465083Y-70881363D01*
X165462227Y-70917652D01*
X165458943Y-70946463D01*
X165455202Y-70968731D01*
X165450974Y-70985390D01*
X165446229Y-70997375D01*
X165440939Y-71005621D01*
X165435073Y-71011062D01*
X165428602Y-71014634D01*
X165421497Y-71017270D01*
X165413728Y-71019906D01*
X165405266Y-71023477D01*
X165400908Y-71025145D01*
X165392395Y-71027111D01*
X165379694Y-71028911D01*
X165361885Y-71030555D01*
X165338049Y-71032047D01*
X165307266Y-71033397D01*
X165268617Y-71034611D01*
X165221182Y-71035697D01*
X165164043Y-71036661D01*
X165096279Y-71037511D01*
X165016971Y-71038253D01*
X164925199Y-71038897D01*
X164820044Y-71039447D01*
X164700587Y-71039913D01*
X164565908Y-71040300D01*
X164415088Y-71040616D01*
X164247206Y-71040869D01*
X164061345Y-71041066D01*
X163856583Y-71041213D01*
X163632002Y-71041318D01*
X163386682Y-71041389D01*
X163119704Y-71041432D01*
X163081321Y-71041437D01*
X162815922Y-71041480D01*
X162572050Y-71041525D01*
X162348783Y-71041548D01*
X162145196Y-71041524D01*
X161960367Y-71041430D01*
X161793373Y-71041243D01*
X161643290Y-71040939D01*
X161509196Y-71040494D01*
X161390166Y-71039885D01*
X161285279Y-71039089D01*
X161193610Y-71038080D01*
X161114237Y-71036837D01*
X161046237Y-71035335D01*
X160988686Y-71033551D01*
X160940662Y-71031461D01*
X160901240Y-71029042D01*
X160869499Y-71026270D01*
X160844514Y-71023121D01*
X160825364Y-71019572D01*
X160811123Y-71015598D01*
X160800871Y-71011178D01*
X160793682Y-71006286D01*
X160788635Y-71000900D01*
X160784805Y-70994996D01*
X160781271Y-70988549D01*
X160777108Y-70981537D01*
X160776025Y-70979687D01*
X160773813Y-70974180D01*
X160771786Y-70965868D01*
X160769938Y-70953809D01*
X160768261Y-70937063D01*
X160766745Y-70914687D01*
X160765383Y-70885740D01*
X160764167Y-70849280D01*
X160763089Y-70804367D01*
X160762140Y-70750057D01*
X160761312Y-70685410D01*
X160760597Y-70609484D01*
X160759987Y-70521338D01*
X160759942Y-70512493D01*
X161051378Y-70512493D01*
X161055260Y-70513765D01*
X161078520Y-70515791D01*
X161120874Y-70517626D01*
X161180132Y-70519227D01*
X161254107Y-70520549D01*
X161340610Y-70521548D01*
X161437452Y-70522180D01*
X161542445Y-70522400D01*
X162240651Y-70522400D01*
X163395090Y-70522400D01*
X163394456Y-70446200D01*
X163395574Y-70404160D01*
X163401304Y-70368334D01*
X163413890Y-70330772D01*
X163435568Y-70282577D01*
X163438789Y-70275897D01*
X163464188Y-70226359D01*
X163490996Y-70178369D01*
X163513917Y-70141466D01*
X163518485Y-70134834D01*
X163540516Y-70103593D01*
X163572693Y-70058654D01*
X163613457Y-70002147D01*
X163661245Y-69936204D01*
X163714498Y-69862957D01*
X163771655Y-69784536D01*
X163831155Y-69703072D01*
X163891437Y-69620698D01*
X163950940Y-69539544D01*
X164008105Y-69461742D01*
X164061370Y-69389423D01*
X164109174Y-69324718D01*
X164149957Y-69269759D01*
X164182158Y-69226676D01*
X164204216Y-69197602D01*
X164214571Y-69184667D01*
X164219044Y-69180351D01*
X164223236Y-69178312D01*
X164226643Y-69180926D01*
X164229325Y-69189986D01*
X164231341Y-69207285D01*
X164232748Y-69234614D01*
X164233605Y-69273765D01*
X164233970Y-69326533D01*
X164233903Y-69394707D01*
X164233460Y-69480082D01*
X164232702Y-69584449D01*
X164231685Y-69709600D01*
X164231308Y-69754300D01*
X164230169Y-69875395D01*
X164228972Y-69976688D01*
X164227636Y-70060262D01*
X164226077Y-70128204D01*
X164224215Y-70182599D01*
X164221966Y-70225532D01*
X164219248Y-70259089D01*
X164215979Y-70285355D01*
X164212078Y-70306416D01*
X164207461Y-70324357D01*
X164199192Y-70350770D01*
X164175583Y-70412772D01*
X164149685Y-70465573D01*
X164124535Y-70502645D01*
X164123339Y-70504075D01*
X164121168Y-70508424D01*
X164123328Y-70512026D01*
X164131644Y-70514951D01*
X164147940Y-70517269D01*
X164174041Y-70519051D01*
X164211771Y-70520367D01*
X164262956Y-70521286D01*
X164329420Y-70521878D01*
X164412987Y-70522215D01*
X164515483Y-70522365D01*
X164638732Y-70522400D01*
X165170296Y-70522400D01*
X165131523Y-70464783D01*
X165125432Y-70455893D01*
X165114976Y-70441069D01*
X165105579Y-70427422D01*
X165097183Y-70413765D01*
X165089733Y-70398911D01*
X165083173Y-70381670D01*
X165077446Y-70360855D01*
X165072495Y-70335280D01*
X165068266Y-70303755D01*
X165064701Y-70265093D01*
X165061744Y-70218107D01*
X165059340Y-70161608D01*
X165057431Y-70094409D01*
X165055962Y-70015322D01*
X165054876Y-69923160D01*
X165054118Y-69816734D01*
X165053630Y-69694857D01*
X165053358Y-69556341D01*
X165053243Y-69399999D01*
X165053231Y-69224642D01*
X165053265Y-69029082D01*
X165053289Y-68812133D01*
X165053280Y-68689513D01*
X165053243Y-68484447D01*
X165053227Y-68300116D01*
X165053288Y-68135334D01*
X165053484Y-67988916D01*
X165053870Y-67859674D01*
X165054505Y-67746422D01*
X165055444Y-67647975D01*
X165056745Y-67563144D01*
X165058464Y-67490744D01*
X165060659Y-67429589D01*
X165063385Y-67378492D01*
X165066701Y-67336267D01*
X165070662Y-67301727D01*
X165075325Y-67273686D01*
X165080747Y-67250958D01*
X165086986Y-67232356D01*
X165094097Y-67216693D01*
X165102138Y-67202784D01*
X165111166Y-67189441D01*
X165121236Y-67175479D01*
X165132407Y-67159711D01*
X165172197Y-67101867D01*
X164112314Y-67101867D01*
X164150311Y-67164966D01*
X164164993Y-67190005D01*
X164179531Y-67217586D01*
X164191627Y-67245700D01*
X164201532Y-67276551D01*
X164209494Y-67312344D01*
X164215761Y-67355283D01*
X164220582Y-67407574D01*
X164224206Y-67471419D01*
X164226881Y-67549025D01*
X164228857Y-67642594D01*
X164230382Y-67754333D01*
X164231704Y-67886445D01*
X164232613Y-68006434D01*
X164233020Y-68123063D01*
X164232767Y-68218531D01*
X164231857Y-68292556D01*
X164230293Y-68344855D01*
X164228079Y-68375149D01*
X164225220Y-68383156D01*
X164222161Y-68379858D01*
X164204006Y-68358408D01*
X164174275Y-68321889D01*
X164134639Y-68272442D01*
X164086771Y-68212207D01*
X164032343Y-68143327D01*
X163973027Y-68067943D01*
X163910495Y-67988196D01*
X163846421Y-67906228D01*
X163782475Y-67824180D01*
X163720331Y-67744194D01*
X163661661Y-67668411D01*
X163608137Y-67598973D01*
X163561430Y-67538021D01*
X163523214Y-67487696D01*
X163495161Y-67450140D01*
X163478943Y-67427495D01*
X163433635Y-67355212D01*
X163393661Y-67275463D01*
X163372130Y-67207188D01*
X163368827Y-67149844D01*
X163374116Y-67101867D01*
X162242356Y-67102117D01*
X162281867Y-67132722D01*
X162291248Y-67140089D01*
X162354183Y-67194438D01*
X162422997Y-67262259D01*
X162499596Y-67345516D01*
X162585888Y-67446178D01*
X162603052Y-67466847D01*
X162643833Y-67516409D01*
X162693588Y-67577326D01*
X162750955Y-67647898D01*
X162814569Y-67726424D01*
X162883069Y-67811204D01*
X162955090Y-67900537D01*
X163029270Y-67992722D01*
X163044517Y-68011702D01*
X163104246Y-68086060D01*
X163178653Y-68178848D01*
X163251131Y-68269388D01*
X163320314Y-68355978D01*
X163384841Y-68436918D01*
X163443347Y-68510506D01*
X163494470Y-68575044D01*
X163536847Y-68628829D01*
X163569115Y-68670162D01*
X163589910Y-68697342D01*
X163597869Y-68708668D01*
X163596111Y-68712771D01*
X163583230Y-68733334D01*
X163558885Y-68769561D01*
X163524247Y-68819824D01*
X163480486Y-68882492D01*
X163428775Y-68955936D01*
X163370284Y-69038527D01*
X163306184Y-69128636D01*
X163237646Y-69224631D01*
X163165843Y-69324885D01*
X163091944Y-69427768D01*
X163017121Y-69531650D01*
X162942545Y-69634901D01*
X162869387Y-69735892D01*
X162798819Y-69832994D01*
X162732011Y-69924577D01*
X162670135Y-70009011D01*
X162614361Y-70084667D01*
X162565862Y-70149916D01*
X162525807Y-70203128D01*
X162495369Y-70242673D01*
X162474944Y-70268026D01*
X162428899Y-70322295D01*
X162378612Y-70378775D01*
X162331815Y-70428669D01*
X162240651Y-70522400D01*
X161542445Y-70522400D01*
X161611356Y-70522349D01*
X161709607Y-70522091D01*
X161799030Y-70521637D01*
X161877333Y-70521010D01*
X161942223Y-70520235D01*
X161991411Y-70519335D01*
X162022604Y-70518334D01*
X162033511Y-70517257D01*
X162032322Y-70514037D01*
X162022176Y-70496452D01*
X162005040Y-70470158D01*
X161996540Y-70457691D01*
X161987329Y-70443622D01*
X161979233Y-70429351D01*
X161972185Y-70413479D01*
X161966117Y-70394609D01*
X161960961Y-70371341D01*
X161956651Y-70342278D01*
X161953119Y-70306021D01*
X161950297Y-70261170D01*
X161948118Y-70206328D01*
X161946514Y-70140097D01*
X161945419Y-70061077D01*
X161944765Y-69967871D01*
X161944484Y-69859079D01*
X161944509Y-69733303D01*
X161944772Y-69589145D01*
X161945206Y-69425207D01*
X161945745Y-69240089D01*
X161946279Y-69061232D01*
X161946805Y-68902374D01*
X161947350Y-68763316D01*
X161947945Y-68642665D01*
X161948619Y-68539028D01*
X161949403Y-68451011D01*
X161950326Y-68377223D01*
X161951419Y-68316269D01*
X161952712Y-68266757D01*
X161954235Y-68227293D01*
X161956019Y-68196484D01*
X161958092Y-68172938D01*
X161960486Y-68155260D01*
X161963230Y-68142059D01*
X161966356Y-68131940D01*
X161969892Y-68123511D01*
X161973791Y-68115375D01*
X161993438Y-68078544D01*
X162012225Y-68048391D01*
X162013272Y-68046908D01*
X162027602Y-68024659D01*
X162033511Y-68011702D01*
X162032504Y-68011249D01*
X162015305Y-68009803D01*
X161978656Y-68008480D01*
X161924962Y-68007316D01*
X161856630Y-68006347D01*
X161776064Y-68005611D01*
X161685670Y-68005142D01*
X161587853Y-68004978D01*
X161142195Y-68004978D01*
X161139120Y-69181845D01*
X161136045Y-70358711D01*
X161109407Y-70417622D01*
X161097485Y-70442183D01*
X161080246Y-70472434D01*
X161067074Y-70489560D01*
X161059076Y-70497591D01*
X161051378Y-70512493D01*
X160759942Y-70512493D01*
X160759474Y-70420029D01*
X160759050Y-70304617D01*
X160758706Y-70174160D01*
X160758434Y-70027716D01*
X160758227Y-69864344D01*
X160758076Y-69683101D01*
X160757972Y-69483048D01*
X160757908Y-69263241D01*
X160757876Y-69022739D01*
X160757867Y-68760602D01*
X160757867Y-66569031D01*
X160796249Y-66530649D01*
X160823355Y-66506911D01*
X160850253Y-66495111D01*
X160886560Y-66492267D01*
X160938489Y-66492267D01*
X160938489Y-66580206D01*
X160940427Y-66630102D01*
X160959199Y-66740523D01*
X160996217Y-66841987D01*
X161049369Y-66933152D01*
X161116546Y-67012673D01*
X161195638Y-67079205D01*
X161284534Y-67131406D01*
X161381125Y-67167930D01*
X161483300Y-67187434D01*
X161588950Y-67188573D01*
X161695964Y-67170005D01*
X161802232Y-67130384D01*
X161899219Y-67072516D01*
X161984293Y-66997684D01*
X162053015Y-66909615D01*
X162103918Y-66810616D01*
X162135535Y-66702993D01*
X162146400Y-66589054D01*
X162146400Y-66492267D01*
X163766753Y-66492267D01*
X163977897Y-66492280D01*
X164182020Y-66492330D01*
X164365686Y-66492430D01*
X164529991Y-66492592D01*
X164676029Y-66492829D01*
X164804894Y-66493153D01*
X164917683Y-66493575D01*
X165015488Y-66494109D01*
X165099404Y-66494767D01*
X165170527Y-66495561D01*
X165229950Y-66496504D01*
X165278768Y-66497608D01*
X165318077Y-66498884D01*
X165348969Y-66500347D01*
X165372541Y-66502007D01*
X165389886Y-66503878D01*
X165402099Y-66505972D01*
X165410275Y-66508300D01*
X165415508Y-66510876D01*
X165421504Y-66514445D01*
X165428279Y-66517978D01*
X165434478Y-66521488D01*
X165440126Y-66525918D01*
X165445247Y-66532208D01*
X165449869Y-66541301D01*
X165454015Y-66554139D01*
X165457713Y-66571662D01*
X165460987Y-66594813D01*
X165463863Y-66624534D01*
X165466367Y-66661765D01*
X165468524Y-66707449D01*
X165470360Y-66762527D01*
X165471900Y-66827941D01*
X165473170Y-66904633D01*
X165474195Y-66993544D01*
X165475001Y-67095617D01*
X165475034Y-67101867D01*
X165475614Y-67211792D01*
G36*
X165475614Y-67211792D02*
G01*
X165476059Y-67343011D01*
X165476362Y-67490216D01*
X165476548Y-67654349D01*
X165476642Y-67836352D01*
X165476671Y-68037165D01*
X165476661Y-68257732D01*
X165476636Y-68498992D01*
X165476622Y-68761889D01*
X165476622Y-68804040D01*
X165476646Y-69064668D01*
X165476685Y-69303796D01*
X165476708Y-69522360D01*
X165476687Y-69721295D01*
X165476593Y-69901535D01*
X165476395Y-70064015D01*
X165476063Y-70209670D01*
X165475569Y-70339434D01*
X165474883Y-70454243D01*
X165473976Y-70555030D01*
X165472817Y-70642730D01*
X165471378Y-70718279D01*
X165469629Y-70782611D01*
X165467540Y-70836661D01*
X165465083Y-70881363D01*
X165462227Y-70917652D01*
X165458943Y-70946463D01*
X165455202Y-70968731D01*
X165450974Y-70985390D01*
X165446229Y-70997375D01*
X165440939Y-71005621D01*
X165435073Y-71011062D01*
X165428602Y-71014634D01*
X165421497Y-71017270D01*
X165413728Y-71019906D01*
X165405266Y-71023477D01*
X165400908Y-71025145D01*
X165392395Y-71027111D01*
X165379694Y-71028911D01*
X165361885Y-71030555D01*
X165338049Y-71032047D01*
X165307266Y-71033397D01*
X165268617Y-71034611D01*
X165221182Y-71035697D01*
X165164043Y-71036661D01*
X165096279Y-71037511D01*
X165016971Y-71038253D01*
X164925199Y-71038897D01*
X164820044Y-71039447D01*
X164700587Y-71039913D01*
X164565908Y-71040300D01*
X164415088Y-71040616D01*
X164247206Y-71040869D01*
X164061345Y-71041066D01*
X163856583Y-71041213D01*
X163632002Y-71041318D01*
X163386682Y-71041389D01*
X163119704Y-71041432D01*
X163081321Y-71041437D01*
X162815922Y-71041480D01*
X162572050Y-71041525D01*
X162348783Y-71041548D01*
X162145196Y-71041524D01*
X161960367Y-71041430D01*
X161793373Y-71041243D01*
X161643290Y-71040939D01*
X161509196Y-71040494D01*
X161390166Y-71039885D01*
X161285279Y-71039089D01*
X161193610Y-71038080D01*
X161114237Y-71036837D01*
X161046237Y-71035335D01*
X160988686Y-71033551D01*
X160940662Y-71031461D01*
X160901240Y-71029042D01*
X160869499Y-71026270D01*
X160844514Y-71023121D01*
X160825364Y-71019572D01*
X160811123Y-71015598D01*
X160800871Y-71011178D01*
X160793682Y-71006286D01*
X160788635Y-71000900D01*
X160784805Y-70994996D01*
X160781271Y-70988549D01*
X160777108Y-70981537D01*
X160776025Y-70979687D01*
X160773813Y-70974180D01*
X160771786Y-70965868D01*
X160769938Y-70953809D01*
X160768261Y-70937063D01*
X160766745Y-70914687D01*
X160765383Y-70885740D01*
X160764167Y-70849280D01*
X160763089Y-70804367D01*
X160762140Y-70750057D01*
X160761312Y-70685410D01*
X160760597Y-70609484D01*
X160759987Y-70521338D01*
X160759942Y-70512493D01*
X161051378Y-70512493D01*
X161055260Y-70513765D01*
X161078520Y-70515791D01*
X161120874Y-70517626D01*
X161180132Y-70519227D01*
X161254107Y-70520549D01*
X161340610Y-70521548D01*
X161437452Y-70522180D01*
X161542445Y-70522400D01*
X162240651Y-70522400D01*
X163395090Y-70522400D01*
X163394456Y-70446200D01*
X163395574Y-70404160D01*
X163401304Y-70368334D01*
X163413890Y-70330772D01*
X163435568Y-70282577D01*
X163438789Y-70275897D01*
X163464188Y-70226359D01*
X163490996Y-70178369D01*
X163513917Y-70141466D01*
X163518485Y-70134834D01*
X163540516Y-70103593D01*
X163572693Y-70058654D01*
X163613457Y-70002147D01*
X163661245Y-69936204D01*
X163714498Y-69862957D01*
X163771655Y-69784536D01*
X163831155Y-69703072D01*
X163891437Y-69620698D01*
X163950940Y-69539544D01*
X164008105Y-69461742D01*
X164061370Y-69389423D01*
X164109174Y-69324718D01*
X164149957Y-69269759D01*
X164182158Y-69226676D01*
X164204216Y-69197602D01*
X164214571Y-69184667D01*
X164219044Y-69180351D01*
X164223236Y-69178312D01*
X164226643Y-69180926D01*
X164229325Y-69189986D01*
X164231341Y-69207285D01*
X164232748Y-69234614D01*
X164233605Y-69273765D01*
X164233970Y-69326533D01*
X164233903Y-69394707D01*
X164233460Y-69480082D01*
X164232702Y-69584449D01*
X164231685Y-69709600D01*
X164231308Y-69754300D01*
X164230169Y-69875395D01*
X164228972Y-69976688D01*
X164227636Y-70060262D01*
X164226077Y-70128204D01*
X164224215Y-70182599D01*
X164221966Y-70225532D01*
X164219248Y-70259089D01*
X164215979Y-70285355D01*
X164212078Y-70306416D01*
X164207461Y-70324357D01*
X164199192Y-70350770D01*
X164175583Y-70412772D01*
X164149685Y-70465573D01*
X164124535Y-70502645D01*
X164123339Y-70504075D01*
X164121168Y-70508424D01*
X164123328Y-70512026D01*
X164131644Y-70514951D01*
X164147940Y-70517269D01*
X164174041Y-70519051D01*
X164211771Y-70520367D01*
X164262956Y-70521286D01*
X164329420Y-70521878D01*
X164412987Y-70522215D01*
X164515483Y-70522365D01*
X164638732Y-70522400D01*
X165170296Y-70522400D01*
X165131523Y-70464783D01*
X165125432Y-70455893D01*
X165114976Y-70441069D01*
X165105579Y-70427422D01*
X165097183Y-70413765D01*
X165089733Y-70398911D01*
X165083173Y-70381670D01*
X165077446Y-70360855D01*
X165072495Y-70335280D01*
X165068266Y-70303755D01*
X165064701Y-70265093D01*
X165061744Y-70218107D01*
X165059340Y-70161608D01*
X165057431Y-70094409D01*
X165055962Y-70015322D01*
X165054876Y-69923160D01*
X165054118Y-69816734D01*
X165053630Y-69694857D01*
X165053358Y-69556341D01*
X165053243Y-69399999D01*
X165053231Y-69224642D01*
X165053265Y-69029082D01*
X165053289Y-68812133D01*
X165053280Y-68689513D01*
X165053243Y-68484447D01*
X165053227Y-68300116D01*
X165053288Y-68135334D01*
X165053484Y-67988916D01*
X165053870Y-67859674D01*
X165054505Y-67746422D01*
X165055444Y-67647975D01*
X165056745Y-67563144D01*
X165058464Y-67490744D01*
X165060659Y-67429589D01*
X165063385Y-67378492D01*
X165066701Y-67336267D01*
X165070662Y-67301727D01*
X165075325Y-67273686D01*
X165080747Y-67250958D01*
X165086986Y-67232356D01*
X165094097Y-67216693D01*
X165102138Y-67202784D01*
X165111166Y-67189441D01*
X165121236Y-67175479D01*
X165132407Y-67159711D01*
X165172197Y-67101867D01*
X164112314Y-67101867D01*
X164150311Y-67164966D01*
X164164993Y-67190005D01*
X164179531Y-67217586D01*
X164191627Y-67245700D01*
X164201532Y-67276551D01*
X164209494Y-67312344D01*
X164215761Y-67355283D01*
X164220582Y-67407574D01*
X164224206Y-67471419D01*
X164226881Y-67549025D01*
X164228857Y-67642594D01*
X164230382Y-67754333D01*
X164231704Y-67886445D01*
X164232613Y-68006434D01*
X164233020Y-68123063D01*
X164232767Y-68218531D01*
X164231857Y-68292556D01*
X164230293Y-68344855D01*
X164228079Y-68375149D01*
X164225220Y-68383156D01*
X164222161Y-68379858D01*
X164204006Y-68358408D01*
X164174275Y-68321889D01*
X164134639Y-68272442D01*
X164086771Y-68212207D01*
X164032343Y-68143327D01*
X163973027Y-68067943D01*
X163910495Y-67988196D01*
X163846421Y-67906228D01*
X163782475Y-67824180D01*
X163720331Y-67744194D01*
X163661661Y-67668411D01*
X163608137Y-67598973D01*
X163561430Y-67538021D01*
X163523214Y-67487696D01*
X163495161Y-67450140D01*
X163478943Y-67427495D01*
X163433635Y-67355212D01*
X163393661Y-67275463D01*
X163372130Y-67207188D01*
X163368827Y-67149844D01*
X163374116Y-67101867D01*
X162242356Y-67102117D01*
X162281867Y-67132722D01*
X162291248Y-67140089D01*
X162354183Y-67194438D01*
X162422997Y-67262259D01*
X162499596Y-67345516D01*
X162585888Y-67446178D01*
X162603052Y-67466847D01*
X162643833Y-67516409D01*
X162693588Y-67577326D01*
X162750955Y-67647898D01*
X162814569Y-67726424D01*
X162883069Y-67811204D01*
X162955090Y-67900537D01*
X163029270Y-67992722D01*
X163044517Y-68011702D01*
X163104246Y-68086060D01*
X163178653Y-68178848D01*
X163251131Y-68269388D01*
X163320314Y-68355978D01*
X163384841Y-68436918D01*
X163443347Y-68510506D01*
X163494470Y-68575044D01*
X163536847Y-68628829D01*
X163569115Y-68670162D01*
X163589910Y-68697342D01*
X163597869Y-68708668D01*
X163596111Y-68712771D01*
X163583230Y-68733334D01*
X163558885Y-68769561D01*
X163524247Y-68819824D01*
X163480486Y-68882492D01*
X163428775Y-68955936D01*
X163370284Y-69038527D01*
X163306184Y-69128636D01*
X163237646Y-69224631D01*
X163165843Y-69324885D01*
X163091944Y-69427768D01*
X163017121Y-69531650D01*
X162942545Y-69634901D01*
X162869387Y-69735892D01*
X162798819Y-69832994D01*
X162732011Y-69924577D01*
X162670135Y-70009011D01*
X162614361Y-70084667D01*
X162565862Y-70149916D01*
X162525807Y-70203128D01*
X162495369Y-70242673D01*
X162474944Y-70268026D01*
X162428899Y-70322295D01*
X162378612Y-70378775D01*
X162331815Y-70428669D01*
X162240651Y-70522400D01*
X161542445Y-70522400D01*
X161611356Y-70522349D01*
X161709607Y-70522091D01*
X161799030Y-70521637D01*
X161877333Y-70521010D01*
X161942223Y-70520235D01*
X161991411Y-70519335D01*
X162022604Y-70518334D01*
X162033511Y-70517257D01*
X162032322Y-70514037D01*
X162022176Y-70496452D01*
X162005040Y-70470158D01*
X161996540Y-70457691D01*
X161987329Y-70443622D01*
X161979233Y-70429351D01*
X161972185Y-70413479D01*
X161966117Y-70394609D01*
X161960961Y-70371341D01*
X161956651Y-70342278D01*
X161953119Y-70306021D01*
X161950297Y-70261170D01*
X161948118Y-70206328D01*
X161946514Y-70140097D01*
X161945419Y-70061077D01*
X161944765Y-69967871D01*
X161944484Y-69859079D01*
X161944509Y-69733303D01*
X161944772Y-69589145D01*
X161945206Y-69425207D01*
X161945745Y-69240089D01*
X161946279Y-69061232D01*
X161946805Y-68902374D01*
X161947350Y-68763316D01*
X161947945Y-68642665D01*
X161948619Y-68539028D01*
X161949403Y-68451011D01*
X161950326Y-68377223D01*
X161951419Y-68316269D01*
X161952712Y-68266757D01*
X161954235Y-68227293D01*
X161956019Y-68196484D01*
X161958092Y-68172938D01*
X161960486Y-68155260D01*
X161963230Y-68142059D01*
X161966356Y-68131940D01*
X161969892Y-68123511D01*
X161973791Y-68115375D01*
X161993438Y-68078544D01*
X162012225Y-68048391D01*
X162013272Y-68046908D01*
X162027602Y-68024659D01*
X162033511Y-68011702D01*
X162032504Y-68011249D01*
X162015305Y-68009803D01*
X161978656Y-68008480D01*
X161924962Y-68007316D01*
X161856630Y-68006347D01*
X161776064Y-68005611D01*
X161685670Y-68005142D01*
X161587853Y-68004978D01*
X161142195Y-68004978D01*
X161139120Y-69181845D01*
X161136045Y-70358711D01*
X161109407Y-70417622D01*
X161097485Y-70442183D01*
X161080246Y-70472434D01*
X161067074Y-70489560D01*
X161059076Y-70497591D01*
X161051378Y-70512493D01*
X160759942Y-70512493D01*
X160759474Y-70420029D01*
X160759050Y-70304617D01*
X160758706Y-70174160D01*
X160758434Y-70027716D01*
X160758227Y-69864344D01*
X160758076Y-69683101D01*
X160757972Y-69483048D01*
X160757908Y-69263241D01*
X160757876Y-69022739D01*
X160757867Y-68760602D01*
X160757867Y-66569031D01*
X160796249Y-66530649D01*
X160823355Y-66506911D01*
X160850253Y-66495111D01*
X160886560Y-66492267D01*
X160938489Y-66492267D01*
X160938489Y-66580206D01*
X160940427Y-66630102D01*
X160959199Y-66740523D01*
X160996217Y-66841987D01*
X161049369Y-66933152D01*
X161116546Y-67012673D01*
X161195638Y-67079205D01*
X161284534Y-67131406D01*
X161381125Y-67167930D01*
X161483300Y-67187434D01*
X161588950Y-67188573D01*
X161695964Y-67170005D01*
X161802232Y-67130384D01*
X161899219Y-67072516D01*
X161984293Y-66997684D01*
X162053015Y-66909615D01*
X162103918Y-66810616D01*
X162135535Y-66702993D01*
X162146400Y-66589054D01*
X162146400Y-66492267D01*
X163766753Y-66492267D01*
X163977897Y-66492280D01*
X164182020Y-66492330D01*
X164365686Y-66492430D01*
X164529991Y-66492592D01*
X164676029Y-66492829D01*
X164804894Y-66493153D01*
X164917683Y-66493575D01*
X165015488Y-66494109D01*
X165099404Y-66494767D01*
X165170527Y-66495561D01*
X165229950Y-66496504D01*
X165278768Y-66497608D01*
X165318077Y-66498884D01*
X165348969Y-66500347D01*
X165372541Y-66502007D01*
X165389886Y-66503878D01*
X165402099Y-66505972D01*
X165410275Y-66508300D01*
X165415508Y-66510876D01*
X165421504Y-66514445D01*
X165428279Y-66517978D01*
X165434478Y-66521488D01*
X165440126Y-66525918D01*
X165445247Y-66532208D01*
X165449869Y-66541301D01*
X165454015Y-66554139D01*
X165457713Y-66571662D01*
X165460987Y-66594813D01*
X165463863Y-66624534D01*
X165466367Y-66661765D01*
X165468524Y-66707449D01*
X165470360Y-66762527D01*
X165471900Y-66827941D01*
X165473170Y-66904633D01*
X165474195Y-66993544D01*
X165475001Y-67095617D01*
X165475034Y-67101867D01*
X165475614Y-67211792D01*
G37*
D13*
X149490000Y-89440580D02*
X149490000Y-89159420D01*
X150510000Y-89440580D02*
X150510000Y-89159420D01*
%LPC*%
D15*
X129650000Y-83625000D03*
D16*
X129650000Y-86125000D03*
X129650000Y-88625000D03*
X129650000Y-91165000D03*
X129650000Y-93705000D03*
X129650000Y-96245000D03*
D17*
X128800000Y-112000000D03*
X170800000Y-112000000D03*
D18*
X130300000Y-75950000D03*
X157900000Y-78400000D03*
D19*
X155360000Y-78400000D03*
X152820000Y-78400000D03*
X150280000Y-78400000D03*
D17*
X170800000Y-68000000D03*
D20*
X137490000Y-106089669D03*
X162490000Y-106089669D03*
D21*
X144450000Y-104669669D03*
D22*
X147220000Y-104669669D03*
X149990000Y-104669669D03*
X152760000Y-104669669D03*
X155530000Y-104669669D03*
X145835000Y-107509669D03*
X148605000Y-107509669D03*
X151375000Y-107509669D03*
X154145000Y-107509669D03*
D17*
X128800000Y-68000000D03*
D23*
X154500000Y-85125000D03*
X154500000Y-86675000D03*
D24*
X154775000Y-90000000D03*
X153225000Y-90000000D03*
D25*
X151675000Y-88250000D03*
X153325000Y-88250000D03*
D23*
X149800000Y-85225000D03*
X149800000Y-86775000D03*
D26*
X152975000Y-85500000D03*
X151325000Y-85500000D03*
D27*
X150000000Y-90075000D03*
X150000000Y-88525000D03*
%LPD*%
M02*
