M48
; DRILL file {KiCad 7.0.7-7.0.7~ubuntu22.04.1} date Wed 20 Sep 2023 09:52:40 -03
; FORMAT={-:-/ absolute / metric / decimal}
; #@! TF.CreationDate,2023-09-20T09:52:40-03:00
; #@! TF.GenerationSoftware,Kicad,Pcbnew,7.0.7-7.0.7~ubuntu22.04.1
; #@! TF.FileFunction,Plated,1,4,PTH
FMAT,2
METRIC
; #@! TA.AperFunction,Plated,PTH,ViaDrill
T1C0.300
; #@! TA.AperFunction,Plated,PTH,ViaDrill
T2C0.400
; #@! TA.AperFunction,Plated,PTH,ViaDrill
T3C0.500
; #@! TA.AperFunction,Plated,PTH,ComponentDrill
T4C1.000
; #@! TA.AperFunction,Plated,PTH,ComponentDrill
T5C3.200
%
G90
G05
T1
X134.9Y-80.3
X136.137Y-93.862
X138.325Y-76.55
X139.75Y-68.5
X140.15Y-79.3
X143.8Y-88.1
X144.25Y-80.0
X144.45Y-84.35
X146.0Y-101.25
X146.25Y-81.1
X146.75Y-89.499
X147.7Y-101.25
X149.4Y-101.2
X149.8Y-85.2
X149.8Y-86.8
X150.0Y-88.55
X150.0Y-90.1
X151.15Y-101.2
X151.2Y-71.2
X151.25Y-74.25
X151.35Y-85.5
X151.7Y-88.25
X152.9Y-101.25
X153.0Y-85.5
X153.2Y-73.0
X153.25Y-90.0
X153.35Y-88.25
X153.963Y-73.037
X154.5Y-85.15
X154.5Y-86.7
X154.8Y-90.0
X154.88Y-82.2
X157.6Y-85.5
X158.5Y-71.5
X160.6Y-78.45
X160.6Y-80.0
X163.6Y-76.9
X163.6Y-79.85
X165.9Y-77.0
X165.9Y-78.6
X170.4Y-89.15
T2
X162.1Y-95.65
X169.6Y-94.75
T3
X136.8Y-68.55
X139.65Y-90.001
X140.15Y-82.6
X143.0Y-69.75
X143.0Y-71.25
X143.0Y-73.8
X144.5Y-69.75
X144.5Y-71.25
X145.3Y-73.75
X146.0Y-69.75
X146.0Y-71.25
X147.5Y-69.75
X147.5Y-71.25
X149.3Y-81.55
X153.3Y-81.55
X161.7Y-73.75
X164.0Y-73.8
X167.55Y-99.112
X169.9Y-82.05
T4
X129.65Y-83.625
X129.65Y-86.125
X129.65Y-88.625
X129.65Y-91.165
X129.65Y-93.705
X129.65Y-96.245
X130.3Y-75.95
X144.45Y-104.67
X145.835Y-107.51
X147.22Y-104.67
X148.605Y-107.51
X149.99Y-104.67
X150.28Y-78.4
X151.375Y-107.51
X152.76Y-104.67
X152.82Y-78.4
X154.145Y-107.51
X155.36Y-78.4
X155.53Y-104.67
X157.9Y-78.4
T5
X137.49Y-106.09
X162.49Y-106.09
T0
M30
