G04 #@! TF.GenerationSoftware,KiCad,Pcbnew,7.0.7-7.0.7~ubuntu22.04.1*
G04 #@! TF.CreationDate,2023-09-20T09:52:15-03:00*
G04 #@! TF.ProjectId,CTB-02,4354422d-3032-42e6-9b69-6361645f7063,rev?*
G04 #@! TF.SameCoordinates,Original*
G04 #@! TF.FileFunction,Copper,L1,Top*
G04 #@! TF.FilePolarity,Positive*
%FSLAX46Y46*%
G04 Gerber Fmt 4.6, Leading zero omitted, Abs format (unit mm)*
G04 Created by KiCad (PCBNEW 7.0.7-7.0.7~ubuntu22.04.1) date 2023-09-20 09:52:15*
%MOMM*%
%LPD*%
G01*
G04 APERTURE LIST*
G04 Aperture macros list*
%AMRoundRect*
0 Rectangle with rounded corners*
0 $1 Rounding radius*
0 $2 $3 $4 $5 $6 $7 $8 $9 X,Y pos of 4 corners*
0 Add a 4 corners polygon primitive as box body*
4,1,4,$2,$3,$4,$5,$6,$7,$8,$9,$2,$3,0*
0 Add four circle primitives for the rounded corners*
1,1,$1+$1,$2,$3*
1,1,$1+$1,$4,$5*
1,1,$1+$1,$6,$7*
1,1,$1+$1,$8,$9*
0 Add four rect primitives between the rounded corners*
20,1,$1+$1,$2,$3,$4,$5,0*
20,1,$1+$1,$4,$5,$6,$7,0*
20,1,$1+$1,$6,$7,$8,$9,0*
20,1,$1+$1,$8,$9,$2,$3,0*%
G04 Aperture macros list end*
G04 #@! TA.AperFunction,SMDPad,CuDef*
%ADD10R,1.900000X0.400000*%
G04 #@! TD*
G04 #@! TA.AperFunction,ComponentPad*
%ADD11R,1.508000X1.508000*%
G04 #@! TD*
G04 #@! TA.AperFunction,ComponentPad*
%ADD12C,1.508000*%
G04 #@! TD*
G04 #@! TA.AperFunction,SMDPad,CuDef*
%ADD13RoundRect,0.150000X0.150000X-0.587500X0.150000X0.587500X-0.150000X0.587500X-0.150000X-0.587500X0*%
G04 #@! TD*
G04 #@! TA.AperFunction,SMDPad,CuDef*
%ADD14RoundRect,0.200000X-0.200000X-0.275000X0.200000X-0.275000X0.200000X0.275000X-0.200000X0.275000X0*%
G04 #@! TD*
G04 #@! TA.AperFunction,SMDPad,CuDef*
%ADD15RoundRect,0.200000X0.200000X0.275000X-0.200000X0.275000X-0.200000X-0.275000X0.200000X-0.275000X0*%
G04 #@! TD*
G04 #@! TA.AperFunction,SMDPad,CuDef*
%ADD16RoundRect,0.200000X0.275000X-0.200000X0.275000X0.200000X-0.275000X0.200000X-0.275000X-0.200000X0*%
G04 #@! TD*
G04 #@! TA.AperFunction,SMDPad,CuDef*
%ADD17RoundRect,0.200000X-0.275000X0.200000X-0.275000X-0.200000X0.275000X-0.200000X0.275000X0.200000X0*%
G04 #@! TD*
G04 #@! TA.AperFunction,SMDPad,CuDef*
%ADD18R,1.500000X2.000000*%
G04 #@! TD*
G04 #@! TA.AperFunction,SMDPad,CuDef*
%ADD19R,3.800000X2.000000*%
G04 #@! TD*
G04 #@! TA.AperFunction,SMDPad,CuDef*
%ADD20RoundRect,0.150000X-0.150000X0.587500X-0.150000X-0.587500X0.150000X-0.587500X0.150000X0.587500X0*%
G04 #@! TD*
G04 #@! TA.AperFunction,SMDPad,CuDef*
%ADD21RoundRect,0.250000X0.650000X-0.325000X0.650000X0.325000X-0.650000X0.325000X-0.650000X-0.325000X0*%
G04 #@! TD*
G04 #@! TA.AperFunction,SMDPad,CuDef*
%ADD22RoundRect,0.225000X0.250000X-0.225000X0.250000X0.225000X-0.250000X0.225000X-0.250000X-0.225000X0*%
G04 #@! TD*
G04 #@! TA.AperFunction,SMDPad,CuDef*
%ADD23RoundRect,0.218750X0.256250X-0.218750X0.256250X0.218750X-0.256250X0.218750X-0.256250X-0.218750X0*%
G04 #@! TD*
G04 #@! TA.AperFunction,SMDPad,CuDef*
%ADD24RoundRect,0.225000X0.225000X0.250000X-0.225000X0.250000X-0.225000X-0.250000X0.225000X-0.250000X0*%
G04 #@! TD*
G04 #@! TA.AperFunction,ComponentPad*
%ADD25R,1.700000X1.700000*%
G04 #@! TD*
G04 #@! TA.AperFunction,ComponentPad*
%ADD26O,1.700000X1.700000*%
G04 #@! TD*
G04 #@! TA.AperFunction,SMDPad,CuDef*
%ADD27RoundRect,0.150000X-0.512500X-0.150000X0.512500X-0.150000X0.512500X0.150000X-0.512500X0.150000X0*%
G04 #@! TD*
G04 #@! TA.AperFunction,SMDPad,CuDef*
%ADD28RoundRect,0.250000X1.100000X-0.325000X1.100000X0.325000X-1.100000X0.325000X-1.100000X-0.325000X0*%
G04 #@! TD*
G04 #@! TA.AperFunction,SMDPad,CuDef*
%ADD29RoundRect,0.250000X0.475000X-0.250000X0.475000X0.250000X-0.475000X0.250000X-0.475000X-0.250000X0*%
G04 #@! TD*
G04 #@! TA.AperFunction,SMDPad,CuDef*
%ADD30RoundRect,0.150000X-0.587500X-0.150000X0.587500X-0.150000X0.587500X0.150000X-0.587500X0.150000X0*%
G04 #@! TD*
G04 #@! TA.AperFunction,ComponentPad*
%ADD31C,4.000000*%
G04 #@! TD*
G04 #@! TA.AperFunction,ComponentPad*
%ADD32R,1.600000X1.600000*%
G04 #@! TD*
G04 #@! TA.AperFunction,ComponentPad*
%ADD33C,1.600000*%
G04 #@! TD*
G04 #@! TA.AperFunction,SMDPad,CuDef*
%ADD34RoundRect,0.225000X-0.250000X0.225000X-0.250000X-0.225000X0.250000X-0.225000X0.250000X0.225000X0*%
G04 #@! TD*
G04 #@! TA.AperFunction,SMDPad,CuDef*
%ADD35RoundRect,0.250000X-0.475000X0.250000X-0.475000X-0.250000X0.475000X-0.250000X0.475000X0.250000X0*%
G04 #@! TD*
G04 #@! TA.AperFunction,SMDPad,CuDef*
%ADD36RoundRect,0.150000X-0.825000X-0.150000X0.825000X-0.150000X0.825000X0.150000X-0.825000X0.150000X0*%
G04 #@! TD*
G04 #@! TA.AperFunction,SMDPad,CuDef*
%ADD37RoundRect,0.250000X-0.650000X0.325000X-0.650000X-0.325000X0.650000X-0.325000X0.650000X0.325000X0*%
G04 #@! TD*
G04 #@! TA.AperFunction,SMDPad,CuDef*
%ADD38RoundRect,0.075000X-0.662500X-0.075000X0.662500X-0.075000X0.662500X0.075000X-0.662500X0.075000X0*%
G04 #@! TD*
G04 #@! TA.AperFunction,SMDPad,CuDef*
%ADD39RoundRect,0.075000X-0.075000X-0.662500X0.075000X-0.662500X0.075000X0.662500X-0.075000X0.662500X0*%
G04 #@! TD*
G04 #@! TA.AperFunction,SMDPad,CuDef*
%ADD40RoundRect,0.250000X-1.100000X0.325000X-1.100000X-0.325000X1.100000X-0.325000X1.100000X0.325000X0*%
G04 #@! TD*
G04 #@! TA.AperFunction,ViaPad*
%ADD41C,0.600000*%
G04 #@! TD*
G04 #@! TA.AperFunction,ViaPad*
%ADD42C,1.000000*%
G04 #@! TD*
G04 #@! TA.AperFunction,ViaPad*
%ADD43C,0.800000*%
G04 #@! TD*
G04 #@! TA.AperFunction,Conductor*
%ADD44C,0.500000*%
G04 #@! TD*
G04 #@! TA.AperFunction,Conductor*
%ADD45C,0.250000*%
G04 #@! TD*
G04 #@! TA.AperFunction,Conductor*
%ADD46C,0.200000*%
G04 #@! TD*
G04 #@! TA.AperFunction,Conductor*
%ADD47C,1.270000*%
G04 #@! TD*
G04 APERTURE END LIST*
D10*
X145300000Y-86900000D03*
X145300000Y-88100000D03*
X145300000Y-89300000D03*
D11*
X129650000Y-83625000D03*
D12*
X129650000Y-86125000D03*
X129650000Y-88625000D03*
X129650000Y-91165000D03*
X129650000Y-93705000D03*
X129650000Y-96245000D03*
D13*
X129750000Y-106287500D03*
X131650000Y-106287500D03*
X130700000Y-104412500D03*
D14*
X133875000Y-83600000D03*
X135525000Y-83600000D03*
D15*
X170225000Y-97412500D03*
X168575000Y-97412500D03*
D16*
X139650000Y-88775000D03*
X139650000Y-87125000D03*
X164500000Y-99175000D03*
X164500000Y-97525000D03*
X168400000Y-94675000D03*
X168400000Y-93025000D03*
D17*
X135750000Y-73925000D03*
X135750000Y-75575000D03*
D14*
X168300000Y-83250000D03*
X169950000Y-83250000D03*
D16*
X161800000Y-99175000D03*
X161800000Y-97525000D03*
D14*
X137112500Y-93812500D03*
X138762500Y-93812500D03*
X134225000Y-77150000D03*
X135875000Y-77150000D03*
D16*
X134000000Y-80325000D03*
X134000000Y-78675000D03*
X160400000Y-94675000D03*
X160400000Y-93025000D03*
D18*
X161700000Y-73750000D03*
X164000000Y-73750000D03*
X166300000Y-73750000D03*
D19*
X164000000Y-67450000D03*
D16*
X165000000Y-94675000D03*
X165000000Y-93025000D03*
D17*
X146250000Y-78425000D03*
X146250000Y-80075000D03*
D20*
X170250000Y-100975000D03*
X168350000Y-100975000D03*
X169300000Y-102850000D03*
D21*
X163600000Y-79875000D03*
X163600000Y-76925000D03*
D22*
X137950000Y-88725000D03*
X137950000Y-87175000D03*
D23*
X162100000Y-94637500D03*
X162100000Y-93062500D03*
D15*
X152075000Y-81550000D03*
X150425000Y-81550000D03*
D18*
X143000000Y-73750000D03*
X145300000Y-73750000D03*
X147600000Y-73750000D03*
D19*
X145300000Y-67450000D03*
D24*
X139875000Y-76550000D03*
X138325000Y-76550000D03*
D22*
X135800000Y-80275000D03*
X135800000Y-78725000D03*
D25*
X130300000Y-75950000D03*
D16*
X142250000Y-80075000D03*
X142250000Y-78425000D03*
D17*
X140150000Y-83675000D03*
X140150000Y-85325000D03*
D25*
X157900000Y-78400000D03*
D26*
X155360000Y-78400000D03*
X152820000Y-78400000D03*
X150280000Y-78400000D03*
D14*
X137112500Y-92162500D03*
X138762500Y-92162500D03*
D16*
X147700000Y-100275000D03*
X147700000Y-98625000D03*
X149400000Y-100275000D03*
X149400000Y-98625000D03*
X151200000Y-100275000D03*
X151200000Y-98625000D03*
D14*
X137137500Y-97250000D03*
X138787500Y-97250000D03*
X168575000Y-99112500D03*
X170225000Y-99112500D03*
D27*
X137862500Y-78550000D03*
X137862500Y-79500000D03*
X137862500Y-80450000D03*
X140137500Y-80450000D03*
X140137500Y-78550000D03*
D28*
X135350000Y-89325000D03*
X135350000Y-86375000D03*
D14*
X137112500Y-95512500D03*
X138762500Y-95512500D03*
D29*
X144250000Y-79950000D03*
X144250000Y-78050000D03*
D30*
X153962500Y-72050000D03*
X153962500Y-73950000D03*
X155837500Y-73000000D03*
D31*
X137490000Y-106089669D03*
X162490000Y-106089669D03*
D32*
X144450000Y-104669669D03*
D33*
X147220000Y-104669669D03*
X149990000Y-104669669D03*
X152760000Y-104669669D03*
X155530000Y-104669669D03*
X145835000Y-107509669D03*
X148605000Y-107509669D03*
X151375000Y-107509669D03*
X154145000Y-107509669D03*
D24*
X146025000Y-84350000D03*
X144475000Y-84350000D03*
D17*
X166700000Y-93025000D03*
X166700000Y-94675000D03*
D34*
X170400000Y-86575000D03*
X170400000Y-88125000D03*
D35*
X139750000Y-68550000D03*
X139750000Y-70450000D03*
D36*
X163325000Y-85345000D03*
X163325000Y-86615000D03*
X163325000Y-87885000D03*
X163325000Y-89155000D03*
X168275000Y-89155000D03*
X168275000Y-87885000D03*
X168275000Y-86615000D03*
X168275000Y-85345000D03*
D15*
X169375000Y-104712500D03*
X167725000Y-104712500D03*
D34*
X160600000Y-78425000D03*
X160600000Y-79975000D03*
D37*
X158500000Y-71525000D03*
X158500000Y-74475000D03*
D22*
X165900000Y-78575000D03*
X165900000Y-77025000D03*
D38*
X147967500Y-84850000D03*
X147967500Y-85350000D03*
X147967500Y-85850000D03*
X147967500Y-86350000D03*
X147967500Y-86850000D03*
X147967500Y-87350000D03*
X147967500Y-87850000D03*
X147967500Y-88350000D03*
X147967500Y-88850000D03*
X147967500Y-89350000D03*
X147967500Y-89850000D03*
X147967500Y-90350000D03*
D39*
X149380000Y-91762500D03*
X149880000Y-91762500D03*
X150380000Y-91762500D03*
X150880000Y-91762500D03*
X151380000Y-91762500D03*
X151880000Y-91762500D03*
X152380000Y-91762500D03*
X152880000Y-91762500D03*
X153380000Y-91762500D03*
X153880000Y-91762500D03*
X154380000Y-91762500D03*
X154880000Y-91762500D03*
D38*
X156292500Y-90350000D03*
X156292500Y-89850000D03*
X156292500Y-89350000D03*
X156292500Y-88850000D03*
X156292500Y-88350000D03*
X156292500Y-87850000D03*
X156292500Y-87350000D03*
X156292500Y-86850000D03*
X156292500Y-86350000D03*
X156292500Y-85850000D03*
X156292500Y-85350000D03*
X156292500Y-84850000D03*
D39*
X154880000Y-83437500D03*
X154380000Y-83437500D03*
X153880000Y-83437500D03*
X153380000Y-83437500D03*
X152880000Y-83437500D03*
X152380000Y-83437500D03*
X151880000Y-83437500D03*
X151380000Y-83437500D03*
X150880000Y-83437500D03*
X150380000Y-83437500D03*
X149880000Y-83437500D03*
X149380000Y-83437500D03*
D37*
X151200000Y-71225000D03*
X151200000Y-74175000D03*
D40*
X136750000Y-68525000D03*
X136750000Y-71475000D03*
D16*
X152900000Y-100275000D03*
X152900000Y-98625000D03*
D17*
X146000000Y-98625000D03*
X146000000Y-100275000D03*
D41*
X163600000Y-76900000D03*
D42*
X169900000Y-82050000D03*
X164000000Y-73800000D03*
D41*
X160600000Y-78450000D03*
D42*
X153300000Y-81550000D03*
D41*
X165900000Y-77000000D03*
D42*
X139650000Y-90000500D03*
D41*
X170400000Y-89150000D03*
D42*
X143000000Y-73800000D03*
D41*
X163600000Y-79850000D03*
X139750000Y-68500000D03*
X149800000Y-86800000D03*
X154500000Y-86700000D03*
D43*
X162100000Y-95650000D03*
D41*
X153000000Y-85500000D03*
D42*
X136800000Y-68550000D03*
X161700000Y-73750000D03*
D41*
X151200000Y-71200000D03*
X147700000Y-101250000D03*
X158500000Y-71500000D03*
X146000000Y-101250000D03*
X160600000Y-80000000D03*
X149400000Y-101200000D03*
X143800000Y-88100000D03*
D43*
X169600000Y-94750000D03*
D42*
X167550000Y-99112500D03*
D41*
X134900000Y-80300000D03*
X165900000Y-78600000D03*
X150000000Y-88550000D03*
X144450000Y-84350000D03*
X136137500Y-93862500D03*
X138325000Y-76550000D03*
X153250000Y-90000000D03*
X144250000Y-80000000D03*
D42*
X147500000Y-71250000D03*
D41*
X153962500Y-73037500D03*
D42*
X145300000Y-73750000D03*
X146000000Y-71250000D03*
X143000000Y-69750000D03*
D41*
X151250000Y-74250000D03*
D42*
X147500000Y-69750000D03*
X146000000Y-69750000D03*
D41*
X153200000Y-73000000D03*
D42*
X144500000Y-71250000D03*
X143000000Y-71250000D03*
X144500000Y-69750000D03*
D41*
X157600000Y-85500000D03*
X154880000Y-82200000D03*
X146749502Y-89498911D03*
X146250000Y-81100000D03*
D42*
X140150000Y-82600000D03*
D41*
X140150000Y-79300000D03*
X151150000Y-101200000D03*
X152900000Y-101250000D03*
X151350000Y-85500000D03*
X151700000Y-88250000D03*
D42*
X149300000Y-81550000D03*
D41*
X150000000Y-90100000D03*
X154800000Y-90000000D03*
X154500000Y-85150000D03*
X149800000Y-85200000D03*
X153350000Y-88250000D03*
D44*
X139650000Y-88775000D02*
X139650000Y-90000500D01*
D45*
X152150000Y-81550000D02*
X153300000Y-81550000D01*
D44*
X169950000Y-82100000D02*
X169900000Y-82050000D01*
X169950000Y-83250000D02*
X169950000Y-82100000D01*
X168275000Y-89155000D02*
X170400000Y-89150000D01*
X168575000Y-99112500D02*
X167550000Y-99112500D01*
D45*
X169525000Y-94675000D02*
X169600000Y-94750000D01*
D44*
X137350000Y-89325000D02*
X137950000Y-88725000D01*
D46*
X137112500Y-93812500D02*
X136187500Y-93812500D01*
X149400000Y-100325000D02*
X149400000Y-101200000D01*
X153400000Y-90000000D02*
X153250000Y-90000000D01*
X139050000Y-79000000D02*
X139050000Y-78100000D01*
D44*
X135350000Y-89325000D02*
X137350000Y-89325000D01*
D45*
X168400000Y-94675000D02*
X169525000Y-94675000D01*
D46*
X155350000Y-85350000D02*
X154500000Y-86200000D01*
D44*
X168350000Y-100975000D02*
X168350000Y-100012500D01*
X134925000Y-80275000D02*
X134900000Y-80300000D01*
D46*
X149880000Y-84314994D02*
X150399511Y-84834505D01*
X147700000Y-100350000D02*
X147700000Y-101250000D01*
D44*
X132425000Y-88625000D02*
X129650000Y-88625000D01*
D46*
X149400000Y-100312500D02*
X149400000Y-100325000D01*
X156292500Y-85350000D02*
X155350000Y-85350000D01*
X150399511Y-85500489D02*
X149800000Y-86100000D01*
X149880000Y-83437500D02*
X149880000Y-84314994D01*
D44*
X168600000Y-99762500D02*
X168600000Y-99137500D01*
D46*
X137862500Y-79500000D02*
X138550000Y-79500000D01*
X136187500Y-93812500D02*
X136137500Y-93862500D01*
D44*
X136375000Y-80275000D02*
X135800000Y-80275000D01*
X137862500Y-79500000D02*
X137150000Y-79500000D01*
X134000000Y-80325000D02*
X134875000Y-80325000D01*
D46*
X154380000Y-90980000D02*
X153400000Y-90000000D01*
X139050000Y-78100000D02*
X138325000Y-77375000D01*
X138325000Y-77375000D02*
X138325000Y-76550000D01*
D44*
X168600000Y-99137500D02*
X168575000Y-99112500D01*
X134875000Y-80325000D02*
X134900000Y-80300000D01*
D46*
X149200000Y-88500000D02*
X150000000Y-88500000D01*
D45*
X162100000Y-94637500D02*
X162100000Y-95650000D01*
D46*
X149050000Y-88350000D02*
X149200000Y-88500000D01*
X145300000Y-88100000D02*
X143800000Y-88100000D01*
X150399511Y-84834505D02*
X150399511Y-85500489D01*
X146000000Y-100275000D02*
X146000000Y-101250000D01*
D44*
X168350000Y-100012500D02*
X168600000Y-99762500D01*
X137150000Y-79500000D02*
X136375000Y-80275000D01*
D46*
X138550000Y-79500000D02*
X139050000Y-79000000D01*
X149800000Y-86100000D02*
X149800000Y-86800000D01*
X154380000Y-91762500D02*
X154380000Y-90980000D01*
D44*
X170400000Y-89150000D02*
X170400000Y-88125000D01*
X135800000Y-80275000D02*
X134925000Y-80275000D01*
D46*
X154500000Y-86200000D02*
X154500000Y-86675000D01*
X147967500Y-88350000D02*
X149050000Y-88350000D01*
D44*
X133125000Y-89325000D02*
X132425000Y-88625000D01*
X135350000Y-89325000D02*
X133125000Y-89325000D01*
X153962500Y-72050000D02*
X153962500Y-73037500D01*
X153200000Y-73000000D02*
X153925000Y-73000000D01*
X153925000Y-73000000D02*
X153962500Y-73037500D01*
X153962500Y-73037500D02*
X153962500Y-73950000D01*
X139775000Y-71475000D02*
X139775000Y-74175000D01*
D46*
X136750000Y-72250000D02*
X136750000Y-71475000D01*
D44*
X134250000Y-71500000D02*
X136725000Y-71500000D01*
D47*
X128700000Y-100550000D02*
X127635000Y-99485000D01*
X127635000Y-73665000D02*
X129800000Y-71500000D01*
D44*
X139750000Y-71450000D02*
X139775000Y-71475000D01*
D47*
X127635000Y-99485000D02*
X127635000Y-73665000D01*
D44*
X136725000Y-71500000D02*
X136750000Y-71475000D01*
D47*
X130700000Y-102750000D02*
X130700000Y-101150000D01*
X130100000Y-100550000D02*
X128700000Y-100550000D01*
D44*
X136750000Y-71475000D02*
X139775000Y-71475000D01*
D47*
X130700000Y-101150000D02*
X130100000Y-100550000D01*
D44*
X139750000Y-70450000D02*
X139750000Y-71450000D01*
D47*
X129800000Y-71500000D02*
X134250000Y-71500000D01*
D44*
X147200000Y-75500000D02*
X147600000Y-75100000D01*
D46*
X135750000Y-73250000D02*
X136750000Y-72250000D01*
D44*
X147600000Y-75100000D02*
X147600000Y-73750000D01*
X130700000Y-102750000D02*
X130700000Y-104412500D01*
X139775000Y-74175000D02*
X141100000Y-75500000D01*
X141100000Y-75500000D02*
X147200000Y-75500000D01*
D46*
X135750000Y-73925000D02*
X135750000Y-73250000D01*
X134050000Y-78725000D02*
X134000000Y-78675000D01*
X134225000Y-77150000D02*
X134225000Y-78450000D01*
X134225000Y-78450000D02*
X134000000Y-78675000D01*
X135750000Y-75575000D02*
X135675000Y-75500000D01*
X135800000Y-78725000D02*
X134050000Y-78725000D01*
X134225000Y-76025000D02*
X134225000Y-77150000D01*
X134750000Y-75500000D02*
X134225000Y-76025000D01*
X135675000Y-75500000D02*
X134750000Y-75500000D01*
X156292500Y-85850000D02*
X157250000Y-85850000D01*
X157250000Y-85850000D02*
X157600000Y-85500000D01*
X154880000Y-83437500D02*
X154880000Y-82200000D01*
D45*
X163950000Y-101100000D02*
X164500000Y-100550000D01*
X164500000Y-100550000D02*
X164500000Y-99175000D01*
X148700331Y-106150000D02*
X156300000Y-106150000D01*
X147220000Y-104669669D02*
X148700331Y-106150000D01*
X158700000Y-103750000D02*
X159950000Y-103750000D01*
X156300000Y-106150000D02*
X158700000Y-103750000D01*
X162600000Y-101100000D02*
X163950000Y-101100000D01*
X159950000Y-103750000D02*
X162600000Y-101100000D01*
X151659669Y-103000000D02*
X159950000Y-103000000D01*
X149990000Y-104669669D02*
X151659669Y-103000000D01*
X159950000Y-103000000D02*
X161800000Y-101150000D01*
X161800000Y-101150000D02*
X161800000Y-99175000D01*
D44*
X140175000Y-85350000D02*
X140150000Y-85325000D01*
D46*
X147967500Y-85350000D02*
X146600000Y-85350000D01*
D44*
X146600000Y-85350000D02*
X140175000Y-85350000D01*
D46*
X145200000Y-78050000D02*
X144250000Y-78050000D01*
X142250000Y-78425000D02*
X143025000Y-78425000D01*
X146250000Y-78425000D02*
X145575000Y-78425000D01*
X143025000Y-78425000D02*
X143400000Y-78050000D01*
X143400000Y-78050000D02*
X144250000Y-78050000D01*
X145575000Y-78425000D02*
X145200000Y-78050000D01*
X147967500Y-89350000D02*
X146898413Y-89350000D01*
X146250000Y-80075000D02*
X146250000Y-81100000D01*
X146898413Y-89350000D02*
X146749502Y-89498911D01*
X156292500Y-87850000D02*
X158300000Y-87850000D01*
X159605000Y-89155000D02*
X163325000Y-89155000D01*
X158300000Y-87850000D02*
X159605000Y-89155000D01*
X156292500Y-87350000D02*
X159731372Y-87350000D01*
X159731372Y-87350000D02*
X161731372Y-85350000D01*
X161731372Y-85350000D02*
X163325000Y-85345000D01*
X159665686Y-86850000D02*
X162065686Y-84450000D01*
X164800000Y-86400480D02*
X164550480Y-86650000D01*
X164400000Y-84450000D02*
X164800000Y-84850000D01*
X164550480Y-86650000D02*
X163360000Y-86650000D01*
X164800000Y-84850000D02*
X164800000Y-86400480D01*
X156292500Y-86850000D02*
X159665686Y-86850000D01*
X163360000Y-86650000D02*
X163325000Y-86615000D01*
X162065686Y-84450000D02*
X164400000Y-84450000D01*
X161900000Y-84050000D02*
X164700240Y-84050000D01*
X165200000Y-87250000D02*
X164565000Y-87885000D01*
X156292500Y-86350000D02*
X159600000Y-86350000D01*
X164700240Y-84050000D02*
X165200000Y-84549760D01*
X164565000Y-87885000D02*
X163325000Y-87885000D01*
X159600000Y-86350000D02*
X161900000Y-84050000D01*
X165200000Y-84549760D02*
X165200000Y-87250000D01*
D44*
X140137500Y-76812500D02*
X139875000Y-76550000D01*
X140137500Y-79287500D02*
X140150000Y-79300000D01*
X140137500Y-78550000D02*
X140137500Y-79287500D01*
X140137500Y-78550000D02*
X140137500Y-76812500D01*
X140150000Y-83675000D02*
X140150000Y-82600000D01*
X158500000Y-73500000D02*
X158500000Y-74475000D01*
X158875000Y-74475000D02*
X159700000Y-75300000D01*
X165900000Y-75300000D02*
X166300000Y-74900000D01*
X166300000Y-74900000D02*
X166300000Y-73750000D01*
X158000000Y-73000000D02*
X158500000Y-73500000D01*
X158500000Y-74475000D02*
X158875000Y-74475000D01*
X159700000Y-75300000D02*
X165900000Y-75300000D01*
X155837500Y-73000000D02*
X158000000Y-73000000D01*
X137375000Y-86375000D02*
X135350000Y-86375000D01*
D46*
X138000000Y-87125000D02*
X137950000Y-87175000D01*
D44*
X137950000Y-86950000D02*
X137375000Y-86375000D01*
X139650000Y-87125000D02*
X138000000Y-87125000D01*
D46*
X137950000Y-87175000D02*
X137950000Y-86950000D01*
D44*
X135350000Y-86375000D02*
X129900000Y-86375000D01*
X129900000Y-86375000D02*
X129650000Y-86125000D01*
D46*
X151200000Y-101150000D02*
X151150000Y-101200000D01*
X151200000Y-100325000D02*
X151200000Y-101150000D01*
X152900000Y-100325000D02*
X152900000Y-101250000D01*
X162100000Y-93062500D02*
X162012500Y-93062500D01*
X162012500Y-93062500D02*
X160400000Y-94675000D01*
D44*
X157409669Y-107509669D02*
X154145000Y-107509669D01*
X167725000Y-104712500D02*
X167725000Y-107575000D01*
X159350000Y-109450000D02*
X157409669Y-107509669D01*
X165850000Y-109450000D02*
X159350000Y-109450000D01*
X167725000Y-107575000D02*
X165850000Y-109450000D01*
D46*
X134250000Y-97250000D02*
X133250000Y-96250000D01*
X133250000Y-96250000D02*
X129655000Y-96250000D01*
X129655000Y-96250000D02*
X129650000Y-96245000D01*
X137137500Y-97250000D02*
X134250000Y-97250000D01*
X137137500Y-97412500D02*
X137082500Y-97357500D01*
X135212500Y-95512500D02*
X137112500Y-95512500D01*
X129650000Y-93705000D02*
X133405000Y-93705000D01*
X133405000Y-93705000D02*
X135212500Y-95512500D01*
X133965000Y-91165000D02*
X129650000Y-91165000D01*
X137107500Y-92157500D02*
X137112500Y-92162500D01*
X134962500Y-92162500D02*
X133965000Y-91165000D01*
X137112500Y-92162500D02*
X134962500Y-92162500D01*
D45*
X133850000Y-83625000D02*
X129650000Y-83625000D01*
X133875000Y-83600000D02*
X133850000Y-83625000D01*
D46*
X151880000Y-91762500D02*
X151880000Y-94570000D01*
X150700000Y-95750000D02*
X146900000Y-95750000D01*
X146000000Y-96650000D02*
X146000000Y-98750000D01*
X151880000Y-94570000D02*
X150700000Y-95750000D01*
X146900000Y-95750000D02*
X146000000Y-96650000D01*
X152380000Y-94670000D02*
X150700000Y-96350000D01*
X150700000Y-96350000D02*
X148400000Y-96350000D01*
X152380000Y-91762500D02*
X152380000Y-94670000D01*
X147700000Y-97050000D02*
X147700000Y-98700000D01*
X148400000Y-96350000D02*
X147700000Y-97050000D01*
X149375000Y-97275000D02*
X149375000Y-98700000D01*
X152850000Y-92559651D02*
X152850000Y-94900000D01*
X152880000Y-92529651D02*
X152850000Y-92559651D01*
X149375000Y-98700000D02*
X149400000Y-98675000D01*
X149850000Y-96800000D02*
X149375000Y-97275000D01*
X152880000Y-91762500D02*
X152880000Y-92529651D01*
X152850000Y-94900000D02*
X150950000Y-96800000D01*
X150950000Y-96800000D02*
X149850000Y-96800000D01*
D44*
X169300000Y-104637500D02*
X169375000Y-104712500D01*
X169300000Y-102850000D02*
X169300000Y-104637500D01*
X170225000Y-97412500D02*
X170225000Y-99112500D01*
X170225000Y-99112500D02*
X170225000Y-100950000D01*
X170225000Y-100950000D02*
X170250000Y-100975000D01*
D46*
X153380000Y-94970000D02*
X151200000Y-97150000D01*
X153380000Y-91762500D02*
X153380000Y-94970000D01*
X151200000Y-97150000D02*
X151200000Y-98625000D01*
X137862500Y-78550000D02*
X136462500Y-77150000D01*
X136462500Y-77150000D02*
X135875000Y-77150000D01*
X137862500Y-80450000D02*
X140137500Y-80450000D01*
X141425000Y-80075000D02*
X142250000Y-80075000D01*
X141050000Y-80450000D02*
X141425000Y-80075000D01*
X140137500Y-80450000D02*
X141050000Y-80450000D01*
X152900000Y-96050000D02*
X152900000Y-98625000D01*
X153880000Y-91762500D02*
X153880000Y-95070000D01*
X153880000Y-95070000D02*
X152900000Y-96050000D01*
D45*
X167500000Y-93025000D02*
X167550000Y-93075000D01*
X166766624Y-92958376D02*
X166700000Y-93025000D01*
X164500000Y-96150000D02*
X164500000Y-97525000D01*
X166965000Y-87885000D02*
X168275000Y-87885000D01*
X167550000Y-95300000D02*
X167100000Y-95750000D01*
X166766624Y-88083376D02*
X166965000Y-87885000D01*
X164900000Y-95750000D02*
X164500000Y-96150000D01*
X167100000Y-95750000D02*
X164900000Y-95750000D01*
X167550000Y-93075000D02*
X167550000Y-95300000D01*
X166700000Y-93025000D02*
X167500000Y-93025000D01*
X167500000Y-93025000D02*
X168400000Y-93025000D01*
X166766624Y-92958376D02*
X166766624Y-88083376D01*
D46*
X151380000Y-83437500D02*
X151380000Y-85470000D01*
X151380000Y-85470000D02*
X151350000Y-85500000D01*
X149880000Y-94170000D02*
X149880000Y-91762500D01*
X148800000Y-95250000D02*
X149880000Y-94170000D01*
X144950000Y-95250000D02*
X148800000Y-95250000D01*
X138787500Y-97250000D02*
X142950000Y-97250000D01*
X142950000Y-97250000D02*
X144950000Y-95250000D01*
X151300000Y-87850000D02*
X151700000Y-88250000D01*
X147967500Y-87850000D02*
X151300000Y-87850000D01*
X165800000Y-98350000D02*
X166737500Y-97412500D01*
X157250000Y-89850000D02*
X157550000Y-90150000D01*
X158400000Y-98350000D02*
X165800000Y-98350000D01*
X166737500Y-97412500D02*
X168575000Y-97412500D01*
X157550000Y-97500000D02*
X158400000Y-98350000D01*
X157550000Y-90150000D02*
X157550000Y-97500000D01*
X156292500Y-89850000D02*
X157250000Y-89850000D01*
X138762500Y-92162500D02*
X138762500Y-93812500D01*
X138825000Y-92900000D02*
X142850000Y-92900000D01*
X143987500Y-91762500D02*
X149380000Y-91762500D01*
X142850000Y-92900000D02*
X143987500Y-91762500D01*
X137937500Y-94687500D02*
X137937500Y-91805393D01*
X141750000Y-90350000D02*
X147967500Y-90350000D01*
X138542893Y-91200000D02*
X140900000Y-91200000D01*
X140900000Y-91200000D02*
X141750000Y-90350000D01*
X137937500Y-91805393D02*
X138542893Y-91200000D01*
X138762500Y-95512500D02*
X137937500Y-94687500D01*
X146800000Y-87500000D02*
X146800000Y-88350000D01*
X145850000Y-89300000D02*
X145300000Y-89300000D01*
X146950000Y-87350000D02*
X146800000Y-87500000D01*
X146800000Y-88350000D02*
X145850000Y-89300000D01*
X147967500Y-87350000D02*
X146950000Y-87350000D01*
X147917500Y-86900000D02*
X145300000Y-86900000D01*
X147967500Y-86850000D02*
X147917500Y-86900000D01*
X160400000Y-90650000D02*
X158600000Y-88850000D01*
X160400000Y-93025000D02*
X160400000Y-90650000D01*
X158600000Y-88850000D02*
X156292500Y-88850000D01*
X136750000Y-83600000D02*
X139300000Y-86150000D01*
X139300000Y-86150000D02*
X146650000Y-86150000D01*
X146850000Y-86350000D02*
X147967500Y-86350000D01*
X146650000Y-86150000D02*
X146850000Y-86350000D01*
X135525000Y-83600000D02*
X136750000Y-83600000D01*
D45*
X165000000Y-93025000D02*
X165000000Y-90750000D01*
X165800000Y-85850000D02*
X166305000Y-85345000D01*
X165000000Y-90750000D02*
X165800000Y-89950000D01*
D44*
X170395000Y-85345000D02*
X170400000Y-85350000D01*
X168275000Y-83275000D02*
X168275000Y-84575000D01*
D45*
X165800000Y-89950000D02*
X165800000Y-85850000D01*
D44*
X170400000Y-86575000D02*
X170400000Y-85350000D01*
X168275000Y-85345000D02*
X170395000Y-85345000D01*
D45*
X168275000Y-85345000D02*
X168275000Y-84575000D01*
D44*
X168300000Y-83250000D02*
X168275000Y-83275000D01*
D45*
X166305000Y-85345000D02*
X168275000Y-85345000D01*
D46*
X156292500Y-84850000D02*
X154775000Y-84850000D01*
X154880000Y-90080000D02*
X154800000Y-90000000D01*
X149380000Y-84380000D02*
X149750000Y-84750000D01*
X147967500Y-84850000D02*
X148900000Y-84850000D01*
X149750000Y-84750000D02*
X149750000Y-85250000D01*
X148750000Y-88850000D02*
X150000000Y-90100000D01*
X148900000Y-84850000D02*
X149250000Y-85200000D01*
X154775000Y-84850000D02*
X154500000Y-85125000D01*
X147050000Y-84850000D02*
X146550000Y-84350000D01*
X147967500Y-84850000D02*
X147050000Y-84850000D01*
X154880000Y-91762500D02*
X154880000Y-90080000D01*
X149380000Y-83437500D02*
X149380000Y-84380000D01*
X146550000Y-84350000D02*
X146025000Y-84350000D01*
X147967500Y-88850000D02*
X148750000Y-88850000D01*
D44*
X150425000Y-81550000D02*
X149300000Y-81550000D01*
D46*
X149250000Y-85200000D02*
X149800000Y-85200000D01*
D44*
X130700000Y-107550000D02*
X130700000Y-106250000D01*
D47*
X131800000Y-110350000D02*
X141400000Y-110350000D01*
X142600000Y-109150000D02*
X142600000Y-106519669D01*
X142600000Y-106519669D02*
X144450000Y-104669669D01*
D44*
X129787500Y-106250000D02*
X129750000Y-106287500D01*
D47*
X130700000Y-109250000D02*
X130700000Y-107550000D01*
D44*
X131650000Y-106287500D02*
X131612500Y-106250000D01*
D47*
X130700000Y-109250000D02*
X131800000Y-110350000D01*
D44*
X131612500Y-106250000D02*
X129787500Y-106250000D01*
D47*
X141400000Y-110350000D02*
X142600000Y-109150000D01*
D45*
X166300000Y-86950000D02*
X166635000Y-86615000D01*
X165800000Y-94675000D02*
X165800000Y-90850000D01*
X165000000Y-94675000D02*
X164875000Y-94675000D01*
X165800000Y-94675000D02*
X165000000Y-94675000D01*
X166635000Y-86615000D02*
X168275000Y-86615000D01*
X162025000Y-97525000D02*
X161800000Y-97525000D01*
X166300000Y-90350000D02*
X166300000Y-86950000D01*
X164875000Y-94675000D02*
X162025000Y-97525000D01*
X166700000Y-94675000D02*
X165800000Y-94675000D01*
X165800000Y-90850000D02*
X166300000Y-90350000D01*
G04 #@! TA.AperFunction,Conductor*
G36*
X161595333Y-66065502D02*
G01*
X161641826Y-66119158D01*
X161651930Y-66189432D01*
X161645268Y-66215533D01*
X161598505Y-66340907D01*
X161592000Y-66401402D01*
X161592000Y-67196000D01*
X166408000Y-67196000D01*
X166408000Y-66401414D01*
X166407999Y-66401402D01*
X166401494Y-66340907D01*
X166354732Y-66215533D01*
X166349667Y-66144717D01*
X166383692Y-66082405D01*
X166446004Y-66048380D01*
X166472788Y-66045500D01*
X167874000Y-66045500D01*
X167942121Y-66065502D01*
X167988614Y-66119158D01*
X168000000Y-66171500D01*
X168000000Y-72374000D01*
X167979998Y-72442121D01*
X167926342Y-72488614D01*
X167874000Y-72500000D01*
X167561118Y-72500000D01*
X167492997Y-72479998D01*
X167460250Y-72449509D01*
X167459891Y-72449030D01*
X167452173Y-72438720D01*
X167413261Y-72386738D01*
X167296207Y-72299112D01*
X167296202Y-72299110D01*
X167159204Y-72248011D01*
X167159196Y-72248009D01*
X167098649Y-72241500D01*
X167098638Y-72241500D01*
X165501362Y-72241500D01*
X165501350Y-72241500D01*
X165440803Y-72248009D01*
X165440795Y-72248011D01*
X165303797Y-72299110D01*
X165303793Y-72299112D01*
X165225090Y-72358028D01*
X165158570Y-72382838D01*
X165089196Y-72367746D01*
X165074073Y-72358027D01*
X164995965Y-72299555D01*
X164859093Y-72248505D01*
X164798597Y-72242000D01*
X164254000Y-72242000D01*
X164254000Y-72900000D01*
X163746000Y-72900000D01*
X163746000Y-72242000D01*
X163201402Y-72242000D01*
X163140906Y-72248505D01*
X163004035Y-72299555D01*
X162925924Y-72358028D01*
X162859404Y-72382838D01*
X162790030Y-72367746D01*
X162774907Y-72358027D01*
X162696207Y-72299112D01*
X162696202Y-72299110D01*
X162559204Y-72248011D01*
X162559196Y-72248009D01*
X162498649Y-72241500D01*
X162498638Y-72241500D01*
X160901362Y-72241500D01*
X160901350Y-72241500D01*
X160840803Y-72248009D01*
X160840795Y-72248011D01*
X160703797Y-72299110D01*
X160703792Y-72299112D01*
X160602596Y-72374868D01*
X160536076Y-72399679D01*
X160527087Y-72400000D01*
X160126000Y-72400000D01*
X160057879Y-72379998D01*
X160011386Y-72326342D01*
X160000000Y-72274000D01*
X160000000Y-67704000D01*
X161592000Y-67704000D01*
X161592000Y-68498597D01*
X161598505Y-68559093D01*
X161649555Y-68695964D01*
X161649555Y-68695965D01*
X161737095Y-68812904D01*
X161854034Y-68900444D01*
X161990906Y-68951494D01*
X162051402Y-68957999D01*
X162051415Y-68958000D01*
X163746000Y-68958000D01*
X163746000Y-67704000D01*
X164254000Y-67704000D01*
X164254000Y-68958000D01*
X165948585Y-68958000D01*
X165948597Y-68957999D01*
X166009093Y-68951494D01*
X166145964Y-68900444D01*
X166145965Y-68900444D01*
X166262904Y-68812904D01*
X166350444Y-68695965D01*
X166350444Y-68695964D01*
X166401494Y-68559093D01*
X166407999Y-68498597D01*
X166408000Y-68498585D01*
X166408000Y-67704000D01*
X164254000Y-67704000D01*
X163746000Y-67704000D01*
X161592000Y-67704000D01*
X160000000Y-67704000D01*
X160000000Y-66171500D01*
X160020002Y-66103379D01*
X160073658Y-66056886D01*
X160126000Y-66045500D01*
X161527212Y-66045500D01*
X161595333Y-66065502D01*
G37*
G04 #@! TD.AperFunction*
G04 #@! TA.AperFunction,Conductor*
G36*
X142895333Y-66065502D02*
G01*
X142941826Y-66119158D01*
X142951930Y-66189432D01*
X142945268Y-66215533D01*
X142898505Y-66340907D01*
X142892000Y-66401402D01*
X142892000Y-67196000D01*
X147708000Y-67196000D01*
X147708000Y-66401414D01*
X147707999Y-66401402D01*
X147701494Y-66340907D01*
X147654732Y-66215533D01*
X147649667Y-66144717D01*
X147683692Y-66082405D01*
X147746004Y-66048380D01*
X147772788Y-66045500D01*
X149174000Y-66045500D01*
X149242121Y-66065502D01*
X149288614Y-66119158D01*
X149300000Y-66171500D01*
X149300000Y-72374000D01*
X149279998Y-72442121D01*
X149226342Y-72488614D01*
X149174000Y-72500000D01*
X148861118Y-72500000D01*
X148792997Y-72479998D01*
X148760250Y-72449509D01*
X148713261Y-72386738D01*
X148596207Y-72299112D01*
X148596202Y-72299110D01*
X148459204Y-72248011D01*
X148459196Y-72248009D01*
X148398649Y-72241500D01*
X148398638Y-72241500D01*
X146801362Y-72241500D01*
X146801350Y-72241500D01*
X146740803Y-72248009D01*
X146740795Y-72248011D01*
X146603797Y-72299110D01*
X146603793Y-72299112D01*
X146525090Y-72358028D01*
X146458570Y-72382838D01*
X146389196Y-72367746D01*
X146374073Y-72358027D01*
X146295965Y-72299555D01*
X146159093Y-72248505D01*
X146098597Y-72242000D01*
X145554000Y-72242000D01*
X145554000Y-72900000D01*
X145046000Y-72900000D01*
X145046000Y-72242000D01*
X144501402Y-72242000D01*
X144440906Y-72248505D01*
X144304035Y-72299555D01*
X144225924Y-72358028D01*
X144159404Y-72382838D01*
X144090030Y-72367746D01*
X144074907Y-72358027D01*
X143996207Y-72299112D01*
X143996202Y-72299110D01*
X143859204Y-72248011D01*
X143859196Y-72248009D01*
X143798649Y-72241500D01*
X143798638Y-72241500D01*
X142201362Y-72241500D01*
X142201350Y-72241500D01*
X142140803Y-72248009D01*
X142140795Y-72248011D01*
X142003797Y-72299110D01*
X142003792Y-72299112D01*
X141902596Y-72374868D01*
X141836076Y-72399679D01*
X141827087Y-72400000D01*
X141426000Y-72400000D01*
X141357879Y-72379998D01*
X141311386Y-72326342D01*
X141300000Y-72274000D01*
X141300000Y-67704000D01*
X142892000Y-67704000D01*
X142892000Y-68498597D01*
X142898505Y-68559093D01*
X142949555Y-68695964D01*
X142949555Y-68695965D01*
X143037095Y-68812904D01*
X143154034Y-68900444D01*
X143290906Y-68951494D01*
X143351402Y-68957999D01*
X143351415Y-68958000D01*
X145046000Y-68958000D01*
X145046000Y-67704000D01*
X145554000Y-67704000D01*
X145554000Y-68958000D01*
X147248585Y-68958000D01*
X147248597Y-68957999D01*
X147309093Y-68951494D01*
X147445964Y-68900444D01*
X147445965Y-68900444D01*
X147562904Y-68812904D01*
X147650444Y-68695965D01*
X147650444Y-68695964D01*
X147701494Y-68559093D01*
X147707999Y-68498597D01*
X147708000Y-68498585D01*
X147708000Y-67704000D01*
X145554000Y-67704000D01*
X145046000Y-67704000D01*
X142892000Y-67704000D01*
X141300000Y-67704000D01*
X141300000Y-66171500D01*
X141320002Y-66103379D01*
X141373658Y-66056886D01*
X141426000Y-66045500D01*
X142827212Y-66045500D01*
X142895333Y-66065502D01*
G37*
G04 #@! TD.AperFunction*
M02*
