%TF.GenerationSoftware,KiCad,Pcbnew,7.0.7-7.0.7~ubuntu22.04.1*%
%TF.CreationDate,2023-09-20T09:52:43-03:00*%
%TF.ProjectId,CTB-02,4354422d-3032-42e6-9b69-6361645f7063,rev?*%
%TF.SameCoordinates,Original*%
%TF.FileFunction,Drillmap*%
%TF.FilePolarity,Positive*%
%FSLAX45Y45*%
G04 Gerber Fmt 4.5, Leading zero omitted, Abs format (unit mm)*
G04 Created by KiCad (PCBNEW 7.0.7-7.0.7~ubuntu22.04.1) date 2023-09-20 09:52:43*
%MOMM*%
%LPD*%
G01*
G04 APERTURE LIST*
%ADD10C,0.150000*%
%ADD11C,0.200000*%
%ADD12C,0.030000*%
%ADD13C,0.040000*%
%ADD14C,0.050000*%
%ADD15C,0.100000*%
%ADD16C,0.320000*%
G04 APERTURE END LIST*
D10*
X12600000Y-6504500D02*
X17380000Y-6504500D01*
X17380000Y-11504500D01*
X12600000Y-11504500D01*
X12600000Y-6504500D01*
D11*
D12*
X13475000Y-8015000D02*
X13505000Y-8045000D01*
X13505000Y-8015000D02*
X13475000Y-8045000D01*
X13598750Y-9371250D02*
X13628750Y-9401250D01*
X13628750Y-9371250D02*
X13598750Y-9401250D01*
X13817500Y-7640000D02*
X13847500Y-7670000D01*
X13847500Y-7640000D02*
X13817500Y-7670000D01*
X13960000Y-6835000D02*
X13990000Y-6865000D01*
X13990000Y-6835000D02*
X13960000Y-6865000D01*
X14000000Y-7915000D02*
X14030000Y-7945000D01*
X14030000Y-7915000D02*
X14000000Y-7945000D01*
X14365000Y-8795000D02*
X14395000Y-8825000D01*
X14395000Y-8795000D02*
X14365000Y-8825000D01*
X14410000Y-7985000D02*
X14440000Y-8015000D01*
X14440000Y-7985000D02*
X14410000Y-8015000D01*
X14430000Y-8420000D02*
X14460000Y-8450000D01*
X14460000Y-8420000D02*
X14430000Y-8450000D01*
X14585000Y-10110000D02*
X14615000Y-10140000D01*
X14615000Y-10110000D02*
X14585000Y-10140000D01*
X14610000Y-8095000D02*
X14640000Y-8125000D01*
X14640000Y-8095000D02*
X14610000Y-8125000D01*
X14659950Y-8934891D02*
X14689950Y-8964891D01*
X14689950Y-8934891D02*
X14659950Y-8964891D01*
X14755000Y-10110000D02*
X14785000Y-10140000D01*
X14785000Y-10110000D02*
X14755000Y-10140000D01*
X14925000Y-10105000D02*
X14955000Y-10135000D01*
X14955000Y-10105000D02*
X14925000Y-10135000D01*
X14965000Y-8505000D02*
X14995000Y-8535000D01*
X14995000Y-8505000D02*
X14965000Y-8535000D01*
X14965000Y-8665000D02*
X14995000Y-8695000D01*
X14995000Y-8665000D02*
X14965000Y-8695000D01*
X14985000Y-8840000D02*
X15015000Y-8870000D01*
X15015000Y-8840000D02*
X14985000Y-8870000D01*
X14985000Y-8995000D02*
X15015000Y-9025000D01*
X15015000Y-8995000D02*
X14985000Y-9025000D01*
X15100000Y-10105000D02*
X15130000Y-10135000D01*
X15130000Y-10105000D02*
X15100000Y-10135000D01*
X15105000Y-7105000D02*
X15135000Y-7135000D01*
X15135000Y-7105000D02*
X15105000Y-7135000D01*
X15110000Y-7410000D02*
X15140000Y-7440000D01*
X15140000Y-7410000D02*
X15110000Y-7440000D01*
X15120000Y-8535000D02*
X15150000Y-8565000D01*
X15150000Y-8535000D02*
X15120000Y-8565000D01*
X15155000Y-8810000D02*
X15185000Y-8840000D01*
X15185000Y-8810000D02*
X15155000Y-8840000D01*
X15275000Y-10110000D02*
X15305000Y-10140000D01*
X15305000Y-10110000D02*
X15275000Y-10140000D01*
X15285000Y-8535000D02*
X15315000Y-8565000D01*
X15315000Y-8535000D02*
X15285000Y-8565000D01*
X15305000Y-7285000D02*
X15335000Y-7315000D01*
X15335000Y-7285000D02*
X15305000Y-7315000D01*
X15310000Y-8985000D02*
X15340000Y-9015000D01*
X15340000Y-8985000D02*
X15310000Y-9015000D01*
X15320000Y-8810000D02*
X15350000Y-8840000D01*
X15350000Y-8810000D02*
X15320000Y-8840000D01*
X15381250Y-7288750D02*
X15411250Y-7318750D01*
X15411250Y-7288750D02*
X15381250Y-7318750D01*
X15435000Y-8500000D02*
X15465000Y-8530000D01*
X15465000Y-8500000D02*
X15435000Y-8530000D01*
X15435000Y-8655000D02*
X15465000Y-8685000D01*
X15465000Y-8655000D02*
X15435000Y-8685000D01*
X15465000Y-8985000D02*
X15495000Y-9015000D01*
X15495000Y-8985000D02*
X15465000Y-9015000D01*
X15473000Y-8205000D02*
X15503000Y-8235000D01*
X15503000Y-8205000D02*
X15473000Y-8235000D01*
X15745000Y-8535000D02*
X15775000Y-8565000D01*
X15775000Y-8535000D02*
X15745000Y-8565000D01*
X15835000Y-7135000D02*
X15865000Y-7165000D01*
X15865000Y-7135000D02*
X15835000Y-7165000D01*
X16045000Y-7830000D02*
X16075000Y-7860000D01*
X16075000Y-7830000D02*
X16045000Y-7860000D01*
X16045000Y-7985000D02*
X16075000Y-8015000D01*
X16075000Y-7985000D02*
X16045000Y-8015000D01*
X16345000Y-7675000D02*
X16375000Y-7705000D01*
X16375000Y-7675000D02*
X16345000Y-7705000D01*
X16345000Y-7970000D02*
X16375000Y-8000000D01*
X16375000Y-7970000D02*
X16345000Y-8000000D01*
X16575000Y-7685000D02*
X16605000Y-7715000D01*
X16605000Y-7685000D02*
X16575000Y-7715000D01*
X16575000Y-7845000D02*
X16605000Y-7875000D01*
X16605000Y-7845000D02*
X16575000Y-7875000D01*
X17025000Y-8900000D02*
X17055000Y-8930000D01*
X17055000Y-8900000D02*
X17025000Y-8930000D01*
D13*
X16230000Y-9565000D02*
G75*
G03*
X16230000Y-9565000I-20000J0D01*
G01*
X16980000Y-9475000D02*
G75*
G03*
X16980000Y-9475000I-20000J0D01*
G01*
D14*
X13680000Y-6830000D02*
X13680000Y-6880000D01*
X13655000Y-6855000D02*
X13705000Y-6855000D01*
X13965000Y-8975050D02*
X13965000Y-9025050D01*
X13940000Y-9000050D02*
X13990000Y-9000050D01*
X14015000Y-8235000D02*
X14015000Y-8285000D01*
X13990000Y-8260000D02*
X14040000Y-8260000D01*
X14300000Y-6950000D02*
X14300000Y-7000000D01*
X14275000Y-6975000D02*
X14325000Y-6975000D01*
X14300000Y-7100000D02*
X14300000Y-7150000D01*
X14275000Y-7125000D02*
X14325000Y-7125000D01*
X14300000Y-7355000D02*
X14300000Y-7405000D01*
X14275000Y-7380000D02*
X14325000Y-7380000D01*
X14450000Y-6950000D02*
X14450000Y-7000000D01*
X14425000Y-6975000D02*
X14475000Y-6975000D01*
X14450000Y-7100000D02*
X14450000Y-7150000D01*
X14425000Y-7125000D02*
X14475000Y-7125000D01*
X14530000Y-7350000D02*
X14530000Y-7400000D01*
X14505000Y-7375000D02*
X14555000Y-7375000D01*
X14600000Y-6950000D02*
X14600000Y-7000000D01*
X14575000Y-6975000D02*
X14625000Y-6975000D01*
X14600000Y-7100000D02*
X14600000Y-7150000D01*
X14575000Y-7125000D02*
X14625000Y-7125000D01*
X14750000Y-6950000D02*
X14750000Y-7000000D01*
X14725000Y-6975000D02*
X14775000Y-6975000D01*
X14750000Y-7100000D02*
X14750000Y-7150000D01*
X14725000Y-7125000D02*
X14775000Y-7125000D01*
X14930000Y-8130000D02*
X14930000Y-8180000D01*
X14905000Y-8155000D02*
X14955000Y-8155000D01*
X15330000Y-8130000D02*
X15330000Y-8180000D01*
X15305000Y-8155000D02*
X15355000Y-8155000D01*
X16170000Y-7350000D02*
X16170000Y-7400000D01*
X16145000Y-7375000D02*
X16195000Y-7375000D01*
X16400000Y-7355000D02*
X16400000Y-7405000D01*
X16375000Y-7380000D02*
X16425000Y-7380000D01*
X16755000Y-9886250D02*
X16755000Y-9936250D01*
X16730000Y-9911250D02*
X16780000Y-9911250D01*
X16990000Y-8180000D02*
X16990000Y-8230000D01*
X16965000Y-8205000D02*
X17015000Y-8205000D01*
D15*
X13000356Y-8397856D02*
X13000356Y-8327144D01*
X12929644Y-8327144D01*
X12929644Y-8397856D01*
X13000356Y-8397856D01*
X13000356Y-8647856D02*
X13000356Y-8577144D01*
X12929644Y-8577144D01*
X12929644Y-8647856D01*
X13000356Y-8647856D01*
X13000356Y-8897856D02*
X13000356Y-8827144D01*
X12929644Y-8827144D01*
X12929644Y-8897856D01*
X13000356Y-8897856D01*
X13000356Y-9151856D02*
X13000356Y-9081144D01*
X12929644Y-9081144D01*
X12929644Y-9151856D01*
X13000356Y-9151856D01*
X13000356Y-9405856D02*
X13000356Y-9335144D01*
X12929644Y-9335144D01*
X12929644Y-9405856D01*
X13000356Y-9405856D01*
X13000356Y-9659856D02*
X13000356Y-9589144D01*
X12929644Y-9589144D01*
X12929644Y-9659856D01*
X13000356Y-9659856D01*
X13065356Y-7630356D02*
X13065356Y-7559644D01*
X12994644Y-7559644D01*
X12994644Y-7630356D01*
X13065356Y-7630356D01*
X14480356Y-10502323D02*
X14480356Y-10431611D01*
X14409644Y-10431611D01*
X14409644Y-10502323D01*
X14480356Y-10502323D01*
X14618856Y-10786323D02*
X14618856Y-10715611D01*
X14548144Y-10715611D01*
X14548144Y-10786323D01*
X14618856Y-10786323D01*
X14757356Y-10502323D02*
X14757356Y-10431611D01*
X14686644Y-10431611D01*
X14686644Y-10502323D01*
X14757356Y-10502323D01*
X14895856Y-10786323D02*
X14895856Y-10715611D01*
X14825144Y-10715611D01*
X14825144Y-10786323D01*
X14895856Y-10786323D01*
X15034356Y-10502323D02*
X15034356Y-10431611D01*
X14963644Y-10431611D01*
X14963644Y-10502323D01*
X15034356Y-10502323D01*
X15063356Y-7875356D02*
X15063356Y-7804644D01*
X14992644Y-7804644D01*
X14992644Y-7875356D01*
X15063356Y-7875356D01*
X15172856Y-10786323D02*
X15172856Y-10715611D01*
X15102144Y-10715611D01*
X15102144Y-10786323D01*
X15172856Y-10786323D01*
X15311356Y-10502323D02*
X15311356Y-10431611D01*
X15240644Y-10431611D01*
X15240644Y-10502323D01*
X15311356Y-10502323D01*
X15317356Y-7875356D02*
X15317356Y-7804644D01*
X15246644Y-7804644D01*
X15246644Y-7875356D01*
X15317356Y-7875356D01*
X15449856Y-10786323D02*
X15449856Y-10715611D01*
X15379144Y-10715611D01*
X15379144Y-10786323D01*
X15449856Y-10786323D01*
X15571356Y-7875356D02*
X15571356Y-7804644D01*
X15500644Y-7804644D01*
X15500644Y-7875356D01*
X15571356Y-7875356D01*
X15588356Y-10502323D02*
X15588356Y-10431611D01*
X15517644Y-10431611D01*
X15517644Y-10502323D01*
X15588356Y-10502323D01*
X15825356Y-7875356D02*
X15825356Y-7804644D01*
X15754644Y-7804644D01*
X15754644Y-7875356D01*
X15825356Y-7875356D01*
D16*
X13749000Y-10768967D02*
X13909000Y-10608967D01*
X13749000Y-10448967D01*
X13589000Y-10608967D01*
X13749000Y-10768967D01*
X16249000Y-10768967D02*
X16409000Y-10608967D01*
X16249000Y-10448967D01*
X16089000Y-10608967D01*
X16249000Y-10768967D01*
D11*
X12853277Y-11823484D02*
X12853277Y-11623484D01*
X12853277Y-11623484D02*
X12900896Y-11623484D01*
X12900896Y-11623484D02*
X12929467Y-11633008D01*
X12929467Y-11633008D02*
X12948515Y-11652055D01*
X12948515Y-11652055D02*
X12958039Y-11671103D01*
X12958039Y-11671103D02*
X12967562Y-11709198D01*
X12967562Y-11709198D02*
X12967562Y-11737769D01*
X12967562Y-11737769D02*
X12958039Y-11775865D01*
X12958039Y-11775865D02*
X12948515Y-11794912D01*
X12948515Y-11794912D02*
X12929467Y-11813960D01*
X12929467Y-11813960D02*
X12900896Y-11823484D01*
X12900896Y-11823484D02*
X12853277Y-11823484D01*
X13053277Y-11823484D02*
X13053277Y-11690150D01*
X13053277Y-11728246D02*
X13062801Y-11709198D01*
X13062801Y-11709198D02*
X13072324Y-11699674D01*
X13072324Y-11699674D02*
X13091372Y-11690150D01*
X13091372Y-11690150D02*
X13110420Y-11690150D01*
X13177086Y-11823484D02*
X13177086Y-11690150D01*
X13177086Y-11623484D02*
X13167562Y-11633008D01*
X13167562Y-11633008D02*
X13177086Y-11642531D01*
X13177086Y-11642531D02*
X13186610Y-11633008D01*
X13186610Y-11633008D02*
X13177086Y-11623484D01*
X13177086Y-11623484D02*
X13177086Y-11642531D01*
X13300896Y-11823484D02*
X13281848Y-11813960D01*
X13281848Y-11813960D02*
X13272324Y-11794912D01*
X13272324Y-11794912D02*
X13272324Y-11623484D01*
X13405658Y-11823484D02*
X13386610Y-11813960D01*
X13386610Y-11813960D02*
X13377086Y-11794912D01*
X13377086Y-11794912D02*
X13377086Y-11623484D01*
X13634229Y-11823484D02*
X13634229Y-11623484D01*
X13634229Y-11623484D02*
X13700896Y-11766341D01*
X13700896Y-11766341D02*
X13767562Y-11623484D01*
X13767562Y-11623484D02*
X13767562Y-11823484D01*
X13948515Y-11823484D02*
X13948515Y-11718722D01*
X13948515Y-11718722D02*
X13938991Y-11699674D01*
X13938991Y-11699674D02*
X13919943Y-11690150D01*
X13919943Y-11690150D02*
X13881848Y-11690150D01*
X13881848Y-11690150D02*
X13862801Y-11699674D01*
X13948515Y-11813960D02*
X13929467Y-11823484D01*
X13929467Y-11823484D02*
X13881848Y-11823484D01*
X13881848Y-11823484D02*
X13862801Y-11813960D01*
X13862801Y-11813960D02*
X13853277Y-11794912D01*
X13853277Y-11794912D02*
X13853277Y-11775865D01*
X13853277Y-11775865D02*
X13862801Y-11756817D01*
X13862801Y-11756817D02*
X13881848Y-11747293D01*
X13881848Y-11747293D02*
X13929467Y-11747293D01*
X13929467Y-11747293D02*
X13948515Y-11737769D01*
X14043753Y-11690150D02*
X14043753Y-11890150D01*
X14043753Y-11699674D02*
X14062801Y-11690150D01*
X14062801Y-11690150D02*
X14100896Y-11690150D01*
X14100896Y-11690150D02*
X14119943Y-11699674D01*
X14119943Y-11699674D02*
X14129467Y-11709198D01*
X14129467Y-11709198D02*
X14138991Y-11728246D01*
X14138991Y-11728246D02*
X14138991Y-11785388D01*
X14138991Y-11785388D02*
X14129467Y-11804436D01*
X14129467Y-11804436D02*
X14119943Y-11813960D01*
X14119943Y-11813960D02*
X14100896Y-11823484D01*
X14100896Y-11823484D02*
X14062801Y-11823484D01*
X14062801Y-11823484D02*
X14043753Y-11813960D01*
X14224705Y-11804436D02*
X14234229Y-11813960D01*
X14234229Y-11813960D02*
X14224705Y-11823484D01*
X14224705Y-11823484D02*
X14215182Y-11813960D01*
X14215182Y-11813960D02*
X14224705Y-11804436D01*
X14224705Y-11804436D02*
X14224705Y-11823484D01*
X14224705Y-11699674D02*
X14234229Y-11709198D01*
X14234229Y-11709198D02*
X14224705Y-11718722D01*
X14224705Y-11718722D02*
X14215182Y-11709198D01*
X14215182Y-11709198D02*
X14224705Y-11699674D01*
X14224705Y-11699674D02*
X14224705Y-11718722D01*
D12*
X12562500Y-12137000D02*
X12592500Y-12167000D01*
X12592500Y-12137000D02*
X12562500Y-12167000D01*
D11*
X12891372Y-12043484D02*
X12910420Y-12043484D01*
X12910420Y-12043484D02*
X12929467Y-12053008D01*
X12929467Y-12053008D02*
X12938991Y-12062531D01*
X12938991Y-12062531D02*
X12948515Y-12081579D01*
X12948515Y-12081579D02*
X12958039Y-12119674D01*
X12958039Y-12119674D02*
X12958039Y-12167293D01*
X12958039Y-12167293D02*
X12948515Y-12205388D01*
X12948515Y-12205388D02*
X12938991Y-12224436D01*
X12938991Y-12224436D02*
X12929467Y-12233960D01*
X12929467Y-12233960D02*
X12910420Y-12243484D01*
X12910420Y-12243484D02*
X12891372Y-12243484D01*
X12891372Y-12243484D02*
X12872324Y-12233960D01*
X12872324Y-12233960D02*
X12862801Y-12224436D01*
X12862801Y-12224436D02*
X12853277Y-12205388D01*
X12853277Y-12205388D02*
X12843753Y-12167293D01*
X12843753Y-12167293D02*
X12843753Y-12119674D01*
X12843753Y-12119674D02*
X12853277Y-12081579D01*
X12853277Y-12081579D02*
X12862801Y-12062531D01*
X12862801Y-12062531D02*
X12872324Y-12053008D01*
X12872324Y-12053008D02*
X12891372Y-12043484D01*
X13043753Y-12224436D02*
X13053277Y-12233960D01*
X13053277Y-12233960D02*
X13043753Y-12243484D01*
X13043753Y-12243484D02*
X13034229Y-12233960D01*
X13034229Y-12233960D02*
X13043753Y-12224436D01*
X13043753Y-12224436D02*
X13043753Y-12243484D01*
X13119943Y-12043484D02*
X13243753Y-12043484D01*
X13243753Y-12043484D02*
X13177086Y-12119674D01*
X13177086Y-12119674D02*
X13205658Y-12119674D01*
X13205658Y-12119674D02*
X13224705Y-12129198D01*
X13224705Y-12129198D02*
X13234229Y-12138722D01*
X13234229Y-12138722D02*
X13243753Y-12157769D01*
X13243753Y-12157769D02*
X13243753Y-12205388D01*
X13243753Y-12205388D02*
X13234229Y-12224436D01*
X13234229Y-12224436D02*
X13224705Y-12233960D01*
X13224705Y-12233960D02*
X13205658Y-12243484D01*
X13205658Y-12243484D02*
X13148515Y-12243484D01*
X13148515Y-12243484D02*
X13129467Y-12233960D01*
X13129467Y-12233960D02*
X13119943Y-12224436D01*
X13367562Y-12043484D02*
X13386610Y-12043484D01*
X13386610Y-12043484D02*
X13405658Y-12053008D01*
X13405658Y-12053008D02*
X13415182Y-12062531D01*
X13415182Y-12062531D02*
X13424705Y-12081579D01*
X13424705Y-12081579D02*
X13434229Y-12119674D01*
X13434229Y-12119674D02*
X13434229Y-12167293D01*
X13434229Y-12167293D02*
X13424705Y-12205388D01*
X13424705Y-12205388D02*
X13415182Y-12224436D01*
X13415182Y-12224436D02*
X13405658Y-12233960D01*
X13405658Y-12233960D02*
X13386610Y-12243484D01*
X13386610Y-12243484D02*
X13367562Y-12243484D01*
X13367562Y-12243484D02*
X13348515Y-12233960D01*
X13348515Y-12233960D02*
X13338991Y-12224436D01*
X13338991Y-12224436D02*
X13329467Y-12205388D01*
X13329467Y-12205388D02*
X13319943Y-12167293D01*
X13319943Y-12167293D02*
X13319943Y-12119674D01*
X13319943Y-12119674D02*
X13329467Y-12081579D01*
X13329467Y-12081579D02*
X13338991Y-12062531D01*
X13338991Y-12062531D02*
X13348515Y-12053008D01*
X13348515Y-12053008D02*
X13367562Y-12043484D01*
X13558039Y-12043484D02*
X13577086Y-12043484D01*
X13577086Y-12043484D02*
X13596134Y-12053008D01*
X13596134Y-12053008D02*
X13605658Y-12062531D01*
X13605658Y-12062531D02*
X13615182Y-12081579D01*
X13615182Y-12081579D02*
X13624705Y-12119674D01*
X13624705Y-12119674D02*
X13624705Y-12167293D01*
X13624705Y-12167293D02*
X13615182Y-12205388D01*
X13615182Y-12205388D02*
X13605658Y-12224436D01*
X13605658Y-12224436D02*
X13596134Y-12233960D01*
X13596134Y-12233960D02*
X13577086Y-12243484D01*
X13577086Y-12243484D02*
X13558039Y-12243484D01*
X13558039Y-12243484D02*
X13538991Y-12233960D01*
X13538991Y-12233960D02*
X13529467Y-12224436D01*
X13529467Y-12224436D02*
X13519943Y-12205388D01*
X13519943Y-12205388D02*
X13510420Y-12167293D01*
X13510420Y-12167293D02*
X13510420Y-12119674D01*
X13510420Y-12119674D02*
X13519943Y-12081579D01*
X13519943Y-12081579D02*
X13529467Y-12062531D01*
X13529467Y-12062531D02*
X13538991Y-12053008D01*
X13538991Y-12053008D02*
X13558039Y-12043484D01*
X13710420Y-12243484D02*
X13710420Y-12110150D01*
X13710420Y-12129198D02*
X13719943Y-12119674D01*
X13719943Y-12119674D02*
X13738991Y-12110150D01*
X13738991Y-12110150D02*
X13767563Y-12110150D01*
X13767563Y-12110150D02*
X13786610Y-12119674D01*
X13786610Y-12119674D02*
X13796134Y-12138722D01*
X13796134Y-12138722D02*
X13796134Y-12243484D01*
X13796134Y-12138722D02*
X13805658Y-12119674D01*
X13805658Y-12119674D02*
X13824705Y-12110150D01*
X13824705Y-12110150D02*
X13853277Y-12110150D01*
X13853277Y-12110150D02*
X13872324Y-12119674D01*
X13872324Y-12119674D02*
X13881848Y-12138722D01*
X13881848Y-12138722D02*
X13881848Y-12243484D01*
X13977086Y-12243484D02*
X13977086Y-12110150D01*
X13977086Y-12129198D02*
X13986610Y-12119674D01*
X13986610Y-12119674D02*
X14005658Y-12110150D01*
X14005658Y-12110150D02*
X14034229Y-12110150D01*
X14034229Y-12110150D02*
X14053277Y-12119674D01*
X14053277Y-12119674D02*
X14062801Y-12138722D01*
X14062801Y-12138722D02*
X14062801Y-12243484D01*
X14062801Y-12138722D02*
X14072324Y-12119674D01*
X14072324Y-12119674D02*
X14091372Y-12110150D01*
X14091372Y-12110150D02*
X14119943Y-12110150D01*
X14119943Y-12110150D02*
X14138991Y-12119674D01*
X14138991Y-12119674D02*
X14148515Y-12138722D01*
X14148515Y-12138722D02*
X14148515Y-12243484D01*
X14538991Y-12033960D02*
X14367563Y-12291103D01*
X14796134Y-12043484D02*
X14815182Y-12043484D01*
X14815182Y-12043484D02*
X14834229Y-12053008D01*
X14834229Y-12053008D02*
X14843753Y-12062531D01*
X14843753Y-12062531D02*
X14853277Y-12081579D01*
X14853277Y-12081579D02*
X14862801Y-12119674D01*
X14862801Y-12119674D02*
X14862801Y-12167293D01*
X14862801Y-12167293D02*
X14853277Y-12205388D01*
X14853277Y-12205388D02*
X14843753Y-12224436D01*
X14843753Y-12224436D02*
X14834229Y-12233960D01*
X14834229Y-12233960D02*
X14815182Y-12243484D01*
X14815182Y-12243484D02*
X14796134Y-12243484D01*
X14796134Y-12243484D02*
X14777086Y-12233960D01*
X14777086Y-12233960D02*
X14767563Y-12224436D01*
X14767563Y-12224436D02*
X14758039Y-12205388D01*
X14758039Y-12205388D02*
X14748515Y-12167293D01*
X14748515Y-12167293D02*
X14748515Y-12119674D01*
X14748515Y-12119674D02*
X14758039Y-12081579D01*
X14758039Y-12081579D02*
X14767563Y-12062531D01*
X14767563Y-12062531D02*
X14777086Y-12053008D01*
X14777086Y-12053008D02*
X14796134Y-12043484D01*
X14948515Y-12224436D02*
X14958039Y-12233960D01*
X14958039Y-12233960D02*
X14948515Y-12243484D01*
X14948515Y-12243484D02*
X14938991Y-12233960D01*
X14938991Y-12233960D02*
X14948515Y-12224436D01*
X14948515Y-12224436D02*
X14948515Y-12243484D01*
X15081848Y-12043484D02*
X15100896Y-12043484D01*
X15100896Y-12043484D02*
X15119944Y-12053008D01*
X15119944Y-12053008D02*
X15129467Y-12062531D01*
X15129467Y-12062531D02*
X15138991Y-12081579D01*
X15138991Y-12081579D02*
X15148515Y-12119674D01*
X15148515Y-12119674D02*
X15148515Y-12167293D01*
X15148515Y-12167293D02*
X15138991Y-12205388D01*
X15138991Y-12205388D02*
X15129467Y-12224436D01*
X15129467Y-12224436D02*
X15119944Y-12233960D01*
X15119944Y-12233960D02*
X15100896Y-12243484D01*
X15100896Y-12243484D02*
X15081848Y-12243484D01*
X15081848Y-12243484D02*
X15062801Y-12233960D01*
X15062801Y-12233960D02*
X15053277Y-12224436D01*
X15053277Y-12224436D02*
X15043753Y-12205388D01*
X15043753Y-12205388D02*
X15034229Y-12167293D01*
X15034229Y-12167293D02*
X15034229Y-12119674D01*
X15034229Y-12119674D02*
X15043753Y-12081579D01*
X15043753Y-12081579D02*
X15053277Y-12062531D01*
X15053277Y-12062531D02*
X15062801Y-12053008D01*
X15062801Y-12053008D02*
X15081848Y-12043484D01*
X15338991Y-12243484D02*
X15224706Y-12243484D01*
X15281848Y-12243484D02*
X15281848Y-12043484D01*
X15281848Y-12043484D02*
X15262801Y-12072055D01*
X15262801Y-12072055D02*
X15243753Y-12091103D01*
X15243753Y-12091103D02*
X15224706Y-12100627D01*
X15529467Y-12243484D02*
X15415182Y-12243484D01*
X15472325Y-12243484D02*
X15472325Y-12043484D01*
X15472325Y-12043484D02*
X15453277Y-12072055D01*
X15453277Y-12072055D02*
X15434229Y-12091103D01*
X15434229Y-12091103D02*
X15415182Y-12100627D01*
X15643753Y-12129198D02*
X15624706Y-12119674D01*
X15624706Y-12119674D02*
X15615182Y-12110150D01*
X15615182Y-12110150D02*
X15605658Y-12091103D01*
X15605658Y-12091103D02*
X15605658Y-12081579D01*
X15605658Y-12081579D02*
X15615182Y-12062531D01*
X15615182Y-12062531D02*
X15624706Y-12053008D01*
X15624706Y-12053008D02*
X15643753Y-12043484D01*
X15643753Y-12043484D02*
X15681848Y-12043484D01*
X15681848Y-12043484D02*
X15700896Y-12053008D01*
X15700896Y-12053008D02*
X15710420Y-12062531D01*
X15710420Y-12062531D02*
X15719944Y-12081579D01*
X15719944Y-12081579D02*
X15719944Y-12091103D01*
X15719944Y-12091103D02*
X15710420Y-12110150D01*
X15710420Y-12110150D02*
X15700896Y-12119674D01*
X15700896Y-12119674D02*
X15681848Y-12129198D01*
X15681848Y-12129198D02*
X15643753Y-12129198D01*
X15643753Y-12129198D02*
X15624706Y-12138722D01*
X15624706Y-12138722D02*
X15615182Y-12148246D01*
X15615182Y-12148246D02*
X15605658Y-12167293D01*
X15605658Y-12167293D02*
X15605658Y-12205388D01*
X15605658Y-12205388D02*
X15615182Y-12224436D01*
X15615182Y-12224436D02*
X15624706Y-12233960D01*
X15624706Y-12233960D02*
X15643753Y-12243484D01*
X15643753Y-12243484D02*
X15681848Y-12243484D01*
X15681848Y-12243484D02*
X15700896Y-12233960D01*
X15700896Y-12233960D02*
X15710420Y-12224436D01*
X15710420Y-12224436D02*
X15719944Y-12205388D01*
X15719944Y-12205388D02*
X15719944Y-12167293D01*
X15719944Y-12167293D02*
X15710420Y-12148246D01*
X15710420Y-12148246D02*
X15700896Y-12138722D01*
X15700896Y-12138722D02*
X15681848Y-12129198D01*
X15796134Y-12043484D02*
X15796134Y-12081579D01*
X15872325Y-12043484D02*
X15872325Y-12081579D01*
X16167563Y-12319674D02*
X16158039Y-12310150D01*
X16158039Y-12310150D02*
X16138991Y-12281579D01*
X16138991Y-12281579D02*
X16129468Y-12262531D01*
X16129468Y-12262531D02*
X16119944Y-12233960D01*
X16119944Y-12233960D02*
X16110420Y-12186341D01*
X16110420Y-12186341D02*
X16110420Y-12148246D01*
X16110420Y-12148246D02*
X16119944Y-12100627D01*
X16119944Y-12100627D02*
X16129468Y-12072055D01*
X16129468Y-12072055D02*
X16138991Y-12053008D01*
X16138991Y-12053008D02*
X16158039Y-12024436D01*
X16158039Y-12024436D02*
X16167563Y-12014912D01*
X16329468Y-12110150D02*
X16329468Y-12243484D01*
X16281848Y-12033960D02*
X16234229Y-12176817D01*
X16234229Y-12176817D02*
X16358039Y-12176817D01*
X16538991Y-12243484D02*
X16424706Y-12243484D01*
X16481848Y-12243484D02*
X16481848Y-12043484D01*
X16481848Y-12043484D02*
X16462801Y-12072055D01*
X16462801Y-12072055D02*
X16443753Y-12091103D01*
X16443753Y-12091103D02*
X16424706Y-12100627D01*
X16777087Y-12243484D02*
X16777087Y-12043484D01*
X16862801Y-12243484D02*
X16862801Y-12138722D01*
X16862801Y-12138722D02*
X16853277Y-12119674D01*
X16853277Y-12119674D02*
X16834230Y-12110150D01*
X16834230Y-12110150D02*
X16805658Y-12110150D01*
X16805658Y-12110150D02*
X16786611Y-12119674D01*
X16786611Y-12119674D02*
X16777087Y-12129198D01*
X16986611Y-12243484D02*
X16967563Y-12233960D01*
X16967563Y-12233960D02*
X16958039Y-12224436D01*
X16958039Y-12224436D02*
X16948515Y-12205388D01*
X16948515Y-12205388D02*
X16948515Y-12148246D01*
X16948515Y-12148246D02*
X16958039Y-12129198D01*
X16958039Y-12129198D02*
X16967563Y-12119674D01*
X16967563Y-12119674D02*
X16986611Y-12110150D01*
X16986611Y-12110150D02*
X17015182Y-12110150D01*
X17015182Y-12110150D02*
X17034230Y-12119674D01*
X17034230Y-12119674D02*
X17043753Y-12129198D01*
X17043753Y-12129198D02*
X17053277Y-12148246D01*
X17053277Y-12148246D02*
X17053277Y-12205388D01*
X17053277Y-12205388D02*
X17043753Y-12224436D01*
X17043753Y-12224436D02*
X17034230Y-12233960D01*
X17034230Y-12233960D02*
X17015182Y-12243484D01*
X17015182Y-12243484D02*
X16986611Y-12243484D01*
X17167563Y-12243484D02*
X17148515Y-12233960D01*
X17148515Y-12233960D02*
X17138992Y-12214912D01*
X17138992Y-12214912D02*
X17138992Y-12043484D01*
X17319944Y-12233960D02*
X17300896Y-12243484D01*
X17300896Y-12243484D02*
X17262801Y-12243484D01*
X17262801Y-12243484D02*
X17243753Y-12233960D01*
X17243753Y-12233960D02*
X17234230Y-12214912D01*
X17234230Y-12214912D02*
X17234230Y-12138722D01*
X17234230Y-12138722D02*
X17243753Y-12119674D01*
X17243753Y-12119674D02*
X17262801Y-12110150D01*
X17262801Y-12110150D02*
X17300896Y-12110150D01*
X17300896Y-12110150D02*
X17319944Y-12119674D01*
X17319944Y-12119674D02*
X17329468Y-12138722D01*
X17329468Y-12138722D02*
X17329468Y-12157769D01*
X17329468Y-12157769D02*
X17234230Y-12176817D01*
X17405658Y-12233960D02*
X17424706Y-12243484D01*
X17424706Y-12243484D02*
X17462801Y-12243484D01*
X17462801Y-12243484D02*
X17481849Y-12233960D01*
X17481849Y-12233960D02*
X17491373Y-12214912D01*
X17491373Y-12214912D02*
X17491373Y-12205388D01*
X17491373Y-12205388D02*
X17481849Y-12186341D01*
X17481849Y-12186341D02*
X17462801Y-12176817D01*
X17462801Y-12176817D02*
X17434230Y-12176817D01*
X17434230Y-12176817D02*
X17415182Y-12167293D01*
X17415182Y-12167293D02*
X17405658Y-12148246D01*
X17405658Y-12148246D02*
X17405658Y-12138722D01*
X17405658Y-12138722D02*
X17415182Y-12119674D01*
X17415182Y-12119674D02*
X17434230Y-12110150D01*
X17434230Y-12110150D02*
X17462801Y-12110150D01*
X17462801Y-12110150D02*
X17481849Y-12119674D01*
X17558039Y-12319674D02*
X17567563Y-12310150D01*
X17567563Y-12310150D02*
X17586611Y-12281579D01*
X17586611Y-12281579D02*
X17596134Y-12262531D01*
X17596134Y-12262531D02*
X17605658Y-12233960D01*
X17605658Y-12233960D02*
X17615182Y-12186341D01*
X17615182Y-12186341D02*
X17615182Y-12148246D01*
X17615182Y-12148246D02*
X17605658Y-12100627D01*
X17605658Y-12100627D02*
X17596134Y-12072055D01*
X17596134Y-12072055D02*
X17586611Y-12053008D01*
X17586611Y-12053008D02*
X17567563Y-12024436D01*
X17567563Y-12024436D02*
X17558039Y-12014912D01*
D13*
X12592500Y-12416000D02*
G75*
G03*
X12592500Y-12416000I-20000J0D01*
G01*
D11*
X12891372Y-12307484D02*
X12910420Y-12307484D01*
X12910420Y-12307484D02*
X12929467Y-12317008D01*
X12929467Y-12317008D02*
X12938991Y-12326531D01*
X12938991Y-12326531D02*
X12948515Y-12345579D01*
X12948515Y-12345579D02*
X12958039Y-12383674D01*
X12958039Y-12383674D02*
X12958039Y-12431293D01*
X12958039Y-12431293D02*
X12948515Y-12469388D01*
X12948515Y-12469388D02*
X12938991Y-12488436D01*
X12938991Y-12488436D02*
X12929467Y-12497960D01*
X12929467Y-12497960D02*
X12910420Y-12507484D01*
X12910420Y-12507484D02*
X12891372Y-12507484D01*
X12891372Y-12507484D02*
X12872324Y-12497960D01*
X12872324Y-12497960D02*
X12862801Y-12488436D01*
X12862801Y-12488436D02*
X12853277Y-12469388D01*
X12853277Y-12469388D02*
X12843753Y-12431293D01*
X12843753Y-12431293D02*
X12843753Y-12383674D01*
X12843753Y-12383674D02*
X12853277Y-12345579D01*
X12853277Y-12345579D02*
X12862801Y-12326531D01*
X12862801Y-12326531D02*
X12872324Y-12317008D01*
X12872324Y-12317008D02*
X12891372Y-12307484D01*
X13043753Y-12488436D02*
X13053277Y-12497960D01*
X13053277Y-12497960D02*
X13043753Y-12507484D01*
X13043753Y-12507484D02*
X13034229Y-12497960D01*
X13034229Y-12497960D02*
X13043753Y-12488436D01*
X13043753Y-12488436D02*
X13043753Y-12507484D01*
X13224705Y-12374150D02*
X13224705Y-12507484D01*
X13177086Y-12297960D02*
X13129467Y-12440817D01*
X13129467Y-12440817D02*
X13253277Y-12440817D01*
X13367562Y-12307484D02*
X13386610Y-12307484D01*
X13386610Y-12307484D02*
X13405658Y-12317008D01*
X13405658Y-12317008D02*
X13415182Y-12326531D01*
X13415182Y-12326531D02*
X13424705Y-12345579D01*
X13424705Y-12345579D02*
X13434229Y-12383674D01*
X13434229Y-12383674D02*
X13434229Y-12431293D01*
X13434229Y-12431293D02*
X13424705Y-12469388D01*
X13424705Y-12469388D02*
X13415182Y-12488436D01*
X13415182Y-12488436D02*
X13405658Y-12497960D01*
X13405658Y-12497960D02*
X13386610Y-12507484D01*
X13386610Y-12507484D02*
X13367562Y-12507484D01*
X13367562Y-12507484D02*
X13348515Y-12497960D01*
X13348515Y-12497960D02*
X13338991Y-12488436D01*
X13338991Y-12488436D02*
X13329467Y-12469388D01*
X13329467Y-12469388D02*
X13319943Y-12431293D01*
X13319943Y-12431293D02*
X13319943Y-12383674D01*
X13319943Y-12383674D02*
X13329467Y-12345579D01*
X13329467Y-12345579D02*
X13338991Y-12326531D01*
X13338991Y-12326531D02*
X13348515Y-12317008D01*
X13348515Y-12317008D02*
X13367562Y-12307484D01*
X13558039Y-12307484D02*
X13577086Y-12307484D01*
X13577086Y-12307484D02*
X13596134Y-12317008D01*
X13596134Y-12317008D02*
X13605658Y-12326531D01*
X13605658Y-12326531D02*
X13615182Y-12345579D01*
X13615182Y-12345579D02*
X13624705Y-12383674D01*
X13624705Y-12383674D02*
X13624705Y-12431293D01*
X13624705Y-12431293D02*
X13615182Y-12469388D01*
X13615182Y-12469388D02*
X13605658Y-12488436D01*
X13605658Y-12488436D02*
X13596134Y-12497960D01*
X13596134Y-12497960D02*
X13577086Y-12507484D01*
X13577086Y-12507484D02*
X13558039Y-12507484D01*
X13558039Y-12507484D02*
X13538991Y-12497960D01*
X13538991Y-12497960D02*
X13529467Y-12488436D01*
X13529467Y-12488436D02*
X13519943Y-12469388D01*
X13519943Y-12469388D02*
X13510420Y-12431293D01*
X13510420Y-12431293D02*
X13510420Y-12383674D01*
X13510420Y-12383674D02*
X13519943Y-12345579D01*
X13519943Y-12345579D02*
X13529467Y-12326531D01*
X13529467Y-12326531D02*
X13538991Y-12317008D01*
X13538991Y-12317008D02*
X13558039Y-12307484D01*
X13710420Y-12507484D02*
X13710420Y-12374150D01*
X13710420Y-12393198D02*
X13719943Y-12383674D01*
X13719943Y-12383674D02*
X13738991Y-12374150D01*
X13738991Y-12374150D02*
X13767563Y-12374150D01*
X13767563Y-12374150D02*
X13786610Y-12383674D01*
X13786610Y-12383674D02*
X13796134Y-12402722D01*
X13796134Y-12402722D02*
X13796134Y-12507484D01*
X13796134Y-12402722D02*
X13805658Y-12383674D01*
X13805658Y-12383674D02*
X13824705Y-12374150D01*
X13824705Y-12374150D02*
X13853277Y-12374150D01*
X13853277Y-12374150D02*
X13872324Y-12383674D01*
X13872324Y-12383674D02*
X13881848Y-12402722D01*
X13881848Y-12402722D02*
X13881848Y-12507484D01*
X13977086Y-12507484D02*
X13977086Y-12374150D01*
X13977086Y-12393198D02*
X13986610Y-12383674D01*
X13986610Y-12383674D02*
X14005658Y-12374150D01*
X14005658Y-12374150D02*
X14034229Y-12374150D01*
X14034229Y-12374150D02*
X14053277Y-12383674D01*
X14053277Y-12383674D02*
X14062801Y-12402722D01*
X14062801Y-12402722D02*
X14062801Y-12507484D01*
X14062801Y-12402722D02*
X14072324Y-12383674D01*
X14072324Y-12383674D02*
X14091372Y-12374150D01*
X14091372Y-12374150D02*
X14119943Y-12374150D01*
X14119943Y-12374150D02*
X14138991Y-12383674D01*
X14138991Y-12383674D02*
X14148515Y-12402722D01*
X14148515Y-12402722D02*
X14148515Y-12507484D01*
X14538991Y-12297960D02*
X14367563Y-12555103D01*
X14796134Y-12307484D02*
X14815182Y-12307484D01*
X14815182Y-12307484D02*
X14834229Y-12317008D01*
X14834229Y-12317008D02*
X14843753Y-12326531D01*
X14843753Y-12326531D02*
X14853277Y-12345579D01*
X14853277Y-12345579D02*
X14862801Y-12383674D01*
X14862801Y-12383674D02*
X14862801Y-12431293D01*
X14862801Y-12431293D02*
X14853277Y-12469388D01*
X14853277Y-12469388D02*
X14843753Y-12488436D01*
X14843753Y-12488436D02*
X14834229Y-12497960D01*
X14834229Y-12497960D02*
X14815182Y-12507484D01*
X14815182Y-12507484D02*
X14796134Y-12507484D01*
X14796134Y-12507484D02*
X14777086Y-12497960D01*
X14777086Y-12497960D02*
X14767563Y-12488436D01*
X14767563Y-12488436D02*
X14758039Y-12469388D01*
X14758039Y-12469388D02*
X14748515Y-12431293D01*
X14748515Y-12431293D02*
X14748515Y-12383674D01*
X14748515Y-12383674D02*
X14758039Y-12345579D01*
X14758039Y-12345579D02*
X14767563Y-12326531D01*
X14767563Y-12326531D02*
X14777086Y-12317008D01*
X14777086Y-12317008D02*
X14796134Y-12307484D01*
X14948515Y-12488436D02*
X14958039Y-12497960D01*
X14958039Y-12497960D02*
X14948515Y-12507484D01*
X14948515Y-12507484D02*
X14938991Y-12497960D01*
X14938991Y-12497960D02*
X14948515Y-12488436D01*
X14948515Y-12488436D02*
X14948515Y-12507484D01*
X15081848Y-12307484D02*
X15100896Y-12307484D01*
X15100896Y-12307484D02*
X15119944Y-12317008D01*
X15119944Y-12317008D02*
X15129467Y-12326531D01*
X15129467Y-12326531D02*
X15138991Y-12345579D01*
X15138991Y-12345579D02*
X15148515Y-12383674D01*
X15148515Y-12383674D02*
X15148515Y-12431293D01*
X15148515Y-12431293D02*
X15138991Y-12469388D01*
X15138991Y-12469388D02*
X15129467Y-12488436D01*
X15129467Y-12488436D02*
X15119944Y-12497960D01*
X15119944Y-12497960D02*
X15100896Y-12507484D01*
X15100896Y-12507484D02*
X15081848Y-12507484D01*
X15081848Y-12507484D02*
X15062801Y-12497960D01*
X15062801Y-12497960D02*
X15053277Y-12488436D01*
X15053277Y-12488436D02*
X15043753Y-12469388D01*
X15043753Y-12469388D02*
X15034229Y-12431293D01*
X15034229Y-12431293D02*
X15034229Y-12383674D01*
X15034229Y-12383674D02*
X15043753Y-12345579D01*
X15043753Y-12345579D02*
X15053277Y-12326531D01*
X15053277Y-12326531D02*
X15062801Y-12317008D01*
X15062801Y-12317008D02*
X15081848Y-12307484D01*
X15338991Y-12507484D02*
X15224706Y-12507484D01*
X15281848Y-12507484D02*
X15281848Y-12307484D01*
X15281848Y-12307484D02*
X15262801Y-12336055D01*
X15262801Y-12336055D02*
X15243753Y-12355103D01*
X15243753Y-12355103D02*
X15224706Y-12364627D01*
X15519944Y-12307484D02*
X15424706Y-12307484D01*
X15424706Y-12307484D02*
X15415182Y-12402722D01*
X15415182Y-12402722D02*
X15424706Y-12393198D01*
X15424706Y-12393198D02*
X15443753Y-12383674D01*
X15443753Y-12383674D02*
X15491372Y-12383674D01*
X15491372Y-12383674D02*
X15510420Y-12393198D01*
X15510420Y-12393198D02*
X15519944Y-12402722D01*
X15519944Y-12402722D02*
X15529467Y-12421769D01*
X15529467Y-12421769D02*
X15529467Y-12469388D01*
X15529467Y-12469388D02*
X15519944Y-12488436D01*
X15519944Y-12488436D02*
X15510420Y-12497960D01*
X15510420Y-12497960D02*
X15491372Y-12507484D01*
X15491372Y-12507484D02*
X15443753Y-12507484D01*
X15443753Y-12507484D02*
X15424706Y-12497960D01*
X15424706Y-12497960D02*
X15415182Y-12488436D01*
X15596134Y-12307484D02*
X15729467Y-12307484D01*
X15729467Y-12307484D02*
X15643753Y-12507484D01*
X15796134Y-12307484D02*
X15796134Y-12345579D01*
X15872325Y-12307484D02*
X15872325Y-12345579D01*
X16167563Y-12583674D02*
X16158039Y-12574150D01*
X16158039Y-12574150D02*
X16138991Y-12545579D01*
X16138991Y-12545579D02*
X16129468Y-12526531D01*
X16129468Y-12526531D02*
X16119944Y-12497960D01*
X16119944Y-12497960D02*
X16110420Y-12450341D01*
X16110420Y-12450341D02*
X16110420Y-12412246D01*
X16110420Y-12412246D02*
X16119944Y-12364627D01*
X16119944Y-12364627D02*
X16129468Y-12336055D01*
X16129468Y-12336055D02*
X16138991Y-12317008D01*
X16138991Y-12317008D02*
X16158039Y-12288436D01*
X16158039Y-12288436D02*
X16167563Y-12278912D01*
X16234229Y-12326531D02*
X16243753Y-12317008D01*
X16243753Y-12317008D02*
X16262801Y-12307484D01*
X16262801Y-12307484D02*
X16310420Y-12307484D01*
X16310420Y-12307484D02*
X16329468Y-12317008D01*
X16329468Y-12317008D02*
X16338991Y-12326531D01*
X16338991Y-12326531D02*
X16348515Y-12345579D01*
X16348515Y-12345579D02*
X16348515Y-12364627D01*
X16348515Y-12364627D02*
X16338991Y-12393198D01*
X16338991Y-12393198D02*
X16224706Y-12507484D01*
X16224706Y-12507484D02*
X16348515Y-12507484D01*
X16586610Y-12507484D02*
X16586610Y-12307484D01*
X16672325Y-12507484D02*
X16672325Y-12402722D01*
X16672325Y-12402722D02*
X16662801Y-12383674D01*
X16662801Y-12383674D02*
X16643753Y-12374150D01*
X16643753Y-12374150D02*
X16615182Y-12374150D01*
X16615182Y-12374150D02*
X16596134Y-12383674D01*
X16596134Y-12383674D02*
X16586610Y-12393198D01*
X16796134Y-12507484D02*
X16777087Y-12497960D01*
X16777087Y-12497960D02*
X16767563Y-12488436D01*
X16767563Y-12488436D02*
X16758039Y-12469388D01*
X16758039Y-12469388D02*
X16758039Y-12412246D01*
X16758039Y-12412246D02*
X16767563Y-12393198D01*
X16767563Y-12393198D02*
X16777087Y-12383674D01*
X16777087Y-12383674D02*
X16796134Y-12374150D01*
X16796134Y-12374150D02*
X16824706Y-12374150D01*
X16824706Y-12374150D02*
X16843753Y-12383674D01*
X16843753Y-12383674D02*
X16853277Y-12393198D01*
X16853277Y-12393198D02*
X16862801Y-12412246D01*
X16862801Y-12412246D02*
X16862801Y-12469388D01*
X16862801Y-12469388D02*
X16853277Y-12488436D01*
X16853277Y-12488436D02*
X16843753Y-12497960D01*
X16843753Y-12497960D02*
X16824706Y-12507484D01*
X16824706Y-12507484D02*
X16796134Y-12507484D01*
X16977087Y-12507484D02*
X16958039Y-12497960D01*
X16958039Y-12497960D02*
X16948515Y-12478912D01*
X16948515Y-12478912D02*
X16948515Y-12307484D01*
X17129468Y-12497960D02*
X17110420Y-12507484D01*
X17110420Y-12507484D02*
X17072325Y-12507484D01*
X17072325Y-12507484D02*
X17053277Y-12497960D01*
X17053277Y-12497960D02*
X17043753Y-12478912D01*
X17043753Y-12478912D02*
X17043753Y-12402722D01*
X17043753Y-12402722D02*
X17053277Y-12383674D01*
X17053277Y-12383674D02*
X17072325Y-12374150D01*
X17072325Y-12374150D02*
X17110420Y-12374150D01*
X17110420Y-12374150D02*
X17129468Y-12383674D01*
X17129468Y-12383674D02*
X17138992Y-12402722D01*
X17138992Y-12402722D02*
X17138992Y-12421769D01*
X17138992Y-12421769D02*
X17043753Y-12440817D01*
X17215182Y-12497960D02*
X17234230Y-12507484D01*
X17234230Y-12507484D02*
X17272325Y-12507484D01*
X17272325Y-12507484D02*
X17291373Y-12497960D01*
X17291373Y-12497960D02*
X17300896Y-12478912D01*
X17300896Y-12478912D02*
X17300896Y-12469388D01*
X17300896Y-12469388D02*
X17291373Y-12450341D01*
X17291373Y-12450341D02*
X17272325Y-12440817D01*
X17272325Y-12440817D02*
X17243753Y-12440817D01*
X17243753Y-12440817D02*
X17224706Y-12431293D01*
X17224706Y-12431293D02*
X17215182Y-12412246D01*
X17215182Y-12412246D02*
X17215182Y-12402722D01*
X17215182Y-12402722D02*
X17224706Y-12383674D01*
X17224706Y-12383674D02*
X17243753Y-12374150D01*
X17243753Y-12374150D02*
X17272325Y-12374150D01*
X17272325Y-12374150D02*
X17291373Y-12383674D01*
X17367563Y-12583674D02*
X17377087Y-12574150D01*
X17377087Y-12574150D02*
X17396134Y-12545579D01*
X17396134Y-12545579D02*
X17405658Y-12526531D01*
X17405658Y-12526531D02*
X17415182Y-12497960D01*
X17415182Y-12497960D02*
X17424706Y-12450341D01*
X17424706Y-12450341D02*
X17424706Y-12412246D01*
X17424706Y-12412246D02*
X17415182Y-12364627D01*
X17415182Y-12364627D02*
X17405658Y-12336055D01*
X17405658Y-12336055D02*
X17396134Y-12317008D01*
X17396134Y-12317008D02*
X17377087Y-12288436D01*
X17377087Y-12288436D02*
X17367563Y-12278912D01*
D14*
X12567500Y-12655000D02*
X12567500Y-12705000D01*
X12542500Y-12680000D02*
X12592500Y-12680000D01*
D11*
X12891372Y-12571484D02*
X12910420Y-12571484D01*
X12910420Y-12571484D02*
X12929467Y-12581008D01*
X12929467Y-12581008D02*
X12938991Y-12590531D01*
X12938991Y-12590531D02*
X12948515Y-12609579D01*
X12948515Y-12609579D02*
X12958039Y-12647674D01*
X12958039Y-12647674D02*
X12958039Y-12695293D01*
X12958039Y-12695293D02*
X12948515Y-12733388D01*
X12948515Y-12733388D02*
X12938991Y-12752436D01*
X12938991Y-12752436D02*
X12929467Y-12761960D01*
X12929467Y-12761960D02*
X12910420Y-12771484D01*
X12910420Y-12771484D02*
X12891372Y-12771484D01*
X12891372Y-12771484D02*
X12872324Y-12761960D01*
X12872324Y-12761960D02*
X12862801Y-12752436D01*
X12862801Y-12752436D02*
X12853277Y-12733388D01*
X12853277Y-12733388D02*
X12843753Y-12695293D01*
X12843753Y-12695293D02*
X12843753Y-12647674D01*
X12843753Y-12647674D02*
X12853277Y-12609579D01*
X12853277Y-12609579D02*
X12862801Y-12590531D01*
X12862801Y-12590531D02*
X12872324Y-12581008D01*
X12872324Y-12581008D02*
X12891372Y-12571484D01*
X13043753Y-12752436D02*
X13053277Y-12761960D01*
X13053277Y-12761960D02*
X13043753Y-12771484D01*
X13043753Y-12771484D02*
X13034229Y-12761960D01*
X13034229Y-12761960D02*
X13043753Y-12752436D01*
X13043753Y-12752436D02*
X13043753Y-12771484D01*
X13234229Y-12571484D02*
X13138991Y-12571484D01*
X13138991Y-12571484D02*
X13129467Y-12666722D01*
X13129467Y-12666722D02*
X13138991Y-12657198D01*
X13138991Y-12657198D02*
X13158039Y-12647674D01*
X13158039Y-12647674D02*
X13205658Y-12647674D01*
X13205658Y-12647674D02*
X13224705Y-12657198D01*
X13224705Y-12657198D02*
X13234229Y-12666722D01*
X13234229Y-12666722D02*
X13243753Y-12685769D01*
X13243753Y-12685769D02*
X13243753Y-12733388D01*
X13243753Y-12733388D02*
X13234229Y-12752436D01*
X13234229Y-12752436D02*
X13224705Y-12761960D01*
X13224705Y-12761960D02*
X13205658Y-12771484D01*
X13205658Y-12771484D02*
X13158039Y-12771484D01*
X13158039Y-12771484D02*
X13138991Y-12761960D01*
X13138991Y-12761960D02*
X13129467Y-12752436D01*
X13367562Y-12571484D02*
X13386610Y-12571484D01*
X13386610Y-12571484D02*
X13405658Y-12581008D01*
X13405658Y-12581008D02*
X13415182Y-12590531D01*
X13415182Y-12590531D02*
X13424705Y-12609579D01*
X13424705Y-12609579D02*
X13434229Y-12647674D01*
X13434229Y-12647674D02*
X13434229Y-12695293D01*
X13434229Y-12695293D02*
X13424705Y-12733388D01*
X13424705Y-12733388D02*
X13415182Y-12752436D01*
X13415182Y-12752436D02*
X13405658Y-12761960D01*
X13405658Y-12761960D02*
X13386610Y-12771484D01*
X13386610Y-12771484D02*
X13367562Y-12771484D01*
X13367562Y-12771484D02*
X13348515Y-12761960D01*
X13348515Y-12761960D02*
X13338991Y-12752436D01*
X13338991Y-12752436D02*
X13329467Y-12733388D01*
X13329467Y-12733388D02*
X13319943Y-12695293D01*
X13319943Y-12695293D02*
X13319943Y-12647674D01*
X13319943Y-12647674D02*
X13329467Y-12609579D01*
X13329467Y-12609579D02*
X13338991Y-12590531D01*
X13338991Y-12590531D02*
X13348515Y-12581008D01*
X13348515Y-12581008D02*
X13367562Y-12571484D01*
X13558039Y-12571484D02*
X13577086Y-12571484D01*
X13577086Y-12571484D02*
X13596134Y-12581008D01*
X13596134Y-12581008D02*
X13605658Y-12590531D01*
X13605658Y-12590531D02*
X13615182Y-12609579D01*
X13615182Y-12609579D02*
X13624705Y-12647674D01*
X13624705Y-12647674D02*
X13624705Y-12695293D01*
X13624705Y-12695293D02*
X13615182Y-12733388D01*
X13615182Y-12733388D02*
X13605658Y-12752436D01*
X13605658Y-12752436D02*
X13596134Y-12761960D01*
X13596134Y-12761960D02*
X13577086Y-12771484D01*
X13577086Y-12771484D02*
X13558039Y-12771484D01*
X13558039Y-12771484D02*
X13538991Y-12761960D01*
X13538991Y-12761960D02*
X13529467Y-12752436D01*
X13529467Y-12752436D02*
X13519943Y-12733388D01*
X13519943Y-12733388D02*
X13510420Y-12695293D01*
X13510420Y-12695293D02*
X13510420Y-12647674D01*
X13510420Y-12647674D02*
X13519943Y-12609579D01*
X13519943Y-12609579D02*
X13529467Y-12590531D01*
X13529467Y-12590531D02*
X13538991Y-12581008D01*
X13538991Y-12581008D02*
X13558039Y-12571484D01*
X13710420Y-12771484D02*
X13710420Y-12638150D01*
X13710420Y-12657198D02*
X13719943Y-12647674D01*
X13719943Y-12647674D02*
X13738991Y-12638150D01*
X13738991Y-12638150D02*
X13767563Y-12638150D01*
X13767563Y-12638150D02*
X13786610Y-12647674D01*
X13786610Y-12647674D02*
X13796134Y-12666722D01*
X13796134Y-12666722D02*
X13796134Y-12771484D01*
X13796134Y-12666722D02*
X13805658Y-12647674D01*
X13805658Y-12647674D02*
X13824705Y-12638150D01*
X13824705Y-12638150D02*
X13853277Y-12638150D01*
X13853277Y-12638150D02*
X13872324Y-12647674D01*
X13872324Y-12647674D02*
X13881848Y-12666722D01*
X13881848Y-12666722D02*
X13881848Y-12771484D01*
X13977086Y-12771484D02*
X13977086Y-12638150D01*
X13977086Y-12657198D02*
X13986610Y-12647674D01*
X13986610Y-12647674D02*
X14005658Y-12638150D01*
X14005658Y-12638150D02*
X14034229Y-12638150D01*
X14034229Y-12638150D02*
X14053277Y-12647674D01*
X14053277Y-12647674D02*
X14062801Y-12666722D01*
X14062801Y-12666722D02*
X14062801Y-12771484D01*
X14062801Y-12666722D02*
X14072324Y-12647674D01*
X14072324Y-12647674D02*
X14091372Y-12638150D01*
X14091372Y-12638150D02*
X14119943Y-12638150D01*
X14119943Y-12638150D02*
X14138991Y-12647674D01*
X14138991Y-12647674D02*
X14148515Y-12666722D01*
X14148515Y-12666722D02*
X14148515Y-12771484D01*
X14538991Y-12561960D02*
X14367563Y-12819103D01*
X14796134Y-12571484D02*
X14815182Y-12571484D01*
X14815182Y-12571484D02*
X14834229Y-12581008D01*
X14834229Y-12581008D02*
X14843753Y-12590531D01*
X14843753Y-12590531D02*
X14853277Y-12609579D01*
X14853277Y-12609579D02*
X14862801Y-12647674D01*
X14862801Y-12647674D02*
X14862801Y-12695293D01*
X14862801Y-12695293D02*
X14853277Y-12733388D01*
X14853277Y-12733388D02*
X14843753Y-12752436D01*
X14843753Y-12752436D02*
X14834229Y-12761960D01*
X14834229Y-12761960D02*
X14815182Y-12771484D01*
X14815182Y-12771484D02*
X14796134Y-12771484D01*
X14796134Y-12771484D02*
X14777086Y-12761960D01*
X14777086Y-12761960D02*
X14767563Y-12752436D01*
X14767563Y-12752436D02*
X14758039Y-12733388D01*
X14758039Y-12733388D02*
X14748515Y-12695293D01*
X14748515Y-12695293D02*
X14748515Y-12647674D01*
X14748515Y-12647674D02*
X14758039Y-12609579D01*
X14758039Y-12609579D02*
X14767563Y-12590531D01*
X14767563Y-12590531D02*
X14777086Y-12581008D01*
X14777086Y-12581008D02*
X14796134Y-12571484D01*
X14948515Y-12752436D02*
X14958039Y-12761960D01*
X14958039Y-12761960D02*
X14948515Y-12771484D01*
X14948515Y-12771484D02*
X14938991Y-12761960D01*
X14938991Y-12761960D02*
X14948515Y-12752436D01*
X14948515Y-12752436D02*
X14948515Y-12771484D01*
X15081848Y-12571484D02*
X15100896Y-12571484D01*
X15100896Y-12571484D02*
X15119944Y-12581008D01*
X15119944Y-12581008D02*
X15129467Y-12590531D01*
X15129467Y-12590531D02*
X15138991Y-12609579D01*
X15138991Y-12609579D02*
X15148515Y-12647674D01*
X15148515Y-12647674D02*
X15148515Y-12695293D01*
X15148515Y-12695293D02*
X15138991Y-12733388D01*
X15138991Y-12733388D02*
X15129467Y-12752436D01*
X15129467Y-12752436D02*
X15119944Y-12761960D01*
X15119944Y-12761960D02*
X15100896Y-12771484D01*
X15100896Y-12771484D02*
X15081848Y-12771484D01*
X15081848Y-12771484D02*
X15062801Y-12761960D01*
X15062801Y-12761960D02*
X15053277Y-12752436D01*
X15053277Y-12752436D02*
X15043753Y-12733388D01*
X15043753Y-12733388D02*
X15034229Y-12695293D01*
X15034229Y-12695293D02*
X15034229Y-12647674D01*
X15034229Y-12647674D02*
X15043753Y-12609579D01*
X15043753Y-12609579D02*
X15053277Y-12590531D01*
X15053277Y-12590531D02*
X15062801Y-12581008D01*
X15062801Y-12581008D02*
X15081848Y-12571484D01*
X15338991Y-12771484D02*
X15224706Y-12771484D01*
X15281848Y-12771484D02*
X15281848Y-12571484D01*
X15281848Y-12571484D02*
X15262801Y-12600055D01*
X15262801Y-12600055D02*
X15243753Y-12619103D01*
X15243753Y-12619103D02*
X15224706Y-12628627D01*
X15434229Y-12771484D02*
X15472325Y-12771484D01*
X15472325Y-12771484D02*
X15491372Y-12761960D01*
X15491372Y-12761960D02*
X15500896Y-12752436D01*
X15500896Y-12752436D02*
X15519944Y-12723865D01*
X15519944Y-12723865D02*
X15529467Y-12685769D01*
X15529467Y-12685769D02*
X15529467Y-12609579D01*
X15529467Y-12609579D02*
X15519944Y-12590531D01*
X15519944Y-12590531D02*
X15510420Y-12581008D01*
X15510420Y-12581008D02*
X15491372Y-12571484D01*
X15491372Y-12571484D02*
X15453277Y-12571484D01*
X15453277Y-12571484D02*
X15434229Y-12581008D01*
X15434229Y-12581008D02*
X15424706Y-12590531D01*
X15424706Y-12590531D02*
X15415182Y-12609579D01*
X15415182Y-12609579D02*
X15415182Y-12657198D01*
X15415182Y-12657198D02*
X15424706Y-12676246D01*
X15424706Y-12676246D02*
X15434229Y-12685769D01*
X15434229Y-12685769D02*
X15453277Y-12695293D01*
X15453277Y-12695293D02*
X15491372Y-12695293D01*
X15491372Y-12695293D02*
X15510420Y-12685769D01*
X15510420Y-12685769D02*
X15519944Y-12676246D01*
X15519944Y-12676246D02*
X15529467Y-12657198D01*
X15596134Y-12571484D02*
X15729467Y-12571484D01*
X15729467Y-12571484D02*
X15643753Y-12771484D01*
X15796134Y-12571484D02*
X15796134Y-12609579D01*
X15872325Y-12571484D02*
X15872325Y-12609579D01*
X16167563Y-12847674D02*
X16158039Y-12838150D01*
X16158039Y-12838150D02*
X16138991Y-12809579D01*
X16138991Y-12809579D02*
X16129468Y-12790531D01*
X16129468Y-12790531D02*
X16119944Y-12761960D01*
X16119944Y-12761960D02*
X16110420Y-12714341D01*
X16110420Y-12714341D02*
X16110420Y-12676246D01*
X16110420Y-12676246D02*
X16119944Y-12628627D01*
X16119944Y-12628627D02*
X16129468Y-12600055D01*
X16129468Y-12600055D02*
X16138991Y-12581008D01*
X16138991Y-12581008D02*
X16158039Y-12552436D01*
X16158039Y-12552436D02*
X16167563Y-12542912D01*
X16348515Y-12771484D02*
X16234229Y-12771484D01*
X16291372Y-12771484D02*
X16291372Y-12571484D01*
X16291372Y-12571484D02*
X16272325Y-12600055D01*
X16272325Y-12600055D02*
X16253277Y-12619103D01*
X16253277Y-12619103D02*
X16234229Y-12628627D01*
X16443753Y-12771484D02*
X16481848Y-12771484D01*
X16481848Y-12771484D02*
X16500896Y-12761960D01*
X16500896Y-12761960D02*
X16510420Y-12752436D01*
X16510420Y-12752436D02*
X16529468Y-12723865D01*
X16529468Y-12723865D02*
X16538991Y-12685769D01*
X16538991Y-12685769D02*
X16538991Y-12609579D01*
X16538991Y-12609579D02*
X16529468Y-12590531D01*
X16529468Y-12590531D02*
X16519944Y-12581008D01*
X16519944Y-12581008D02*
X16500896Y-12571484D01*
X16500896Y-12571484D02*
X16462801Y-12571484D01*
X16462801Y-12571484D02*
X16443753Y-12581008D01*
X16443753Y-12581008D02*
X16434229Y-12590531D01*
X16434229Y-12590531D02*
X16424706Y-12609579D01*
X16424706Y-12609579D02*
X16424706Y-12657198D01*
X16424706Y-12657198D02*
X16434229Y-12676246D01*
X16434229Y-12676246D02*
X16443753Y-12685769D01*
X16443753Y-12685769D02*
X16462801Y-12695293D01*
X16462801Y-12695293D02*
X16500896Y-12695293D01*
X16500896Y-12695293D02*
X16519944Y-12685769D01*
X16519944Y-12685769D02*
X16529468Y-12676246D01*
X16529468Y-12676246D02*
X16538991Y-12657198D01*
X16777087Y-12771484D02*
X16777087Y-12571484D01*
X16862801Y-12771484D02*
X16862801Y-12666722D01*
X16862801Y-12666722D02*
X16853277Y-12647674D01*
X16853277Y-12647674D02*
X16834230Y-12638150D01*
X16834230Y-12638150D02*
X16805658Y-12638150D01*
X16805658Y-12638150D02*
X16786611Y-12647674D01*
X16786611Y-12647674D02*
X16777087Y-12657198D01*
X16986611Y-12771484D02*
X16967563Y-12761960D01*
X16967563Y-12761960D02*
X16958039Y-12752436D01*
X16958039Y-12752436D02*
X16948515Y-12733388D01*
X16948515Y-12733388D02*
X16948515Y-12676246D01*
X16948515Y-12676246D02*
X16958039Y-12657198D01*
X16958039Y-12657198D02*
X16967563Y-12647674D01*
X16967563Y-12647674D02*
X16986611Y-12638150D01*
X16986611Y-12638150D02*
X17015182Y-12638150D01*
X17015182Y-12638150D02*
X17034230Y-12647674D01*
X17034230Y-12647674D02*
X17043753Y-12657198D01*
X17043753Y-12657198D02*
X17053277Y-12676246D01*
X17053277Y-12676246D02*
X17053277Y-12733388D01*
X17053277Y-12733388D02*
X17043753Y-12752436D01*
X17043753Y-12752436D02*
X17034230Y-12761960D01*
X17034230Y-12761960D02*
X17015182Y-12771484D01*
X17015182Y-12771484D02*
X16986611Y-12771484D01*
X17167563Y-12771484D02*
X17148515Y-12761960D01*
X17148515Y-12761960D02*
X17138992Y-12742912D01*
X17138992Y-12742912D02*
X17138992Y-12571484D01*
X17319944Y-12761960D02*
X17300896Y-12771484D01*
X17300896Y-12771484D02*
X17262801Y-12771484D01*
X17262801Y-12771484D02*
X17243753Y-12761960D01*
X17243753Y-12761960D02*
X17234230Y-12742912D01*
X17234230Y-12742912D02*
X17234230Y-12666722D01*
X17234230Y-12666722D02*
X17243753Y-12647674D01*
X17243753Y-12647674D02*
X17262801Y-12638150D01*
X17262801Y-12638150D02*
X17300896Y-12638150D01*
X17300896Y-12638150D02*
X17319944Y-12647674D01*
X17319944Y-12647674D02*
X17329468Y-12666722D01*
X17329468Y-12666722D02*
X17329468Y-12685769D01*
X17329468Y-12685769D02*
X17234230Y-12704817D01*
X17405658Y-12761960D02*
X17424706Y-12771484D01*
X17424706Y-12771484D02*
X17462801Y-12771484D01*
X17462801Y-12771484D02*
X17481849Y-12761960D01*
X17481849Y-12761960D02*
X17491373Y-12742912D01*
X17491373Y-12742912D02*
X17491373Y-12733388D01*
X17491373Y-12733388D02*
X17481849Y-12714341D01*
X17481849Y-12714341D02*
X17462801Y-12704817D01*
X17462801Y-12704817D02*
X17434230Y-12704817D01*
X17434230Y-12704817D02*
X17415182Y-12695293D01*
X17415182Y-12695293D02*
X17405658Y-12676246D01*
X17405658Y-12676246D02*
X17405658Y-12666722D01*
X17405658Y-12666722D02*
X17415182Y-12647674D01*
X17415182Y-12647674D02*
X17434230Y-12638150D01*
X17434230Y-12638150D02*
X17462801Y-12638150D01*
X17462801Y-12638150D02*
X17481849Y-12647674D01*
X17558039Y-12847674D02*
X17567563Y-12838150D01*
X17567563Y-12838150D02*
X17586611Y-12809579D01*
X17586611Y-12809579D02*
X17596134Y-12790531D01*
X17596134Y-12790531D02*
X17605658Y-12761960D01*
X17605658Y-12761960D02*
X17615182Y-12714341D01*
X17615182Y-12714341D02*
X17615182Y-12676246D01*
X17615182Y-12676246D02*
X17605658Y-12628627D01*
X17605658Y-12628627D02*
X17596134Y-12600055D01*
X17596134Y-12600055D02*
X17586611Y-12581008D01*
X17586611Y-12581008D02*
X17567563Y-12552436D01*
X17567563Y-12552436D02*
X17558039Y-12542912D01*
D15*
X12577856Y-12979356D02*
X12577856Y-12908644D01*
X12507144Y-12908644D01*
X12507144Y-12979356D01*
X12577856Y-12979356D01*
D11*
X12958039Y-13035484D02*
X12843753Y-13035484D01*
X12900896Y-13035484D02*
X12900896Y-12835484D01*
X12900896Y-12835484D02*
X12881848Y-12864055D01*
X12881848Y-12864055D02*
X12862801Y-12883103D01*
X12862801Y-12883103D02*
X12843753Y-12892627D01*
X13043753Y-13016436D02*
X13053277Y-13025960D01*
X13053277Y-13025960D02*
X13043753Y-13035484D01*
X13043753Y-13035484D02*
X13034229Y-13025960D01*
X13034229Y-13025960D02*
X13043753Y-13016436D01*
X13043753Y-13016436D02*
X13043753Y-13035484D01*
X13177086Y-12835484D02*
X13196134Y-12835484D01*
X13196134Y-12835484D02*
X13215182Y-12845008D01*
X13215182Y-12845008D02*
X13224705Y-12854531D01*
X13224705Y-12854531D02*
X13234229Y-12873579D01*
X13234229Y-12873579D02*
X13243753Y-12911674D01*
X13243753Y-12911674D02*
X13243753Y-12959293D01*
X13243753Y-12959293D02*
X13234229Y-12997388D01*
X13234229Y-12997388D02*
X13224705Y-13016436D01*
X13224705Y-13016436D02*
X13215182Y-13025960D01*
X13215182Y-13025960D02*
X13196134Y-13035484D01*
X13196134Y-13035484D02*
X13177086Y-13035484D01*
X13177086Y-13035484D02*
X13158039Y-13025960D01*
X13158039Y-13025960D02*
X13148515Y-13016436D01*
X13148515Y-13016436D02*
X13138991Y-12997388D01*
X13138991Y-12997388D02*
X13129467Y-12959293D01*
X13129467Y-12959293D02*
X13129467Y-12911674D01*
X13129467Y-12911674D02*
X13138991Y-12873579D01*
X13138991Y-12873579D02*
X13148515Y-12854531D01*
X13148515Y-12854531D02*
X13158039Y-12845008D01*
X13158039Y-12845008D02*
X13177086Y-12835484D01*
X13367562Y-12835484D02*
X13386610Y-12835484D01*
X13386610Y-12835484D02*
X13405658Y-12845008D01*
X13405658Y-12845008D02*
X13415182Y-12854531D01*
X13415182Y-12854531D02*
X13424705Y-12873579D01*
X13424705Y-12873579D02*
X13434229Y-12911674D01*
X13434229Y-12911674D02*
X13434229Y-12959293D01*
X13434229Y-12959293D02*
X13424705Y-12997388D01*
X13424705Y-12997388D02*
X13415182Y-13016436D01*
X13415182Y-13016436D02*
X13405658Y-13025960D01*
X13405658Y-13025960D02*
X13386610Y-13035484D01*
X13386610Y-13035484D02*
X13367562Y-13035484D01*
X13367562Y-13035484D02*
X13348515Y-13025960D01*
X13348515Y-13025960D02*
X13338991Y-13016436D01*
X13338991Y-13016436D02*
X13329467Y-12997388D01*
X13329467Y-12997388D02*
X13319943Y-12959293D01*
X13319943Y-12959293D02*
X13319943Y-12911674D01*
X13319943Y-12911674D02*
X13329467Y-12873579D01*
X13329467Y-12873579D02*
X13338991Y-12854531D01*
X13338991Y-12854531D02*
X13348515Y-12845008D01*
X13348515Y-12845008D02*
X13367562Y-12835484D01*
X13558039Y-12835484D02*
X13577086Y-12835484D01*
X13577086Y-12835484D02*
X13596134Y-12845008D01*
X13596134Y-12845008D02*
X13605658Y-12854531D01*
X13605658Y-12854531D02*
X13615182Y-12873579D01*
X13615182Y-12873579D02*
X13624705Y-12911674D01*
X13624705Y-12911674D02*
X13624705Y-12959293D01*
X13624705Y-12959293D02*
X13615182Y-12997388D01*
X13615182Y-12997388D02*
X13605658Y-13016436D01*
X13605658Y-13016436D02*
X13596134Y-13025960D01*
X13596134Y-13025960D02*
X13577086Y-13035484D01*
X13577086Y-13035484D02*
X13558039Y-13035484D01*
X13558039Y-13035484D02*
X13538991Y-13025960D01*
X13538991Y-13025960D02*
X13529467Y-13016436D01*
X13529467Y-13016436D02*
X13519943Y-12997388D01*
X13519943Y-12997388D02*
X13510420Y-12959293D01*
X13510420Y-12959293D02*
X13510420Y-12911674D01*
X13510420Y-12911674D02*
X13519943Y-12873579D01*
X13519943Y-12873579D02*
X13529467Y-12854531D01*
X13529467Y-12854531D02*
X13538991Y-12845008D01*
X13538991Y-12845008D02*
X13558039Y-12835484D01*
X13710420Y-13035484D02*
X13710420Y-12902150D01*
X13710420Y-12921198D02*
X13719943Y-12911674D01*
X13719943Y-12911674D02*
X13738991Y-12902150D01*
X13738991Y-12902150D02*
X13767563Y-12902150D01*
X13767563Y-12902150D02*
X13786610Y-12911674D01*
X13786610Y-12911674D02*
X13796134Y-12930722D01*
X13796134Y-12930722D02*
X13796134Y-13035484D01*
X13796134Y-12930722D02*
X13805658Y-12911674D01*
X13805658Y-12911674D02*
X13824705Y-12902150D01*
X13824705Y-12902150D02*
X13853277Y-12902150D01*
X13853277Y-12902150D02*
X13872324Y-12911674D01*
X13872324Y-12911674D02*
X13881848Y-12930722D01*
X13881848Y-12930722D02*
X13881848Y-13035484D01*
X13977086Y-13035484D02*
X13977086Y-12902150D01*
X13977086Y-12921198D02*
X13986610Y-12911674D01*
X13986610Y-12911674D02*
X14005658Y-12902150D01*
X14005658Y-12902150D02*
X14034229Y-12902150D01*
X14034229Y-12902150D02*
X14053277Y-12911674D01*
X14053277Y-12911674D02*
X14062801Y-12930722D01*
X14062801Y-12930722D02*
X14062801Y-13035484D01*
X14062801Y-12930722D02*
X14072324Y-12911674D01*
X14072324Y-12911674D02*
X14091372Y-12902150D01*
X14091372Y-12902150D02*
X14119943Y-12902150D01*
X14119943Y-12902150D02*
X14138991Y-12911674D01*
X14138991Y-12911674D02*
X14148515Y-12930722D01*
X14148515Y-12930722D02*
X14148515Y-13035484D01*
X14538991Y-12825960D02*
X14367563Y-13083103D01*
X14796134Y-12835484D02*
X14815182Y-12835484D01*
X14815182Y-12835484D02*
X14834229Y-12845008D01*
X14834229Y-12845008D02*
X14843753Y-12854531D01*
X14843753Y-12854531D02*
X14853277Y-12873579D01*
X14853277Y-12873579D02*
X14862801Y-12911674D01*
X14862801Y-12911674D02*
X14862801Y-12959293D01*
X14862801Y-12959293D02*
X14853277Y-12997388D01*
X14853277Y-12997388D02*
X14843753Y-13016436D01*
X14843753Y-13016436D02*
X14834229Y-13025960D01*
X14834229Y-13025960D02*
X14815182Y-13035484D01*
X14815182Y-13035484D02*
X14796134Y-13035484D01*
X14796134Y-13035484D02*
X14777086Y-13025960D01*
X14777086Y-13025960D02*
X14767563Y-13016436D01*
X14767563Y-13016436D02*
X14758039Y-12997388D01*
X14758039Y-12997388D02*
X14748515Y-12959293D01*
X14748515Y-12959293D02*
X14748515Y-12911674D01*
X14748515Y-12911674D02*
X14758039Y-12873579D01*
X14758039Y-12873579D02*
X14767563Y-12854531D01*
X14767563Y-12854531D02*
X14777086Y-12845008D01*
X14777086Y-12845008D02*
X14796134Y-12835484D01*
X14948515Y-13016436D02*
X14958039Y-13025960D01*
X14958039Y-13025960D02*
X14948515Y-13035484D01*
X14948515Y-13035484D02*
X14938991Y-13025960D01*
X14938991Y-13025960D02*
X14948515Y-13016436D01*
X14948515Y-13016436D02*
X14948515Y-13035484D01*
X15081848Y-12835484D02*
X15100896Y-12835484D01*
X15100896Y-12835484D02*
X15119944Y-12845008D01*
X15119944Y-12845008D02*
X15129467Y-12854531D01*
X15129467Y-12854531D02*
X15138991Y-12873579D01*
X15138991Y-12873579D02*
X15148515Y-12911674D01*
X15148515Y-12911674D02*
X15148515Y-12959293D01*
X15148515Y-12959293D02*
X15138991Y-12997388D01*
X15138991Y-12997388D02*
X15129467Y-13016436D01*
X15129467Y-13016436D02*
X15119944Y-13025960D01*
X15119944Y-13025960D02*
X15100896Y-13035484D01*
X15100896Y-13035484D02*
X15081848Y-13035484D01*
X15081848Y-13035484D02*
X15062801Y-13025960D01*
X15062801Y-13025960D02*
X15053277Y-13016436D01*
X15053277Y-13016436D02*
X15043753Y-12997388D01*
X15043753Y-12997388D02*
X15034229Y-12959293D01*
X15034229Y-12959293D02*
X15034229Y-12911674D01*
X15034229Y-12911674D02*
X15043753Y-12873579D01*
X15043753Y-12873579D02*
X15053277Y-12854531D01*
X15053277Y-12854531D02*
X15062801Y-12845008D01*
X15062801Y-12845008D02*
X15081848Y-12835484D01*
X15215182Y-12835484D02*
X15338991Y-12835484D01*
X15338991Y-12835484D02*
X15272325Y-12911674D01*
X15272325Y-12911674D02*
X15300896Y-12911674D01*
X15300896Y-12911674D02*
X15319944Y-12921198D01*
X15319944Y-12921198D02*
X15329467Y-12930722D01*
X15329467Y-12930722D02*
X15338991Y-12949769D01*
X15338991Y-12949769D02*
X15338991Y-12997388D01*
X15338991Y-12997388D02*
X15329467Y-13016436D01*
X15329467Y-13016436D02*
X15319944Y-13025960D01*
X15319944Y-13025960D02*
X15300896Y-13035484D01*
X15300896Y-13035484D02*
X15243753Y-13035484D01*
X15243753Y-13035484D02*
X15224706Y-13025960D01*
X15224706Y-13025960D02*
X15215182Y-13016436D01*
X15434229Y-13035484D02*
X15472325Y-13035484D01*
X15472325Y-13035484D02*
X15491372Y-13025960D01*
X15491372Y-13025960D02*
X15500896Y-13016436D01*
X15500896Y-13016436D02*
X15519944Y-12987865D01*
X15519944Y-12987865D02*
X15529467Y-12949769D01*
X15529467Y-12949769D02*
X15529467Y-12873579D01*
X15529467Y-12873579D02*
X15519944Y-12854531D01*
X15519944Y-12854531D02*
X15510420Y-12845008D01*
X15510420Y-12845008D02*
X15491372Y-12835484D01*
X15491372Y-12835484D02*
X15453277Y-12835484D01*
X15453277Y-12835484D02*
X15434229Y-12845008D01*
X15434229Y-12845008D02*
X15424706Y-12854531D01*
X15424706Y-12854531D02*
X15415182Y-12873579D01*
X15415182Y-12873579D02*
X15415182Y-12921198D01*
X15415182Y-12921198D02*
X15424706Y-12940246D01*
X15424706Y-12940246D02*
X15434229Y-12949769D01*
X15434229Y-12949769D02*
X15453277Y-12959293D01*
X15453277Y-12959293D02*
X15491372Y-12959293D01*
X15491372Y-12959293D02*
X15510420Y-12949769D01*
X15510420Y-12949769D02*
X15519944Y-12940246D01*
X15519944Y-12940246D02*
X15529467Y-12921198D01*
X15700896Y-12902150D02*
X15700896Y-13035484D01*
X15653277Y-12825960D02*
X15605658Y-12968817D01*
X15605658Y-12968817D02*
X15729467Y-12968817D01*
X15796134Y-12835484D02*
X15796134Y-12873579D01*
X15872325Y-12835484D02*
X15872325Y-12873579D01*
X16167563Y-13111674D02*
X16158039Y-13102150D01*
X16158039Y-13102150D02*
X16138991Y-13073579D01*
X16138991Y-13073579D02*
X16129468Y-13054531D01*
X16129468Y-13054531D02*
X16119944Y-13025960D01*
X16119944Y-13025960D02*
X16110420Y-12978341D01*
X16110420Y-12978341D02*
X16110420Y-12940246D01*
X16110420Y-12940246D02*
X16119944Y-12892627D01*
X16119944Y-12892627D02*
X16129468Y-12864055D01*
X16129468Y-12864055D02*
X16138991Y-12845008D01*
X16138991Y-12845008D02*
X16158039Y-12816436D01*
X16158039Y-12816436D02*
X16167563Y-12806912D01*
X16234229Y-12854531D02*
X16243753Y-12845008D01*
X16243753Y-12845008D02*
X16262801Y-12835484D01*
X16262801Y-12835484D02*
X16310420Y-12835484D01*
X16310420Y-12835484D02*
X16329468Y-12845008D01*
X16329468Y-12845008D02*
X16338991Y-12854531D01*
X16338991Y-12854531D02*
X16348515Y-12873579D01*
X16348515Y-12873579D02*
X16348515Y-12892627D01*
X16348515Y-12892627D02*
X16338991Y-12921198D01*
X16338991Y-12921198D02*
X16224706Y-13035484D01*
X16224706Y-13035484D02*
X16348515Y-13035484D01*
X16472325Y-12835484D02*
X16491372Y-12835484D01*
X16491372Y-12835484D02*
X16510420Y-12845008D01*
X16510420Y-12845008D02*
X16519944Y-12854531D01*
X16519944Y-12854531D02*
X16529468Y-12873579D01*
X16529468Y-12873579D02*
X16538991Y-12911674D01*
X16538991Y-12911674D02*
X16538991Y-12959293D01*
X16538991Y-12959293D02*
X16529468Y-12997388D01*
X16529468Y-12997388D02*
X16519944Y-13016436D01*
X16519944Y-13016436D02*
X16510420Y-13025960D01*
X16510420Y-13025960D02*
X16491372Y-13035484D01*
X16491372Y-13035484D02*
X16472325Y-13035484D01*
X16472325Y-13035484D02*
X16453277Y-13025960D01*
X16453277Y-13025960D02*
X16443753Y-13016436D01*
X16443753Y-13016436D02*
X16434229Y-12997388D01*
X16434229Y-12997388D02*
X16424706Y-12959293D01*
X16424706Y-12959293D02*
X16424706Y-12911674D01*
X16424706Y-12911674D02*
X16434229Y-12873579D01*
X16434229Y-12873579D02*
X16443753Y-12854531D01*
X16443753Y-12854531D02*
X16453277Y-12845008D01*
X16453277Y-12845008D02*
X16472325Y-12835484D01*
X16777087Y-13035484D02*
X16777087Y-12835484D01*
X16862801Y-13035484D02*
X16862801Y-12930722D01*
X16862801Y-12930722D02*
X16853277Y-12911674D01*
X16853277Y-12911674D02*
X16834230Y-12902150D01*
X16834230Y-12902150D02*
X16805658Y-12902150D01*
X16805658Y-12902150D02*
X16786611Y-12911674D01*
X16786611Y-12911674D02*
X16777087Y-12921198D01*
X16986611Y-13035484D02*
X16967563Y-13025960D01*
X16967563Y-13025960D02*
X16958039Y-13016436D01*
X16958039Y-13016436D02*
X16948515Y-12997388D01*
X16948515Y-12997388D02*
X16948515Y-12940246D01*
X16948515Y-12940246D02*
X16958039Y-12921198D01*
X16958039Y-12921198D02*
X16967563Y-12911674D01*
X16967563Y-12911674D02*
X16986611Y-12902150D01*
X16986611Y-12902150D02*
X17015182Y-12902150D01*
X17015182Y-12902150D02*
X17034230Y-12911674D01*
X17034230Y-12911674D02*
X17043753Y-12921198D01*
X17043753Y-12921198D02*
X17053277Y-12940246D01*
X17053277Y-12940246D02*
X17053277Y-12997388D01*
X17053277Y-12997388D02*
X17043753Y-13016436D01*
X17043753Y-13016436D02*
X17034230Y-13025960D01*
X17034230Y-13025960D02*
X17015182Y-13035484D01*
X17015182Y-13035484D02*
X16986611Y-13035484D01*
X17167563Y-13035484D02*
X17148515Y-13025960D01*
X17148515Y-13025960D02*
X17138992Y-13006912D01*
X17138992Y-13006912D02*
X17138992Y-12835484D01*
X17319944Y-13025960D02*
X17300896Y-13035484D01*
X17300896Y-13035484D02*
X17262801Y-13035484D01*
X17262801Y-13035484D02*
X17243753Y-13025960D01*
X17243753Y-13025960D02*
X17234230Y-13006912D01*
X17234230Y-13006912D02*
X17234230Y-12930722D01*
X17234230Y-12930722D02*
X17243753Y-12911674D01*
X17243753Y-12911674D02*
X17262801Y-12902150D01*
X17262801Y-12902150D02*
X17300896Y-12902150D01*
X17300896Y-12902150D02*
X17319944Y-12911674D01*
X17319944Y-12911674D02*
X17329468Y-12930722D01*
X17329468Y-12930722D02*
X17329468Y-12949769D01*
X17329468Y-12949769D02*
X17234230Y-12968817D01*
X17405658Y-13025960D02*
X17424706Y-13035484D01*
X17424706Y-13035484D02*
X17462801Y-13035484D01*
X17462801Y-13035484D02*
X17481849Y-13025960D01*
X17481849Y-13025960D02*
X17491373Y-13006912D01*
X17491373Y-13006912D02*
X17491373Y-12997388D01*
X17491373Y-12997388D02*
X17481849Y-12978341D01*
X17481849Y-12978341D02*
X17462801Y-12968817D01*
X17462801Y-12968817D02*
X17434230Y-12968817D01*
X17434230Y-12968817D02*
X17415182Y-12959293D01*
X17415182Y-12959293D02*
X17405658Y-12940246D01*
X17405658Y-12940246D02*
X17405658Y-12930722D01*
X17405658Y-12930722D02*
X17415182Y-12911674D01*
X17415182Y-12911674D02*
X17434230Y-12902150D01*
X17434230Y-12902150D02*
X17462801Y-12902150D01*
X17462801Y-12902150D02*
X17481849Y-12911674D01*
X17558039Y-13111674D02*
X17567563Y-13102150D01*
X17567563Y-13102150D02*
X17586611Y-13073579D01*
X17586611Y-13073579D02*
X17596134Y-13054531D01*
X17596134Y-13054531D02*
X17605658Y-13025960D01*
X17605658Y-13025960D02*
X17615182Y-12978341D01*
X17615182Y-12978341D02*
X17615182Y-12940246D01*
X17615182Y-12940246D02*
X17605658Y-12892627D01*
X17605658Y-12892627D02*
X17596134Y-12864055D01*
X17596134Y-12864055D02*
X17586611Y-12845008D01*
X17586611Y-12845008D02*
X17567563Y-12816436D01*
X17567563Y-12816436D02*
X17558039Y-12806912D01*
X12492500Y-13308000D02*
X12592500Y-13208000D01*
X12492500Y-13108000D01*
X12392500Y-13208000D01*
X12492500Y-13308000D01*
X12834229Y-13099484D02*
X12958039Y-13099484D01*
X12958039Y-13099484D02*
X12891372Y-13175674D01*
X12891372Y-13175674D02*
X12919943Y-13175674D01*
X12919943Y-13175674D02*
X12938991Y-13185198D01*
X12938991Y-13185198D02*
X12948515Y-13194722D01*
X12948515Y-13194722D02*
X12958039Y-13213769D01*
X12958039Y-13213769D02*
X12958039Y-13261388D01*
X12958039Y-13261388D02*
X12948515Y-13280436D01*
X12948515Y-13280436D02*
X12938991Y-13289960D01*
X12938991Y-13289960D02*
X12919943Y-13299484D01*
X12919943Y-13299484D02*
X12862801Y-13299484D01*
X12862801Y-13299484D02*
X12843753Y-13289960D01*
X12843753Y-13289960D02*
X12834229Y-13280436D01*
X13043753Y-13280436D02*
X13053277Y-13289960D01*
X13053277Y-13289960D02*
X13043753Y-13299484D01*
X13043753Y-13299484D02*
X13034229Y-13289960D01*
X13034229Y-13289960D02*
X13043753Y-13280436D01*
X13043753Y-13280436D02*
X13043753Y-13299484D01*
X13129467Y-13118531D02*
X13138991Y-13109008D01*
X13138991Y-13109008D02*
X13158039Y-13099484D01*
X13158039Y-13099484D02*
X13205658Y-13099484D01*
X13205658Y-13099484D02*
X13224705Y-13109008D01*
X13224705Y-13109008D02*
X13234229Y-13118531D01*
X13234229Y-13118531D02*
X13243753Y-13137579D01*
X13243753Y-13137579D02*
X13243753Y-13156627D01*
X13243753Y-13156627D02*
X13234229Y-13185198D01*
X13234229Y-13185198D02*
X13119943Y-13299484D01*
X13119943Y-13299484D02*
X13243753Y-13299484D01*
X13367562Y-13099484D02*
X13386610Y-13099484D01*
X13386610Y-13099484D02*
X13405658Y-13109008D01*
X13405658Y-13109008D02*
X13415182Y-13118531D01*
X13415182Y-13118531D02*
X13424705Y-13137579D01*
X13424705Y-13137579D02*
X13434229Y-13175674D01*
X13434229Y-13175674D02*
X13434229Y-13223293D01*
X13434229Y-13223293D02*
X13424705Y-13261388D01*
X13424705Y-13261388D02*
X13415182Y-13280436D01*
X13415182Y-13280436D02*
X13405658Y-13289960D01*
X13405658Y-13289960D02*
X13386610Y-13299484D01*
X13386610Y-13299484D02*
X13367562Y-13299484D01*
X13367562Y-13299484D02*
X13348515Y-13289960D01*
X13348515Y-13289960D02*
X13338991Y-13280436D01*
X13338991Y-13280436D02*
X13329467Y-13261388D01*
X13329467Y-13261388D02*
X13319943Y-13223293D01*
X13319943Y-13223293D02*
X13319943Y-13175674D01*
X13319943Y-13175674D02*
X13329467Y-13137579D01*
X13329467Y-13137579D02*
X13338991Y-13118531D01*
X13338991Y-13118531D02*
X13348515Y-13109008D01*
X13348515Y-13109008D02*
X13367562Y-13099484D01*
X13558039Y-13099484D02*
X13577086Y-13099484D01*
X13577086Y-13099484D02*
X13596134Y-13109008D01*
X13596134Y-13109008D02*
X13605658Y-13118531D01*
X13605658Y-13118531D02*
X13615182Y-13137579D01*
X13615182Y-13137579D02*
X13624705Y-13175674D01*
X13624705Y-13175674D02*
X13624705Y-13223293D01*
X13624705Y-13223293D02*
X13615182Y-13261388D01*
X13615182Y-13261388D02*
X13605658Y-13280436D01*
X13605658Y-13280436D02*
X13596134Y-13289960D01*
X13596134Y-13289960D02*
X13577086Y-13299484D01*
X13577086Y-13299484D02*
X13558039Y-13299484D01*
X13558039Y-13299484D02*
X13538991Y-13289960D01*
X13538991Y-13289960D02*
X13529467Y-13280436D01*
X13529467Y-13280436D02*
X13519943Y-13261388D01*
X13519943Y-13261388D02*
X13510420Y-13223293D01*
X13510420Y-13223293D02*
X13510420Y-13175674D01*
X13510420Y-13175674D02*
X13519943Y-13137579D01*
X13519943Y-13137579D02*
X13529467Y-13118531D01*
X13529467Y-13118531D02*
X13538991Y-13109008D01*
X13538991Y-13109008D02*
X13558039Y-13099484D01*
X13710420Y-13299484D02*
X13710420Y-13166150D01*
X13710420Y-13185198D02*
X13719943Y-13175674D01*
X13719943Y-13175674D02*
X13738991Y-13166150D01*
X13738991Y-13166150D02*
X13767563Y-13166150D01*
X13767563Y-13166150D02*
X13786610Y-13175674D01*
X13786610Y-13175674D02*
X13796134Y-13194722D01*
X13796134Y-13194722D02*
X13796134Y-13299484D01*
X13796134Y-13194722D02*
X13805658Y-13175674D01*
X13805658Y-13175674D02*
X13824705Y-13166150D01*
X13824705Y-13166150D02*
X13853277Y-13166150D01*
X13853277Y-13166150D02*
X13872324Y-13175674D01*
X13872324Y-13175674D02*
X13881848Y-13194722D01*
X13881848Y-13194722D02*
X13881848Y-13299484D01*
X13977086Y-13299484D02*
X13977086Y-13166150D01*
X13977086Y-13185198D02*
X13986610Y-13175674D01*
X13986610Y-13175674D02*
X14005658Y-13166150D01*
X14005658Y-13166150D02*
X14034229Y-13166150D01*
X14034229Y-13166150D02*
X14053277Y-13175674D01*
X14053277Y-13175674D02*
X14062801Y-13194722D01*
X14062801Y-13194722D02*
X14062801Y-13299484D01*
X14062801Y-13194722D02*
X14072324Y-13175674D01*
X14072324Y-13175674D02*
X14091372Y-13166150D01*
X14091372Y-13166150D02*
X14119943Y-13166150D01*
X14119943Y-13166150D02*
X14138991Y-13175674D01*
X14138991Y-13175674D02*
X14148515Y-13194722D01*
X14148515Y-13194722D02*
X14148515Y-13299484D01*
X14538991Y-13089960D02*
X14367563Y-13347103D01*
X14796134Y-13099484D02*
X14815182Y-13099484D01*
X14815182Y-13099484D02*
X14834229Y-13109008D01*
X14834229Y-13109008D02*
X14843753Y-13118531D01*
X14843753Y-13118531D02*
X14853277Y-13137579D01*
X14853277Y-13137579D02*
X14862801Y-13175674D01*
X14862801Y-13175674D02*
X14862801Y-13223293D01*
X14862801Y-13223293D02*
X14853277Y-13261388D01*
X14853277Y-13261388D02*
X14843753Y-13280436D01*
X14843753Y-13280436D02*
X14834229Y-13289960D01*
X14834229Y-13289960D02*
X14815182Y-13299484D01*
X14815182Y-13299484D02*
X14796134Y-13299484D01*
X14796134Y-13299484D02*
X14777086Y-13289960D01*
X14777086Y-13289960D02*
X14767563Y-13280436D01*
X14767563Y-13280436D02*
X14758039Y-13261388D01*
X14758039Y-13261388D02*
X14748515Y-13223293D01*
X14748515Y-13223293D02*
X14748515Y-13175674D01*
X14748515Y-13175674D02*
X14758039Y-13137579D01*
X14758039Y-13137579D02*
X14767563Y-13118531D01*
X14767563Y-13118531D02*
X14777086Y-13109008D01*
X14777086Y-13109008D02*
X14796134Y-13099484D01*
X14948515Y-13280436D02*
X14958039Y-13289960D01*
X14958039Y-13289960D02*
X14948515Y-13299484D01*
X14948515Y-13299484D02*
X14938991Y-13289960D01*
X14938991Y-13289960D02*
X14948515Y-13280436D01*
X14948515Y-13280436D02*
X14948515Y-13299484D01*
X15148515Y-13299484D02*
X15034229Y-13299484D01*
X15091372Y-13299484D02*
X15091372Y-13099484D01*
X15091372Y-13099484D02*
X15072325Y-13128055D01*
X15072325Y-13128055D02*
X15053277Y-13147103D01*
X15053277Y-13147103D02*
X15034229Y-13156627D01*
X15224706Y-13118531D02*
X15234229Y-13109008D01*
X15234229Y-13109008D02*
X15253277Y-13099484D01*
X15253277Y-13099484D02*
X15300896Y-13099484D01*
X15300896Y-13099484D02*
X15319944Y-13109008D01*
X15319944Y-13109008D02*
X15329467Y-13118531D01*
X15329467Y-13118531D02*
X15338991Y-13137579D01*
X15338991Y-13137579D02*
X15338991Y-13156627D01*
X15338991Y-13156627D02*
X15329467Y-13185198D01*
X15329467Y-13185198D02*
X15215182Y-13299484D01*
X15215182Y-13299484D02*
X15338991Y-13299484D01*
X15510420Y-13099484D02*
X15472325Y-13099484D01*
X15472325Y-13099484D02*
X15453277Y-13109008D01*
X15453277Y-13109008D02*
X15443753Y-13118531D01*
X15443753Y-13118531D02*
X15424706Y-13147103D01*
X15424706Y-13147103D02*
X15415182Y-13185198D01*
X15415182Y-13185198D02*
X15415182Y-13261388D01*
X15415182Y-13261388D02*
X15424706Y-13280436D01*
X15424706Y-13280436D02*
X15434229Y-13289960D01*
X15434229Y-13289960D02*
X15453277Y-13299484D01*
X15453277Y-13299484D02*
X15491372Y-13299484D01*
X15491372Y-13299484D02*
X15510420Y-13289960D01*
X15510420Y-13289960D02*
X15519944Y-13280436D01*
X15519944Y-13280436D02*
X15529467Y-13261388D01*
X15529467Y-13261388D02*
X15529467Y-13213769D01*
X15529467Y-13213769D02*
X15519944Y-13194722D01*
X15519944Y-13194722D02*
X15510420Y-13185198D01*
X15510420Y-13185198D02*
X15491372Y-13175674D01*
X15491372Y-13175674D02*
X15453277Y-13175674D01*
X15453277Y-13175674D02*
X15434229Y-13185198D01*
X15434229Y-13185198D02*
X15424706Y-13194722D01*
X15424706Y-13194722D02*
X15415182Y-13213769D01*
X15653277Y-13099484D02*
X15672325Y-13099484D01*
X15672325Y-13099484D02*
X15691372Y-13109008D01*
X15691372Y-13109008D02*
X15700896Y-13118531D01*
X15700896Y-13118531D02*
X15710420Y-13137579D01*
X15710420Y-13137579D02*
X15719944Y-13175674D01*
X15719944Y-13175674D02*
X15719944Y-13223293D01*
X15719944Y-13223293D02*
X15710420Y-13261388D01*
X15710420Y-13261388D02*
X15700896Y-13280436D01*
X15700896Y-13280436D02*
X15691372Y-13289960D01*
X15691372Y-13289960D02*
X15672325Y-13299484D01*
X15672325Y-13299484D02*
X15653277Y-13299484D01*
X15653277Y-13299484D02*
X15634229Y-13289960D01*
X15634229Y-13289960D02*
X15624706Y-13280436D01*
X15624706Y-13280436D02*
X15615182Y-13261388D01*
X15615182Y-13261388D02*
X15605658Y-13223293D01*
X15605658Y-13223293D02*
X15605658Y-13175674D01*
X15605658Y-13175674D02*
X15615182Y-13137579D01*
X15615182Y-13137579D02*
X15624706Y-13118531D01*
X15624706Y-13118531D02*
X15634229Y-13109008D01*
X15634229Y-13109008D02*
X15653277Y-13099484D01*
X15796134Y-13099484D02*
X15796134Y-13137579D01*
X15872325Y-13099484D02*
X15872325Y-13137579D01*
X16167563Y-13375674D02*
X16158039Y-13366150D01*
X16158039Y-13366150D02*
X16138991Y-13337579D01*
X16138991Y-13337579D02*
X16129468Y-13318531D01*
X16129468Y-13318531D02*
X16119944Y-13289960D01*
X16119944Y-13289960D02*
X16110420Y-13242341D01*
X16110420Y-13242341D02*
X16110420Y-13204246D01*
X16110420Y-13204246D02*
X16119944Y-13156627D01*
X16119944Y-13156627D02*
X16129468Y-13128055D01*
X16129468Y-13128055D02*
X16138991Y-13109008D01*
X16138991Y-13109008D02*
X16158039Y-13080436D01*
X16158039Y-13080436D02*
X16167563Y-13070912D01*
X16234229Y-13118531D02*
X16243753Y-13109008D01*
X16243753Y-13109008D02*
X16262801Y-13099484D01*
X16262801Y-13099484D02*
X16310420Y-13099484D01*
X16310420Y-13099484D02*
X16329468Y-13109008D01*
X16329468Y-13109008D02*
X16338991Y-13118531D01*
X16338991Y-13118531D02*
X16348515Y-13137579D01*
X16348515Y-13137579D02*
X16348515Y-13156627D01*
X16348515Y-13156627D02*
X16338991Y-13185198D01*
X16338991Y-13185198D02*
X16224706Y-13299484D01*
X16224706Y-13299484D02*
X16348515Y-13299484D01*
X16586610Y-13299484D02*
X16586610Y-13099484D01*
X16672325Y-13299484D02*
X16672325Y-13194722D01*
X16672325Y-13194722D02*
X16662801Y-13175674D01*
X16662801Y-13175674D02*
X16643753Y-13166150D01*
X16643753Y-13166150D02*
X16615182Y-13166150D01*
X16615182Y-13166150D02*
X16596134Y-13175674D01*
X16596134Y-13175674D02*
X16586610Y-13185198D01*
X16796134Y-13299484D02*
X16777087Y-13289960D01*
X16777087Y-13289960D02*
X16767563Y-13280436D01*
X16767563Y-13280436D02*
X16758039Y-13261388D01*
X16758039Y-13261388D02*
X16758039Y-13204246D01*
X16758039Y-13204246D02*
X16767563Y-13185198D01*
X16767563Y-13185198D02*
X16777087Y-13175674D01*
X16777087Y-13175674D02*
X16796134Y-13166150D01*
X16796134Y-13166150D02*
X16824706Y-13166150D01*
X16824706Y-13166150D02*
X16843753Y-13175674D01*
X16843753Y-13175674D02*
X16853277Y-13185198D01*
X16853277Y-13185198D02*
X16862801Y-13204246D01*
X16862801Y-13204246D02*
X16862801Y-13261388D01*
X16862801Y-13261388D02*
X16853277Y-13280436D01*
X16853277Y-13280436D02*
X16843753Y-13289960D01*
X16843753Y-13289960D02*
X16824706Y-13299484D01*
X16824706Y-13299484D02*
X16796134Y-13299484D01*
X16977087Y-13299484D02*
X16958039Y-13289960D01*
X16958039Y-13289960D02*
X16948515Y-13270912D01*
X16948515Y-13270912D02*
X16948515Y-13099484D01*
X17129468Y-13289960D02*
X17110420Y-13299484D01*
X17110420Y-13299484D02*
X17072325Y-13299484D01*
X17072325Y-13299484D02*
X17053277Y-13289960D01*
X17053277Y-13289960D02*
X17043753Y-13270912D01*
X17043753Y-13270912D02*
X17043753Y-13194722D01*
X17043753Y-13194722D02*
X17053277Y-13175674D01*
X17053277Y-13175674D02*
X17072325Y-13166150D01*
X17072325Y-13166150D02*
X17110420Y-13166150D01*
X17110420Y-13166150D02*
X17129468Y-13175674D01*
X17129468Y-13175674D02*
X17138992Y-13194722D01*
X17138992Y-13194722D02*
X17138992Y-13213769D01*
X17138992Y-13213769D02*
X17043753Y-13232817D01*
X17215182Y-13289960D02*
X17234230Y-13299484D01*
X17234230Y-13299484D02*
X17272325Y-13299484D01*
X17272325Y-13299484D02*
X17291373Y-13289960D01*
X17291373Y-13289960D02*
X17300896Y-13270912D01*
X17300896Y-13270912D02*
X17300896Y-13261388D01*
X17300896Y-13261388D02*
X17291373Y-13242341D01*
X17291373Y-13242341D02*
X17272325Y-13232817D01*
X17272325Y-13232817D02*
X17243753Y-13232817D01*
X17243753Y-13232817D02*
X17224706Y-13223293D01*
X17224706Y-13223293D02*
X17215182Y-13204246D01*
X17215182Y-13204246D02*
X17215182Y-13194722D01*
X17215182Y-13194722D02*
X17224706Y-13175674D01*
X17224706Y-13175674D02*
X17243753Y-13166150D01*
X17243753Y-13166150D02*
X17272325Y-13166150D01*
X17272325Y-13166150D02*
X17291373Y-13175674D01*
X17367563Y-13375674D02*
X17377087Y-13366150D01*
X17377087Y-13366150D02*
X17396134Y-13337579D01*
X17396134Y-13337579D02*
X17405658Y-13318531D01*
X17405658Y-13318531D02*
X17415182Y-13289960D01*
X17415182Y-13289960D02*
X17424706Y-13242341D01*
X17424706Y-13242341D02*
X17424706Y-13204246D01*
X17424706Y-13204246D02*
X17415182Y-13156627D01*
X17415182Y-13156627D02*
X17405658Y-13128055D01*
X17405658Y-13128055D02*
X17396134Y-13109008D01*
X17396134Y-13109008D02*
X17377087Y-13080436D01*
X17377087Y-13080436D02*
X17367563Y-13070912D01*
M02*
