G04 #@! TF.GenerationSoftware,KiCad,Pcbnew,7.0.7-7.0.7~ubuntu22.04.1*
G04 #@! TF.CreationDate,2023-09-20T09:52:15-03:00*
G04 #@! TF.ProjectId,CTB-02,4354422d-3032-42e6-9b69-6361645f7063,rev?*
G04 #@! TF.SameCoordinates,Original*
G04 #@! TF.FileFunction,Legend,Top*
G04 #@! TF.FilePolarity,Positive*
%FSLAX46Y46*%
G04 Gerber Fmt 4.6, Leading zero omitted, Abs format (unit mm)*
G04 Created by KiCad (PCBNEW 7.0.7-7.0.7~ubuntu22.04.1) date 2023-09-20 09:52:15*
%MOMM*%
%LPD*%
G01*
G04 APERTURE LIST*
G04 Aperture macros list*
%AMRoundRect*
0 Rectangle with rounded corners*
0 $1 Rounding radius*
0 $2 $3 $4 $5 $6 $7 $8 $9 X,Y pos of 4 corners*
0 Add a 4 corners polygon primitive as box body*
4,1,4,$2,$3,$4,$5,$6,$7,$8,$9,$2,$3,0*
0 Add four circle primitives for the rounded corners*
1,1,$1+$1,$2,$3*
1,1,$1+$1,$4,$5*
1,1,$1+$1,$6,$7*
1,1,$1+$1,$8,$9*
0 Add four rect primitives between the rounded corners*
20,1,$1+$1,$2,$3,$4,$5,0*
20,1,$1+$1,$4,$5,$6,$7,0*
20,1,$1+$1,$6,$7,$8,$9,0*
20,1,$1+$1,$8,$9,$2,$3,0*%
G04 Aperture macros list end*
%ADD10C,0.350000*%
%ADD11C,0.100000*%
%ADD12C,0.150000*%
%ADD13C,0.127000*%
%ADD14C,0.200000*%
%ADD15C,0.120000*%
%ADD16R,1.900000X0.400000*%
%ADD17RoundRect,0.102000X-0.754000X0.754000X-0.754000X-0.754000X0.754000X-0.754000X0.754000X0.754000X0*%
%ADD18C,1.712000*%
%ADD19RoundRect,0.150000X0.150000X-0.587500X0.150000X0.587500X-0.150000X0.587500X-0.150000X-0.587500X0*%
%ADD20RoundRect,0.200000X-0.200000X-0.275000X0.200000X-0.275000X0.200000X0.275000X-0.200000X0.275000X0*%
%ADD21RoundRect,0.200000X0.200000X0.275000X-0.200000X0.275000X-0.200000X-0.275000X0.200000X-0.275000X0*%
%ADD22RoundRect,0.200000X0.275000X-0.200000X0.275000X0.200000X-0.275000X0.200000X-0.275000X-0.200000X0*%
%ADD23C,2.200000*%
%ADD24RoundRect,0.200000X-0.275000X0.200000X-0.275000X-0.200000X0.275000X-0.200000X0.275000X0.200000X0*%
%ADD25R,1.500000X2.000000*%
%ADD26R,3.800000X2.000000*%
%ADD27RoundRect,0.150000X-0.150000X0.587500X-0.150000X-0.587500X0.150000X-0.587500X0.150000X0.587500X0*%
%ADD28RoundRect,0.250000X0.650000X-0.325000X0.650000X0.325000X-0.650000X0.325000X-0.650000X-0.325000X0*%
%ADD29RoundRect,0.225000X0.250000X-0.225000X0.250000X0.225000X-0.250000X0.225000X-0.250000X-0.225000X0*%
%ADD30RoundRect,0.218750X0.256250X-0.218750X0.256250X0.218750X-0.256250X0.218750X-0.256250X-0.218750X0*%
%ADD31RoundRect,0.225000X0.225000X0.250000X-0.225000X0.250000X-0.225000X-0.250000X0.225000X-0.250000X0*%
%ADD32R,1.700000X1.700000*%
%ADD33O,1.700000X1.700000*%
%ADD34RoundRect,0.150000X-0.512500X-0.150000X0.512500X-0.150000X0.512500X0.150000X-0.512500X0.150000X0*%
%ADD35RoundRect,0.250000X1.100000X-0.325000X1.100000X0.325000X-1.100000X0.325000X-1.100000X-0.325000X0*%
%ADD36RoundRect,0.250000X0.475000X-0.250000X0.475000X0.250000X-0.475000X0.250000X-0.475000X-0.250000X0*%
%ADD37RoundRect,0.150000X-0.587500X-0.150000X0.587500X-0.150000X0.587500X0.150000X-0.587500X0.150000X0*%
%ADD38C,4.000000*%
%ADD39R,1.600000X1.600000*%
%ADD40C,1.600000*%
%ADD41RoundRect,0.225000X-0.250000X0.225000X-0.250000X-0.225000X0.250000X-0.225000X0.250000X0.225000X0*%
%ADD42RoundRect,0.250000X-0.475000X0.250000X-0.475000X-0.250000X0.475000X-0.250000X0.475000X0.250000X0*%
%ADD43RoundRect,0.150000X-0.825000X-0.150000X0.825000X-0.150000X0.825000X0.150000X-0.825000X0.150000X0*%
%ADD44RoundRect,0.250000X-0.650000X0.325000X-0.650000X-0.325000X0.650000X-0.325000X0.650000X0.325000X0*%
%ADD45RoundRect,0.075000X-0.662500X-0.075000X0.662500X-0.075000X0.662500X0.075000X-0.662500X0.075000X0*%
%ADD46RoundRect,0.075000X-0.075000X-0.662500X0.075000X-0.662500X0.075000X0.662500X-0.075000X0.662500X0*%
%ADD47RoundRect,0.250000X-1.100000X0.325000X-1.100000X-0.325000X1.100000X-0.325000X1.100000X0.325000X0*%
G04 APERTURE END LIST*
D10*
X161675000Y-85450000D02*
G75*
G03*
X161675000Y-85450000I-175000J0D01*
G01*
X147775000Y-83650000D02*
G75*
G03*
X147775000Y-83650000I-175000J0D01*
G01*
D11*
X156922371Y-76800000D02*
X157522371Y-76600000D01*
X157522371Y-76600000D02*
X156922371Y-76400000D01*
X157465228Y-75857142D02*
X157493800Y-75885714D01*
X157493800Y-75885714D02*
X157522371Y-75971428D01*
X157522371Y-75971428D02*
X157522371Y-76028571D01*
X157522371Y-76028571D02*
X157493800Y-76114285D01*
X157493800Y-76114285D02*
X157436657Y-76171428D01*
X157436657Y-76171428D02*
X157379514Y-76199999D01*
X157379514Y-76199999D02*
X157265228Y-76228571D01*
X157265228Y-76228571D02*
X157179514Y-76228571D01*
X157179514Y-76228571D02*
X157065228Y-76199999D01*
X157065228Y-76199999D02*
X157008085Y-76171428D01*
X157008085Y-76171428D02*
X156950942Y-76114285D01*
X156950942Y-76114285D02*
X156922371Y-76028571D01*
X156922371Y-76028571D02*
X156922371Y-75971428D01*
X156922371Y-75971428D02*
X156950942Y-75885714D01*
X156950942Y-75885714D02*
X156979514Y-75857142D01*
X157465228Y-75257142D02*
X157493800Y-75285714D01*
X157493800Y-75285714D02*
X157522371Y-75371428D01*
X157522371Y-75371428D02*
X157522371Y-75428571D01*
X157522371Y-75428571D02*
X157493800Y-75514285D01*
X157493800Y-75514285D02*
X157436657Y-75571428D01*
X157436657Y-75571428D02*
X157379514Y-75599999D01*
X157379514Y-75599999D02*
X157265228Y-75628571D01*
X157265228Y-75628571D02*
X157179514Y-75628571D01*
X157179514Y-75628571D02*
X157065228Y-75599999D01*
X157065228Y-75599999D02*
X157008085Y-75571428D01*
X157008085Y-75571428D02*
X156950942Y-75514285D01*
X156950942Y-75514285D02*
X156922371Y-75428571D01*
X156922371Y-75428571D02*
X156922371Y-75371428D01*
X156922371Y-75371428D02*
X156950942Y-75285714D01*
X156950942Y-75285714D02*
X156979514Y-75257142D01*
X155593800Y-76628571D02*
X155622371Y-76542857D01*
X155622371Y-76542857D02*
X155622371Y-76399999D01*
X155622371Y-76399999D02*
X155593800Y-76342857D01*
X155593800Y-76342857D02*
X155565228Y-76314285D01*
X155565228Y-76314285D02*
X155508085Y-76285714D01*
X155508085Y-76285714D02*
X155450942Y-76285714D01*
X155450942Y-76285714D02*
X155393800Y-76314285D01*
X155393800Y-76314285D02*
X155365228Y-76342857D01*
X155365228Y-76342857D02*
X155336657Y-76399999D01*
X155336657Y-76399999D02*
X155308085Y-76514285D01*
X155308085Y-76514285D02*
X155279514Y-76571428D01*
X155279514Y-76571428D02*
X155250942Y-76599999D01*
X155250942Y-76599999D02*
X155193800Y-76628571D01*
X155193800Y-76628571D02*
X155136657Y-76628571D01*
X155136657Y-76628571D02*
X155079514Y-76599999D01*
X155079514Y-76599999D02*
X155050942Y-76571428D01*
X155050942Y-76571428D02*
X155022371Y-76514285D01*
X155022371Y-76514285D02*
X155022371Y-76371428D01*
X155022371Y-76371428D02*
X155050942Y-76285714D01*
X155622371Y-76028570D02*
X155022371Y-76028570D01*
X155022371Y-75628571D02*
X155022371Y-75514285D01*
X155022371Y-75514285D02*
X155050942Y-75457142D01*
X155050942Y-75457142D02*
X155108085Y-75399999D01*
X155108085Y-75399999D02*
X155222371Y-75371428D01*
X155222371Y-75371428D02*
X155422371Y-75371428D01*
X155422371Y-75371428D02*
X155536657Y-75399999D01*
X155536657Y-75399999D02*
X155593800Y-75457142D01*
X155593800Y-75457142D02*
X155622371Y-75514285D01*
X155622371Y-75514285D02*
X155622371Y-75628571D01*
X155622371Y-75628571D02*
X155593800Y-75685714D01*
X155593800Y-75685714D02*
X155536657Y-75742856D01*
X155536657Y-75742856D02*
X155422371Y-75771428D01*
X155422371Y-75771428D02*
X155222371Y-75771428D01*
X155222371Y-75771428D02*
X155108085Y-75742856D01*
X155108085Y-75742856D02*
X155050942Y-75685714D01*
X155050942Y-75685714D02*
X155022371Y-75628571D01*
X149950942Y-76307142D02*
X149922371Y-76364285D01*
X149922371Y-76364285D02*
X149922371Y-76449999D01*
X149922371Y-76449999D02*
X149950942Y-76535713D01*
X149950942Y-76535713D02*
X150008085Y-76592856D01*
X150008085Y-76592856D02*
X150065228Y-76621427D01*
X150065228Y-76621427D02*
X150179514Y-76649999D01*
X150179514Y-76649999D02*
X150265228Y-76649999D01*
X150265228Y-76649999D02*
X150379514Y-76621427D01*
X150379514Y-76621427D02*
X150436657Y-76592856D01*
X150436657Y-76592856D02*
X150493800Y-76535713D01*
X150493800Y-76535713D02*
X150522371Y-76449999D01*
X150522371Y-76449999D02*
X150522371Y-76392856D01*
X150522371Y-76392856D02*
X150493800Y-76307142D01*
X150493800Y-76307142D02*
X150465228Y-76278570D01*
X150465228Y-76278570D02*
X150265228Y-76278570D01*
X150265228Y-76278570D02*
X150265228Y-76392856D01*
X150522371Y-76021427D02*
X149922371Y-76021427D01*
X149922371Y-76021427D02*
X150522371Y-75678570D01*
X150522371Y-75678570D02*
X149922371Y-75678570D01*
X150522371Y-75392856D02*
X149922371Y-75392856D01*
X149922371Y-75392856D02*
X149922371Y-75249999D01*
X149922371Y-75249999D02*
X149950942Y-75164285D01*
X149950942Y-75164285D02*
X150008085Y-75107142D01*
X150008085Y-75107142D02*
X150065228Y-75078571D01*
X150065228Y-75078571D02*
X150179514Y-75049999D01*
X150179514Y-75049999D02*
X150265228Y-75049999D01*
X150265228Y-75049999D02*
X150379514Y-75078571D01*
X150379514Y-75078571D02*
X150436657Y-75107142D01*
X150436657Y-75107142D02*
X150493800Y-75164285D01*
X150493800Y-75164285D02*
X150522371Y-75249999D01*
X150522371Y-75249999D02*
X150522371Y-75392856D01*
D12*
X129460588Y-78067438D02*
X129365350Y-78019819D01*
X129365350Y-78019819D02*
X129222493Y-78019819D01*
X129222493Y-78019819D02*
X129079636Y-78067438D01*
X129079636Y-78067438D02*
X128984398Y-78162676D01*
X128984398Y-78162676D02*
X128936779Y-78257914D01*
X128936779Y-78257914D02*
X128889160Y-78448390D01*
X128889160Y-78448390D02*
X128889160Y-78591247D01*
X128889160Y-78591247D02*
X128936779Y-78781723D01*
X128936779Y-78781723D02*
X128984398Y-78876961D01*
X128984398Y-78876961D02*
X129079636Y-78972200D01*
X129079636Y-78972200D02*
X129222493Y-79019819D01*
X129222493Y-79019819D02*
X129317731Y-79019819D01*
X129317731Y-79019819D02*
X129460588Y-78972200D01*
X129460588Y-78972200D02*
X129508207Y-78924580D01*
X129508207Y-78924580D02*
X129508207Y-78591247D01*
X129508207Y-78591247D02*
X129317731Y-78591247D01*
X129936779Y-79019819D02*
X129936779Y-78019819D01*
X129936779Y-78019819D02*
X130508207Y-79019819D01*
X130508207Y-79019819D02*
X130508207Y-78019819D01*
X130984398Y-79019819D02*
X130984398Y-78019819D01*
X130984398Y-78019819D02*
X131222493Y-78019819D01*
X131222493Y-78019819D02*
X131365350Y-78067438D01*
X131365350Y-78067438D02*
X131460588Y-78162676D01*
X131460588Y-78162676D02*
X131508207Y-78257914D01*
X131508207Y-78257914D02*
X131555826Y-78448390D01*
X131555826Y-78448390D02*
X131555826Y-78591247D01*
X131555826Y-78591247D02*
X131508207Y-78781723D01*
X131508207Y-78781723D02*
X131460588Y-78876961D01*
X131460588Y-78876961D02*
X131365350Y-78972200D01*
X131365350Y-78972200D02*
X131222493Y-79019819D01*
X131222493Y-79019819D02*
X130984398Y-79019819D01*
D11*
X153143800Y-76721428D02*
X153172371Y-76635714D01*
X153172371Y-76635714D02*
X153172371Y-76492856D01*
X153172371Y-76492856D02*
X153143800Y-76435714D01*
X153143800Y-76435714D02*
X153115228Y-76407142D01*
X153115228Y-76407142D02*
X153058085Y-76378571D01*
X153058085Y-76378571D02*
X153000942Y-76378571D01*
X153000942Y-76378571D02*
X152943800Y-76407142D01*
X152943800Y-76407142D02*
X152915228Y-76435714D01*
X152915228Y-76435714D02*
X152886657Y-76492856D01*
X152886657Y-76492856D02*
X152858085Y-76607142D01*
X152858085Y-76607142D02*
X152829514Y-76664285D01*
X152829514Y-76664285D02*
X152800942Y-76692856D01*
X152800942Y-76692856D02*
X152743800Y-76721428D01*
X152743800Y-76721428D02*
X152686657Y-76721428D01*
X152686657Y-76721428D02*
X152629514Y-76692856D01*
X152629514Y-76692856D02*
X152600942Y-76664285D01*
X152600942Y-76664285D02*
X152572371Y-76607142D01*
X152572371Y-76607142D02*
X152572371Y-76464285D01*
X152572371Y-76464285D02*
X152600942Y-76378571D01*
X153115228Y-75778570D02*
X153143800Y-75807142D01*
X153143800Y-75807142D02*
X153172371Y-75892856D01*
X153172371Y-75892856D02*
X153172371Y-75949999D01*
X153172371Y-75949999D02*
X153143800Y-76035713D01*
X153143800Y-76035713D02*
X153086657Y-76092856D01*
X153086657Y-76092856D02*
X153029514Y-76121427D01*
X153029514Y-76121427D02*
X152915228Y-76149999D01*
X152915228Y-76149999D02*
X152829514Y-76149999D01*
X152829514Y-76149999D02*
X152715228Y-76121427D01*
X152715228Y-76121427D02*
X152658085Y-76092856D01*
X152658085Y-76092856D02*
X152600942Y-76035713D01*
X152600942Y-76035713D02*
X152572371Y-75949999D01*
X152572371Y-75949999D02*
X152572371Y-75892856D01*
X152572371Y-75892856D02*
X152600942Y-75807142D01*
X152600942Y-75807142D02*
X152629514Y-75778570D01*
X153172371Y-75521427D02*
X152572371Y-75521427D01*
X153172371Y-75178570D02*
X152829514Y-75435713D01*
X152572371Y-75178570D02*
X152915228Y-75521427D01*
X143383942Y-89780951D02*
X143764895Y-89780951D01*
X142964895Y-90047618D02*
X143383942Y-89780951D01*
X143383942Y-89780951D02*
X142964895Y-89514285D01*
X143764895Y-88828571D02*
X143764895Y-89285714D01*
X143764895Y-89057142D02*
X142964895Y-89057142D01*
X142964895Y-89057142D02*
X143079180Y-89133333D01*
X143079180Y-89133333D02*
X143155371Y-89209523D01*
X143155371Y-89209523D02*
X143193466Y-89285714D01*
D12*
X127466666Y-79154819D02*
X127466666Y-79869104D01*
X127466666Y-79869104D02*
X127419047Y-80011961D01*
X127419047Y-80011961D02*
X127323809Y-80107200D01*
X127323809Y-80107200D02*
X127180952Y-80154819D01*
X127180952Y-80154819D02*
X127085714Y-80154819D01*
X127895238Y-79250057D02*
X127942857Y-79202438D01*
X127942857Y-79202438D02*
X128038095Y-79154819D01*
X128038095Y-79154819D02*
X128276190Y-79154819D01*
X128276190Y-79154819D02*
X128371428Y-79202438D01*
X128371428Y-79202438D02*
X128419047Y-79250057D01*
X128419047Y-79250057D02*
X128466666Y-79345295D01*
X128466666Y-79345295D02*
X128466666Y-79440533D01*
X128466666Y-79440533D02*
X128419047Y-79583390D01*
X128419047Y-79583390D02*
X127847619Y-80154819D01*
X127847619Y-80154819D02*
X128466666Y-80154819D01*
D11*
X131864895Y-103252975D02*
X131064895Y-103252975D01*
X131064895Y-103252975D02*
X131064895Y-103062499D01*
X131064895Y-103062499D02*
X131102990Y-102948213D01*
X131102990Y-102948213D02*
X131179180Y-102872023D01*
X131179180Y-102872023D02*
X131255371Y-102833928D01*
X131255371Y-102833928D02*
X131407752Y-102795832D01*
X131407752Y-102795832D02*
X131522038Y-102795832D01*
X131522038Y-102795832D02*
X131674419Y-102833928D01*
X131674419Y-102833928D02*
X131750609Y-102872023D01*
X131750609Y-102872023D02*
X131826800Y-102948213D01*
X131826800Y-102948213D02*
X131864895Y-103062499D01*
X131864895Y-103062499D02*
X131864895Y-103252975D01*
X131064895Y-102529166D02*
X131064895Y-102033928D01*
X131064895Y-102033928D02*
X131369657Y-102300594D01*
X131369657Y-102300594D02*
X131369657Y-102186309D01*
X131369657Y-102186309D02*
X131407752Y-102110118D01*
X131407752Y-102110118D02*
X131445847Y-102072023D01*
X131445847Y-102072023D02*
X131522038Y-102033928D01*
X131522038Y-102033928D02*
X131712514Y-102033928D01*
X131712514Y-102033928D02*
X131788704Y-102072023D01*
X131788704Y-102072023D02*
X131826800Y-102110118D01*
X131826800Y-102110118D02*
X131864895Y-102186309D01*
X131864895Y-102186309D02*
X131864895Y-102414880D01*
X131864895Y-102414880D02*
X131826800Y-102491071D01*
X131826800Y-102491071D02*
X131788704Y-102529166D01*
X133335714Y-82614895D02*
X133069047Y-82233942D01*
X132878571Y-82614895D02*
X132878571Y-81814895D01*
X132878571Y-81814895D02*
X133183333Y-81814895D01*
X133183333Y-81814895D02*
X133259523Y-81852990D01*
X133259523Y-81852990D02*
X133297618Y-81891085D01*
X133297618Y-81891085D02*
X133335714Y-81967276D01*
X133335714Y-81967276D02*
X133335714Y-82081561D01*
X133335714Y-82081561D02*
X133297618Y-82157752D01*
X133297618Y-82157752D02*
X133259523Y-82195847D01*
X133259523Y-82195847D02*
X133183333Y-82233942D01*
X133183333Y-82233942D02*
X132878571Y-82233942D01*
X133640475Y-81891085D02*
X133678571Y-81852990D01*
X133678571Y-81852990D02*
X133754761Y-81814895D01*
X133754761Y-81814895D02*
X133945237Y-81814895D01*
X133945237Y-81814895D02*
X134021428Y-81852990D01*
X134021428Y-81852990D02*
X134059523Y-81891085D01*
X134059523Y-81891085D02*
X134097618Y-81967276D01*
X134097618Y-81967276D02*
X134097618Y-82043466D01*
X134097618Y-82043466D02*
X134059523Y-82157752D01*
X134059523Y-82157752D02*
X133602380Y-82614895D01*
X133602380Y-82614895D02*
X134097618Y-82614895D01*
X134592857Y-81814895D02*
X134669047Y-81814895D01*
X134669047Y-81814895D02*
X134745238Y-81852990D01*
X134745238Y-81852990D02*
X134783333Y-81891085D01*
X134783333Y-81891085D02*
X134821428Y-81967276D01*
X134821428Y-81967276D02*
X134859523Y-82119657D01*
X134859523Y-82119657D02*
X134859523Y-82310133D01*
X134859523Y-82310133D02*
X134821428Y-82462514D01*
X134821428Y-82462514D02*
X134783333Y-82538704D01*
X134783333Y-82538704D02*
X134745238Y-82576800D01*
X134745238Y-82576800D02*
X134669047Y-82614895D01*
X134669047Y-82614895D02*
X134592857Y-82614895D01*
X134592857Y-82614895D02*
X134516666Y-82576800D01*
X134516666Y-82576800D02*
X134478571Y-82538704D01*
X134478571Y-82538704D02*
X134440476Y-82462514D01*
X134440476Y-82462514D02*
X134402380Y-82310133D01*
X134402380Y-82310133D02*
X134402380Y-82119657D01*
X134402380Y-82119657D02*
X134440476Y-81967276D01*
X134440476Y-81967276D02*
X134478571Y-81891085D01*
X134478571Y-81891085D02*
X134516666Y-81852990D01*
X134516666Y-81852990D02*
X134592857Y-81814895D01*
X171666667Y-97777395D02*
X171400000Y-97396442D01*
X171209524Y-97777395D02*
X171209524Y-96977395D01*
X171209524Y-96977395D02*
X171514286Y-96977395D01*
X171514286Y-96977395D02*
X171590476Y-97015490D01*
X171590476Y-97015490D02*
X171628571Y-97053585D01*
X171628571Y-97053585D02*
X171666667Y-97129776D01*
X171666667Y-97129776D02*
X171666667Y-97244061D01*
X171666667Y-97244061D02*
X171628571Y-97320252D01*
X171628571Y-97320252D02*
X171590476Y-97358347D01*
X171590476Y-97358347D02*
X171514286Y-97396442D01*
X171514286Y-97396442D02*
X171209524Y-97396442D01*
X171933333Y-96977395D02*
X172466667Y-96977395D01*
X172466667Y-96977395D02*
X172123809Y-97777395D01*
D12*
X141604819Y-87692857D02*
X141128628Y-88026190D01*
X141604819Y-88264285D02*
X140604819Y-88264285D01*
X140604819Y-88264285D02*
X140604819Y-87883333D01*
X140604819Y-87883333D02*
X140652438Y-87788095D01*
X140652438Y-87788095D02*
X140700057Y-87740476D01*
X140700057Y-87740476D02*
X140795295Y-87692857D01*
X140795295Y-87692857D02*
X140938152Y-87692857D01*
X140938152Y-87692857D02*
X141033390Y-87740476D01*
X141033390Y-87740476D02*
X141081009Y-87788095D01*
X141081009Y-87788095D02*
X141128628Y-87883333D01*
X141128628Y-87883333D02*
X141128628Y-88264285D01*
X140604819Y-87359523D02*
X140604819Y-86740476D01*
X140604819Y-86740476D02*
X140985771Y-87073809D01*
X140985771Y-87073809D02*
X140985771Y-86930952D01*
X140985771Y-86930952D02*
X141033390Y-86835714D01*
X141033390Y-86835714D02*
X141081009Y-86788095D01*
X141081009Y-86788095D02*
X141176247Y-86740476D01*
X141176247Y-86740476D02*
X141414342Y-86740476D01*
X141414342Y-86740476D02*
X141509580Y-86788095D01*
X141509580Y-86788095D02*
X141557200Y-86835714D01*
X141557200Y-86835714D02*
X141604819Y-86930952D01*
X141604819Y-86930952D02*
X141604819Y-87216666D01*
X141604819Y-87216666D02*
X141557200Y-87311904D01*
X141557200Y-87311904D02*
X141509580Y-87359523D01*
X140604819Y-86121428D02*
X140604819Y-86026190D01*
X140604819Y-86026190D02*
X140652438Y-85930952D01*
X140652438Y-85930952D02*
X140700057Y-85883333D01*
X140700057Y-85883333D02*
X140795295Y-85835714D01*
X140795295Y-85835714D02*
X140985771Y-85788095D01*
X140985771Y-85788095D02*
X141223866Y-85788095D01*
X141223866Y-85788095D02*
X141414342Y-85835714D01*
X141414342Y-85835714D02*
X141509580Y-85883333D01*
X141509580Y-85883333D02*
X141557200Y-85930952D01*
X141557200Y-85930952D02*
X141604819Y-86026190D01*
X141604819Y-86026190D02*
X141604819Y-86121428D01*
X141604819Y-86121428D02*
X141557200Y-86216666D01*
X141557200Y-86216666D02*
X141509580Y-86264285D01*
X141509580Y-86264285D02*
X141414342Y-86311904D01*
X141414342Y-86311904D02*
X141223866Y-86359523D01*
X141223866Y-86359523D02*
X140985771Y-86359523D01*
X140985771Y-86359523D02*
X140795295Y-86311904D01*
X140795295Y-86311904D02*
X140700057Y-86264285D01*
X140700057Y-86264285D02*
X140652438Y-86216666D01*
X140652438Y-86216666D02*
X140604819Y-86121428D01*
D11*
X163564895Y-98964285D02*
X163183942Y-99230952D01*
X163564895Y-99421428D02*
X162764895Y-99421428D01*
X162764895Y-99421428D02*
X162764895Y-99116666D01*
X162764895Y-99116666D02*
X162802990Y-99040476D01*
X162802990Y-99040476D02*
X162841085Y-99002381D01*
X162841085Y-99002381D02*
X162917276Y-98964285D01*
X162917276Y-98964285D02*
X163031561Y-98964285D01*
X163031561Y-98964285D02*
X163107752Y-99002381D01*
X163107752Y-99002381D02*
X163145847Y-99040476D01*
X163145847Y-99040476D02*
X163183942Y-99116666D01*
X163183942Y-99116666D02*
X163183942Y-99421428D01*
X163564895Y-98202381D02*
X163564895Y-98659524D01*
X163564895Y-98430952D02*
X162764895Y-98430952D01*
X162764895Y-98430952D02*
X162879180Y-98507143D01*
X162879180Y-98507143D02*
X162955371Y-98583333D01*
X162955371Y-98583333D02*
X162993466Y-98659524D01*
X162764895Y-97935714D02*
X162764895Y-97440476D01*
X162764895Y-97440476D02*
X163069657Y-97707142D01*
X163069657Y-97707142D02*
X163069657Y-97592857D01*
X163069657Y-97592857D02*
X163107752Y-97516666D01*
X163107752Y-97516666D02*
X163145847Y-97478571D01*
X163145847Y-97478571D02*
X163222038Y-97440476D01*
X163222038Y-97440476D02*
X163412514Y-97440476D01*
X163412514Y-97440476D02*
X163488704Y-97478571D01*
X163488704Y-97478571D02*
X163526800Y-97516666D01*
X163526800Y-97516666D02*
X163564895Y-97592857D01*
X163564895Y-97592857D02*
X163564895Y-97821428D01*
X163564895Y-97821428D02*
X163526800Y-97897619D01*
X163526800Y-97897619D02*
X163488704Y-97935714D01*
X168864895Y-91764285D02*
X168483942Y-92030952D01*
X168864895Y-92221428D02*
X168064895Y-92221428D01*
X168064895Y-92221428D02*
X168064895Y-91916666D01*
X168064895Y-91916666D02*
X168102990Y-91840476D01*
X168102990Y-91840476D02*
X168141085Y-91802381D01*
X168141085Y-91802381D02*
X168217276Y-91764285D01*
X168217276Y-91764285D02*
X168331561Y-91764285D01*
X168331561Y-91764285D02*
X168407752Y-91802381D01*
X168407752Y-91802381D02*
X168445847Y-91840476D01*
X168445847Y-91840476D02*
X168483942Y-91916666D01*
X168483942Y-91916666D02*
X168483942Y-92221428D01*
X168864895Y-91002381D02*
X168864895Y-91459524D01*
X168864895Y-91230952D02*
X168064895Y-91230952D01*
X168064895Y-91230952D02*
X168179180Y-91307143D01*
X168179180Y-91307143D02*
X168255371Y-91383333D01*
X168255371Y-91383333D02*
X168293466Y-91459524D01*
X168064895Y-90316666D02*
X168064895Y-90469047D01*
X168064895Y-90469047D02*
X168102990Y-90545238D01*
X168102990Y-90545238D02*
X168141085Y-90583333D01*
X168141085Y-90583333D02*
X168255371Y-90659523D01*
X168255371Y-90659523D02*
X168407752Y-90697619D01*
X168407752Y-90697619D02*
X168712514Y-90697619D01*
X168712514Y-90697619D02*
X168788704Y-90659523D01*
X168788704Y-90659523D02*
X168826800Y-90621428D01*
X168826800Y-90621428D02*
X168864895Y-90545238D01*
X168864895Y-90545238D02*
X168864895Y-90392857D01*
X168864895Y-90392857D02*
X168826800Y-90316666D01*
X168826800Y-90316666D02*
X168788704Y-90278571D01*
X168788704Y-90278571D02*
X168712514Y-90240476D01*
X168712514Y-90240476D02*
X168522038Y-90240476D01*
X168522038Y-90240476D02*
X168445847Y-90278571D01*
X168445847Y-90278571D02*
X168407752Y-90316666D01*
X168407752Y-90316666D02*
X168369657Y-90392857D01*
X168369657Y-90392857D02*
X168369657Y-90545238D01*
X168369657Y-90545238D02*
X168407752Y-90621428D01*
X168407752Y-90621428D02*
X168445847Y-90659523D01*
X168445847Y-90659523D02*
X168522038Y-90697619D01*
X134864895Y-74883332D02*
X134483942Y-75149999D01*
X134864895Y-75340475D02*
X134064895Y-75340475D01*
X134064895Y-75340475D02*
X134064895Y-75035713D01*
X134064895Y-75035713D02*
X134102990Y-74959523D01*
X134102990Y-74959523D02*
X134141085Y-74921428D01*
X134141085Y-74921428D02*
X134217276Y-74883332D01*
X134217276Y-74883332D02*
X134331561Y-74883332D01*
X134331561Y-74883332D02*
X134407752Y-74921428D01*
X134407752Y-74921428D02*
X134445847Y-74959523D01*
X134445847Y-74959523D02*
X134483942Y-75035713D01*
X134483942Y-75035713D02*
X134483942Y-75340475D01*
X134141085Y-74578571D02*
X134102990Y-74540475D01*
X134102990Y-74540475D02*
X134064895Y-74464285D01*
X134064895Y-74464285D02*
X134064895Y-74273809D01*
X134064895Y-74273809D02*
X134102990Y-74197618D01*
X134102990Y-74197618D02*
X134141085Y-74159523D01*
X134141085Y-74159523D02*
X134217276Y-74121428D01*
X134217276Y-74121428D02*
X134293466Y-74121428D01*
X134293466Y-74121428D02*
X134407752Y-74159523D01*
X134407752Y-74159523D02*
X134864895Y-74616666D01*
X134864895Y-74616666D02*
X134864895Y-74121428D01*
X167585714Y-82314895D02*
X167319047Y-81933942D01*
X167128571Y-82314895D02*
X167128571Y-81514895D01*
X167128571Y-81514895D02*
X167433333Y-81514895D01*
X167433333Y-81514895D02*
X167509523Y-81552990D01*
X167509523Y-81552990D02*
X167547618Y-81591085D01*
X167547618Y-81591085D02*
X167585714Y-81667276D01*
X167585714Y-81667276D02*
X167585714Y-81781561D01*
X167585714Y-81781561D02*
X167547618Y-81857752D01*
X167547618Y-81857752D02*
X167509523Y-81895847D01*
X167509523Y-81895847D02*
X167433333Y-81933942D01*
X167433333Y-81933942D02*
X167128571Y-81933942D01*
X167890475Y-81591085D02*
X167928571Y-81552990D01*
X167928571Y-81552990D02*
X168004761Y-81514895D01*
X168004761Y-81514895D02*
X168195237Y-81514895D01*
X168195237Y-81514895D02*
X168271428Y-81552990D01*
X168271428Y-81552990D02*
X168309523Y-81591085D01*
X168309523Y-81591085D02*
X168347618Y-81667276D01*
X168347618Y-81667276D02*
X168347618Y-81743466D01*
X168347618Y-81743466D02*
X168309523Y-81857752D01*
X168309523Y-81857752D02*
X167852380Y-82314895D01*
X167852380Y-82314895D02*
X168347618Y-82314895D01*
X168804761Y-81857752D02*
X168728571Y-81819657D01*
X168728571Y-81819657D02*
X168690476Y-81781561D01*
X168690476Y-81781561D02*
X168652380Y-81705371D01*
X168652380Y-81705371D02*
X168652380Y-81667276D01*
X168652380Y-81667276D02*
X168690476Y-81591085D01*
X168690476Y-81591085D02*
X168728571Y-81552990D01*
X168728571Y-81552990D02*
X168804761Y-81514895D01*
X168804761Y-81514895D02*
X168957142Y-81514895D01*
X168957142Y-81514895D02*
X169033333Y-81552990D01*
X169033333Y-81552990D02*
X169071428Y-81591085D01*
X169071428Y-81591085D02*
X169109523Y-81667276D01*
X169109523Y-81667276D02*
X169109523Y-81705371D01*
X169109523Y-81705371D02*
X169071428Y-81781561D01*
X169071428Y-81781561D02*
X169033333Y-81819657D01*
X169033333Y-81819657D02*
X168957142Y-81857752D01*
X168957142Y-81857752D02*
X168804761Y-81857752D01*
X168804761Y-81857752D02*
X168728571Y-81895847D01*
X168728571Y-81895847D02*
X168690476Y-81933942D01*
X168690476Y-81933942D02*
X168652380Y-82010133D01*
X168652380Y-82010133D02*
X168652380Y-82162514D01*
X168652380Y-82162514D02*
X168690476Y-82238704D01*
X168690476Y-82238704D02*
X168728571Y-82276800D01*
X168728571Y-82276800D02*
X168804761Y-82314895D01*
X168804761Y-82314895D02*
X168957142Y-82314895D01*
X168957142Y-82314895D02*
X169033333Y-82276800D01*
X169033333Y-82276800D02*
X169071428Y-82238704D01*
X169071428Y-82238704D02*
X169109523Y-82162514D01*
X169109523Y-82162514D02*
X169109523Y-82010133D01*
X169109523Y-82010133D02*
X169071428Y-81933942D01*
X169071428Y-81933942D02*
X169033333Y-81895847D01*
X169033333Y-81895847D02*
X168957142Y-81857752D01*
X160864895Y-98964285D02*
X160483942Y-99230952D01*
X160864895Y-99421428D02*
X160064895Y-99421428D01*
X160064895Y-99421428D02*
X160064895Y-99116666D01*
X160064895Y-99116666D02*
X160102990Y-99040476D01*
X160102990Y-99040476D02*
X160141085Y-99002381D01*
X160141085Y-99002381D02*
X160217276Y-98964285D01*
X160217276Y-98964285D02*
X160331561Y-98964285D01*
X160331561Y-98964285D02*
X160407752Y-99002381D01*
X160407752Y-99002381D02*
X160445847Y-99040476D01*
X160445847Y-99040476D02*
X160483942Y-99116666D01*
X160483942Y-99116666D02*
X160483942Y-99421428D01*
X160864895Y-98202381D02*
X160864895Y-98659524D01*
X160864895Y-98430952D02*
X160064895Y-98430952D01*
X160064895Y-98430952D02*
X160179180Y-98507143D01*
X160179180Y-98507143D02*
X160255371Y-98583333D01*
X160255371Y-98583333D02*
X160293466Y-98659524D01*
X160141085Y-97897619D02*
X160102990Y-97859523D01*
X160102990Y-97859523D02*
X160064895Y-97783333D01*
X160064895Y-97783333D02*
X160064895Y-97592857D01*
X160064895Y-97592857D02*
X160102990Y-97516666D01*
X160102990Y-97516666D02*
X160141085Y-97478571D01*
X160141085Y-97478571D02*
X160217276Y-97440476D01*
X160217276Y-97440476D02*
X160293466Y-97440476D01*
X160293466Y-97440476D02*
X160407752Y-97478571D01*
X160407752Y-97478571D02*
X160864895Y-97935714D01*
X160864895Y-97935714D02*
X160864895Y-97440476D01*
X140123214Y-94227395D02*
X139856547Y-93846442D01*
X139666071Y-94227395D02*
X139666071Y-93427395D01*
X139666071Y-93427395D02*
X139970833Y-93427395D01*
X139970833Y-93427395D02*
X140047023Y-93465490D01*
X140047023Y-93465490D02*
X140085118Y-93503585D01*
X140085118Y-93503585D02*
X140123214Y-93579776D01*
X140123214Y-93579776D02*
X140123214Y-93694061D01*
X140123214Y-93694061D02*
X140085118Y-93770252D01*
X140085118Y-93770252D02*
X140047023Y-93808347D01*
X140047023Y-93808347D02*
X139970833Y-93846442D01*
X139970833Y-93846442D02*
X139666071Y-93846442D01*
X140427975Y-93503585D02*
X140466071Y-93465490D01*
X140466071Y-93465490D02*
X140542261Y-93427395D01*
X140542261Y-93427395D02*
X140732737Y-93427395D01*
X140732737Y-93427395D02*
X140808928Y-93465490D01*
X140808928Y-93465490D02*
X140847023Y-93503585D01*
X140847023Y-93503585D02*
X140885118Y-93579776D01*
X140885118Y-93579776D02*
X140885118Y-93655966D01*
X140885118Y-93655966D02*
X140847023Y-93770252D01*
X140847023Y-93770252D02*
X140389880Y-94227395D01*
X140389880Y-94227395D02*
X140885118Y-94227395D01*
X141570833Y-93694061D02*
X141570833Y-94227395D01*
X141380357Y-93389300D02*
X141189880Y-93960728D01*
X141189880Y-93960728D02*
X141685119Y-93960728D01*
X133364895Y-77233332D02*
X132983942Y-77499999D01*
X133364895Y-77690475D02*
X132564895Y-77690475D01*
X132564895Y-77690475D02*
X132564895Y-77385713D01*
X132564895Y-77385713D02*
X132602990Y-77309523D01*
X132602990Y-77309523D02*
X132641085Y-77271428D01*
X132641085Y-77271428D02*
X132717276Y-77233332D01*
X132717276Y-77233332D02*
X132831561Y-77233332D01*
X132831561Y-77233332D02*
X132907752Y-77271428D01*
X132907752Y-77271428D02*
X132945847Y-77309523D01*
X132945847Y-77309523D02*
X132983942Y-77385713D01*
X132983942Y-77385713D02*
X132983942Y-77690475D01*
X132907752Y-76776190D02*
X132869657Y-76852380D01*
X132869657Y-76852380D02*
X132831561Y-76890475D01*
X132831561Y-76890475D02*
X132755371Y-76928571D01*
X132755371Y-76928571D02*
X132717276Y-76928571D01*
X132717276Y-76928571D02*
X132641085Y-76890475D01*
X132641085Y-76890475D02*
X132602990Y-76852380D01*
X132602990Y-76852380D02*
X132564895Y-76776190D01*
X132564895Y-76776190D02*
X132564895Y-76623809D01*
X132564895Y-76623809D02*
X132602990Y-76547618D01*
X132602990Y-76547618D02*
X132641085Y-76509523D01*
X132641085Y-76509523D02*
X132717276Y-76471428D01*
X132717276Y-76471428D02*
X132755371Y-76471428D01*
X132755371Y-76471428D02*
X132831561Y-76509523D01*
X132831561Y-76509523D02*
X132869657Y-76547618D01*
X132869657Y-76547618D02*
X132907752Y-76623809D01*
X132907752Y-76623809D02*
X132907752Y-76776190D01*
X132907752Y-76776190D02*
X132945847Y-76852380D01*
X132945847Y-76852380D02*
X132983942Y-76890475D01*
X132983942Y-76890475D02*
X133060133Y-76928571D01*
X133060133Y-76928571D02*
X133212514Y-76928571D01*
X133212514Y-76928571D02*
X133288704Y-76890475D01*
X133288704Y-76890475D02*
X133326800Y-76852380D01*
X133326800Y-76852380D02*
X133364895Y-76776190D01*
X133364895Y-76776190D02*
X133364895Y-76623809D01*
X133364895Y-76623809D02*
X133326800Y-76547618D01*
X133326800Y-76547618D02*
X133288704Y-76509523D01*
X133288704Y-76509523D02*
X133212514Y-76471428D01*
X133212514Y-76471428D02*
X133060133Y-76471428D01*
X133060133Y-76471428D02*
X132983942Y-76509523D01*
X132983942Y-76509523D02*
X132945847Y-76547618D01*
X132945847Y-76547618D02*
X132907752Y-76623809D01*
X133064895Y-80133332D02*
X132683942Y-80399999D01*
X133064895Y-80590475D02*
X132264895Y-80590475D01*
X132264895Y-80590475D02*
X132264895Y-80285713D01*
X132264895Y-80285713D02*
X132302990Y-80209523D01*
X132302990Y-80209523D02*
X132341085Y-80171428D01*
X132341085Y-80171428D02*
X132417276Y-80133332D01*
X132417276Y-80133332D02*
X132531561Y-80133332D01*
X132531561Y-80133332D02*
X132607752Y-80171428D01*
X132607752Y-80171428D02*
X132645847Y-80209523D01*
X132645847Y-80209523D02*
X132683942Y-80285713D01*
X132683942Y-80285713D02*
X132683942Y-80590475D01*
X132531561Y-79447618D02*
X133064895Y-79447618D01*
X132226800Y-79638094D02*
X132798228Y-79828571D01*
X132798228Y-79828571D02*
X132798228Y-79333332D01*
X160864895Y-91664285D02*
X160483942Y-91930952D01*
X160864895Y-92121428D02*
X160064895Y-92121428D01*
X160064895Y-92121428D02*
X160064895Y-91816666D01*
X160064895Y-91816666D02*
X160102990Y-91740476D01*
X160102990Y-91740476D02*
X160141085Y-91702381D01*
X160141085Y-91702381D02*
X160217276Y-91664285D01*
X160217276Y-91664285D02*
X160331561Y-91664285D01*
X160331561Y-91664285D02*
X160407752Y-91702381D01*
X160407752Y-91702381D02*
X160445847Y-91740476D01*
X160445847Y-91740476D02*
X160483942Y-91816666D01*
X160483942Y-91816666D02*
X160483942Y-92121428D01*
X160141085Y-91359524D02*
X160102990Y-91321428D01*
X160102990Y-91321428D02*
X160064895Y-91245238D01*
X160064895Y-91245238D02*
X160064895Y-91054762D01*
X160064895Y-91054762D02*
X160102990Y-90978571D01*
X160102990Y-90978571D02*
X160141085Y-90940476D01*
X160141085Y-90940476D02*
X160217276Y-90902381D01*
X160217276Y-90902381D02*
X160293466Y-90902381D01*
X160293466Y-90902381D02*
X160407752Y-90940476D01*
X160407752Y-90940476D02*
X160864895Y-91397619D01*
X160864895Y-91397619D02*
X160864895Y-90902381D01*
X160064895Y-90635714D02*
X160064895Y-90102380D01*
X160064895Y-90102380D02*
X160864895Y-90445238D01*
X159990476Y-67214895D02*
X159990476Y-67862514D01*
X159990476Y-67862514D02*
X160028571Y-67938704D01*
X160028571Y-67938704D02*
X160066666Y-67976800D01*
X160066666Y-67976800D02*
X160142857Y-68014895D01*
X160142857Y-68014895D02*
X160295238Y-68014895D01*
X160295238Y-68014895D02*
X160371428Y-67976800D01*
X160371428Y-67976800D02*
X160409523Y-67938704D01*
X160409523Y-67938704D02*
X160447619Y-67862514D01*
X160447619Y-67862514D02*
X160447619Y-67214895D01*
X160752380Y-67214895D02*
X161247618Y-67214895D01*
X161247618Y-67214895D02*
X160980952Y-67519657D01*
X160980952Y-67519657D02*
X161095237Y-67519657D01*
X161095237Y-67519657D02*
X161171428Y-67557752D01*
X161171428Y-67557752D02*
X161209523Y-67595847D01*
X161209523Y-67595847D02*
X161247618Y-67672038D01*
X161247618Y-67672038D02*
X161247618Y-67862514D01*
X161247618Y-67862514D02*
X161209523Y-67938704D01*
X161209523Y-67938704D02*
X161171428Y-67976800D01*
X161171428Y-67976800D02*
X161095237Y-68014895D01*
X161095237Y-68014895D02*
X160866666Y-68014895D01*
X160866666Y-68014895D02*
X160790475Y-67976800D01*
X160790475Y-67976800D02*
X160752380Y-67938704D01*
X165464895Y-91764285D02*
X165083942Y-92030952D01*
X165464895Y-92221428D02*
X164664895Y-92221428D01*
X164664895Y-92221428D02*
X164664895Y-91916666D01*
X164664895Y-91916666D02*
X164702990Y-91840476D01*
X164702990Y-91840476D02*
X164741085Y-91802381D01*
X164741085Y-91802381D02*
X164817276Y-91764285D01*
X164817276Y-91764285D02*
X164931561Y-91764285D01*
X164931561Y-91764285D02*
X165007752Y-91802381D01*
X165007752Y-91802381D02*
X165045847Y-91840476D01*
X165045847Y-91840476D02*
X165083942Y-91916666D01*
X165083942Y-91916666D02*
X165083942Y-92221428D01*
X165464895Y-91002381D02*
X165464895Y-91459524D01*
X165464895Y-91230952D02*
X164664895Y-91230952D01*
X164664895Y-91230952D02*
X164779180Y-91307143D01*
X164779180Y-91307143D02*
X164855371Y-91383333D01*
X164855371Y-91383333D02*
X164893466Y-91459524D01*
X164931561Y-90316666D02*
X165464895Y-90316666D01*
X164626800Y-90507142D02*
X165198228Y-90697619D01*
X165198228Y-90697619D02*
X165198228Y-90202380D01*
X146035714Y-77614895D02*
X145769047Y-77233942D01*
X145578571Y-77614895D02*
X145578571Y-76814895D01*
X145578571Y-76814895D02*
X145883333Y-76814895D01*
X145883333Y-76814895D02*
X145959523Y-76852990D01*
X145959523Y-76852990D02*
X145997618Y-76891085D01*
X145997618Y-76891085D02*
X146035714Y-76967276D01*
X146035714Y-76967276D02*
X146035714Y-77081561D01*
X146035714Y-77081561D02*
X145997618Y-77157752D01*
X145997618Y-77157752D02*
X145959523Y-77195847D01*
X145959523Y-77195847D02*
X145883333Y-77233942D01*
X145883333Y-77233942D02*
X145578571Y-77233942D01*
X146797618Y-77614895D02*
X146340475Y-77614895D01*
X146569047Y-77614895D02*
X146569047Y-76814895D01*
X146569047Y-76814895D02*
X146492856Y-76929180D01*
X146492856Y-76929180D02*
X146416666Y-77005371D01*
X146416666Y-77005371D02*
X146340475Y-77043466D01*
X147559523Y-77614895D02*
X147102380Y-77614895D01*
X147330952Y-77614895D02*
X147330952Y-76814895D01*
X147330952Y-76814895D02*
X147254761Y-76929180D01*
X147254761Y-76929180D02*
X147178571Y-77005371D01*
X147178571Y-77005371D02*
X147102380Y-77043466D01*
X172141085Y-101988690D02*
X172102990Y-102064880D01*
X172102990Y-102064880D02*
X172026800Y-102141071D01*
X172026800Y-102141071D02*
X171912514Y-102255357D01*
X171912514Y-102255357D02*
X171874419Y-102331547D01*
X171874419Y-102331547D02*
X171874419Y-102407738D01*
X172064895Y-102369642D02*
X172026800Y-102445833D01*
X172026800Y-102445833D02*
X171950609Y-102522023D01*
X171950609Y-102522023D02*
X171798228Y-102560119D01*
X171798228Y-102560119D02*
X171531561Y-102560119D01*
X171531561Y-102560119D02*
X171379180Y-102522023D01*
X171379180Y-102522023D02*
X171302990Y-102445833D01*
X171302990Y-102445833D02*
X171264895Y-102369642D01*
X171264895Y-102369642D02*
X171264895Y-102217261D01*
X171264895Y-102217261D02*
X171302990Y-102141071D01*
X171302990Y-102141071D02*
X171379180Y-102064880D01*
X171379180Y-102064880D02*
X171531561Y-102026785D01*
X171531561Y-102026785D02*
X171798228Y-102026785D01*
X171798228Y-102026785D02*
X171950609Y-102064880D01*
X171950609Y-102064880D02*
X172026800Y-102141071D01*
X172026800Y-102141071D02*
X172064895Y-102217261D01*
X172064895Y-102217261D02*
X172064895Y-102369642D01*
X172064895Y-101264881D02*
X172064895Y-101722024D01*
X172064895Y-101493452D02*
X171264895Y-101493452D01*
X171264895Y-101493452D02*
X171379180Y-101569643D01*
X171379180Y-101569643D02*
X171455371Y-101645833D01*
X171455371Y-101645833D02*
X171493466Y-101722024D01*
X163416667Y-75938704D02*
X163378571Y-75976800D01*
X163378571Y-75976800D02*
X163264286Y-76014895D01*
X163264286Y-76014895D02*
X163188095Y-76014895D01*
X163188095Y-76014895D02*
X163073809Y-75976800D01*
X163073809Y-75976800D02*
X162997619Y-75900609D01*
X162997619Y-75900609D02*
X162959524Y-75824419D01*
X162959524Y-75824419D02*
X162921428Y-75672038D01*
X162921428Y-75672038D02*
X162921428Y-75557752D01*
X162921428Y-75557752D02*
X162959524Y-75405371D01*
X162959524Y-75405371D02*
X162997619Y-75329180D01*
X162997619Y-75329180D02*
X163073809Y-75252990D01*
X163073809Y-75252990D02*
X163188095Y-75214895D01*
X163188095Y-75214895D02*
X163264286Y-75214895D01*
X163264286Y-75214895D02*
X163378571Y-75252990D01*
X163378571Y-75252990D02*
X163416667Y-75291085D01*
X163873809Y-75557752D02*
X163797619Y-75519657D01*
X163797619Y-75519657D02*
X163759524Y-75481561D01*
X163759524Y-75481561D02*
X163721428Y-75405371D01*
X163721428Y-75405371D02*
X163721428Y-75367276D01*
X163721428Y-75367276D02*
X163759524Y-75291085D01*
X163759524Y-75291085D02*
X163797619Y-75252990D01*
X163797619Y-75252990D02*
X163873809Y-75214895D01*
X163873809Y-75214895D02*
X164026190Y-75214895D01*
X164026190Y-75214895D02*
X164102381Y-75252990D01*
X164102381Y-75252990D02*
X164140476Y-75291085D01*
X164140476Y-75291085D02*
X164178571Y-75367276D01*
X164178571Y-75367276D02*
X164178571Y-75405371D01*
X164178571Y-75405371D02*
X164140476Y-75481561D01*
X164140476Y-75481561D02*
X164102381Y-75519657D01*
X164102381Y-75519657D02*
X164026190Y-75557752D01*
X164026190Y-75557752D02*
X163873809Y-75557752D01*
X163873809Y-75557752D02*
X163797619Y-75595847D01*
X163797619Y-75595847D02*
X163759524Y-75633942D01*
X163759524Y-75633942D02*
X163721428Y-75710133D01*
X163721428Y-75710133D02*
X163721428Y-75862514D01*
X163721428Y-75862514D02*
X163759524Y-75938704D01*
X163759524Y-75938704D02*
X163797619Y-75976800D01*
X163797619Y-75976800D02*
X163873809Y-76014895D01*
X163873809Y-76014895D02*
X164026190Y-76014895D01*
X164026190Y-76014895D02*
X164102381Y-75976800D01*
X164102381Y-75976800D02*
X164140476Y-75938704D01*
X164140476Y-75938704D02*
X164178571Y-75862514D01*
X164178571Y-75862514D02*
X164178571Y-75710133D01*
X164178571Y-75710133D02*
X164140476Y-75633942D01*
X164140476Y-75633942D02*
X164102381Y-75595847D01*
X164102381Y-75595847D02*
X164026190Y-75557752D01*
X137635714Y-86238704D02*
X137597618Y-86276800D01*
X137597618Y-86276800D02*
X137483333Y-86314895D01*
X137483333Y-86314895D02*
X137407142Y-86314895D01*
X137407142Y-86314895D02*
X137292856Y-86276800D01*
X137292856Y-86276800D02*
X137216666Y-86200609D01*
X137216666Y-86200609D02*
X137178571Y-86124419D01*
X137178571Y-86124419D02*
X137140475Y-85972038D01*
X137140475Y-85972038D02*
X137140475Y-85857752D01*
X137140475Y-85857752D02*
X137178571Y-85705371D01*
X137178571Y-85705371D02*
X137216666Y-85629180D01*
X137216666Y-85629180D02*
X137292856Y-85552990D01*
X137292856Y-85552990D02*
X137407142Y-85514895D01*
X137407142Y-85514895D02*
X137483333Y-85514895D01*
X137483333Y-85514895D02*
X137597618Y-85552990D01*
X137597618Y-85552990D02*
X137635714Y-85591085D01*
X138397618Y-86314895D02*
X137940475Y-86314895D01*
X138169047Y-86314895D02*
X138169047Y-85514895D01*
X138169047Y-85514895D02*
X138092856Y-85629180D01*
X138092856Y-85629180D02*
X138016666Y-85705371D01*
X138016666Y-85705371D02*
X137940475Y-85743466D01*
X138702380Y-85591085D02*
X138740476Y-85552990D01*
X138740476Y-85552990D02*
X138816666Y-85514895D01*
X138816666Y-85514895D02*
X139007142Y-85514895D01*
X139007142Y-85514895D02*
X139083333Y-85552990D01*
X139083333Y-85552990D02*
X139121428Y-85591085D01*
X139121428Y-85591085D02*
X139159523Y-85667276D01*
X139159523Y-85667276D02*
X139159523Y-85743466D01*
X139159523Y-85743466D02*
X139121428Y-85857752D01*
X139121428Y-85857752D02*
X138664285Y-86314895D01*
X138664285Y-86314895D02*
X139159523Y-86314895D01*
X162464895Y-92140475D02*
X161664895Y-92140475D01*
X161664895Y-92140475D02*
X161664895Y-91949999D01*
X161664895Y-91949999D02*
X161702990Y-91835713D01*
X161702990Y-91835713D02*
X161779180Y-91759523D01*
X161779180Y-91759523D02*
X161855371Y-91721428D01*
X161855371Y-91721428D02*
X162007752Y-91683332D01*
X162007752Y-91683332D02*
X162122038Y-91683332D01*
X162122038Y-91683332D02*
X162274419Y-91721428D01*
X162274419Y-91721428D02*
X162350609Y-91759523D01*
X162350609Y-91759523D02*
X162426800Y-91835713D01*
X162426800Y-91835713D02*
X162464895Y-91949999D01*
X162464895Y-91949999D02*
X162464895Y-92140475D01*
X161741085Y-91378571D02*
X161702990Y-91340475D01*
X161702990Y-91340475D02*
X161664895Y-91264285D01*
X161664895Y-91264285D02*
X161664895Y-91073809D01*
X161664895Y-91073809D02*
X161702990Y-90997618D01*
X161702990Y-90997618D02*
X161741085Y-90959523D01*
X161741085Y-90959523D02*
X161817276Y-90921428D01*
X161817276Y-90921428D02*
X161893466Y-90921428D01*
X161893466Y-90921428D02*
X162007752Y-90959523D01*
X162007752Y-90959523D02*
X162464895Y-91416666D01*
X162464895Y-91416666D02*
X162464895Y-90921428D01*
X150585714Y-80714895D02*
X150319047Y-80333942D01*
X150128571Y-80714895D02*
X150128571Y-79914895D01*
X150128571Y-79914895D02*
X150433333Y-79914895D01*
X150433333Y-79914895D02*
X150509523Y-79952990D01*
X150509523Y-79952990D02*
X150547618Y-79991085D01*
X150547618Y-79991085D02*
X150585714Y-80067276D01*
X150585714Y-80067276D02*
X150585714Y-80181561D01*
X150585714Y-80181561D02*
X150547618Y-80257752D01*
X150547618Y-80257752D02*
X150509523Y-80295847D01*
X150509523Y-80295847D02*
X150433333Y-80333942D01*
X150433333Y-80333942D02*
X150128571Y-80333942D01*
X150890475Y-79991085D02*
X150928571Y-79952990D01*
X150928571Y-79952990D02*
X151004761Y-79914895D01*
X151004761Y-79914895D02*
X151195237Y-79914895D01*
X151195237Y-79914895D02*
X151271428Y-79952990D01*
X151271428Y-79952990D02*
X151309523Y-79991085D01*
X151309523Y-79991085D02*
X151347618Y-80067276D01*
X151347618Y-80067276D02*
X151347618Y-80143466D01*
X151347618Y-80143466D02*
X151309523Y-80257752D01*
X151309523Y-80257752D02*
X150852380Y-80714895D01*
X150852380Y-80714895D02*
X151347618Y-80714895D01*
X151728571Y-80714895D02*
X151880952Y-80714895D01*
X151880952Y-80714895D02*
X151957142Y-80676800D01*
X151957142Y-80676800D02*
X151995238Y-80638704D01*
X151995238Y-80638704D02*
X152071428Y-80524419D01*
X152071428Y-80524419D02*
X152109523Y-80372038D01*
X152109523Y-80372038D02*
X152109523Y-80067276D01*
X152109523Y-80067276D02*
X152071428Y-79991085D01*
X152071428Y-79991085D02*
X152033333Y-79952990D01*
X152033333Y-79952990D02*
X151957142Y-79914895D01*
X151957142Y-79914895D02*
X151804761Y-79914895D01*
X151804761Y-79914895D02*
X151728571Y-79952990D01*
X151728571Y-79952990D02*
X151690476Y-79991085D01*
X151690476Y-79991085D02*
X151652380Y-80067276D01*
X151652380Y-80067276D02*
X151652380Y-80257752D01*
X151652380Y-80257752D02*
X151690476Y-80333942D01*
X151690476Y-80333942D02*
X151728571Y-80372038D01*
X151728571Y-80372038D02*
X151804761Y-80410133D01*
X151804761Y-80410133D02*
X151957142Y-80410133D01*
X151957142Y-80410133D02*
X152033333Y-80372038D01*
X152033333Y-80372038D02*
X152071428Y-80333942D01*
X152071428Y-80333942D02*
X152109523Y-80257752D01*
X141490476Y-67014895D02*
X141490476Y-67662514D01*
X141490476Y-67662514D02*
X141528571Y-67738704D01*
X141528571Y-67738704D02*
X141566666Y-67776800D01*
X141566666Y-67776800D02*
X141642857Y-67814895D01*
X141642857Y-67814895D02*
X141795238Y-67814895D01*
X141795238Y-67814895D02*
X141871428Y-67776800D01*
X141871428Y-67776800D02*
X141909523Y-67738704D01*
X141909523Y-67738704D02*
X141947619Y-67662514D01*
X141947619Y-67662514D02*
X141947619Y-67014895D01*
X142747618Y-67814895D02*
X142290475Y-67814895D01*
X142519047Y-67814895D02*
X142519047Y-67014895D01*
X142519047Y-67014895D02*
X142442856Y-67129180D01*
X142442856Y-67129180D02*
X142366666Y-67205371D01*
X142366666Y-67205371D02*
X142290475Y-67243466D01*
X138866667Y-75588704D02*
X138828571Y-75626800D01*
X138828571Y-75626800D02*
X138714286Y-75664895D01*
X138714286Y-75664895D02*
X138638095Y-75664895D01*
X138638095Y-75664895D02*
X138523809Y-75626800D01*
X138523809Y-75626800D02*
X138447619Y-75550609D01*
X138447619Y-75550609D02*
X138409524Y-75474419D01*
X138409524Y-75474419D02*
X138371428Y-75322038D01*
X138371428Y-75322038D02*
X138371428Y-75207752D01*
X138371428Y-75207752D02*
X138409524Y-75055371D01*
X138409524Y-75055371D02*
X138447619Y-74979180D01*
X138447619Y-74979180D02*
X138523809Y-74902990D01*
X138523809Y-74902990D02*
X138638095Y-74864895D01*
X138638095Y-74864895D02*
X138714286Y-74864895D01*
X138714286Y-74864895D02*
X138828571Y-74902990D01*
X138828571Y-74902990D02*
X138866667Y-74941085D01*
X139590476Y-74864895D02*
X139209524Y-74864895D01*
X139209524Y-74864895D02*
X139171428Y-75245847D01*
X139171428Y-75245847D02*
X139209524Y-75207752D01*
X139209524Y-75207752D02*
X139285714Y-75169657D01*
X139285714Y-75169657D02*
X139476190Y-75169657D01*
X139476190Y-75169657D02*
X139552381Y-75207752D01*
X139552381Y-75207752D02*
X139590476Y-75245847D01*
X139590476Y-75245847D02*
X139628571Y-75322038D01*
X139628571Y-75322038D02*
X139628571Y-75512514D01*
X139628571Y-75512514D02*
X139590476Y-75588704D01*
X139590476Y-75588704D02*
X139552381Y-75626800D01*
X139552381Y-75626800D02*
X139476190Y-75664895D01*
X139476190Y-75664895D02*
X139285714Y-75664895D01*
X139285714Y-75664895D02*
X139209524Y-75626800D01*
X139209524Y-75626800D02*
X139171428Y-75588704D01*
X135666667Y-81838704D02*
X135628571Y-81876800D01*
X135628571Y-81876800D02*
X135514286Y-81914895D01*
X135514286Y-81914895D02*
X135438095Y-81914895D01*
X135438095Y-81914895D02*
X135323809Y-81876800D01*
X135323809Y-81876800D02*
X135247619Y-81800609D01*
X135247619Y-81800609D02*
X135209524Y-81724419D01*
X135209524Y-81724419D02*
X135171428Y-81572038D01*
X135171428Y-81572038D02*
X135171428Y-81457752D01*
X135171428Y-81457752D02*
X135209524Y-81305371D01*
X135209524Y-81305371D02*
X135247619Y-81229180D01*
X135247619Y-81229180D02*
X135323809Y-81152990D01*
X135323809Y-81152990D02*
X135438095Y-81114895D01*
X135438095Y-81114895D02*
X135514286Y-81114895D01*
X135514286Y-81114895D02*
X135628571Y-81152990D01*
X135628571Y-81152990D02*
X135666667Y-81191085D01*
X135933333Y-81114895D02*
X136428571Y-81114895D01*
X136428571Y-81114895D02*
X136161905Y-81419657D01*
X136161905Y-81419657D02*
X136276190Y-81419657D01*
X136276190Y-81419657D02*
X136352381Y-81457752D01*
X136352381Y-81457752D02*
X136390476Y-81495847D01*
X136390476Y-81495847D02*
X136428571Y-81572038D01*
X136428571Y-81572038D02*
X136428571Y-81762514D01*
X136428571Y-81762514D02*
X136390476Y-81838704D01*
X136390476Y-81838704D02*
X136352381Y-81876800D01*
X136352381Y-81876800D02*
X136276190Y-81914895D01*
X136276190Y-81914895D02*
X136047619Y-81914895D01*
X136047619Y-81914895D02*
X135971428Y-81876800D01*
X135971428Y-81876800D02*
X135933333Y-81838704D01*
D12*
X129966666Y-73074819D02*
X129966666Y-73789104D01*
X129966666Y-73789104D02*
X129919047Y-73931961D01*
X129919047Y-73931961D02*
X129823809Y-74027200D01*
X129823809Y-74027200D02*
X129680952Y-74074819D01*
X129680952Y-74074819D02*
X129585714Y-74074819D01*
X130871428Y-73408152D02*
X130871428Y-74074819D01*
X130633333Y-73027200D02*
X130395238Y-73741485D01*
X130395238Y-73741485D02*
X131014285Y-73741485D01*
D11*
X142614895Y-77064285D02*
X142233942Y-77330952D01*
X142614895Y-77521428D02*
X141814895Y-77521428D01*
X141814895Y-77521428D02*
X141814895Y-77216666D01*
X141814895Y-77216666D02*
X141852990Y-77140476D01*
X141852990Y-77140476D02*
X141891085Y-77102381D01*
X141891085Y-77102381D02*
X141967276Y-77064285D01*
X141967276Y-77064285D02*
X142081561Y-77064285D01*
X142081561Y-77064285D02*
X142157752Y-77102381D01*
X142157752Y-77102381D02*
X142195847Y-77140476D01*
X142195847Y-77140476D02*
X142233942Y-77216666D01*
X142233942Y-77216666D02*
X142233942Y-77521428D01*
X142614895Y-76302381D02*
X142614895Y-76759524D01*
X142614895Y-76530952D02*
X141814895Y-76530952D01*
X141814895Y-76530952D02*
X141929180Y-76607143D01*
X141929180Y-76607143D02*
X142005371Y-76683333D01*
X142005371Y-76683333D02*
X142043466Y-76759524D01*
X141814895Y-75807142D02*
X141814895Y-75730952D01*
X141814895Y-75730952D02*
X141852990Y-75654761D01*
X141852990Y-75654761D02*
X141891085Y-75616666D01*
X141891085Y-75616666D02*
X141967276Y-75578571D01*
X141967276Y-75578571D02*
X142119657Y-75540476D01*
X142119657Y-75540476D02*
X142310133Y-75540476D01*
X142310133Y-75540476D02*
X142462514Y-75578571D01*
X142462514Y-75578571D02*
X142538704Y-75616666D01*
X142538704Y-75616666D02*
X142576800Y-75654761D01*
X142576800Y-75654761D02*
X142614895Y-75730952D01*
X142614895Y-75730952D02*
X142614895Y-75807142D01*
X142614895Y-75807142D02*
X142576800Y-75883333D01*
X142576800Y-75883333D02*
X142538704Y-75921428D01*
X142538704Y-75921428D02*
X142462514Y-75959523D01*
X142462514Y-75959523D02*
X142310133Y-75997619D01*
X142310133Y-75997619D02*
X142119657Y-75997619D01*
X142119657Y-75997619D02*
X141967276Y-75959523D01*
X141967276Y-75959523D02*
X141891085Y-75921428D01*
X141891085Y-75921428D02*
X141852990Y-75883333D01*
X141852990Y-75883333D02*
X141814895Y-75807142D01*
X139314895Y-84633332D02*
X138933942Y-84899999D01*
X139314895Y-85090475D02*
X138514895Y-85090475D01*
X138514895Y-85090475D02*
X138514895Y-84785713D01*
X138514895Y-84785713D02*
X138552990Y-84709523D01*
X138552990Y-84709523D02*
X138591085Y-84671428D01*
X138591085Y-84671428D02*
X138667276Y-84633332D01*
X138667276Y-84633332D02*
X138781561Y-84633332D01*
X138781561Y-84633332D02*
X138857752Y-84671428D01*
X138857752Y-84671428D02*
X138895847Y-84709523D01*
X138895847Y-84709523D02*
X138933942Y-84785713D01*
X138933942Y-84785713D02*
X138933942Y-85090475D01*
X139314895Y-84252380D02*
X139314895Y-84099999D01*
X139314895Y-84099999D02*
X139276800Y-84023809D01*
X139276800Y-84023809D02*
X139238704Y-83985713D01*
X139238704Y-83985713D02*
X139124419Y-83909523D01*
X139124419Y-83909523D02*
X138972038Y-83871428D01*
X138972038Y-83871428D02*
X138667276Y-83871428D01*
X138667276Y-83871428D02*
X138591085Y-83909523D01*
X138591085Y-83909523D02*
X138552990Y-83947618D01*
X138552990Y-83947618D02*
X138514895Y-84023809D01*
X138514895Y-84023809D02*
X138514895Y-84176190D01*
X138514895Y-84176190D02*
X138552990Y-84252380D01*
X138552990Y-84252380D02*
X138591085Y-84290475D01*
X138591085Y-84290475D02*
X138667276Y-84328571D01*
X138667276Y-84328571D02*
X138857752Y-84328571D01*
X138857752Y-84328571D02*
X138933942Y-84290475D01*
X138933942Y-84290475D02*
X138972038Y-84252380D01*
X138972038Y-84252380D02*
X139010133Y-84176190D01*
X139010133Y-84176190D02*
X139010133Y-84023809D01*
X139010133Y-84023809D02*
X138972038Y-83947618D01*
X138972038Y-83947618D02*
X138933942Y-83909523D01*
X138933942Y-83909523D02*
X138857752Y-83871428D01*
D12*
X158916666Y-75704819D02*
X158916666Y-76419104D01*
X158916666Y-76419104D02*
X158869047Y-76561961D01*
X158869047Y-76561961D02*
X158773809Y-76657200D01*
X158773809Y-76657200D02*
X158630952Y-76704819D01*
X158630952Y-76704819D02*
X158535714Y-76704819D01*
X159297619Y-75704819D02*
X159916666Y-75704819D01*
X159916666Y-75704819D02*
X159583333Y-76085771D01*
X159583333Y-76085771D02*
X159726190Y-76085771D01*
X159726190Y-76085771D02*
X159821428Y-76133390D01*
X159821428Y-76133390D02*
X159869047Y-76181009D01*
X159869047Y-76181009D02*
X159916666Y-76276247D01*
X159916666Y-76276247D02*
X159916666Y-76514342D01*
X159916666Y-76514342D02*
X159869047Y-76609580D01*
X159869047Y-76609580D02*
X159821428Y-76657200D01*
X159821428Y-76657200D02*
X159726190Y-76704819D01*
X159726190Y-76704819D02*
X159440476Y-76704819D01*
X159440476Y-76704819D02*
X159345238Y-76657200D01*
X159345238Y-76657200D02*
X159297619Y-76609580D01*
D11*
X140123214Y-92527395D02*
X139856547Y-92146442D01*
X139666071Y-92527395D02*
X139666071Y-91727395D01*
X139666071Y-91727395D02*
X139970833Y-91727395D01*
X139970833Y-91727395D02*
X140047023Y-91765490D01*
X140047023Y-91765490D02*
X140085118Y-91803585D01*
X140085118Y-91803585D02*
X140123214Y-91879776D01*
X140123214Y-91879776D02*
X140123214Y-91994061D01*
X140123214Y-91994061D02*
X140085118Y-92070252D01*
X140085118Y-92070252D02*
X140047023Y-92108347D01*
X140047023Y-92108347D02*
X139970833Y-92146442D01*
X139970833Y-92146442D02*
X139666071Y-92146442D01*
X140427975Y-91803585D02*
X140466071Y-91765490D01*
X140466071Y-91765490D02*
X140542261Y-91727395D01*
X140542261Y-91727395D02*
X140732737Y-91727395D01*
X140732737Y-91727395D02*
X140808928Y-91765490D01*
X140808928Y-91765490D02*
X140847023Y-91803585D01*
X140847023Y-91803585D02*
X140885118Y-91879776D01*
X140885118Y-91879776D02*
X140885118Y-91955966D01*
X140885118Y-91955966D02*
X140847023Y-92070252D01*
X140847023Y-92070252D02*
X140389880Y-92527395D01*
X140389880Y-92527395D02*
X140885118Y-92527395D01*
X141647023Y-92527395D02*
X141189880Y-92527395D01*
X141418452Y-92527395D02*
X141418452Y-91727395D01*
X141418452Y-91727395D02*
X141342261Y-91841680D01*
X141342261Y-91841680D02*
X141266071Y-91917871D01*
X141266071Y-91917871D02*
X141189880Y-91955966D01*
X148064895Y-97289285D02*
X147683942Y-97555952D01*
X148064895Y-97746428D02*
X147264895Y-97746428D01*
X147264895Y-97746428D02*
X147264895Y-97441666D01*
X147264895Y-97441666D02*
X147302990Y-97365476D01*
X147302990Y-97365476D02*
X147341085Y-97327381D01*
X147341085Y-97327381D02*
X147417276Y-97289285D01*
X147417276Y-97289285D02*
X147531561Y-97289285D01*
X147531561Y-97289285D02*
X147607752Y-97327381D01*
X147607752Y-97327381D02*
X147645847Y-97365476D01*
X147645847Y-97365476D02*
X147683942Y-97441666D01*
X147683942Y-97441666D02*
X147683942Y-97746428D01*
X148064895Y-96527381D02*
X148064895Y-96984524D01*
X148064895Y-96755952D02*
X147264895Y-96755952D01*
X147264895Y-96755952D02*
X147379180Y-96832143D01*
X147379180Y-96832143D02*
X147455371Y-96908333D01*
X147455371Y-96908333D02*
X147493466Y-96984524D01*
X147607752Y-96070238D02*
X147569657Y-96146428D01*
X147569657Y-96146428D02*
X147531561Y-96184523D01*
X147531561Y-96184523D02*
X147455371Y-96222619D01*
X147455371Y-96222619D02*
X147417276Y-96222619D01*
X147417276Y-96222619D02*
X147341085Y-96184523D01*
X147341085Y-96184523D02*
X147302990Y-96146428D01*
X147302990Y-96146428D02*
X147264895Y-96070238D01*
X147264895Y-96070238D02*
X147264895Y-95917857D01*
X147264895Y-95917857D02*
X147302990Y-95841666D01*
X147302990Y-95841666D02*
X147341085Y-95803571D01*
X147341085Y-95803571D02*
X147417276Y-95765476D01*
X147417276Y-95765476D02*
X147455371Y-95765476D01*
X147455371Y-95765476D02*
X147531561Y-95803571D01*
X147531561Y-95803571D02*
X147569657Y-95841666D01*
X147569657Y-95841666D02*
X147607752Y-95917857D01*
X147607752Y-95917857D02*
X147607752Y-96070238D01*
X147607752Y-96070238D02*
X147645847Y-96146428D01*
X147645847Y-96146428D02*
X147683942Y-96184523D01*
X147683942Y-96184523D02*
X147760133Y-96222619D01*
X147760133Y-96222619D02*
X147912514Y-96222619D01*
X147912514Y-96222619D02*
X147988704Y-96184523D01*
X147988704Y-96184523D02*
X148026800Y-96146428D01*
X148026800Y-96146428D02*
X148064895Y-96070238D01*
X148064895Y-96070238D02*
X148064895Y-95917857D01*
X148064895Y-95917857D02*
X148026800Y-95841666D01*
X148026800Y-95841666D02*
X147988704Y-95803571D01*
X147988704Y-95803571D02*
X147912514Y-95765476D01*
X147912514Y-95765476D02*
X147760133Y-95765476D01*
X147760133Y-95765476D02*
X147683942Y-95803571D01*
X147683942Y-95803571D02*
X147645847Y-95841666D01*
X147645847Y-95841666D02*
X147607752Y-95917857D01*
X149764895Y-97289285D02*
X149383942Y-97555952D01*
X149764895Y-97746428D02*
X148964895Y-97746428D01*
X148964895Y-97746428D02*
X148964895Y-97441666D01*
X148964895Y-97441666D02*
X149002990Y-97365476D01*
X149002990Y-97365476D02*
X149041085Y-97327381D01*
X149041085Y-97327381D02*
X149117276Y-97289285D01*
X149117276Y-97289285D02*
X149231561Y-97289285D01*
X149231561Y-97289285D02*
X149307752Y-97327381D01*
X149307752Y-97327381D02*
X149345847Y-97365476D01*
X149345847Y-97365476D02*
X149383942Y-97441666D01*
X149383942Y-97441666D02*
X149383942Y-97746428D01*
X149764895Y-96527381D02*
X149764895Y-96984524D01*
X149764895Y-96755952D02*
X148964895Y-96755952D01*
X148964895Y-96755952D02*
X149079180Y-96832143D01*
X149079180Y-96832143D02*
X149155371Y-96908333D01*
X149155371Y-96908333D02*
X149193466Y-96984524D01*
X149764895Y-96146428D02*
X149764895Y-95994047D01*
X149764895Y-95994047D02*
X149726800Y-95917857D01*
X149726800Y-95917857D02*
X149688704Y-95879761D01*
X149688704Y-95879761D02*
X149574419Y-95803571D01*
X149574419Y-95803571D02*
X149422038Y-95765476D01*
X149422038Y-95765476D02*
X149117276Y-95765476D01*
X149117276Y-95765476D02*
X149041085Y-95803571D01*
X149041085Y-95803571D02*
X149002990Y-95841666D01*
X149002990Y-95841666D02*
X148964895Y-95917857D01*
X148964895Y-95917857D02*
X148964895Y-96070238D01*
X148964895Y-96070238D02*
X149002990Y-96146428D01*
X149002990Y-96146428D02*
X149041085Y-96184523D01*
X149041085Y-96184523D02*
X149117276Y-96222619D01*
X149117276Y-96222619D02*
X149307752Y-96222619D01*
X149307752Y-96222619D02*
X149383942Y-96184523D01*
X149383942Y-96184523D02*
X149422038Y-96146428D01*
X149422038Y-96146428D02*
X149460133Y-96070238D01*
X149460133Y-96070238D02*
X149460133Y-95917857D01*
X149460133Y-95917857D02*
X149422038Y-95841666D01*
X149422038Y-95841666D02*
X149383942Y-95803571D01*
X149383942Y-95803571D02*
X149307752Y-95765476D01*
X151564895Y-97283332D02*
X151183942Y-97549999D01*
X151564895Y-97740475D02*
X150764895Y-97740475D01*
X150764895Y-97740475D02*
X150764895Y-97435713D01*
X150764895Y-97435713D02*
X150802990Y-97359523D01*
X150802990Y-97359523D02*
X150841085Y-97321428D01*
X150841085Y-97321428D02*
X150917276Y-97283332D01*
X150917276Y-97283332D02*
X151031561Y-97283332D01*
X151031561Y-97283332D02*
X151107752Y-97321428D01*
X151107752Y-97321428D02*
X151145847Y-97359523D01*
X151145847Y-97359523D02*
X151183942Y-97435713D01*
X151183942Y-97435713D02*
X151183942Y-97740475D01*
X150764895Y-96559523D02*
X150764895Y-96940475D01*
X150764895Y-96940475D02*
X151145847Y-96978571D01*
X151145847Y-96978571D02*
X151107752Y-96940475D01*
X151107752Y-96940475D02*
X151069657Y-96864285D01*
X151069657Y-96864285D02*
X151069657Y-96673809D01*
X151069657Y-96673809D02*
X151107752Y-96597618D01*
X151107752Y-96597618D02*
X151145847Y-96559523D01*
X151145847Y-96559523D02*
X151222038Y-96521428D01*
X151222038Y-96521428D02*
X151412514Y-96521428D01*
X151412514Y-96521428D02*
X151488704Y-96559523D01*
X151488704Y-96559523D02*
X151526800Y-96597618D01*
X151526800Y-96597618D02*
X151564895Y-96673809D01*
X151564895Y-96673809D02*
X151564895Y-96864285D01*
X151564895Y-96864285D02*
X151526800Y-96940475D01*
X151526800Y-96940475D02*
X151488704Y-96978571D01*
X140223214Y-97714895D02*
X139956547Y-97333942D01*
X139766071Y-97714895D02*
X139766071Y-96914895D01*
X139766071Y-96914895D02*
X140070833Y-96914895D01*
X140070833Y-96914895D02*
X140147023Y-96952990D01*
X140147023Y-96952990D02*
X140185118Y-96991085D01*
X140185118Y-96991085D02*
X140223214Y-97067276D01*
X140223214Y-97067276D02*
X140223214Y-97181561D01*
X140223214Y-97181561D02*
X140185118Y-97257752D01*
X140185118Y-97257752D02*
X140147023Y-97295847D01*
X140147023Y-97295847D02*
X140070833Y-97333942D01*
X140070833Y-97333942D02*
X139766071Y-97333942D01*
X140527975Y-96991085D02*
X140566071Y-96952990D01*
X140566071Y-96952990D02*
X140642261Y-96914895D01*
X140642261Y-96914895D02*
X140832737Y-96914895D01*
X140832737Y-96914895D02*
X140908928Y-96952990D01*
X140908928Y-96952990D02*
X140947023Y-96991085D01*
X140947023Y-96991085D02*
X140985118Y-97067276D01*
X140985118Y-97067276D02*
X140985118Y-97143466D01*
X140985118Y-97143466D02*
X140947023Y-97257752D01*
X140947023Y-97257752D02*
X140489880Y-97714895D01*
X140489880Y-97714895D02*
X140985118Y-97714895D01*
X141251785Y-96914895D02*
X141747023Y-96914895D01*
X141747023Y-96914895D02*
X141480357Y-97219657D01*
X141480357Y-97219657D02*
X141594642Y-97219657D01*
X141594642Y-97219657D02*
X141670833Y-97257752D01*
X141670833Y-97257752D02*
X141708928Y-97295847D01*
X141708928Y-97295847D02*
X141747023Y-97372038D01*
X141747023Y-97372038D02*
X141747023Y-97562514D01*
X141747023Y-97562514D02*
X141708928Y-97638704D01*
X141708928Y-97638704D02*
X141670833Y-97676800D01*
X141670833Y-97676800D02*
X141594642Y-97714895D01*
X141594642Y-97714895D02*
X141366071Y-97714895D01*
X141366071Y-97714895D02*
X141289880Y-97676800D01*
X141289880Y-97676800D02*
X141251785Y-97638704D01*
X171816667Y-99527395D02*
X171550000Y-99146442D01*
X171359524Y-99527395D02*
X171359524Y-98727395D01*
X171359524Y-98727395D02*
X171664286Y-98727395D01*
X171664286Y-98727395D02*
X171740476Y-98765490D01*
X171740476Y-98765490D02*
X171778571Y-98803585D01*
X171778571Y-98803585D02*
X171816667Y-98879776D01*
X171816667Y-98879776D02*
X171816667Y-98994061D01*
X171816667Y-98994061D02*
X171778571Y-99070252D01*
X171778571Y-99070252D02*
X171740476Y-99108347D01*
X171740476Y-99108347D02*
X171664286Y-99146442D01*
X171664286Y-99146442D02*
X171359524Y-99146442D01*
X172083333Y-98727395D02*
X172578571Y-98727395D01*
X172578571Y-98727395D02*
X172311905Y-99032157D01*
X172311905Y-99032157D02*
X172426190Y-99032157D01*
X172426190Y-99032157D02*
X172502381Y-99070252D01*
X172502381Y-99070252D02*
X172540476Y-99108347D01*
X172540476Y-99108347D02*
X172578571Y-99184538D01*
X172578571Y-99184538D02*
X172578571Y-99375014D01*
X172578571Y-99375014D02*
X172540476Y-99451204D01*
X172540476Y-99451204D02*
X172502381Y-99489300D01*
X172502381Y-99489300D02*
X172426190Y-99527395D01*
X172426190Y-99527395D02*
X172197619Y-99527395D01*
X172197619Y-99527395D02*
X172121428Y-99489300D01*
X172121428Y-99489300D02*
X172083333Y-99451204D01*
X138490476Y-81464895D02*
X138490476Y-82112514D01*
X138490476Y-82112514D02*
X138528571Y-82188704D01*
X138528571Y-82188704D02*
X138566666Y-82226800D01*
X138566666Y-82226800D02*
X138642857Y-82264895D01*
X138642857Y-82264895D02*
X138795238Y-82264895D01*
X138795238Y-82264895D02*
X138871428Y-82226800D01*
X138871428Y-82226800D02*
X138909523Y-82188704D01*
X138909523Y-82188704D02*
X138947619Y-82112514D01*
X138947619Y-82112514D02*
X138947619Y-81464895D01*
X139290475Y-81541085D02*
X139328571Y-81502990D01*
X139328571Y-81502990D02*
X139404761Y-81464895D01*
X139404761Y-81464895D02*
X139595237Y-81464895D01*
X139595237Y-81464895D02*
X139671428Y-81502990D01*
X139671428Y-81502990D02*
X139709523Y-81541085D01*
X139709523Y-81541085D02*
X139747618Y-81617276D01*
X139747618Y-81617276D02*
X139747618Y-81693466D01*
X139747618Y-81693466D02*
X139709523Y-81807752D01*
X139709523Y-81807752D02*
X139252380Y-82264895D01*
X139252380Y-82264895D02*
X139747618Y-82264895D01*
X134235714Y-85338704D02*
X134197618Y-85376800D01*
X134197618Y-85376800D02*
X134083333Y-85414895D01*
X134083333Y-85414895D02*
X134007142Y-85414895D01*
X134007142Y-85414895D02*
X133892856Y-85376800D01*
X133892856Y-85376800D02*
X133816666Y-85300609D01*
X133816666Y-85300609D02*
X133778571Y-85224419D01*
X133778571Y-85224419D02*
X133740475Y-85072038D01*
X133740475Y-85072038D02*
X133740475Y-84957752D01*
X133740475Y-84957752D02*
X133778571Y-84805371D01*
X133778571Y-84805371D02*
X133816666Y-84729180D01*
X133816666Y-84729180D02*
X133892856Y-84652990D01*
X133892856Y-84652990D02*
X134007142Y-84614895D01*
X134007142Y-84614895D02*
X134083333Y-84614895D01*
X134083333Y-84614895D02*
X134197618Y-84652990D01*
X134197618Y-84652990D02*
X134235714Y-84691085D01*
X134997618Y-85414895D02*
X134540475Y-85414895D01*
X134769047Y-85414895D02*
X134769047Y-84614895D01*
X134769047Y-84614895D02*
X134692856Y-84729180D01*
X134692856Y-84729180D02*
X134616666Y-84805371D01*
X134616666Y-84805371D02*
X134540475Y-84843466D01*
X135759523Y-85414895D02*
X135302380Y-85414895D01*
X135530952Y-85414895D02*
X135530952Y-84614895D01*
X135530952Y-84614895D02*
X135454761Y-84729180D01*
X135454761Y-84729180D02*
X135378571Y-84805371D01*
X135378571Y-84805371D02*
X135302380Y-84843466D01*
X140123214Y-95877395D02*
X139856547Y-95496442D01*
X139666071Y-95877395D02*
X139666071Y-95077395D01*
X139666071Y-95077395D02*
X139970833Y-95077395D01*
X139970833Y-95077395D02*
X140047023Y-95115490D01*
X140047023Y-95115490D02*
X140085118Y-95153585D01*
X140085118Y-95153585D02*
X140123214Y-95229776D01*
X140123214Y-95229776D02*
X140123214Y-95344061D01*
X140123214Y-95344061D02*
X140085118Y-95420252D01*
X140085118Y-95420252D02*
X140047023Y-95458347D01*
X140047023Y-95458347D02*
X139970833Y-95496442D01*
X139970833Y-95496442D02*
X139666071Y-95496442D01*
X140427975Y-95153585D02*
X140466071Y-95115490D01*
X140466071Y-95115490D02*
X140542261Y-95077395D01*
X140542261Y-95077395D02*
X140732737Y-95077395D01*
X140732737Y-95077395D02*
X140808928Y-95115490D01*
X140808928Y-95115490D02*
X140847023Y-95153585D01*
X140847023Y-95153585D02*
X140885118Y-95229776D01*
X140885118Y-95229776D02*
X140885118Y-95305966D01*
X140885118Y-95305966D02*
X140847023Y-95420252D01*
X140847023Y-95420252D02*
X140389880Y-95877395D01*
X140389880Y-95877395D02*
X140885118Y-95877395D01*
X141189880Y-95153585D02*
X141227976Y-95115490D01*
X141227976Y-95115490D02*
X141304166Y-95077395D01*
X141304166Y-95077395D02*
X141494642Y-95077395D01*
X141494642Y-95077395D02*
X141570833Y-95115490D01*
X141570833Y-95115490D02*
X141608928Y-95153585D01*
X141608928Y-95153585D02*
X141647023Y-95229776D01*
X141647023Y-95229776D02*
X141647023Y-95305966D01*
X141647023Y-95305966D02*
X141608928Y-95420252D01*
X141608928Y-95420252D02*
X141151785Y-95877395D01*
X141151785Y-95877395D02*
X141647023Y-95877395D01*
X143916667Y-77088704D02*
X143878571Y-77126800D01*
X143878571Y-77126800D02*
X143764286Y-77164895D01*
X143764286Y-77164895D02*
X143688095Y-77164895D01*
X143688095Y-77164895D02*
X143573809Y-77126800D01*
X143573809Y-77126800D02*
X143497619Y-77050609D01*
X143497619Y-77050609D02*
X143459524Y-76974419D01*
X143459524Y-76974419D02*
X143421428Y-76822038D01*
X143421428Y-76822038D02*
X143421428Y-76707752D01*
X143421428Y-76707752D02*
X143459524Y-76555371D01*
X143459524Y-76555371D02*
X143497619Y-76479180D01*
X143497619Y-76479180D02*
X143573809Y-76402990D01*
X143573809Y-76402990D02*
X143688095Y-76364895D01*
X143688095Y-76364895D02*
X143764286Y-76364895D01*
X143764286Y-76364895D02*
X143878571Y-76402990D01*
X143878571Y-76402990D02*
X143916667Y-76441085D01*
X144183333Y-76364895D02*
X144716667Y-76364895D01*
X144716667Y-76364895D02*
X144373809Y-77164895D01*
X153809524Y-71064895D02*
X153809524Y-70264895D01*
X153809524Y-70264895D02*
X154000000Y-70264895D01*
X154000000Y-70264895D02*
X154114286Y-70302990D01*
X154114286Y-70302990D02*
X154190476Y-70379180D01*
X154190476Y-70379180D02*
X154228571Y-70455371D01*
X154228571Y-70455371D02*
X154266667Y-70607752D01*
X154266667Y-70607752D02*
X154266667Y-70722038D01*
X154266667Y-70722038D02*
X154228571Y-70874419D01*
X154228571Y-70874419D02*
X154190476Y-70950609D01*
X154190476Y-70950609D02*
X154114286Y-71026800D01*
X154114286Y-71026800D02*
X154000000Y-71064895D01*
X154000000Y-71064895D02*
X153809524Y-71064895D01*
X155028571Y-71064895D02*
X154571428Y-71064895D01*
X154800000Y-71064895D02*
X154800000Y-70264895D01*
X154800000Y-70264895D02*
X154723809Y-70379180D01*
X154723809Y-70379180D02*
X154647619Y-70455371D01*
X154647619Y-70455371D02*
X154571428Y-70493466D01*
D12*
X141366666Y-100754819D02*
X141366666Y-101469104D01*
X141366666Y-101469104D02*
X141319047Y-101611961D01*
X141319047Y-101611961D02*
X141223809Y-101707200D01*
X141223809Y-101707200D02*
X141080952Y-101754819D01*
X141080952Y-101754819D02*
X140985714Y-101754819D01*
X142366666Y-101754819D02*
X141795238Y-101754819D01*
X142080952Y-101754819D02*
X142080952Y-100754819D01*
X142080952Y-100754819D02*
X141985714Y-100897676D01*
X141985714Y-100897676D02*
X141890476Y-100992914D01*
X141890476Y-100992914D02*
X141795238Y-101040533D01*
D11*
X144285714Y-83338704D02*
X144247618Y-83376800D01*
X144247618Y-83376800D02*
X144133333Y-83414895D01*
X144133333Y-83414895D02*
X144057142Y-83414895D01*
X144057142Y-83414895D02*
X143942856Y-83376800D01*
X143942856Y-83376800D02*
X143866666Y-83300609D01*
X143866666Y-83300609D02*
X143828571Y-83224419D01*
X143828571Y-83224419D02*
X143790475Y-83072038D01*
X143790475Y-83072038D02*
X143790475Y-82957752D01*
X143790475Y-82957752D02*
X143828571Y-82805371D01*
X143828571Y-82805371D02*
X143866666Y-82729180D01*
X143866666Y-82729180D02*
X143942856Y-82652990D01*
X143942856Y-82652990D02*
X144057142Y-82614895D01*
X144057142Y-82614895D02*
X144133333Y-82614895D01*
X144133333Y-82614895D02*
X144247618Y-82652990D01*
X144247618Y-82652990D02*
X144285714Y-82691085D01*
X145047618Y-83414895D02*
X144590475Y-83414895D01*
X144819047Y-83414895D02*
X144819047Y-82614895D01*
X144819047Y-82614895D02*
X144742856Y-82729180D01*
X144742856Y-82729180D02*
X144666666Y-82805371D01*
X144666666Y-82805371D02*
X144590475Y-82843466D01*
X145314285Y-82614895D02*
X145847619Y-82614895D01*
X145847619Y-82614895D02*
X145504761Y-83414895D01*
X167064895Y-91764285D02*
X166683942Y-92030952D01*
X167064895Y-92221428D02*
X166264895Y-92221428D01*
X166264895Y-92221428D02*
X166264895Y-91916666D01*
X166264895Y-91916666D02*
X166302990Y-91840476D01*
X166302990Y-91840476D02*
X166341085Y-91802381D01*
X166341085Y-91802381D02*
X166417276Y-91764285D01*
X166417276Y-91764285D02*
X166531561Y-91764285D01*
X166531561Y-91764285D02*
X166607752Y-91802381D01*
X166607752Y-91802381D02*
X166645847Y-91840476D01*
X166645847Y-91840476D02*
X166683942Y-91916666D01*
X166683942Y-91916666D02*
X166683942Y-92221428D01*
X167064895Y-91002381D02*
X167064895Y-91459524D01*
X167064895Y-91230952D02*
X166264895Y-91230952D01*
X166264895Y-91230952D02*
X166379180Y-91307143D01*
X166379180Y-91307143D02*
X166455371Y-91383333D01*
X166455371Y-91383333D02*
X166493466Y-91459524D01*
X166264895Y-90278571D02*
X166264895Y-90659523D01*
X166264895Y-90659523D02*
X166645847Y-90697619D01*
X166645847Y-90697619D02*
X166607752Y-90659523D01*
X166607752Y-90659523D02*
X166569657Y-90583333D01*
X166569657Y-90583333D02*
X166569657Y-90392857D01*
X166569657Y-90392857D02*
X166607752Y-90316666D01*
X166607752Y-90316666D02*
X166645847Y-90278571D01*
X166645847Y-90278571D02*
X166722038Y-90240476D01*
X166722038Y-90240476D02*
X166912514Y-90240476D01*
X166912514Y-90240476D02*
X166988704Y-90278571D01*
X166988704Y-90278571D02*
X167026800Y-90316666D01*
X167026800Y-90316666D02*
X167064895Y-90392857D01*
X167064895Y-90392857D02*
X167064895Y-90583333D01*
X167064895Y-90583333D02*
X167026800Y-90659523D01*
X167026800Y-90659523D02*
X166988704Y-90697619D01*
X171888704Y-87864285D02*
X171926800Y-87902381D01*
X171926800Y-87902381D02*
X171964895Y-88016666D01*
X171964895Y-88016666D02*
X171964895Y-88092857D01*
X171964895Y-88092857D02*
X171926800Y-88207143D01*
X171926800Y-88207143D02*
X171850609Y-88283333D01*
X171850609Y-88283333D02*
X171774419Y-88321428D01*
X171774419Y-88321428D02*
X171622038Y-88359524D01*
X171622038Y-88359524D02*
X171507752Y-88359524D01*
X171507752Y-88359524D02*
X171355371Y-88321428D01*
X171355371Y-88321428D02*
X171279180Y-88283333D01*
X171279180Y-88283333D02*
X171202990Y-88207143D01*
X171202990Y-88207143D02*
X171164895Y-88092857D01*
X171164895Y-88092857D02*
X171164895Y-88016666D01*
X171164895Y-88016666D02*
X171202990Y-87902381D01*
X171202990Y-87902381D02*
X171241085Y-87864285D01*
X171964895Y-87102381D02*
X171964895Y-87559524D01*
X171964895Y-87330952D02*
X171164895Y-87330952D01*
X171164895Y-87330952D02*
X171279180Y-87407143D01*
X171279180Y-87407143D02*
X171355371Y-87483333D01*
X171355371Y-87483333D02*
X171393466Y-87559524D01*
X171164895Y-86607142D02*
X171164895Y-86530952D01*
X171164895Y-86530952D02*
X171202990Y-86454761D01*
X171202990Y-86454761D02*
X171241085Y-86416666D01*
X171241085Y-86416666D02*
X171317276Y-86378571D01*
X171317276Y-86378571D02*
X171469657Y-86340476D01*
X171469657Y-86340476D02*
X171660133Y-86340476D01*
X171660133Y-86340476D02*
X171812514Y-86378571D01*
X171812514Y-86378571D02*
X171888704Y-86416666D01*
X171888704Y-86416666D02*
X171926800Y-86454761D01*
X171926800Y-86454761D02*
X171964895Y-86530952D01*
X171964895Y-86530952D02*
X171964895Y-86607142D01*
X171964895Y-86607142D02*
X171926800Y-86683333D01*
X171926800Y-86683333D02*
X171888704Y-86721428D01*
X171888704Y-86721428D02*
X171812514Y-86759523D01*
X171812514Y-86759523D02*
X171660133Y-86797619D01*
X171660133Y-86797619D02*
X171469657Y-86797619D01*
X171469657Y-86797619D02*
X171317276Y-86759523D01*
X171317276Y-86759523D02*
X171241085Y-86721428D01*
X171241085Y-86721428D02*
X171202990Y-86683333D01*
X171202990Y-86683333D02*
X171164895Y-86607142D01*
X139516667Y-67488704D02*
X139478571Y-67526800D01*
X139478571Y-67526800D02*
X139364286Y-67564895D01*
X139364286Y-67564895D02*
X139288095Y-67564895D01*
X139288095Y-67564895D02*
X139173809Y-67526800D01*
X139173809Y-67526800D02*
X139097619Y-67450609D01*
X139097619Y-67450609D02*
X139059524Y-67374419D01*
X139059524Y-67374419D02*
X139021428Y-67222038D01*
X139021428Y-67222038D02*
X139021428Y-67107752D01*
X139021428Y-67107752D02*
X139059524Y-66955371D01*
X139059524Y-66955371D02*
X139097619Y-66879180D01*
X139097619Y-66879180D02*
X139173809Y-66802990D01*
X139173809Y-66802990D02*
X139288095Y-66764895D01*
X139288095Y-66764895D02*
X139364286Y-66764895D01*
X139364286Y-66764895D02*
X139478571Y-66802990D01*
X139478571Y-66802990D02*
X139516667Y-66841085D01*
X139821428Y-66841085D02*
X139859524Y-66802990D01*
X139859524Y-66802990D02*
X139935714Y-66764895D01*
X139935714Y-66764895D02*
X140126190Y-66764895D01*
X140126190Y-66764895D02*
X140202381Y-66802990D01*
X140202381Y-66802990D02*
X140240476Y-66841085D01*
X140240476Y-66841085D02*
X140278571Y-66917276D01*
X140278571Y-66917276D02*
X140278571Y-66993466D01*
X140278571Y-66993466D02*
X140240476Y-67107752D01*
X140240476Y-67107752D02*
X139783333Y-67564895D01*
X139783333Y-67564895D02*
X140278571Y-67564895D01*
X164490476Y-83414895D02*
X164490476Y-84062514D01*
X164490476Y-84062514D02*
X164528571Y-84138704D01*
X164528571Y-84138704D02*
X164566666Y-84176800D01*
X164566666Y-84176800D02*
X164642857Y-84214895D01*
X164642857Y-84214895D02*
X164795238Y-84214895D01*
X164795238Y-84214895D02*
X164871428Y-84176800D01*
X164871428Y-84176800D02*
X164909523Y-84138704D01*
X164909523Y-84138704D02*
X164947619Y-84062514D01*
X164947619Y-84062514D02*
X164947619Y-83414895D01*
X165671428Y-83681561D02*
X165671428Y-84214895D01*
X165480952Y-83376800D02*
X165290475Y-83948228D01*
X165290475Y-83948228D02*
X165785714Y-83948228D01*
X168416667Y-106507395D02*
X168150000Y-106126442D01*
X167959524Y-106507395D02*
X167959524Y-105707395D01*
X167959524Y-105707395D02*
X168264286Y-105707395D01*
X168264286Y-105707395D02*
X168340476Y-105745490D01*
X168340476Y-105745490D02*
X168378571Y-105783585D01*
X168378571Y-105783585D02*
X168416667Y-105859776D01*
X168416667Y-105859776D02*
X168416667Y-105974061D01*
X168416667Y-105974061D02*
X168378571Y-106050252D01*
X168378571Y-106050252D02*
X168340476Y-106088347D01*
X168340476Y-106088347D02*
X168264286Y-106126442D01*
X168264286Y-106126442D02*
X167959524Y-106126442D01*
X169178571Y-106507395D02*
X168721428Y-106507395D01*
X168950000Y-106507395D02*
X168950000Y-105707395D01*
X168950000Y-105707395D02*
X168873809Y-105821680D01*
X168873809Y-105821680D02*
X168797619Y-105897871D01*
X168797619Y-105897871D02*
X168721428Y-105935966D01*
X160435714Y-77488704D02*
X160397618Y-77526800D01*
X160397618Y-77526800D02*
X160283333Y-77564895D01*
X160283333Y-77564895D02*
X160207142Y-77564895D01*
X160207142Y-77564895D02*
X160092856Y-77526800D01*
X160092856Y-77526800D02*
X160016666Y-77450609D01*
X160016666Y-77450609D02*
X159978571Y-77374419D01*
X159978571Y-77374419D02*
X159940475Y-77222038D01*
X159940475Y-77222038D02*
X159940475Y-77107752D01*
X159940475Y-77107752D02*
X159978571Y-76955371D01*
X159978571Y-76955371D02*
X160016666Y-76879180D01*
X160016666Y-76879180D02*
X160092856Y-76802990D01*
X160092856Y-76802990D02*
X160207142Y-76764895D01*
X160207142Y-76764895D02*
X160283333Y-76764895D01*
X160283333Y-76764895D02*
X160397618Y-76802990D01*
X160397618Y-76802990D02*
X160435714Y-76841085D01*
X161197618Y-77564895D02*
X160740475Y-77564895D01*
X160969047Y-77564895D02*
X160969047Y-76764895D01*
X160969047Y-76764895D02*
X160892856Y-76879180D01*
X160892856Y-76879180D02*
X160816666Y-76955371D01*
X160816666Y-76955371D02*
X160740475Y-76993466D01*
X161464285Y-76764895D02*
X161959523Y-76764895D01*
X161959523Y-76764895D02*
X161692857Y-77069657D01*
X161692857Y-77069657D02*
X161807142Y-77069657D01*
X161807142Y-77069657D02*
X161883333Y-77107752D01*
X161883333Y-77107752D02*
X161921428Y-77145847D01*
X161921428Y-77145847D02*
X161959523Y-77222038D01*
X161959523Y-77222038D02*
X161959523Y-77412514D01*
X161959523Y-77412514D02*
X161921428Y-77488704D01*
X161921428Y-77488704D02*
X161883333Y-77526800D01*
X161883333Y-77526800D02*
X161807142Y-77564895D01*
X161807142Y-77564895D02*
X161578571Y-77564895D01*
X161578571Y-77564895D02*
X161502380Y-77526800D01*
X161502380Y-77526800D02*
X161464285Y-77488704D01*
X158266667Y-70388704D02*
X158228571Y-70426800D01*
X158228571Y-70426800D02*
X158114286Y-70464895D01*
X158114286Y-70464895D02*
X158038095Y-70464895D01*
X158038095Y-70464895D02*
X157923809Y-70426800D01*
X157923809Y-70426800D02*
X157847619Y-70350609D01*
X157847619Y-70350609D02*
X157809524Y-70274419D01*
X157809524Y-70274419D02*
X157771428Y-70122038D01*
X157771428Y-70122038D02*
X157771428Y-70007752D01*
X157771428Y-70007752D02*
X157809524Y-69855371D01*
X157809524Y-69855371D02*
X157847619Y-69779180D01*
X157847619Y-69779180D02*
X157923809Y-69702990D01*
X157923809Y-69702990D02*
X158038095Y-69664895D01*
X158038095Y-69664895D02*
X158114286Y-69664895D01*
X158114286Y-69664895D02*
X158228571Y-69702990D01*
X158228571Y-69702990D02*
X158266667Y-69741085D01*
X158952381Y-69664895D02*
X158800000Y-69664895D01*
X158800000Y-69664895D02*
X158723809Y-69702990D01*
X158723809Y-69702990D02*
X158685714Y-69741085D01*
X158685714Y-69741085D02*
X158609524Y-69855371D01*
X158609524Y-69855371D02*
X158571428Y-70007752D01*
X158571428Y-70007752D02*
X158571428Y-70312514D01*
X158571428Y-70312514D02*
X158609524Y-70388704D01*
X158609524Y-70388704D02*
X158647619Y-70426800D01*
X158647619Y-70426800D02*
X158723809Y-70464895D01*
X158723809Y-70464895D02*
X158876190Y-70464895D01*
X158876190Y-70464895D02*
X158952381Y-70426800D01*
X158952381Y-70426800D02*
X158990476Y-70388704D01*
X158990476Y-70388704D02*
X159028571Y-70312514D01*
X159028571Y-70312514D02*
X159028571Y-70122038D01*
X159028571Y-70122038D02*
X158990476Y-70045847D01*
X158990476Y-70045847D02*
X158952381Y-70007752D01*
X158952381Y-70007752D02*
X158876190Y-69969657D01*
X158876190Y-69969657D02*
X158723809Y-69969657D01*
X158723809Y-69969657D02*
X158647619Y-70007752D01*
X158647619Y-70007752D02*
X158609524Y-70045847D01*
X158609524Y-70045847D02*
X158571428Y-70122038D01*
X165766667Y-76088704D02*
X165728571Y-76126800D01*
X165728571Y-76126800D02*
X165614286Y-76164895D01*
X165614286Y-76164895D02*
X165538095Y-76164895D01*
X165538095Y-76164895D02*
X165423809Y-76126800D01*
X165423809Y-76126800D02*
X165347619Y-76050609D01*
X165347619Y-76050609D02*
X165309524Y-75974419D01*
X165309524Y-75974419D02*
X165271428Y-75822038D01*
X165271428Y-75822038D02*
X165271428Y-75707752D01*
X165271428Y-75707752D02*
X165309524Y-75555371D01*
X165309524Y-75555371D02*
X165347619Y-75479180D01*
X165347619Y-75479180D02*
X165423809Y-75402990D01*
X165423809Y-75402990D02*
X165538095Y-75364895D01*
X165538095Y-75364895D02*
X165614286Y-75364895D01*
X165614286Y-75364895D02*
X165728571Y-75402990D01*
X165728571Y-75402990D02*
X165766667Y-75441085D01*
X166147619Y-76164895D02*
X166300000Y-76164895D01*
X166300000Y-76164895D02*
X166376190Y-76126800D01*
X166376190Y-76126800D02*
X166414286Y-76088704D01*
X166414286Y-76088704D02*
X166490476Y-75974419D01*
X166490476Y-75974419D02*
X166528571Y-75822038D01*
X166528571Y-75822038D02*
X166528571Y-75517276D01*
X166528571Y-75517276D02*
X166490476Y-75441085D01*
X166490476Y-75441085D02*
X166452381Y-75402990D01*
X166452381Y-75402990D02*
X166376190Y-75364895D01*
X166376190Y-75364895D02*
X166223809Y-75364895D01*
X166223809Y-75364895D02*
X166147619Y-75402990D01*
X166147619Y-75402990D02*
X166109524Y-75441085D01*
X166109524Y-75441085D02*
X166071428Y-75517276D01*
X166071428Y-75517276D02*
X166071428Y-75707752D01*
X166071428Y-75707752D02*
X166109524Y-75783942D01*
X166109524Y-75783942D02*
X166147619Y-75822038D01*
X166147619Y-75822038D02*
X166223809Y-75860133D01*
X166223809Y-75860133D02*
X166376190Y-75860133D01*
X166376190Y-75860133D02*
X166452381Y-75822038D01*
X166452381Y-75822038D02*
X166490476Y-75783942D01*
X166490476Y-75783942D02*
X166528571Y-75707752D01*
X147290476Y-81914895D02*
X147290476Y-82562514D01*
X147290476Y-82562514D02*
X147328571Y-82638704D01*
X147328571Y-82638704D02*
X147366666Y-82676800D01*
X147366666Y-82676800D02*
X147442857Y-82714895D01*
X147442857Y-82714895D02*
X147595238Y-82714895D01*
X147595238Y-82714895D02*
X147671428Y-82676800D01*
X147671428Y-82676800D02*
X147709523Y-82638704D01*
X147709523Y-82638704D02*
X147747619Y-82562514D01*
X147747619Y-82562514D02*
X147747619Y-81914895D01*
X148509523Y-81914895D02*
X148128571Y-81914895D01*
X148128571Y-81914895D02*
X148090475Y-82295847D01*
X148090475Y-82295847D02*
X148128571Y-82257752D01*
X148128571Y-82257752D02*
X148204761Y-82219657D01*
X148204761Y-82219657D02*
X148395237Y-82219657D01*
X148395237Y-82219657D02*
X148471428Y-82257752D01*
X148471428Y-82257752D02*
X148509523Y-82295847D01*
X148509523Y-82295847D02*
X148547618Y-82372038D01*
X148547618Y-82372038D02*
X148547618Y-82562514D01*
X148547618Y-82562514D02*
X148509523Y-82638704D01*
X148509523Y-82638704D02*
X148471428Y-82676800D01*
X148471428Y-82676800D02*
X148395237Y-82714895D01*
X148395237Y-82714895D02*
X148204761Y-82714895D01*
X148204761Y-82714895D02*
X148128571Y-82676800D01*
X148128571Y-82676800D02*
X148090475Y-82638704D01*
X150966667Y-70088704D02*
X150928571Y-70126800D01*
X150928571Y-70126800D02*
X150814286Y-70164895D01*
X150814286Y-70164895D02*
X150738095Y-70164895D01*
X150738095Y-70164895D02*
X150623809Y-70126800D01*
X150623809Y-70126800D02*
X150547619Y-70050609D01*
X150547619Y-70050609D02*
X150509524Y-69974419D01*
X150509524Y-69974419D02*
X150471428Y-69822038D01*
X150471428Y-69822038D02*
X150471428Y-69707752D01*
X150471428Y-69707752D02*
X150509524Y-69555371D01*
X150509524Y-69555371D02*
X150547619Y-69479180D01*
X150547619Y-69479180D02*
X150623809Y-69402990D01*
X150623809Y-69402990D02*
X150738095Y-69364895D01*
X150738095Y-69364895D02*
X150814286Y-69364895D01*
X150814286Y-69364895D02*
X150928571Y-69402990D01*
X150928571Y-69402990D02*
X150966667Y-69441085D01*
X151652381Y-69631561D02*
X151652381Y-70164895D01*
X151461905Y-69326800D02*
X151271428Y-69898228D01*
X151271428Y-69898228D02*
X151766667Y-69898228D01*
X136566667Y-67388704D02*
X136528571Y-67426800D01*
X136528571Y-67426800D02*
X136414286Y-67464895D01*
X136414286Y-67464895D02*
X136338095Y-67464895D01*
X136338095Y-67464895D02*
X136223809Y-67426800D01*
X136223809Y-67426800D02*
X136147619Y-67350609D01*
X136147619Y-67350609D02*
X136109524Y-67274419D01*
X136109524Y-67274419D02*
X136071428Y-67122038D01*
X136071428Y-67122038D02*
X136071428Y-67007752D01*
X136071428Y-67007752D02*
X136109524Y-66855371D01*
X136109524Y-66855371D02*
X136147619Y-66779180D01*
X136147619Y-66779180D02*
X136223809Y-66702990D01*
X136223809Y-66702990D02*
X136338095Y-66664895D01*
X136338095Y-66664895D02*
X136414286Y-66664895D01*
X136414286Y-66664895D02*
X136528571Y-66702990D01*
X136528571Y-66702990D02*
X136566667Y-66741085D01*
X137328571Y-67464895D02*
X136871428Y-67464895D01*
X137100000Y-67464895D02*
X137100000Y-66664895D01*
X137100000Y-66664895D02*
X137023809Y-66779180D01*
X137023809Y-66779180D02*
X136947619Y-66855371D01*
X136947619Y-66855371D02*
X136871428Y-66893466D01*
X153264895Y-97283332D02*
X152883942Y-97549999D01*
X153264895Y-97740475D02*
X152464895Y-97740475D01*
X152464895Y-97740475D02*
X152464895Y-97435713D01*
X152464895Y-97435713D02*
X152502990Y-97359523D01*
X152502990Y-97359523D02*
X152541085Y-97321428D01*
X152541085Y-97321428D02*
X152617276Y-97283332D01*
X152617276Y-97283332D02*
X152731561Y-97283332D01*
X152731561Y-97283332D02*
X152807752Y-97321428D01*
X152807752Y-97321428D02*
X152845847Y-97359523D01*
X152845847Y-97359523D02*
X152883942Y-97435713D01*
X152883942Y-97435713D02*
X152883942Y-97740475D01*
X152464895Y-96597618D02*
X152464895Y-96749999D01*
X152464895Y-96749999D02*
X152502990Y-96826190D01*
X152502990Y-96826190D02*
X152541085Y-96864285D01*
X152541085Y-96864285D02*
X152655371Y-96940475D01*
X152655371Y-96940475D02*
X152807752Y-96978571D01*
X152807752Y-96978571D02*
X153112514Y-96978571D01*
X153112514Y-96978571D02*
X153188704Y-96940475D01*
X153188704Y-96940475D02*
X153226800Y-96902380D01*
X153226800Y-96902380D02*
X153264895Y-96826190D01*
X153264895Y-96826190D02*
X153264895Y-96673809D01*
X153264895Y-96673809D02*
X153226800Y-96597618D01*
X153226800Y-96597618D02*
X153188704Y-96559523D01*
X153188704Y-96559523D02*
X153112514Y-96521428D01*
X153112514Y-96521428D02*
X152922038Y-96521428D01*
X152922038Y-96521428D02*
X152845847Y-96559523D01*
X152845847Y-96559523D02*
X152807752Y-96597618D01*
X152807752Y-96597618D02*
X152769657Y-96673809D01*
X152769657Y-96673809D02*
X152769657Y-96826190D01*
X152769657Y-96826190D02*
X152807752Y-96902380D01*
X152807752Y-96902380D02*
X152845847Y-96940475D01*
X152845847Y-96940475D02*
X152922038Y-96978571D01*
X146364895Y-97314285D02*
X145983942Y-97580952D01*
X146364895Y-97771428D02*
X145564895Y-97771428D01*
X145564895Y-97771428D02*
X145564895Y-97466666D01*
X145564895Y-97466666D02*
X145602990Y-97390476D01*
X145602990Y-97390476D02*
X145641085Y-97352381D01*
X145641085Y-97352381D02*
X145717276Y-97314285D01*
X145717276Y-97314285D02*
X145831561Y-97314285D01*
X145831561Y-97314285D02*
X145907752Y-97352381D01*
X145907752Y-97352381D02*
X145945847Y-97390476D01*
X145945847Y-97390476D02*
X145983942Y-97466666D01*
X145983942Y-97466666D02*
X145983942Y-97771428D01*
X146364895Y-96552381D02*
X146364895Y-97009524D01*
X146364895Y-96780952D02*
X145564895Y-96780952D01*
X145564895Y-96780952D02*
X145679180Y-96857143D01*
X145679180Y-96857143D02*
X145755371Y-96933333D01*
X145755371Y-96933333D02*
X145793466Y-97009524D01*
X145564895Y-96285714D02*
X145564895Y-95752380D01*
X145564895Y-95752380D02*
X146364895Y-96095238D01*
D13*
X145950000Y-86380000D02*
X144650000Y-86380000D01*
X145950000Y-89820000D02*
X144650000Y-89820000D01*
D14*
X143900000Y-86900000D02*
G75*
G03*
X143900000Y-86900000I-100000J0D01*
G01*
D13*
X129050000Y-81175000D02*
X122050000Y-81175000D01*
D15*
X122050000Y-81175000D02*
X122050000Y-82275000D01*
D13*
X129050000Y-82275000D02*
X129050000Y-81175000D01*
D15*
X122050000Y-97475000D02*
X122050000Y-98575000D01*
D13*
X129050000Y-98565000D02*
X129050000Y-97475000D01*
X122050000Y-98575000D02*
X129050000Y-98575000D01*
D14*
X130500000Y-81875000D02*
G75*
G03*
X130500000Y-81875000I-100000J0D01*
G01*
D15*
X129140000Y-105350000D02*
X129140000Y-107025000D01*
X129140000Y-105350000D02*
X129140000Y-104700000D01*
X132260000Y-105350000D02*
X132260000Y-106000000D01*
X132260000Y-105350000D02*
X132260000Y-104700000D01*
X134462742Y-83077500D02*
X134937258Y-83077500D01*
X134462742Y-84122500D02*
X134937258Y-84122500D01*
X169637258Y-97935000D02*
X169162742Y-97935000D01*
X169637258Y-96890000D02*
X169162742Y-96890000D01*
X139127500Y-88187258D02*
X139127500Y-87712742D01*
X140172500Y-88187258D02*
X140172500Y-87712742D01*
X163977500Y-98587258D02*
X163977500Y-98112742D01*
X165022500Y-98587258D02*
X165022500Y-98112742D01*
X167877500Y-94087258D02*
X167877500Y-93612742D01*
X168922500Y-94087258D02*
X168922500Y-93612742D01*
X136272500Y-74512742D02*
X136272500Y-74987258D01*
X135227500Y-74512742D02*
X135227500Y-74987258D01*
X168887742Y-82727500D02*
X169362258Y-82727500D01*
X168887742Y-83772500D02*
X169362258Y-83772500D01*
X161277500Y-98587258D02*
X161277500Y-98112742D01*
X162322500Y-98587258D02*
X162322500Y-98112742D01*
X137700242Y-93290000D02*
X138174758Y-93290000D01*
X137700242Y-94335000D02*
X138174758Y-94335000D01*
X134812742Y-76627500D02*
X135287258Y-76627500D01*
X134812742Y-77672500D02*
X135287258Y-77672500D01*
X133477500Y-79737258D02*
X133477500Y-79262742D01*
X134522500Y-79737258D02*
X134522500Y-79262742D01*
X159877500Y-94087258D02*
X159877500Y-93612742D01*
X160922500Y-94087258D02*
X160922500Y-93612742D01*
X160590000Y-74700000D02*
X160590000Y-68690000D01*
X167410000Y-72450000D02*
X167410000Y-68690000D01*
X160590000Y-68690000D02*
X161850000Y-68690000D01*
X167410000Y-68690000D02*
X166150000Y-68690000D01*
X164477500Y-94087258D02*
X164477500Y-93612742D01*
X165522500Y-94087258D02*
X165522500Y-93612742D01*
X146772500Y-79012742D02*
X146772500Y-79487258D01*
X145727500Y-79012742D02*
X145727500Y-79487258D01*
X170860000Y-101912500D02*
X170860000Y-100237500D01*
X170860000Y-101912500D02*
X170860000Y-102562500D01*
X167740000Y-101912500D02*
X167740000Y-101262500D01*
X167740000Y-101912500D02*
X167740000Y-102562500D01*
X162690000Y-79111252D02*
X162690000Y-77688748D01*
X164510000Y-79111252D02*
X164510000Y-77688748D01*
X137440000Y-88090580D02*
X137440000Y-87809420D01*
X138460000Y-88090580D02*
X138460000Y-87809420D01*
X161365000Y-95335000D02*
X162835000Y-95335000D01*
X162835000Y-95335000D02*
X162835000Y-93050000D01*
X161365000Y-93050000D02*
X161365000Y-95335000D01*
X151487258Y-82072500D02*
X151012742Y-82072500D01*
X151487258Y-81027500D02*
X151012742Y-81027500D01*
X141890000Y-74700000D02*
X141890000Y-68690000D01*
X148710000Y-72450000D02*
X148710000Y-68690000D01*
X141890000Y-68690000D02*
X143150000Y-68690000D01*
X148710000Y-68690000D02*
X147450000Y-68690000D01*
X139240580Y-77060000D02*
X138959420Y-77060000D01*
X139240580Y-76040000D02*
X138959420Y-76040000D01*
X135290000Y-79640580D02*
X135290000Y-79359420D01*
X136310000Y-79640580D02*
X136310000Y-79359420D01*
X128970000Y-74620000D02*
X130300000Y-74620000D01*
X128970000Y-75950000D02*
X128970000Y-74620000D01*
X128970000Y-77220000D02*
X128970000Y-77280000D01*
X128970000Y-77220000D02*
X131630000Y-77220000D01*
X128970000Y-77280000D02*
X131630000Y-77280000D01*
X131630000Y-77220000D02*
X131630000Y-77280000D01*
X141727500Y-79487258D02*
X141727500Y-79012742D01*
X142772500Y-79487258D02*
X142772500Y-79012742D01*
X140672500Y-84262742D02*
X140672500Y-84737258D01*
X139627500Y-84262742D02*
X139627500Y-84737258D01*
X159230000Y-77070000D02*
X159230000Y-78400000D01*
X157900000Y-77070000D02*
X159230000Y-77070000D01*
X156630000Y-77070000D02*
X148950000Y-77070000D01*
X156630000Y-77070000D02*
X156630000Y-79730000D01*
X148950000Y-77070000D02*
X148950000Y-79730000D01*
X156630000Y-79730000D02*
X148950000Y-79730000D01*
X137700242Y-91640000D02*
X138174758Y-91640000D01*
X137700242Y-92685000D02*
X138174758Y-92685000D01*
X147177500Y-99687258D02*
X147177500Y-99212742D01*
X148222500Y-99687258D02*
X148222500Y-99212742D01*
X148877500Y-99687258D02*
X148877500Y-99212742D01*
X149922500Y-99687258D02*
X149922500Y-99212742D01*
X150677500Y-99687258D02*
X150677500Y-99212742D01*
X151722500Y-99687258D02*
X151722500Y-99212742D01*
X137725242Y-96727500D02*
X138199758Y-96727500D01*
X137725242Y-97772500D02*
X138199758Y-97772500D01*
X169162742Y-98590000D02*
X169637258Y-98590000D01*
X169162742Y-99635000D02*
X169637258Y-99635000D01*
X139000000Y-77940000D02*
X137200000Y-77940000D01*
X139000000Y-77940000D02*
X139800000Y-77940000D01*
X139000000Y-81060000D02*
X138200000Y-81060000D01*
X139000000Y-81060000D02*
X139800000Y-81060000D01*
X133990000Y-88561252D02*
X133990000Y-87138748D01*
X136710000Y-88561252D02*
X136710000Y-87138748D01*
X137700242Y-94990000D02*
X138174758Y-94990000D01*
X137700242Y-96035000D02*
X138174758Y-96035000D01*
X143515000Y-79261252D02*
X143515000Y-78738748D01*
X144985000Y-79261252D02*
X144985000Y-78738748D01*
X154900000Y-71440000D02*
X153225000Y-71440000D01*
X154900000Y-71440000D02*
X155550000Y-71440000D01*
X154900000Y-74560000D02*
X154250000Y-74560000D01*
X154900000Y-74560000D02*
X155550000Y-74560000D01*
X134505000Y-102809669D02*
X165475000Y-102809669D01*
X134505000Y-115149669D02*
X134505000Y-102809669D01*
X144200000Y-101915331D02*
X144700000Y-101915331D01*
X144450000Y-102348344D02*
X144200000Y-101915331D01*
X144700000Y-101915331D02*
X144450000Y-102348344D01*
X165475000Y-102809669D02*
X165475000Y-115149669D01*
X145390580Y-84860000D02*
X145109420Y-84860000D01*
X145390580Y-83840000D02*
X145109420Y-83840000D01*
X167222500Y-93612742D02*
X167222500Y-94087258D01*
X166177500Y-93612742D02*
X166177500Y-94087258D01*
X170910000Y-87209420D02*
X170910000Y-87490580D01*
X169890000Y-87209420D02*
X169890000Y-87490580D01*
X140485000Y-69238748D02*
X140485000Y-69761252D01*
X139015000Y-69238748D02*
X139015000Y-69761252D01*
X165800000Y-84690000D02*
X162350000Y-84690000D01*
X165800000Y-84690000D02*
X167750000Y-84690000D01*
X165800000Y-89810000D02*
X163850000Y-89810000D01*
X165800000Y-89810000D02*
X167750000Y-89810000D01*
X168787258Y-105235000D02*
X168312742Y-105235000D01*
X168787258Y-104190000D02*
X168312742Y-104190000D01*
X161110000Y-79059420D02*
X161110000Y-79340580D01*
X160090000Y-79059420D02*
X160090000Y-79340580D01*
X159410000Y-72288748D02*
X159410000Y-73711252D01*
X157590000Y-72288748D02*
X157590000Y-73711252D01*
X165390000Y-77940580D02*
X165390000Y-77659420D01*
X166410000Y-77940580D02*
X166410000Y-77659420D01*
X148520000Y-83990000D02*
X148520000Y-84440000D01*
X148520000Y-84440000D02*
X147230000Y-84440000D01*
X148520000Y-91210000D02*
X148520000Y-90760000D01*
X148970000Y-83990000D02*
X148520000Y-83990000D01*
X148970000Y-91210000D02*
X148520000Y-91210000D01*
X155290000Y-83990000D02*
X155740000Y-83990000D01*
X155290000Y-91210000D02*
X155740000Y-91210000D01*
X155740000Y-83990000D02*
X155740000Y-84440000D01*
X155740000Y-91210000D02*
X155740000Y-90760000D01*
X152110000Y-71988748D02*
X152110000Y-73411252D01*
X150290000Y-71988748D02*
X150290000Y-73411252D01*
X138110000Y-69288748D02*
X138110000Y-70711252D01*
X135390000Y-69288748D02*
X135390000Y-70711252D01*
X152377500Y-99687258D02*
X152377500Y-99212742D01*
X153422500Y-99687258D02*
X153422500Y-99212742D01*
X146522500Y-99212742D02*
X146522500Y-99687258D01*
X145477500Y-99212742D02*
X145477500Y-99687258D01*
%LPC*%
D16*
X145300000Y-86900000D03*
X145300000Y-88100000D03*
X145300000Y-89300000D03*
D17*
X129650000Y-83625000D03*
D18*
X129650000Y-86125000D03*
X129650000Y-88625000D03*
X129650000Y-91165000D03*
X129650000Y-93705000D03*
X129650000Y-96245000D03*
D19*
X129750000Y-106287500D03*
X131650000Y-106287500D03*
X130700000Y-104412500D03*
D20*
X133875000Y-83600000D03*
X135525000Y-83600000D03*
D21*
X170225000Y-97412500D03*
X168575000Y-97412500D03*
D22*
X139650000Y-88775000D03*
X139650000Y-87125000D03*
D23*
X128800000Y-112000000D03*
D22*
X164500000Y-99175000D03*
X164500000Y-97525000D03*
D23*
X170800000Y-112000000D03*
D22*
X168400000Y-94675000D03*
X168400000Y-93025000D03*
D24*
X135750000Y-73925000D03*
X135750000Y-75575000D03*
D20*
X168300000Y-83250000D03*
X169950000Y-83250000D03*
D22*
X161800000Y-99175000D03*
X161800000Y-97525000D03*
D20*
X137112500Y-93812500D03*
X138762500Y-93812500D03*
X134225000Y-77150000D03*
X135875000Y-77150000D03*
D22*
X134000000Y-80325000D03*
X134000000Y-78675000D03*
X160400000Y-94675000D03*
X160400000Y-93025000D03*
D25*
X161700000Y-73750000D03*
X164000000Y-73750000D03*
X166300000Y-73750000D03*
D26*
X164000000Y-67450000D03*
D22*
X165000000Y-94675000D03*
X165000000Y-93025000D03*
D24*
X146250000Y-78425000D03*
X146250000Y-80075000D03*
D27*
X170250000Y-100975000D03*
X168350000Y-100975000D03*
X169300000Y-102850000D03*
D28*
X163600000Y-79875000D03*
X163600000Y-76925000D03*
D29*
X137950000Y-88725000D03*
X137950000Y-87175000D03*
D30*
X162100000Y-94637500D03*
X162100000Y-93062500D03*
D21*
X152075000Y-81550000D03*
X150425000Y-81550000D03*
D25*
X143000000Y-73750000D03*
X145300000Y-73750000D03*
X147600000Y-73750000D03*
D26*
X145300000Y-67450000D03*
D31*
X139875000Y-76550000D03*
X138325000Y-76550000D03*
D29*
X135800000Y-80275000D03*
X135800000Y-78725000D03*
D32*
X130300000Y-75950000D03*
D22*
X142250000Y-80075000D03*
X142250000Y-78425000D03*
D24*
X140150000Y-83675000D03*
X140150000Y-85325000D03*
D32*
X157900000Y-78400000D03*
D33*
X155360000Y-78400000D03*
X152820000Y-78400000D03*
X150280000Y-78400000D03*
D20*
X137112500Y-92162500D03*
X138762500Y-92162500D03*
D22*
X147700000Y-100275000D03*
X147700000Y-98625000D03*
D23*
X170800000Y-68000000D03*
D22*
X149400000Y-100275000D03*
X149400000Y-98625000D03*
X151200000Y-100275000D03*
X151200000Y-98625000D03*
D20*
X137137500Y-97250000D03*
X138787500Y-97250000D03*
X168575000Y-99112500D03*
X170225000Y-99112500D03*
D34*
X137862500Y-78550000D03*
X137862500Y-79500000D03*
X137862500Y-80450000D03*
X140137500Y-80450000D03*
X140137500Y-78550000D03*
D35*
X135350000Y-89325000D03*
X135350000Y-86375000D03*
D20*
X137112500Y-95512500D03*
X138762500Y-95512500D03*
D36*
X144250000Y-79950000D03*
X144250000Y-78050000D03*
D37*
X153962500Y-72050000D03*
X153962500Y-73950000D03*
X155837500Y-73000000D03*
D38*
X137490000Y-106089669D03*
X162490000Y-106089669D03*
D39*
X144450000Y-104669669D03*
D40*
X147220000Y-104669669D03*
X149990000Y-104669669D03*
X152760000Y-104669669D03*
X155530000Y-104669669D03*
X145835000Y-107509669D03*
X148605000Y-107509669D03*
X151375000Y-107509669D03*
X154145000Y-107509669D03*
D31*
X146025000Y-84350000D03*
X144475000Y-84350000D03*
D24*
X166700000Y-93025000D03*
X166700000Y-94675000D03*
D41*
X170400000Y-86575000D03*
X170400000Y-88125000D03*
D42*
X139750000Y-68550000D03*
X139750000Y-70450000D03*
D43*
X163325000Y-85345000D03*
X163325000Y-86615000D03*
X163325000Y-87885000D03*
X163325000Y-89155000D03*
X168275000Y-89155000D03*
X168275000Y-87885000D03*
X168275000Y-86615000D03*
X168275000Y-85345000D03*
D21*
X169375000Y-104712500D03*
X167725000Y-104712500D03*
D41*
X160600000Y-78425000D03*
X160600000Y-79975000D03*
D44*
X158500000Y-71525000D03*
X158500000Y-74475000D03*
D29*
X165900000Y-78575000D03*
X165900000Y-77025000D03*
D45*
X147967500Y-84850000D03*
X147967500Y-85350000D03*
X147967500Y-85850000D03*
X147967500Y-86350000D03*
X147967500Y-86850000D03*
X147967500Y-87350000D03*
X147967500Y-87850000D03*
X147967500Y-88350000D03*
X147967500Y-88850000D03*
X147967500Y-89350000D03*
X147967500Y-89850000D03*
X147967500Y-90350000D03*
D46*
X149380000Y-91762500D03*
X149880000Y-91762500D03*
X150380000Y-91762500D03*
X150880000Y-91762500D03*
X151380000Y-91762500D03*
X151880000Y-91762500D03*
X152380000Y-91762500D03*
X152880000Y-91762500D03*
X153380000Y-91762500D03*
X153880000Y-91762500D03*
X154380000Y-91762500D03*
X154880000Y-91762500D03*
D45*
X156292500Y-90350000D03*
X156292500Y-89850000D03*
X156292500Y-89350000D03*
X156292500Y-88850000D03*
X156292500Y-88350000D03*
X156292500Y-87850000D03*
X156292500Y-87350000D03*
X156292500Y-86850000D03*
X156292500Y-86350000D03*
X156292500Y-85850000D03*
X156292500Y-85350000D03*
X156292500Y-84850000D03*
D46*
X154880000Y-83437500D03*
X154380000Y-83437500D03*
X153880000Y-83437500D03*
X153380000Y-83437500D03*
X152880000Y-83437500D03*
X152380000Y-83437500D03*
X151880000Y-83437500D03*
X151380000Y-83437500D03*
X150880000Y-83437500D03*
X150380000Y-83437500D03*
X149880000Y-83437500D03*
X149380000Y-83437500D03*
D44*
X151200000Y-71225000D03*
X151200000Y-74175000D03*
D47*
X136750000Y-68525000D03*
X136750000Y-71475000D03*
D23*
X128800000Y-68000000D03*
D22*
X152900000Y-100275000D03*
X152900000Y-98625000D03*
D24*
X146000000Y-98625000D03*
X146000000Y-100275000D03*
%LPD*%
M02*
